<svg width="34" height="34" viewBox="0 0 34 34" fill="none" xmlns="http://www.w3.org/2000/svg">
<path d="M28.5323 13.0847C29.2557 13.0961 29.8404 13.5908 29.9294 14.2575L29.9294 14.2576C30.0216 14.9499 29.6602 15.572 29.0019 15.7814L28.997 15.783L28.9969 15.7829C28.823 15.8316 28.6428 15.8543 28.4622 15.8503H28.4473H28.4306H28.4139H28.3973H28.3806H28.3639H28.3472H28.3306H28.3139H28.2972H28.2805H28.2639H28.2472H28.2305H28.2138H28.1972H28.1805H28.1638H28.1471H28.1305H28.1138H28.0971H28.0804H28.0638H28.0471H28.0304H28.0137H27.9971H27.9804H27.9637H27.9471H27.9304H27.9137H27.897H27.8804H27.8637H27.847H27.8303H27.8137H27.797H27.7803H27.7636H27.747H27.7303H27.7136H27.6969H27.6803H27.6636H27.6469H27.6302H27.6136H27.5969H27.5802H27.5635H27.5469H27.5302H27.5135H27.4968H27.4802H27.4635H27.4468H27.4301H27.4135H27.3968H27.3801H27.3634H27.3468H27.3301H27.3134H27.2967H27.2801H27.2634H27.2467H27.23H27.2134H27.1967H27.18H27.1633H27.1467H27.13H27.1133H27.0967H27.08H27.0633H27.0466H27.03H27.0133H26.9966H26.9799H26.9633H26.9466H26.9299H26.9132H26.8966H26.8799H26.8632H26.8465H26.8299H26.8132H26.7965H26.7798H26.7632H26.7465H26.7298H26.7131H26.6965H26.6798H26.6631H26.6464H26.6298H26.6131H26.5964H26.5797H26.5631H26.5464H26.5297H26.513H26.4964H26.4797H26.463H26.4463H26.4297H26.413H26.3963H26.3796H26.363H26.3463H26.3296H26.3129H26.2963H26.2796H26.2629H26.2463H26.2296H26.2129H26.1962H26.1796H26.1629H26.1462H26.1295H26.1129H26.0962H26.0795H26.0628H26.0462H26.0295H26.0128H25.9961H25.9795H25.9628H25.9461H25.9294L25.9128 15.8503H25.8961H25.8794H25.8627H25.8461H25.8294H25.8127H25.796H25.7794H25.7627H25.746H25.7293H25.7127H25.696H25.6793H25.6626H25.646H25.6293H25.6126H25.5959H25.5793H25.5626H25.5459H25.5292H25.5126H25.4959H25.4792H25.4625H25.4459H25.4292H25.4125H25.3959H25.3792H25.3625H25.3458H25.3292H25.3125H25.2958H25.2791H25.2625H25.2458H25.2291H25.2124H25.1958H25.1791H25.1624H25.1457H25.1291H25.1124H25.0957H25.079H25.0624H25.0457H25.029H25.0123H24.9957H24.979H24.9623H24.9456H24.929H24.9123H24.8956H24.8789H24.8623H24.8456H24.8289H24.8122H24.7956H24.7789H24.7622H24.7455H24.7289H24.7122H24.6955H24.6788H24.6622H24.6455H24.6288H24.6122H24.5955H24.5788H24.5621H24.5455H24.5288H24.5121H24.4954H24.4788H24.4621H24.4454H24.4287H24.4121H24.3954H24.3787H24.362H24.3454H24.3287H24.312H24.2953H24.2787H24.262H24.2453H24.2286H24.212H24.1953H24.1786H24.1619H24.1453H24.1286H24.1119H24.0952H24.0786H24.0619H24.0452H24.0285H24.0119H23.9952H23.9785H23.9618H23.9452H23.9285H23.9118H23.8951H23.8785H23.8618H23.8451H23.8284H23.8118H23.7951H23.7784H23.7618H23.7451H23.7284H23.7117H23.6951H23.6784H23.6617H23.645H23.6284H23.6117H23.595H23.5783H23.5617H23.545H23.5283H23.5116H23.495H23.4783H23.4616H23.4449H23.4283H23.4116H23.3949H23.3782H23.3616H23.3449H23.3282H23.3115H23.2949H23.2782H23.2615H23.2448H23.2282H23.2115H23.1948H23.1781H23.1615H23.1448H23.1281H23.1114H23.0948H23.0781H23.0614H23.0447H23.0281H23.0114H22.9947H22.978H22.9614H22.9447H22.928H22.9114H22.8947H22.878H22.8613H22.8447H22.828H22.8113H22.7946H22.778H22.7613H22.7446H22.7279H22.7113H22.6946H22.6779H22.6612H22.6446H22.6279H22.6112H22.5945H22.5779H22.5612H22.5445H22.5278H22.5112H22.4945H22.4778H22.4611H22.4445H22.4278H22.4111H22.3944H22.3778H22.3611H22.3444H22.3277H22.3111H22.2944H22.2777H22.261H22.2444H22.2277H22.211H22.1943H22.1777H22.161H22.1443H22.1276H22.111H22.0943H22.0776H22.061H22.0443H22.0276H22.0109H21.9943H21.9776H21.9609H21.9442H21.9276H21.9109H21.8942H21.8775H21.8609H21.8442H21.8275H21.8108H21.7942H21.7775H21.7608H21.7441H21.7275H21.7108H21.6941H21.6774H21.6608H21.6441H21.6274H21.6107H21.5941H21.5774H21.5607H21.544H21.5274H21.5107H21.494H21.4773H21.4607H21.444H21.4273H21.4106H21.394H21.3773H21.3606H21.3439H21.3273H21.3106H21.2939H21.2772H21.2606H21.2439H21.2272H21.2106H21.1939H21.1772H21.1605H21.1439H21.1272H21.1105H21.0938H21.0772H21.0605H21.0438H21.0271H21.0105H20.9938H20.9771H20.9604H20.9438H20.9271H20.9104H20.8937H20.8771H20.8604H20.8437H20.827H20.8104H20.7937H20.777H20.7603H20.7437H20.727H20.7103H20.6936H20.677H20.6603H20.6436H20.6269H20.6103H20.5936H20.5769H20.5602H20.5436H20.5269H20.5102H20.4935H20.4769H20.4602H20.4435H20.4268H20.4102H20.3935H20.3768H20.3602H20.3435H20.3268H20.3101H20.2935H20.2768H20.2601H20.2434H20.2268H20.2101H20.1934H20.1767H20.1601H20.1434H20.1267H20.11H20.0934H20.0767H20.06H20.0433H20.0267H20.01H19.9933H19.9766H19.96H19.9433H19.9266C19.4773 15.8503 19.1005 15.7153 18.836 15.449C18.5716 15.1829 18.4372 14.8035 18.4372 14.3498C18.4324 11.5169 18.4324 8.68396 18.4372 5.85106C18.4373 5.05735 18.9065 4.46897 19.6388 4.35541L19.6436 4.35466L19.6437 4.35474C19.9679 4.31517 20.2958 4.3907 20.5701 4.56814C20.8444 4.74559 21.0477 5.01368 21.1445 5.32568L21.1476 5.33551L21.1472 5.3356C21.1915 5.52254 21.2105 5.71456 21.2038 5.90654V5.91382V5.92378V5.93374V5.9437V5.95366V5.96363V5.97359V5.98355V5.99351V6.00347V6.01343V6.02339V6.03335V6.04331V6.05328V6.06324V6.0732V6.08316V6.09312V6.10308V6.11304V6.123V6.13296V6.14293V6.15289V6.16285V6.17281V6.18277V6.19273V6.20269V6.21265V6.22261V6.23257V6.24254V6.2525V6.26246V6.27242V6.28238V6.29234V6.3023V6.31226V6.32222V6.33218V6.34214V6.35211V6.36207V6.37203V6.38199V6.39195V6.40191V6.41187V6.42183V6.43179V6.44175V6.45171V6.46167V6.47164V6.4816V6.49156V6.50152V6.51148V6.52144V6.5314V6.54136V6.55132V6.56128V6.57124V6.5812V6.59116V6.60112V6.61109V6.62105V6.63101V6.64097V6.65093V6.66089V6.67085V6.68081V6.69077V6.70073V6.71069V6.72065V6.73061V6.74057V6.75054V6.7605V6.77046V6.78042V6.79038V6.80034V6.8103V6.82026V6.83022V6.84018V6.85014V6.8601V6.87006V6.88002V6.88998V6.89994V6.9099V6.91986V6.92982V6.93978V6.94974V6.9597V6.96967V6.97963V6.98959V6.99955V7.00951V7.01947V7.02943V7.03939V7.04935V7.05931V7.06927V7.07923V7.08919V7.09915V7.10911V7.11907V7.12903V7.13899V7.14895V7.15891V7.16887V7.17883V7.18879V7.19875V7.20871V7.21867V7.22863V7.23859V7.24855V7.25851V7.26847V7.27843V7.28839V7.29835V7.30831V7.31827V7.32823V7.33819V7.34815V7.35811V7.36807V7.37803V7.38799V7.39795V7.40792V7.41788V7.42783V7.43779V7.44775V7.45772V7.46768V7.47764V7.48759V7.49755V7.50751V7.51748V7.52744V7.53739V7.54735V7.55731V7.56728V7.57723V7.58719V7.59715V7.60711V7.61707V7.62703V7.63699V7.64695V7.65691V7.66687V7.67683V7.68679V7.69675V7.70671V7.71667V7.72663V7.73659V7.74655V7.75651V7.76647V7.77643V7.78639V7.79635V7.80631V7.81627V7.82623V7.83619V7.84615V7.85611V7.86607V7.87603V7.88599V7.89595V7.90591V7.91587V7.92583V7.93579V7.94575V7.95571V7.96567V7.97562V7.98558V7.99554V8.0055V8.01546V8.02542V8.03538V8.04534V8.0553V8.06526V8.07522V8.08518V8.09514V8.1051V8.11506V8.12502V8.13498V8.14494V8.1549V8.16486V8.17482V8.18477V8.19473V8.20469V8.21465V8.22461V8.23457V8.24453V8.25449V8.26445V8.27441V8.28437V8.29433V8.30429V8.31425V8.32421V8.33417V8.34412V8.35408V8.36404V8.374V8.38396V8.39392V8.40388V8.41384V8.4238V8.43376V8.44372V8.45368V8.46364V8.4736V8.48355V8.49351V8.50347V8.51343V8.52339V8.53335V8.54331V8.55327V8.56323V8.57319V8.58315V8.5931V8.60306V8.61302V8.62298V8.63294V8.6429V8.65286V8.66282V8.67278V8.68274V8.6927V8.70265V8.71261V8.72257V8.73253V8.74249V8.75245V8.76241V8.77237V8.78233V8.79229V8.80224V8.8122V8.82216V8.83212V8.84208V8.85204V8.862V8.87196V8.88192V8.89187V8.90183V8.91179V8.92175V8.93171V8.94167V8.95163V8.96159V8.97155V8.9815V8.99146V9.00142V9.01138V9.02134V9.0313V9.04126V9.05122V9.06117V9.07113V9.08109V9.09105V9.10101V9.11097V9.12093V9.13089V9.14084V9.1508V9.16076V9.17072V9.18068V9.19064V9.2006V9.21055V9.22051V9.23047V9.24043V9.25039V9.26035V9.27031V9.28026V9.29022V9.30018V9.31014V9.3201V9.33006V9.34002V9.34997V9.35993V9.36989V9.37985V9.38981V9.39977V9.40973V9.41968V9.42964V9.4396V9.44956V9.45952V9.46948V9.47943V9.48939V9.49935V9.50931V9.51927V9.52923V9.53919V9.54914V9.5591V9.56906V9.57902V9.58898V9.59894V9.60889V9.61885V9.62881V9.63877V9.64873V9.65869V9.66864V9.6786V9.68856V9.69852V9.70848V9.71843V9.72839V9.73835V9.74831V9.75827V9.76823V9.77818V9.78814V9.7981V9.80806V9.81802V9.82797V9.83793V9.84789V9.85785V9.86781V9.87777V9.88772V9.89768V9.90764V9.9176V9.92756V9.93751V9.94747V9.95743V9.96739V9.97735V9.9873V9.99726V10.0072V10.0172V10.0271V10.0371V10.0471V10.057V10.067V10.0769V10.0869V10.0968V10.1068V10.1168V10.1267V10.1367V10.1466V10.1566V10.1665V10.1765V10.1865V10.1964V10.2064V10.2163V10.2263V10.2363V10.2462V10.2562V10.2661V10.2761V10.286V10.296V10.306V10.3159V10.3259V10.3358V10.3458V10.3557V10.3657V10.3757V10.3856V10.3956V10.4055V10.4155V10.4254V10.4354V10.4454V10.4553V10.4653V10.4752V10.4852V10.4952V10.5051V10.5151V10.525V10.535V10.5449V10.5549V10.5649V10.5748V10.5848V10.5947V10.6047V10.6146V10.6246V10.6346V10.6445V10.6545V10.6644V10.6744V10.6843V10.6943V10.7043V10.7142V10.7242V10.7341V10.7441V10.754V10.764V10.774V10.7839V10.7939V10.8038V10.8138V10.8237V10.8337V10.8437V10.8536V10.8636V10.8735V10.8835V10.8935V10.9034V10.9134V10.9233V10.9333V10.9432V10.9532V10.9632V10.9731V10.9831V10.993V11.003V11.1922C21.2356 11.128 21.2766 11.059 21.3346 11.0005L21.335 11.0001C24.5168 7.80801 27.7048 4.62208 30.8989 1.44233L30.8992 1.44204C31.1508 1.19295 31.4573 1.00628 31.7941 0.896978L31.7964 0.896211L31.7964 0.896231C32.3471 0.727531 32.9359 1.03625 33.2209 1.51727C33.3664 1.74403 33.4405 2.00928 33.4335 2.27866C33.4264 2.54904 33.3381 2.81101 33.1799 3.0304L33.1785 3.03238L33.1784 3.03237C33.0656 3.18365 32.9386 3.32382 32.7991 3.45099L23.3225 12.9276C23.2671 12.983 23.2052 13.0334 23.1456 13.0795M28.5323 13.0847C28.5323 13.0847 28.5323 13.0847 28.5323 13.0847L28.5299 13.2347L28.5323 13.0847ZM28.5323 13.0847C27.874 13.0743 27.215 13.0762 26.5573 13.0781C26.3004 13.0788 26.0436 13.0795 25.7872 13.0795L23.1456 13.0795M23.1456 13.0795C23.1422 13.0822 23.1389 13.0848 23.1355 13.0874C23.1126 13.1049 23.0907 13.1215 23.0694 13.1376C23.0667 13.1397 23.064 13.1417 23.0614 13.1437L22.9854 13.0278L23.0193 13.0795H23.1456Z" fill="white" stroke="white" stroke-width="0.3"/>
<path d="M5.60001 21.0693H5.59605L5.59605 21.0692C4.8197 21.0487 4.21519 20.4656 4.20745 19.7074C4.20233 19.5231 4.23446 19.3398 4.30192 19.1683C4.36957 18.9963 4.47133 18.8398 4.60107 18.7082C4.73082 18.5766 4.88586 18.4727 5.05686 18.4026C5.22735 18.3328 5.41017 18.2981 5.59438 18.3006C6.62483 18.2937 7.65583 18.296 8.68606 18.2983C9.20107 18.2995 9.71588 18.3006 10.2303 18.3006H10.238H10.2457H10.2534H10.2611H10.2688H10.2765H10.2842H10.2919H10.2996H10.3073H10.315H10.3227H10.3304H10.3381H10.3458H10.3535H10.3612H10.3688H10.3765H10.3842H10.3919H10.3996H10.4073H10.415H10.4227H10.4304H10.4381H10.4458H10.4535H10.4612H10.4689H10.4766H10.4843H10.492H10.4997H10.5074H10.5151H10.5228H10.5305H10.5382H10.5458H10.5535H10.5612H10.5689H10.5766H10.5843H10.592H10.5997H10.6074H10.6151H10.6228H10.6305H10.6382H10.6459H10.6536H10.6613H10.669H10.6767H10.6844H10.6921H10.6998H10.7075H10.7152H10.7228H10.7305H10.7382H10.7459H10.7536H10.7613H10.769H10.7767H10.7844H10.7921H10.7998H10.8075H10.8152H10.8229H10.8306H10.8383H10.846H10.8537H10.8614H10.8691H10.8768H10.8845H10.8922H10.8999H10.9075H10.9152H10.9229H10.9306H10.9383H10.946H10.9537H10.9614H10.9691H10.9768H10.9845H10.9922H10.9999H11.0076H11.0153H11.023H11.0307H11.0384H11.0461H11.0538H11.0615H11.0692H11.0769H11.0846H11.0923H11.1H11.1076H11.1153H11.123H11.1307H11.1384H11.1461H11.1538H11.1615H11.1692H11.1769H11.1846H11.1923H11.2H11.2077H11.2154H11.2231H11.2308H11.2385H11.2462H11.2539H11.2616H11.2693H11.277H11.2847H11.2924H11.3001H11.3078H11.3154H11.3231H11.3308H11.3385H11.3462H11.3539H11.3616H11.3693H11.377H11.3847H11.3924H11.4001H11.4078H11.4155H11.4232H11.4309H11.4386H11.4463H11.454H11.4617H11.4694H11.4771H11.4848H11.4925H11.5002H11.5079H11.5156H11.5233H11.531H11.5386H11.5463H11.554H11.5617H11.5694H11.5771H11.5848H11.5925H11.6002H11.6079H11.6156H11.6233H11.631H11.6387H11.6464H11.6541H11.6618H11.6695H11.6772H11.6849H11.6926H11.7003H11.708H11.7157H11.7234H11.7311H11.7388H11.7465H11.7542H11.7619H11.7696H11.7772H11.7849H11.7926H11.8003H11.808H11.8157H11.8234H11.8311H11.8388H11.8465H11.8542H11.8619H11.8696H11.8773H11.885H11.8927H11.9004H11.9081H11.9158H11.9235H11.9312H11.9389H11.9466H11.9543H11.962H11.9697H11.9774H11.9851H11.9928H12.0005H12.0082H12.0159H12.0236H12.0312H12.0389H12.0466H12.0543H12.062H12.0697H12.0774H12.0851H12.0928H12.1005H12.1082H12.1159H12.1236H12.1313H12.139H12.1467H12.1544H12.1621H12.1698H12.1775H12.1852H12.1929H12.2006H12.2083H12.216H12.2237H12.2314H12.2391H12.2468H12.2545H12.2622H12.2699H12.2776H12.2853H12.293H12.3007H12.3084H12.316H12.3237H12.3314H12.3391H12.3468H12.3545H12.3622H12.3699H12.3776H12.3853H12.393H12.4007H12.4084H12.4161H12.4238H12.4315H12.4392H12.4469H12.4546H12.4623H12.47H12.4777H12.4854H12.4931H12.5008H12.5085H12.5162H12.5239H12.5316H12.5393H12.547H12.5547H12.5624H12.5701H12.5778H12.5855H12.5932H12.6009H12.6086H12.6163H12.624H12.6317H12.6393H12.647H12.6547H12.6624H12.6701H12.6778H12.6855H12.6932H12.7009H12.7086H12.7163H12.724H12.7317H12.7394H12.7471H12.7548H12.7625H12.7702H12.7779H12.7856H12.7933H12.801H12.8087H12.8164H12.8241H12.8318H12.8395H12.8472H12.8549H12.8626H12.8703H12.878H12.8857H12.8934H12.9011H12.9088H12.9165H12.9242H12.9319H12.9396H12.9473H12.955H12.9627H12.9704H12.9781H12.9858H12.9935H13.0012H13.0089H13.0165H13.0242H13.0319H13.0396H13.0473H13.055H13.0627H13.0704H13.0781H13.0858H13.0935H13.1012H13.1089H13.1166H13.1243H13.132H13.1397H13.1474H13.1551H13.1628H13.1705H13.1782H13.1859H13.1936H13.2013H13.209H13.2167H13.2244H13.2321H13.2398H13.2475H13.2552H13.2629H13.2706H13.2783H13.286H13.2937H13.3014H13.3091H13.3168H13.3245H13.3322H13.3399H13.3476H13.3553H13.363H13.3707H13.3784H13.3861H13.3938H13.4015H13.4092H13.4169H13.4246H13.4323H13.44H13.4477H13.4554H13.4631H13.4708H13.4785H13.4862H13.4938H13.5015H13.5092H13.5169H13.5246H13.5323H13.54H13.5477H13.5554H13.5631H13.5708H13.5785H13.5862H13.5939H13.6016H13.6093H13.617H13.6247H13.6324H13.6401H13.6478H13.6555H13.6632H13.6709H13.6786H13.6863H13.694H13.7017H13.7094H13.7171H13.7248H13.7325H13.7402H13.7479H13.7556H13.7633H13.771H13.7787H13.7864H13.7941H13.8018H13.8095H13.8172H13.8249H13.8326H13.8403H13.848H13.8557H13.8634H13.8711H13.8788H13.8865H13.8942H13.9019H13.9096H13.9173H13.925H13.9327H13.9404H13.9481H13.9558H13.9635H13.9712H13.9789H13.9866H13.9943H14.002H14.0097H14.0174H14.0251H14.0328H14.0405H14.0482H14.0559H14.0636H14.0713H14.079H14.0867H14.0944H14.1021H14.1098H14.1175H14.1252H14.1329H14.1406H14.1483H14.156H14.1637H14.1714C14.6452 18.3006 15.0356 18.4312 15.3074 18.7012C15.5793 18.9713 15.7113 19.3599 15.7113 19.8323V19.8488V19.8653V19.8819V19.8984V19.9149V19.9314V19.948V19.9645V19.981V19.9975V20.0141V20.0306V20.0471V20.0636V20.0802V20.0967V20.1132V20.1297V20.1463V20.1628V20.1793V20.1958V20.2124V20.2289V20.2454V20.2619V20.2785V20.295V20.3115V20.328V20.3446V20.3611V20.3776V20.3941V20.4107V20.4272V20.4437V20.4602V20.4768V20.4933V20.5098V20.5263V20.5429V20.5594V20.5759V20.5924V20.609V20.6255V20.642V20.6585V20.6751V20.6916V20.7081V20.7246V20.7412V20.7577V20.7742V20.7907V20.8073V20.8238V20.8403V20.8568V20.8734V20.8899V20.9064V20.9229V20.9395V20.956V20.9725V20.989V21.0056V21.0221V21.0386V21.0551V21.0717V21.0882V21.1047V21.1212V21.1378V21.1543V21.1708V21.1873V21.2039V21.2204V21.2369V21.2534V21.27V21.2865V21.303V21.3195V21.3361V21.3526V21.3691V21.3856V21.4022V21.4187V21.4352V21.4517V21.4683V21.4848V21.5013V21.5178V21.5344V21.5509V21.5674V21.5839V21.6005V21.617V21.6335V21.65V21.6666V21.6831V21.6996V21.7161V21.7327V21.7492V21.7657V21.7822V21.7988V21.8153V21.8318V21.8483V21.8649V21.8814V21.8979V21.9144V21.931V21.9475V21.964V21.9805V21.9971V22.0136V22.0301V22.0466V22.0632V22.0797V22.0962V22.1127V22.1293V22.1458V22.1623V22.1788V22.1954V22.2119V22.2284V22.2449V22.2615V22.278V22.2945V22.311V22.3275V22.3441V22.3606V22.3771V22.3936V22.4102V22.4267V22.4432V22.4597V22.4763V22.4928V22.5093V22.5258V22.5424V22.5589V22.5754V22.5919V22.6085V22.625V22.6415V22.658V22.6746V22.6911V22.7076V22.7241V22.7407V22.7572V22.7737V22.7902V22.8068V22.8233V22.8398V22.8563V22.8728V22.8894V22.9059V22.9224V22.9389V22.9555V22.972V22.9885V23.005V23.0216V23.0381V23.0546V23.0711V23.0877V23.1042V23.1207V23.1372V23.1538V23.1703V23.1868V23.2033V23.2199V23.2364V23.2529V23.2694V23.286V23.3025V23.319V23.3355V23.352V23.3686V23.3851V23.4016V23.4181V23.4347V23.4512V23.4677V23.4842V23.5008V23.5173V23.5338V23.5503V23.5669V23.5834V23.5999V23.6164V23.633V23.6495V23.666V23.6825V23.699V23.7156V23.7321V23.7486V23.7651V23.7817V23.7982V23.8147V23.8312V23.8478V23.8643V23.8808V23.8973V23.9139V23.9304V23.9469V23.9634V23.9799V23.9965V24.013V24.0295V24.046V24.0626V24.0791V24.0956V24.1121V24.1287V24.1452V24.1617V24.1782V24.1948V24.2113V24.2278V24.2443V24.2608V24.2774V24.2939V24.3104V24.3269V24.3435V24.36V24.3765V24.393V24.4096V24.4261V24.4426V24.4591V24.4757V24.4922V24.5087V24.5252V24.5417V24.5583V24.5748V24.5913V24.6078V24.6244V24.6409V24.6574V24.6739V24.6905V24.707V24.7235V24.74V24.7566V24.7731V24.7896V24.8061V24.8226V24.8392V24.8557V24.8722V24.8887V24.9053V24.9218V24.9383V24.9548V24.9714V24.9879V25.0044V25.0209V25.0374V25.054V25.0705V25.087V25.1035V25.1201V25.1366V25.1531V25.1696V25.1862V25.2027V25.2192V25.2357V25.2522V25.2688V25.2853V25.3018V25.3183V25.3349V25.3514V25.3679V25.3844V25.401V25.4175V25.434V25.4505V25.467V25.4836V25.5001V25.5166V25.5331V25.5497V25.5662V25.5827V25.5992V25.6157V25.6323L15.7113 25.6488V25.6653V25.6818V25.6984V25.7149V25.7314V25.7479V25.7645V25.781V25.7975V25.814V25.8305V25.8471V25.8636V25.8801V25.8966V25.9132V25.9297V25.9462V25.9627V25.9793V25.9958V26.0123V26.0288V26.0453V26.0619V26.0784V26.0949V26.1114V26.128V26.1445V26.161V26.1775V26.194V26.2106V26.2271V26.2436V26.2601V26.2767V26.2932V26.3097V26.3262V26.3427V26.3593V26.3758V26.3923V26.4088V26.4254V26.4419V26.4584V26.4749V26.4914V26.508V26.5245V26.541V26.5575V26.5741V26.5906V26.6071V26.6236V26.6402V26.6567V26.6732V26.6897V26.7062V26.7228V26.7393V26.7558V26.7723V26.7889V26.8054V26.8219V26.8384V26.8549V26.8715V26.888V26.9045V26.921V26.9376V26.9541V26.9706V26.9871V27.0036V27.0202V27.0367V27.0532V27.0697V27.0863V27.1028V27.1193V27.1358V27.1523V27.1689V27.1854V27.2019V27.2184V27.235V27.2515V27.268V27.2845V27.301V27.3176V27.3341V27.3506V27.3671V27.3836V27.4002V27.4167V27.4332V27.4497V27.4663V27.4828V27.4993V27.5158V27.5323V27.5489V27.5654V27.5819V27.5984V27.615V27.6315V27.648V27.6645V27.681V27.6976V27.7141V27.7306V27.7471V27.7637V27.7802V27.7967V27.8132V27.8297V27.8463V27.8628V27.8793V27.8958V27.9123V27.9289V27.9454V27.9619V27.9784V27.995V28.0115V28.028V28.0445V28.061V28.0776V28.0941V28.1106V28.1271V28.1437V28.1602V28.1767V28.1932V28.2097V28.2263V28.2428V28.2593V28.2758V28.2923C15.7113 28.7327 15.5747 29.1135 15.3264 29.3853C15.0769 29.6584 14.7242 29.8108 14.3158 29.8086C13.907 29.8063 13.5588 29.6495 13.3144 29.3721C13.0714 29.0965 12.9405 28.7129 12.9405 28.2707L5.60001 21.0693ZM5.60001 21.0693H5.60159H5.60317H5.60476H5.60634H5.60792H5.6095H5.61108H5.61267H5.61425H5.61583H5.61741H5.61899H5.62057H5.62216H5.62374H5.62532H5.6269H5.62849H5.63007H5.63165H5.63323H5.63481H5.6364H5.63798H5.63956H5.64114H5.64273H5.64431H5.64589H5.64747H5.64906H5.65064H5.65222H5.6538H5.65539H5.65697H5.65855H5.66013H5.66171H5.6633H5.66488H5.66646H5.66805H5.66963H5.67121H5.67279H5.67438H5.67596H5.67754H5.67912H5.68071H5.68229H5.68387H5.68546H5.68704H5.68862H5.6902H5.69179H5.69337H5.69495H5.69654H5.69812H5.6997H5.70129H5.70287H5.70445H5.70603H5.70762H5.7092H5.71078H5.71237H5.71395H5.71553H5.71712H5.7187H5.72028H5.72187H5.72345H5.72503H5.72662H5.7282H5.72978H5.73137H5.73295H5.73453H5.73612H5.7377H5.73928H5.74087H5.74245H5.74403H5.74562H5.7472H5.74878H5.75037H5.75195H5.75354H5.75512H5.7567H5.75829H5.75987H5.76145H5.76304H5.76462H5.7662H5.76779H5.76937H5.77096H5.77254H5.77412H5.77571H5.77729H5.77887H5.78046H5.78204H5.78363H5.78521H5.78679H5.78838H5.78996H5.79154H5.79313H5.79471H5.7963H5.79788H5.79946H5.80105H5.80263H5.80422H5.8058H5.80738H5.80897H5.81055H5.81214H5.81372H5.8153H5.81689H5.81847H5.82006H5.82164H5.82323H5.82481H5.82639H5.82798H5.82956H5.83115H5.83273H5.83431H5.8359H5.83748H5.83907H5.84065H5.84224H5.84382H5.8454H5.84699H5.84857H5.85016H5.85174H5.85332H5.85491H5.85649H5.85808H5.85966H5.86125H5.86283H5.86442H5.866H5.86758H5.86917H5.87075H5.87234H5.87392H5.87551H5.87709H5.87868H5.88026H5.88184H5.88343H5.88501H5.8866H5.88818H5.88977H5.89135H5.89294H5.89452H5.8961H5.89769H5.89927H5.90086H5.90244H5.90403H5.90561H5.9072H5.90878H5.91037H5.91195H5.91354H5.91512H5.9167H5.91829H5.91987H5.92146H5.92304H5.92463H5.92621H5.9278H5.92938H5.93097H5.93255H5.93413H5.93572H5.9373H5.93889H5.94047H5.94206H5.94364H5.94523H5.94681H5.9484H5.94998H5.95157H5.95315H5.95474H5.95632H5.9579H5.95949H5.96107H5.96266H5.96424H5.96583H5.96741H5.969H5.97058H5.97217H5.97375H5.97534H5.97692H5.97851H5.98009H5.98168H5.98326H5.98485H5.98643H5.98802H5.9896H5.99118H5.99277H5.99435H5.99594H5.99752H5.99911H6.00069H6.00228H6.00386H6.00545H6.00703H6.00862H6.0102H6.01179H6.01337H6.01496H6.01654H6.01812H6.01971H6.02129H6.02288H6.02446H6.02605H6.02763H6.02922H6.0308H6.03239H6.03397H6.03556H6.03714H6.03873H6.04031H6.0419H6.04348H6.04506H6.04665H6.04823H6.04982H6.0514H6.05299H6.05457H6.05616H6.05774H6.05933H6.06091H6.0625H6.06408H6.06567H6.06725H6.06884H6.07042H6.07201H6.07359H6.07517H6.07676H6.07834H6.07993H6.08151H6.0831H6.08468H6.08627H6.08785H6.08944H6.09102H6.09261H6.09419H6.09577H6.09736H6.09894H6.10053H6.10211H6.1037H6.10528H6.10687H6.10845H6.11003H6.11162H6.1132H6.11479H6.11637H6.11796H6.11954H6.12113H6.12271H6.1243H6.12588H6.12747H6.12905H6.13063H6.13222H6.1338H6.13539H6.13697H6.13856H6.14014H6.14172H6.14331H6.14489H6.14648H6.14806H6.14965H6.15123H6.15282H6.1544H6.15598H6.15757H6.15915H6.16074H6.16232H6.16391H6.16549H6.16707H6.16866H6.17024H6.17183H6.17341H6.175H6.17658H6.17816H6.17975H6.18133H6.18292H6.1845H6.18608H6.18767H6.18925H6.19084H6.19242H6.19401H6.19559H6.19717H6.19876H6.20034H6.20193H6.20351H6.20509H6.20668H6.20826H6.20985H6.21143H6.21301H6.2146H6.21618H6.21776H6.21935H6.22093H6.22252H6.2241H6.22569H6.22727H6.22885H6.23044H6.23202H6.2336H6.23519H6.23677H6.23835H6.23994H6.24152H6.24311H6.24469H6.24627H6.24786H6.24944H6.25102H6.25261H6.25419H6.25578H6.25736H6.25894H6.26053H6.26211H6.26369H6.26528H6.26686H6.26844H6.27003H6.27161H6.27319H6.27478H6.27636H6.27794H6.27953H6.28111H6.28269H6.28428H6.28586H6.28744H6.28903H6.29061H6.29219H6.29378H6.29536H6.29694H6.29853H6.30011H6.30169H6.30328H6.30486H6.30644H6.30803H6.30961H6.31119H6.31277H6.31436H6.31594H6.31752H6.31911H6.32069H6.32227H6.32386H6.32544H6.32702H6.3286H6.33019H6.33177H6.33335H6.33494H6.33652H6.3381H6.33968H6.34127H6.34285H6.34443H6.34601H6.3476H6.34918H6.35076H6.35234H6.35393H6.35551H6.35709H6.35867H6.36026H6.36184H6.36342H6.365H6.36659H6.36817H6.36975H6.37133H6.37292H6.3745H6.37608H6.37766H6.37924H6.38083H6.38241H6.38399H6.38557H6.38715H6.38874H6.39032H6.3919H6.39348H6.39506H6.39665H6.39823H6.39981H6.40139H6.40297H6.40456H6.40614H6.40772H6.4093H6.41088H11.2339M5.60001 21.0693H11.2339M11.2339 21.0693V20.9193V21.0693ZM12.9405 23.0407V23.0332V23.0407ZM12.9405 23.0407V23.0519M12.9405 23.0407V23.0519M12.9405 23.0519V23.0631M12.9405 23.0519V23.0631M12.9405 23.0631V23.0743M12.9405 23.0631V23.0743M12.9405 23.0743V23.0855M12.9405 23.0743V23.0855M12.9405 23.0855V23.0967M12.9405 23.0855V23.0967M12.9405 23.0967V23.1078M12.9405 23.0967V23.1078M12.9405 23.1078V23.119M12.9405 23.1078V23.119M12.9405 23.119V23.1302M12.9405 23.119V23.1302M12.9405 23.1302V23.1414M12.9405 23.1302V23.1414M12.9405 23.1414V23.1526M12.9405 23.1414V23.1526M12.9405 23.1526V23.1638M12.9405 23.1526V23.1638M12.9405 23.1638V23.1749M12.9405 23.1638V23.1749M12.9405 23.1749V23.1861M12.9405 23.1749V23.1861M12.9405 23.1861V23.1973M12.9405 23.1861V23.1973M12.9405 23.1973V23.2085M12.9405 23.1973V23.2085M12.9405 23.2085V23.2196M12.9405 23.2085V23.2196M12.9405 23.2196V23.2308M12.9405 23.2196V23.2308M12.9405 23.2308V23.242M12.9405 23.2308V23.242M12.9405 23.242V23.2531M12.9405 23.242V23.2531M12.9405 23.2531V23.2643M12.9405 23.2531V23.2643M12.9405 23.2643V23.2754M12.9405 23.2643V23.2754M12.9405 23.2754V23.2866M12.9405 23.2754V23.2866M12.9405 23.2866V23.2978M12.9405 23.2866V23.2978M12.9405 23.2978V23.3089M12.9405 23.2978V23.3089M12.9405 23.3089V23.3201M12.9405 23.3089V23.3201M12.9405 23.3201V23.3312M12.9405 23.3201V23.3312M12.9405 23.3312V23.3424M12.9405 23.3312V23.3424M12.9405 23.3424V23.3535M12.9405 23.3424V23.3535M12.9405 23.3535V23.3646M12.9405 23.3535V23.3646M12.9405 23.3646V23.3758M12.9405 23.3646V23.3758M12.9405 23.3758V23.3869M12.9405 23.3758V23.3869M12.9405 23.3869V23.3981M12.9405 23.3869V23.3981M12.9405 23.3981V23.4092M12.9405 23.3981V23.4092M12.9405 23.4092V23.4203M12.9405 23.4092V23.4203M12.9405 23.4203V23.4315M12.9405 23.4203V23.4315M12.9405 23.4315V23.4426M12.9405 23.4315V23.4426M12.9405 23.4426V23.4537M12.9405 23.4426V23.4537M12.9405 23.4537V23.4649M12.9405 23.4537V23.4649M12.9405 23.4649V23.476M12.9405 23.4649V23.476M12.9405 23.476V23.4871M12.9405 23.476V23.4871M12.9405 23.4871V23.4982M12.9405 23.4871V23.4982M12.9405 23.4982V23.5093M12.9405 23.4982V23.5093M12.9405 23.5093V23.5205M12.9405 23.5093V23.5205M12.9405 23.5205V23.5316M12.9405 23.5205V23.5316M12.9405 23.5316V23.5427M12.9405 23.5316V23.5427M12.9405 23.5427V23.5538M12.9405 23.5427V23.5538M12.9405 23.5538V23.5649M12.9405 23.5538V23.5649M12.9405 23.5649V23.576M12.9405 23.5649V23.576M12.9405 23.576V23.5871M12.9405 23.576V23.5871M12.9405 23.5871V23.5982M12.9405 23.5871V23.5982M12.9405 23.5982V23.6093M12.9405 23.5982V23.6093M12.9405 23.6093V23.6204M12.9405 23.6093V23.6204M12.9405 23.6204V23.6315M12.9405 23.6204V23.6315M12.9405 23.6315V23.6426M12.9405 23.6315V23.6426M12.9405 23.6426V23.6537M12.9405 23.6426V23.6537M12.9405 23.6537V23.6648M12.9405 23.6537V23.6648M12.9405 23.6648V23.6759M12.9405 23.6648V23.6759M12.9405 23.6759V23.687M12.9405 23.6759V23.687M12.9405 23.687V23.6981M12.9405 23.687V23.6981M12.9405 23.6981V23.7092M12.9405 23.6981V23.7092M12.9405 23.7092V23.7203M12.9405 23.7092V23.7203M12.9405 23.7203V23.7313M12.9405 23.7203V23.7313M12.9405 23.7313V23.7424M12.9405 23.7313V23.7424M12.9405 23.7424V23.7535M12.9405 23.7424V23.7535M12.9405 23.7535V23.7646M12.9405 23.7535V23.7646M12.9405 23.7646V23.7756M12.9405 23.7646V23.7756M12.9405 23.7756V23.7867M12.9405 23.7756V23.7867M12.9405 23.7867V23.7978M12.9405 23.7867V23.7978M12.9405 23.7978V23.8089M12.9405 23.7978V23.8089M12.9405 23.8089V23.8199M12.9405 23.8089V23.8199M12.9405 23.8199V23.831M12.9405 23.8199V23.831M12.9405 23.831V23.8421M12.9405 23.831V23.8421M12.9405 23.8421V23.8531M12.9405 23.8421V23.8531M12.9405 23.8531V23.8642M12.9405 23.8531V23.8642M12.9405 23.8642V23.8752M12.9405 23.8642V23.8752M12.9405 23.8752V23.8863M12.9405 23.8752V23.8863M12.9405 23.8863V23.8974M12.9405 23.8863V23.8974M12.9405 23.8974V23.9084M12.9405 23.8974V23.9084M12.9405 23.9084V23.9195M12.9405 23.9084V23.9195M12.9405 23.9195V23.9305M12.9405 23.9195V23.9305M12.9405 23.9305L12.9405 23.9416M12.9405 23.9305L12.9405 23.9416M12.9405 23.9416V23.9526M12.9405 23.9416V23.9526M12.9405 23.9526V23.9637M12.9405 23.9526V23.9637M12.9405 23.9637V23.9747M12.9405 23.9637V23.9747M12.9405 23.9747V23.9858M12.9405 23.9747V23.9858M12.9405 23.9858V23.9968M12.9405 23.9858V23.9968M12.9405 23.9968V24.0078M12.9405 23.9968V24.0078M12.9405 24.0078V24.0189M12.9405 24.0078V24.0189M12.9405 24.0189V24.0299M12.9405 24.0189V24.0299M12.9405 24.0299V24.0409M12.9405 24.0299V24.0409M12.9405 24.0409V24.052M12.9405 24.0409V24.052M12.9405 24.052V24.063M12.9405 24.052V24.063M12.9405 24.063V24.074M12.9405 24.063V24.074M12.9405 24.074V24.0851M12.9405 24.074V24.0851M12.9405 24.0851V24.0961M12.9405 24.0851V24.0961M12.9405 24.0961V24.1071M12.9405 24.0961V24.1071M12.9405 24.1071V24.1181M12.9405 24.1071V24.1181M12.9405 24.1181V24.1292M12.9405 24.1181V24.1292M12.9405 24.1292V24.1402M12.9405 24.1292V24.1402M12.9405 24.1402V24.1512M12.9405 24.1402V24.1512M12.9405 24.1512V24.1622M12.9405 24.1512V24.1622M12.9405 24.1622V24.1732M12.9405 24.1622V24.1732M12.9405 24.1732V24.1842M12.9405 24.1732V24.1842M12.9405 24.1842V24.1953M12.9405 24.1842V24.1953M12.9405 24.1953V24.2063M12.9405 24.1953V24.2063M12.9405 24.2063V24.2173M12.9405 24.2063V24.2173M12.9405 24.2173V24.2283M12.9405 24.2173V24.2283M12.9405 24.2283V24.2393M12.9405 24.2283V24.2393M12.9405 24.2393V24.2503M12.9405 24.2393V24.2503M12.9405 24.2503V24.2613M12.9405 24.2503V24.2613M12.9405 24.2613V24.2723M12.9405 24.2613V24.2723M12.9405 24.2723V24.2833M12.9405 24.2723V24.2833M12.9405 24.2833V24.2943M12.9405 24.2833V24.2943M12.9405 24.2943V24.3053M12.9405 24.2943V24.3053M12.9405 24.3053V24.3163M12.9405 24.3053V24.3163M12.9405 24.3163V24.3273M12.9405 24.3163V24.3273M12.9405 24.3273V24.3383M12.9405 24.3273V24.3383M12.9405 24.3383V24.3493M12.9405 24.3383V24.3493M12.9405 24.3493V24.3602M12.9405 24.3493V24.3602M12.9405 24.3602V24.3712M12.9405 24.3602V24.3712M12.9405 24.3712V24.3822M12.9405 24.3712V24.3822M12.9405 24.3822V24.3932M12.9405 24.3822V24.3932M12.9405 24.3932V24.4042M12.9405 24.3932V24.4042M12.9405 24.4042V24.4152M12.9405 24.4042V24.4152M12.9405 24.4152V24.4261M12.9405 24.4152V24.4261M12.9405 24.4261V24.4371M12.9405 24.4261V24.4371M12.9405 24.4371V24.4481M12.9405 24.4371V24.4481M12.9405 24.4481V24.4591M12.9405 24.4481V24.4591M12.9405 24.4591V24.47M12.9405 24.4591V24.47M12.9405 24.47V24.481M12.9405 24.47V24.481M12.9405 24.481V24.492M12.9405 24.481V24.492M12.9405 24.492V24.503M12.9405 24.492V24.503M12.9405 24.503V24.5139M12.9405 24.503V24.5139M12.9405 24.5139V24.5249M12.9405 24.5139V24.5249M12.9405 24.5249V24.5359M12.9405 24.5249V24.5359M12.9405 24.5359V24.5468M12.9405 24.5359V24.5468M12.9405 24.5468V24.5578M12.9405 24.5468V24.5578M12.9405 24.5578V24.5687M12.9405 24.5578V24.5687M12.9405 24.5687V24.5797M12.9405 24.5687V24.5797M12.9405 24.5797V24.5906M12.9405 24.5797V24.5906M12.9405 24.5906V24.6016M12.9405 24.5906V24.6016M12.9405 24.6016V24.6126M12.9405 24.6016V24.6126M12.9405 24.6126V24.6235M12.9405 24.6126V24.6235M12.9405 24.6235V24.6345M12.9405 24.6235V24.6345M12.9405 24.6345V24.6454M12.9405 24.6345V24.6454M12.9405 24.6454V24.6564M12.9405 24.6454V24.6564M12.9405 24.6564V24.6673M12.9405 24.6564V24.6673M12.9405 24.6673V24.6783M12.9405 24.6673V24.6783M12.9405 24.6783V24.6892M12.9405 24.6783V24.6892M12.9405 24.6892V24.7001M12.9405 24.6892V24.7001M12.9405 24.7001V24.7111M12.9405 24.7001V24.7111M12.9405 24.7111V24.722M12.9405 24.7111V24.722M12.9405 24.722V24.733M12.9405 24.722V24.733M12.9405 24.733V24.7439M12.9405 24.733V24.7439M12.9405 24.7439V24.7548M12.9405 24.7439V24.7548M12.9405 24.7548V24.7658M12.9405 24.7548V24.7658M12.9405 24.7658V24.7767M12.9405 24.7658V24.7767M12.9405 24.7767V24.7876M12.9405 24.7767V24.7876M12.9405 24.7876V24.7986M12.9405 24.7876V24.7986M12.9405 24.7986V24.8095M12.9405 24.7986V24.8095M12.9405 24.8095V24.8204M12.9405 24.8095V24.8204M12.9405 24.8204V24.8313M12.9405 24.8204V24.8313M12.9405 24.8313V24.8423M12.9405 24.8313V24.8423M12.9405 24.8423V24.8532M12.9405 24.8423V24.8532M12.9405 24.8532V24.8641M12.9405 24.8532V24.8641M12.9405 24.8641V24.875M12.9405 24.8641V24.875M12.9405 24.875V24.886M12.9405 24.875V24.886M12.9405 24.886V24.8969M12.9405 24.886V24.8969M12.9405 24.8969V24.9078M12.9405 24.8969V24.9078M12.9405 24.9078V24.9187M12.9405 24.9078V24.9187M12.9405 24.9187V24.9296M12.9405 24.9187V24.9296M12.9405 24.9296V24.9405M12.9405 24.9296V24.9405M12.9405 24.9405V24.9514M12.9405 24.9405V24.9514M12.9405 24.9514V24.9624M12.9405 24.9514V24.9624M12.9405 24.9624V24.9733M12.9405 24.9624V24.9733M12.9405 24.9733V24.9842M12.9405 24.9733V24.9842M12.9405 24.9842V24.9951M12.9405 24.9842V24.9951M12.9405 24.9951V25.006M12.9405 24.9951V25.006M12.9405 25.006V25.0169M12.9405 25.006V25.0169M12.9405 25.0169V25.0278M12.9405 25.0169V25.0278M12.9405 25.0278V25.0387M12.9405 25.0278V25.0387M12.9405 25.0387V25.0496M12.9405 25.0387V25.0496M12.9405 25.0496V25.0605M12.9405 25.0496V25.0605M12.9405 25.0605V25.0714M12.9405 25.0605V25.0714M12.9405 25.0714V25.0823M12.9405 25.0714V25.0823M12.9405 25.0823V25.0932M12.9405 25.0823V25.0932M12.9405 25.0932V25.1041M12.9405 25.0932V25.1041M12.9405 25.1041V25.115M12.9405 25.1041V25.115M12.9405 25.115V25.1259M12.9405 25.115V25.1259M12.9405 25.1259V25.1367M12.9405 25.1259V25.1367M12.9405 25.1367V25.1476M12.9405 25.1367V25.1476M12.9405 25.1476V25.1585M12.9405 25.1476V25.1585M12.9405 25.1585V25.1694M12.9405 25.1585V25.1694M12.9405 25.1694V25.1803M12.9405 25.1694V25.1803M12.9405 25.1803V25.1912M12.9405 25.1803V25.1912M12.9405 25.1912V25.2021M12.9405 25.1912V25.2021M12.9405 25.2021V25.2129M12.9405 25.2021V25.2129M12.9405 25.2129V25.2238M12.9405 25.2129V25.2238M12.9405 25.2238V25.2347M12.9405 25.2238V25.2347M12.9405 25.2347V25.2456M12.9405 25.2347V25.2456M12.9405 25.2456V25.2565M12.9405 25.2456V25.2565M12.9405 25.2565V25.2673M12.9405 25.2565V25.2673M12.9405 25.2673V25.2782M12.9405 25.2673V25.2782M12.9405 25.2782V25.2891M12.9405 25.2782V25.2891M12.9405 25.2891V25.2999M12.9405 25.2891V25.2999M12.9405 25.2999V25.3108M12.9405 25.2999V25.3108M12.9405 25.3108V25.3217M12.9405 25.3108V25.3217M12.9405 25.3217V25.3326M12.9405 25.3217V25.3326M12.9405 25.3326V25.3434M12.9405 25.3326V25.3434M12.9405 25.3434V25.3543M12.9405 25.3434V25.3543M12.9405 25.3543V25.3652M12.9405 25.3543V25.3652M12.9405 25.3652V25.376M12.9405 25.3652V25.376M12.9405 25.376V25.3869M12.9405 25.376V25.3869M12.9405 25.3869V25.3977M12.9405 25.3869V25.3977M12.9405 25.3977V25.4086M12.9405 25.3977V25.4086M12.9405 25.4086V25.4195M12.9405 25.4086V25.4195M12.9405 25.4195V25.4303M12.9405 25.4195V25.4303M12.9405 25.4303V25.4412M12.9405 25.4303V25.4412M12.9405 25.4412V25.452M12.9405 25.4412V25.452M12.9405 25.452V25.4629M12.9405 25.452V25.4629M12.9405 25.4629V25.4737M12.9405 25.4629V25.4737M12.9405 25.4737V25.4846M12.9405 25.4737V25.4846M12.9405 25.4846V25.4954M12.9405 25.4846V25.4954M12.9405 25.4954V25.5063M12.9405 25.4954V25.5063M12.9405 25.5063V25.5171M12.9405 25.5063V25.5171M12.9405 25.5171V25.528M12.9405 25.5171V25.528M12.9405 25.528V25.5388M12.9405 25.528V25.5388M12.9405 25.5388V25.5497M12.9405 25.5388V25.5497M12.9405 25.5497V25.5605M12.9405 25.5497V25.5605M12.9405 25.5605V25.5714M12.9405 25.5605V25.5714M12.9405 25.5714V25.5822M12.9405 25.5714V25.5822M12.9405 25.5822V25.5931M12.9405 25.5822V25.5931M12.9405 25.5931V25.6039M12.9405 25.5931V25.6039M12.9405 25.6039V25.6147M12.9405 25.6039V25.6147M12.9405 25.6147V25.6256M12.9405 25.6147V25.6256M12.9405 25.6256V25.6364M12.9405 25.6256V25.6364M12.9405 25.6364V25.6472M12.9405 25.6364V25.6472M12.9405 25.6472V25.6581M12.9405 25.6472V25.6581M12.9405 25.6581V25.6689M12.9405 25.6581V25.6689M12.9405 25.6689V25.6798M12.9405 25.6689V25.6798M12.9405 25.6798V25.6906M12.9405 25.6798V25.6906M12.9405 25.6906V25.7014M12.9405 25.6906V25.7014M12.9405 25.7014V25.7122M12.9405 25.7014V25.7122M12.9405 25.7122V25.7231M12.9405 25.7122V25.7231M12.9405 25.7231V25.7339M12.9405 25.7231V25.7339M12.9405 25.7339V25.7447M12.9405 25.7339V25.7447M12.9405 25.7447V25.7556M12.9405 25.7447V25.7556M12.9405 25.7556V25.7664M12.9405 25.7556V25.7664M12.9405 25.7664V25.7772M12.9405 25.7664V25.7772M12.9405 25.7772V25.788M12.9405 25.7772V25.788M12.9405 25.788V25.7989M12.9405 25.788V25.7989M12.9405 25.7989V25.8097M12.9405 25.7989V25.8097M12.9405 25.8097V25.8205M12.9405 25.8097V25.8205M12.9405 25.8205V25.8313M12.9405 25.8205V25.8313M12.9405 25.8313V25.8421M12.9405 25.8313V25.8421M12.9405 25.8421V25.853M12.9405 25.8421V25.853M12.9405 25.853V25.8638M12.9405 25.853V25.8638M12.9405 25.8638V25.8746M12.9405 25.8638V25.8746M12.9405 25.8746V25.8854M12.9405 25.8746V25.8854M12.9405 25.8854V25.8962M12.9405 25.8854V25.8962M12.9405 25.8962V25.907M12.9405 25.8962V25.907M12.9405 25.907V25.9178M12.9405 25.907V25.9178M12.9405 25.9178V25.9286M12.9405 25.9178V25.9286M12.9405 25.9286V25.9395M12.9405 25.9286V25.9395M12.9405 25.9395V25.9503M12.9405 25.9395V25.9503M12.9405 25.9503V25.9611M12.9405 25.9503V25.9611M12.9405 25.9611V25.9719M12.9405 25.9611V25.9719M12.9405 25.9719V25.9827M12.9405 25.9719V25.9827M12.9405 25.9827V25.9935M12.9405 25.9827V25.9935M12.9405 25.9935V26.0043M12.9405 25.9935V26.0043M12.9405 26.0043V26.0151M12.9405 26.0043V26.0151M12.9405 26.0151V26.0259M12.9405 26.0151V26.0259M12.9405 26.0259V26.0367M12.9405 26.0259V26.0367M12.9405 26.0367V26.0475M12.9405 26.0367V26.0475M12.9405 26.0475V26.0583M12.9405 26.0475V26.0583M12.9405 26.0583V26.0691M12.9405 26.0583V26.0691M12.9405 26.0691V26.0799M12.9405 26.0691V26.0799M12.9405 26.0799V26.0907M12.9405 26.0799V26.0907M12.9405 26.0907V26.1015M12.9405 26.0907V26.1015M12.9405 26.1015V26.1123M12.9405 26.1015V26.1123M12.9405 26.1123V26.1231M12.9405 26.1123V26.1231M12.9405 26.1231V26.1339M12.9405 26.1231V26.1339M12.9405 26.1339V26.1447M12.9405 26.1339V26.1447M12.9405 26.1447V26.1555M12.9405 26.1447V26.1555M12.9405 26.1555V26.1663M12.9405 26.1555V26.1663M12.9405 26.1663V26.1771M12.9405 26.1663V26.1771M12.9405 26.1771V26.1878M12.9405 26.1771V26.1878M12.9405 26.1878V26.1986M12.9405 26.1878V26.1986M12.9405 26.1986V26.2094M12.9405 26.1986V26.2094M12.9405 26.2094V26.2202M12.9405 26.2094V26.2202M12.9405 26.2202V26.231M12.9405 26.2202V26.231M12.9405 26.231V26.2418M12.9405 26.231V26.2418M12.9405 26.2418V26.2526M12.9405 26.2418V26.2526M12.9405 26.2526V26.2634M12.9405 26.2526V26.2634M12.9405 26.2634V26.2741M12.9405 26.2634V26.2741M12.9405 26.2741V26.2849M12.9405 26.2741V26.2849M12.9405 26.2849V26.2957M12.9405 26.2849V26.2957M12.9405 26.2957V26.3065M12.9405 26.2957V26.3065M12.9405 26.3065V26.3173M12.9405 26.3065V26.3173M12.9405 26.3173V26.328M12.9405 26.3173V26.328M12.9405 26.328V26.3388M12.9405 26.328V26.3388M12.9405 26.3388V26.3496M12.9405 26.3388V26.3496M12.9405 26.3496V26.3604M12.9405 26.3496V26.3604M12.9405 26.3604V26.3712M12.9405 26.3604V26.3712M12.9405 26.3712V26.3819M12.9405 26.3712V26.3819M12.9405 26.3819V26.3927M12.9405 26.3819V26.3927M12.9405 26.3927V26.4035M12.9405 26.3927V26.4035M12.9405 26.4035V26.4142M12.9405 26.4035V26.4142M12.9405 26.4142V26.425M12.9405 26.4142V26.425M12.9405 26.425V26.4358M12.9405 26.425V26.4358M12.9405 26.4358V26.4466M12.9405 26.4358V26.4466M12.9405 26.4466V26.4573M12.9405 26.4466V26.4573M12.9405 26.4573V26.4681M12.9405 26.4573V26.4681M12.9405 26.4681V26.4789M12.9405 26.4681V26.4789M12.9405 26.4789V26.4896M12.9405 26.4789V26.4896M12.9405 26.4896V26.5004M12.9405 26.4896V26.5004M12.9405 26.5004V26.5112M12.9405 26.5004V26.5112M12.9405 26.5112V26.5219M12.9405 26.5112V26.5219M12.9405 26.5219V26.5327M12.9405 26.5219V26.5327M12.9405 26.5327V26.5435M12.9405 26.5327V26.5435M12.9405 26.5435V26.5542M12.9405 26.5435V26.5542M12.9405 26.5542V26.565M12.9405 26.5542V26.565M12.9405 26.565V26.5758M12.9405 26.565V26.5758M12.9405 26.5758V26.5865M12.9405 26.5758V26.5865M12.9405 26.5865V26.5973M12.9405 26.5865V26.5973M12.9405 26.5973V26.6081M12.9405 26.5973V26.6081M12.9405 26.6081V26.6188M12.9405 26.6081V26.6188M12.9405 26.6188V26.6296M12.9405 26.6188V26.6296M12.9405 26.6296V26.6403M12.9405 26.6296V26.6403M12.9405 26.6403V26.6511M12.9405 26.6403V26.6511M12.9405 26.6511V26.6618M12.9405 26.6511V26.6618M12.9405 26.6618V26.6726M12.9405 26.6618V26.6726M12.9405 26.6726V26.6834M12.9405 26.6726V26.6834M12.9405 26.6834V26.6941M12.9405 26.6834V26.6941M12.9405 26.6941V26.7049M12.9405 26.6941V26.7049M12.9405 26.7049V26.7156M12.9405 26.7049V26.7156M12.9405 26.7156V26.7264M12.9405 26.7156V26.7264M12.9405 26.7264V26.7371M12.9405 26.7264V26.7371M12.9405 26.7371V26.7479M12.9405 26.7371V26.7479M12.9405 26.7479V26.7586M12.9405 26.7479V26.7586M12.9405 26.7586V26.7694M12.9405 26.7586V26.7694M12.9405 26.7694V26.7801M12.9405 26.7694V26.7801M12.9405 26.7801V26.7909M12.9405 26.7801V26.7909M12.9405 26.7909V26.8016M12.9405 26.7909V26.8016M12.9405 26.8016V26.8124M12.9405 26.8016V26.8124M12.9405 26.8124V26.8231M12.9405 26.8124V26.8231M12.9405 26.8231V26.8339M12.9405 26.8231V26.8339M12.9405 26.8339V26.8446M12.9405 26.8339V26.8446M12.9405 26.8446V26.8554M12.9405 26.8446V26.8554M12.9405 26.8554V26.8661M12.9405 26.8554V26.8661M12.9405 26.8661V26.8769M12.9405 26.8661V26.8769M12.9405 26.8769V26.8876M12.9405 26.8769V26.8876M12.9405 26.8876V26.8984M12.9405 26.8876V26.8984M12.9405 26.8984V26.9091M12.9405 26.8984V26.9091M12.9405 26.9091V26.9199M12.9405 26.9091V26.9199M12.9405 26.9199V26.9306M12.9405 26.9199V26.9306M12.9405 26.9306V26.9413M12.9405 26.9306V26.9413M12.9405 26.9413V26.9521M12.9405 26.9413V26.9521M12.9405 26.9521V26.9628M12.9405 26.9521V26.9628M12.9405 26.9628V26.9736M12.9405 26.9628V26.9736M12.9405 26.9736V26.9843M12.9405 26.9736V26.9843M12.9405 26.9843V26.995M12.9405 26.9843V26.995M12.9405 26.995V27.0058M12.9405 26.995V27.0058M12.9405 27.0058V27.0165M12.9405 27.0058V27.0165M12.9405 27.0165V27.0273M12.9405 27.0165V27.0273M12.9405 27.0273V27.038M12.9405 27.0273V27.038M12.9405 27.038V27.0487M12.9405 27.038V27.0487M12.9405 27.0487V27.0595M12.9405 27.0487V27.0595M12.9405 27.0595V27.0702M12.9405 27.0595V27.0702M12.9405 27.0702V27.0809M12.9405 27.0702V27.0809M12.9405 27.0809V27.0917M12.9405 27.0809V27.0917M12.9405 27.0917V27.1024M12.9405 27.0917V27.1024M12.9405 27.1024V27.1132M12.9405 27.1024V27.1132M12.9405 27.1132V27.1239M12.9405 27.1132V27.1239M12.9405 27.1239V27.1346M12.9405 27.1239V27.1346M12.9405 27.1346V27.1454M12.9405 27.1346V27.1454M12.9405 27.1454V27.1561V27.1454Z" fill="white" stroke="white" stroke-width="0.3"/>
</svg>
