<svg width="30" height="36" viewBox="0 0 30 36" fill="none" xmlns="http://www.w3.org/2000/svg">
<path d="M15.9375 0C7.92188 0 0 4.93361 0 12.9183C0 17.9961 3.09375 20.8813 4.96875 20.8813C5.74219 20.8813 6.1875 18.8905 6.1875 18.3279C6.1875 17.6571 4.33594 16.229 4.33594 13.4376C4.33594 7.63843 9.11719 3.52709 15.3047 3.52709C20.625 3.52709 24.5625 6.31848 24.5625 11.4468C24.5625 15.2769 22.8984 22.4609 17.5078 22.4609C15.5625 22.4609 13.8984 21.1626 13.8984 19.3016C13.8984 16.5752 15.9609 13.9353 15.9609 11.1222C15.9609 6.34733 8.625 7.21287 8.625 12.9832C8.625 14.1949 8.78906 15.5365 9.375 16.6401C8.29688 20.9245 6.09375 27.3079 6.09375 31.7222C6.09375 33.0854 6.30469 34.427 6.44531 35.7903C6.71094 36.0644 6.57812 36.0355 6.98438 35.8985C10.9219 30.9216 10.7812 29.9478 12.5625 23.4346C13.5234 25.1224 16.0078 26.0313 17.9766 26.0313C26.2734 26.0313 30 18.5659 30 11.8363C30 4.67394 23.2969 0 15.9375 0Z" fill="white"/>
</svg>
