<svg width="30" height="35" viewBox="0 0 30 35" fill="none" xmlns="http://www.w3.org/2000/svg">
<path d="M8.52236 4.25272C8.75659 4.55523 8.96805 4.82169 9.17573 5.0967C9.77599 5.88472 9.42039 6.81499 8.44744 6.95723C6.87803 7.18766 5.30483 7.39819 3.73352 7.61629C3.33524 7.67129 2.93696 7.73957 2.53583 7.7737C1.67005 7.84767 1.08211 7.09094 1.39789 6.283C2.13123 4.42246 2.8788 2.56762 3.64059 0.718461C3.98386 -0.116979 4.96155 -0.245944 5.53716 0.4482C5.77233 0.732686 6.0113 1.01717 6.21518 1.31778C6.35078 1.51407 6.47406 1.52545 6.68932 1.43821C8.16807 0.826922 9.72849 0.43586 11.3208 0.277509C14.6663 -0.0477531 17.844 0.541132 20.8036 2.13235C25.234 4.5154 28.1851 8.13121 29.4586 13.0101C31.8587 22.2 26.0391 31.7151 16.743 33.7093C10.4398 35.0606 5.0175 33.2769 0.527366 28.6654C-0.179107 27.939 -0.167727 26.9348 0.513142 26.2833C1.19401 25.6318 2.22005 25.6697 2.91704 26.4189C4.67516 28.2946 6.7595 29.6639 9.25159 30.3069C14.8749 31.7625 19.7501 30.3638 23.4759 25.9305C30.3111 17.8037 25.7669 5.88188 15.5937 3.73022C13.2619 3.23711 10.5119 3.46375 8.52236 4.25272Z" fill="white"/>
</svg>
