<svg width="82" height="27" viewBox="0 0 82 27" fill="none" xmlns="http://www.w3.org/2000/svg">
<path d="M48.0186 15.6313C48.0186 15.3969 47.9821 15.1886 47.9092 15.0063C47.8415 14.824 47.7191 14.6573 47.542 14.5063C47.3649 14.3552 47.1149 14.2094 46.792 14.0688C46.4743 13.923 46.068 13.7745 45.5732 13.6235C45.0316 13.4568 44.5316 13.2719 44.0732 13.0688C43.6201 12.8605 43.2243 12.6209 42.8857 12.35C42.5472 12.074 42.2842 11.7589 42.0967 11.4047C41.9092 11.0453 41.8154 10.6313 41.8154 10.1625C41.8154 9.69899 41.9118 9.27712 42.1045 8.89691C42.3024 8.5167 42.5811 8.18858 42.9404 7.91254C43.305 7.63129 43.7347 7.41514 44.2295 7.2641C44.7243 7.10785 45.2712 7.02972 45.8701 7.02972C46.7139 7.02972 47.4404 7.18597 48.0498 7.49847C48.6644 7.81097 49.1357 8.23024 49.4639 8.75629C49.7972 9.28233 49.9639 9.86306 49.9639 10.4985H48.0186C48.0186 10.1235 47.9378 9.79274 47.7764 9.50629C47.6201 9.21462 47.3805 8.98545 47.0576 8.81879C46.7399 8.65212 46.3363 8.56879 45.8467 8.56879C45.3831 8.56879 44.9977 8.6391 44.6904 8.77972C44.3831 8.92035 44.154 9.11045 44.0029 9.35004C43.8519 9.58962 43.7764 9.86045 43.7764 10.1625C43.7764 10.3761 43.8258 10.5714 43.9248 10.7485C44.0238 10.9203 44.1748 11.0818 44.3779 11.2328C44.5811 11.3787 44.8363 11.5167 45.1436 11.6469C45.4508 11.7771 45.8128 11.9021 46.2295 12.0219C46.8597 12.2094 47.4092 12.4177 47.8779 12.6469C48.3467 12.8709 48.7373 13.1261 49.0498 13.4125C49.3623 13.699 49.5967 14.0245 49.7529 14.3891C49.9092 14.7485 49.9873 15.1573 49.9873 15.6157C49.9873 16.0948 49.891 16.5271 49.6982 16.9125C49.5055 17.2927 49.2295 17.6183 48.8701 17.8891C48.516 18.1547 48.0889 18.3605 47.5889 18.5063C47.0941 18.6469 46.542 18.7172 45.9326 18.7172C45.3857 18.7172 44.8467 18.6443 44.3154 18.4985C43.7894 18.3526 43.3102 18.1313 42.8779 17.8344C42.4456 17.5323 42.1019 17.1573 41.8467 16.7094C41.5915 16.2563 41.4639 15.7276 41.4639 15.1235H43.4248C43.4248 15.4933 43.4873 15.8084 43.6123 16.0688C43.7425 16.3292 43.9222 16.5427 44.1514 16.7094C44.3805 16.8709 44.6462 16.9907 44.9482 17.0688C45.2555 17.1469 45.5837 17.186 45.9326 17.186C46.391 17.186 46.7738 17.1209 47.0811 16.9907C47.3936 16.8605 47.6279 16.6782 47.7842 16.4438C47.9404 16.2094 48.0186 15.9386 48.0186 15.6313ZM53.3936 6.56097V18.561H51.5186V6.56097H53.3936ZM53.0654 14.0219L52.4561 14.0141C52.4613 13.4308 52.542 12.8917 52.6982 12.3969C52.8597 11.9021 53.0837 11.4724 53.3701 11.1078C53.6618 10.7381 54.0107 10.4542 54.417 10.2563C54.8232 10.0532 55.2738 9.9516 55.7686 9.9516C56.1852 9.9516 56.5602 10.0089 56.8936 10.1235C57.2321 10.2381 57.5238 10.423 57.7686 10.6782C58.0133 10.9282 58.1982 11.2563 58.3232 11.6625C58.4535 12.0636 58.5186 12.5532 58.5186 13.1313V18.561H56.6279V13.1157C56.6279 12.7094 56.568 12.3865 56.4482 12.1469C56.3337 11.9073 56.1644 11.7355 55.9404 11.6313C55.7165 11.5219 55.443 11.4672 55.1201 11.4672C54.7816 11.4672 54.4821 11.5349 54.2217 11.6703C53.9665 11.8058 53.7529 11.9907 53.5811 12.225C53.4092 12.4594 53.279 12.7302 53.1904 13.0375C53.1071 13.3448 53.0654 13.673 53.0654 14.0219ZM65.1904 16.8657V12.8344C65.1904 12.5323 65.1357 12.2719 65.0264 12.0532C64.917 11.8344 64.7503 11.6651 64.5264 11.5453C64.3076 11.4256 64.0316 11.3657 63.6982 11.3657C63.391 11.3657 63.1253 11.4177 62.9014 11.5219C62.6774 11.6261 62.5029 11.7667 62.3779 11.9438C62.2529 12.1209 62.1904 12.3214 62.1904 12.5453H60.3154C60.3154 12.212 60.3962 11.8891 60.5576 11.5766C60.7191 11.2641 60.9535 10.9855 61.2607 10.7407C61.568 10.4959 61.9352 10.3032 62.3623 10.1625C62.7894 10.0219 63.2686 9.9516 63.7998 9.9516C64.4352 9.9516 64.9977 10.0584 65.4873 10.2719C65.9821 10.4855 66.3701 10.8084 66.6514 11.2407C66.9378 11.6677 67.0811 12.2042 67.0811 12.85V16.6078C67.0811 16.9933 67.1071 17.3396 67.1592 17.6469C67.2165 17.949 67.2972 18.212 67.4014 18.436V18.561H65.4717C65.3831 18.3578 65.3128 18.1 65.2607 17.7875C65.2139 17.4698 65.1904 17.1625 65.1904 16.8657ZM65.4639 13.4203L65.4795 14.5844H64.1279C63.779 14.5844 63.4717 14.6183 63.2061 14.686C62.9404 14.7485 62.7191 14.8422 62.542 14.9672C62.3649 15.0922 62.2321 15.2433 62.1436 15.4203C62.055 15.5974 62.0107 15.798 62.0107 16.0219C62.0107 16.2459 62.0628 16.4516 62.167 16.6391C62.2712 16.8214 62.4222 16.9646 62.6201 17.0688C62.8232 17.173 63.068 17.225 63.3545 17.225C63.7399 17.225 64.0758 17.1469 64.3623 16.9907C64.654 16.8292 64.8831 16.6339 65.0498 16.4047C65.2165 16.1703 65.305 15.949 65.3154 15.7407L65.9248 16.5766C65.8623 16.7901 65.7555 17.0193 65.6045 17.2641C65.4535 17.5089 65.2555 17.7433 65.0107 17.9672C64.7712 18.186 64.4821 18.3657 64.1436 18.5063C63.8102 18.6469 63.4248 18.7172 62.9873 18.7172C62.4352 18.7172 61.943 18.6078 61.5107 18.3891C61.0785 18.1651 60.7399 17.8657 60.4951 17.4907C60.2503 17.1105 60.1279 16.6808 60.1279 16.2016C60.1279 15.7537 60.2113 15.3578 60.3779 15.0141C60.5498 14.6651 60.7998 14.3735 61.1279 14.1391C61.4613 13.9047 61.8675 13.7276 62.3467 13.6078C62.8258 13.4828 63.3727 13.4203 63.9873 13.4203H65.4639ZM70.9404 11.7172V18.561H69.0576V10.1078H70.8545L70.9404 11.7172ZM73.5264 10.0532L73.5107 11.8032C73.3962 11.7823 73.2712 11.7667 73.1357 11.7563C73.0055 11.7459 72.8753 11.7407 72.7451 11.7407C72.4222 11.7407 72.1383 11.7875 71.8936 11.8813C71.6488 11.9698 71.443 12.1 71.2764 12.2719C71.1149 12.4386 70.9899 12.6417 70.9014 12.8813C70.8128 13.1209 70.7607 13.3891 70.7451 13.686L70.3154 13.7172C70.3154 13.186 70.3675 12.6938 70.4717 12.2407C70.5758 11.7875 70.7321 11.3891 70.9404 11.0453C71.154 10.7016 71.4196 10.4334 71.7373 10.2407C72.0602 10.048 72.4326 9.9516 72.8545 9.9516C72.9691 9.9516 73.0915 9.96202 73.2217 9.98285C73.3571 10.0037 73.4587 10.0271 73.5264 10.0532ZM78.2764 18.7172C77.6514 18.7172 77.0863 18.6157 76.5811 18.4125C76.0811 18.2042 75.654 17.9151 75.2998 17.5453C74.9508 17.1756 74.6826 16.7407 74.4951 16.2407C74.3076 15.7407 74.2139 15.2016 74.2139 14.6235V14.311C74.2139 13.6495 74.3102 13.0506 74.5029 12.5141C74.6956 11.9776 74.9639 11.5193 75.3076 11.1391C75.6514 10.7537 76.0576 10.4594 76.5264 10.2563C76.9951 10.0532 77.5029 9.9516 78.0498 9.9516C78.654 9.9516 79.1826 10.0532 79.6357 10.2563C80.0889 10.4594 80.4639 10.7459 80.7607 11.1157C81.0628 11.4802 81.2868 11.9151 81.4326 12.4203C81.5837 12.9256 81.6592 13.4828 81.6592 14.0922V14.8969H75.1279V13.5453H79.7998V13.3969C79.7894 13.0584 79.7217 12.7407 79.5967 12.4438C79.4769 12.1469 79.292 11.9073 79.042 11.725C78.792 11.5427 78.4587 11.4516 78.042 11.4516C77.7295 11.4516 77.4508 11.5193 77.2061 11.6547C76.9665 11.7849 76.766 11.975 76.6045 12.225C76.443 12.475 76.318 12.7771 76.2295 13.1313C76.1462 13.4802 76.1045 13.8735 76.1045 14.311V14.6235C76.1045 14.9933 76.154 15.337 76.2529 15.6547C76.3571 15.9672 76.5081 16.2407 76.7061 16.475C76.904 16.7094 77.1436 16.8943 77.4248 17.0297C77.7061 17.1599 78.0264 17.225 78.3857 17.225C78.8389 17.225 79.2425 17.1339 79.5967 16.9516C79.9508 16.7693 80.2581 16.5115 80.5186 16.1782L81.5107 17.1391C81.3285 17.4047 81.0915 17.6599 80.7998 17.9047C80.5081 18.1443 80.1514 18.3396 79.7295 18.4907C79.3128 18.6417 78.8285 18.7172 78.2764 18.7172Z" fill="white"/>
<path d="M30.5954 9.35762L22.8452 16.5287C22.0283 17.2846 20.6667 16.7242 20.6667 15.6086V11.8137C12.8857 11.8648 9.60322 13.6653 11.7986 20.8499C12.0398 21.6394 11.1072 22.2508 10.4528 21.7637C8.35558 20.2028 6.45833 17.2171 6.45833 14.2034C6.45833 6.613 12.7874 5.10675 20.6667 5.06393V1.26627C20.6667 0.149672 22.0292 -0.408996 22.8452 0.34616L30.5954 7.5174C31.1347 8.01642 31.1351 8.85817 30.5954 9.35762V9.35762ZM20.6667 19.9931V23.625H3.44444V6.75001H6.18472C6.27168 6.74995 6.35775 6.73267 6.43773 6.69921C6.51771 6.66574 6.58996 6.61678 6.65015 6.55526C7.45491 5.73429 8.38512 5.0845 9.39569 4.56844C9.9947 4.26253 9.77275 3.37501 9.09726 3.37501H2.58333C1.15658 3.37501 0 4.50827 0 5.90626V24.4687C0 25.8667 1.15658 27 2.58333 27H21.5278C22.9545 27 24.1111 25.8667 24.1111 24.4687V19.7856C24.1111 19.3486 23.67 19.0439 23.2494 19.1896C22.6598 19.3939 22.0284 19.4551 21.4094 19.3677C21.0181 19.3125 20.6667 19.6057 20.6667 19.9931V19.9931Z" fill="white"/>
</svg>
