<svg width="43" height="35" viewBox="0 0 43 35" fill="none" xmlns="http://www.w3.org/2000/svg">
<path d="M2.48694 13.0009L2.48777 13.0009C4.01435 13.0467 5.54173 13.0266 7.03166 13.0069C7.16929 13.0051 7.30659 13.0033 7.44355 13.0015L7.44958 13.0014C8.03049 12.9916 8.59174 12.7916 9.04784 12.4326L9.06209 12.4214L9.07607 12.4098C12.5546 9.53309 16.0331 6.64706 19.5116 3.75174C19.7964 3.51981 20.0031 3.49535 20.0846 3.5007C20.1262 3.50343 20.1591 3.51385 20.1908 3.53206C20.2195 3.54853 20.2653 3.582 20.3194 3.65125C20.4142 3.81186 20.4678 3.99417 20.4747 4.18168L20.4753 4.19618L20.4761 4.21067C20.5125 4.85521 20.5009 5.44313 20.4881 6.08976C20.4811 6.44398 20.4737 6.81581 20.4737 7.22421V7.27014V7.31607V7.36199V7.40792V7.45385V7.49978V7.54571V7.59164V7.63757V7.6835V7.72942V7.77535V7.82128V7.86721V7.91314V7.95907V8.005V8.05093V8.09686V8.14279V8.18872V8.23465V8.28058V8.32651V8.37244V8.41837V8.4643V8.51023V8.55616V8.60209V8.64802V8.69396V8.73989V8.78582V8.83175V8.87768V8.92361V8.96954V9.01547V9.06141V9.10734V9.15327V9.1992V9.24513V9.29106V9.337V9.38293V9.42886V9.47479V9.52072V9.56666V9.61259V9.65852V9.70445V9.75039V9.79632V9.84225V9.88819V9.93412V9.98005V10.026V10.0719V10.1179V10.1638V10.2097V10.2557V10.3016V10.3475V10.3935V10.4394V10.4853V10.5313V10.5772V10.6231V10.6691V10.715V10.7609V10.8069V10.8528V10.8987V10.9447V10.9906V11.0365V11.0825V11.1284V11.1743V11.2203V11.2662V11.3121V11.3581V11.404V11.45V11.4959V11.5418V11.5878V11.6337V11.6796V11.7256V11.7715V11.8174V11.8634V11.9093V11.9552V12.0012V12.0471V12.0931V12.139V12.1849V12.2309V12.2768V12.3227V12.3687V12.4146V12.4606V12.5065V12.5524V12.5984V12.6443V12.6902V12.7362V12.7821V12.8281V12.874V12.9199V12.9659V13.0118V13.0577V13.1037V13.1496V13.1956V13.2415V13.2874V13.3334V13.3793V13.4253V13.4712V13.5171V13.5631V13.609V13.655V13.7009V13.7468V13.7928V13.8387V13.8847V13.9306V13.9765V14.0225V14.0684V14.1144V14.1603V14.2062V14.2522V14.2981V14.3441V14.39V14.4359V14.4819V14.5278V14.5738V14.6197V14.6656V14.7116V14.7575V14.8035V14.8494V14.8953V14.9413V14.9872V15.0332V15.0791V15.1251V15.171V15.2169V15.2629V15.3088V15.3548V15.4007V15.4467V15.4926V15.5385V15.5845V15.6304V15.6764V15.7223V15.7683V15.8142V15.8601V15.9061V15.952V15.998V16.0439V16.0899V16.1358V16.1817V16.2277V16.2736V16.3196V16.3655V16.4115V16.4574V16.5034V16.5493V16.5952V16.6412V16.6871V16.7331V16.779V16.825V16.8709V16.9169V16.9628V17.0087V17.0547V17.1006V17.1466V17.1925V17.2385V17.2844V17.3304V17.3763V17.4223V17.4682V17.5142V17.5601V17.606V17.652V17.6979V17.7439V17.7898V17.8358V17.8817V17.9277V17.9736V18.0196V18.0655V18.1115V18.1574V18.2034V18.2493V18.2952V18.3412V18.3871V18.4331V18.479V18.525V18.5709V18.6169V18.6628V18.7088V18.7547V18.8007V18.8466V18.8926V18.9385V18.9845V19.0304V19.0764V19.1223V19.1683V19.2142V19.2602V19.3061V19.3521V19.398V19.444V19.4899V19.5359V19.5818V19.6278V19.6737V19.7197V19.7656V19.8116V19.8575V19.9035V19.9494V19.9954V20.0413V20.0873V20.1332V20.1792V20.2251V20.2711V20.317V20.363V20.4089V20.4549V20.5008V20.5468V20.5927V20.6387V20.6846V20.7306V20.7765V20.8225V20.8684V20.9144V20.9603V21.0063V21.0522V21.0982V21.1441V21.1901V21.2361V21.282V21.328V21.3739V21.4199V21.4658V21.5118V21.5577V21.6037V21.6496V21.6956V21.7415V21.7875V21.8334V21.8794V21.9254V21.9713V22.0173V22.0632V22.1092V22.1551V22.2011V22.247V22.293V22.3389V22.3849V22.4309V22.4768V22.5228V22.5687V22.6147V22.6606V22.7066V22.7525V22.7985V22.8444V22.8904V22.9364V22.9823V23.0283V23.0742V23.1202V23.1661V23.2121V23.258V23.304V23.35V23.3959V23.4419V23.4878V23.5338V23.5797V23.6257V23.6717V23.7176V23.7636V23.8095V23.8555V23.9014V23.9474V23.9934V24.0393V24.0853V24.1312V24.1772V24.2231V24.2691V24.3151V24.361V24.407V24.4529V24.4989V24.5449V24.5908V24.6368V24.6827V24.7287V24.7746V24.8206V24.8666V24.9125V24.9585V25.0044V25.0504V25.0964V25.1423V25.1883V25.2342V25.2802V25.3262V25.3721V25.4181V25.464V25.51V25.556V25.6019V25.6479V25.6938V25.7398V25.7858V25.8317V25.8777V25.9236V25.9696V26.0156V26.0615V26.1075V26.1534V26.1994V26.2454V26.2913V26.3373V26.3833V26.4292V26.4752V26.5211V26.5671V26.6131V26.659V26.705V26.7509V26.7969V26.8429V26.8888V26.9348V26.9808V27.0267V27.0727V27.1186V27.1646V27.2106V27.2565V27.3025V27.3485V27.3944V27.4404V27.4864V27.5323V27.5783V27.6242V27.6702V27.7162V27.7621V27.8081V27.8541V27.9V27.946V27.992V28.0379V28.0839V28.1299V28.1758V28.2218V28.2677V28.3137V28.3597V28.4056V28.4516V28.4976V28.5435V28.5895V28.6355V28.6814V28.7274V28.7734V28.8193V28.8653V28.9113V28.9572V29.0032V29.0492V29.0951V29.1411V29.1871V29.233V29.279V29.325V29.3709V29.4169V29.4629V29.5088V29.5548V29.6008V29.6467V29.6927V29.7387V29.7846V29.8306V29.8766V29.9225V29.9685V30.0145V30.0604V30.1064V30.1524V30.1983V30.2443V30.2903V30.3362V30.3822V30.4282V30.4742V30.5201V30.5661V30.6121V30.658V30.704V30.75C20.4737 31.1271 20.377 31.2957 20.33 31.3546C20.2963 31.3969 20.2246 31.4676 20.02 31.4989C19.9488 31.5034 19.8773 31.4939 19.8095 31.4707C19.7354 31.4453 19.6673 31.4042 19.61 31.3498L19.5744 31.3161L19.5366 31.2848L11.6147 24.704C11.6142 24.7036 11.6136 24.7031 11.6131 24.7026C11.4637 24.5778 11.3134 24.4519 11.1623 24.3253C10.4593 23.7363 9.73852 23.1324 9.00492 22.5492L8.99753 22.5433L8.99006 22.5375C8.55524 22.2006 8.02526 22.009 7.47502 21.9904L7.44967 21.9895H7.4243C6.92812 21.9895 6.41361 21.9836 5.8891 21.9776C4.80017 21.9651 3.66813 21.9521 2.56744 21.9904L2.56144 21.9907C2.08852 22.0091 1.85316 21.934 1.73963 21.8706C1.68051 21.8376 1.59266 21.7758 1.50025 21.6057L1.50675 13.4146C1.59629 13.2142 1.68406 13.1507 1.73041 13.1223C1.81902 13.0679 2.02822 12.9869 2.48694 13.0009Z" stroke="white" stroke-width="3"/>
<path d="M37.9201 27.7915L37.9156 27.8005C37.1174 29.4099 36.1584 30.9309 35.0535 32.3391C34.8548 32.6033 34.8668 32.7477 34.8763 32.8033C34.8903 32.8851 34.9648 33.1028 35.3287 33.3965L37.9201 27.7915ZM37.9201 27.7915L37.9245 27.7824M37.9201 27.7915L37.9245 27.7824M37.9245 27.7824C39.6974 24.0833 40.4594 19.9645 40.1318 15.8613C39.8044 11.7598 38.4001 7.82244 36.0642 4.46598C35.6983 3.93271 35.29 3.42672 34.9257 2.97537C34.8666 2.90212 34.8086 2.83031 34.7522 2.76006L34.752 2.75977M37.9245 27.7824L34.752 2.75977M34.752 2.75977C34.4923 2.43663 34.4957 2.25843 34.5019 2.20329C34.5093 2.13787 34.5589 1.93016 34.9227 1.62068L34.9227 1.62069M34.752 2.75977L34.9227 1.62069M34.9227 1.62069L34.9261 1.61776M34.9227 1.62069L34.9261 1.61776M34.9261 1.61776C35.0716 1.49327 35.1596 1.49576 35.2086 1.50252C35.2803 1.51242 35.4665 1.57021 35.7007 1.84344C38.5208 5.15209 40.3926 9.20031 41.1039 13.5392L41.1039 13.5392M34.9261 1.61776L41.1039 13.5392M41.1039 13.5392L41.1052 13.5466M41.1039 13.5392L41.1052 13.5466M41.1052 13.5466C41.2749 14.5505 41.3595 15.5361 41.4295 16.3511C41.4533 16.6293 41.4755 16.8876 41.4988 17.12M41.1052 13.5466L41.4988 17.12M41.4988 17.12C41.3897 23.6079 39.5881 28.7318 36.0339 33.195C35.8436 33.4315 35.6804 33.486 35.6095 33.4968C35.551 33.5057 35.4606 33.5028 35.3289 33.3966L41.4988 17.12Z" stroke="white" stroke-width="3"/>
<path d="M32.4996 17.1796H32.4996L32.4997 17.1935C32.5202 20.4607 31.5713 23.6345 29.8127 26.238L29.7932 26.2669L29.7751 26.2966C29.7353 26.362 29.6896 26.4088 29.6465 26.4402C29.6039 26.4713 29.5637 26.4874 29.5297 26.4947C29.4959 26.5019 29.4623 26.5018 29.4283 26.4942C29.3941 26.4865 29.3537 26.4698 29.3109 26.4379L29.3078 26.4356C28.7499 26.0227 28.7628 25.5897 28.9141 25.3241C29.8563 23.8958 30.5525 22.299 30.9732 20.611L30.9733 20.6111L30.9763 20.5986C31.4359 18.6852 31.5007 16.6858 31.1666 14.7431C30.8324 12.8003 30.1064 10.9554 29.034 9.34321L29.0155 9.31526L28.9956 9.28818C28.7993 9.01979 28.635 8.71976 28.5095 8.39575C28.4698 8.17275 28.5908 7.76654 29.0161 7.53341C29.0854 7.49684 29.1503 7.49278 29.2098 7.50931C29.2735 7.52703 29.3622 7.57847 29.4372 7.69423L29.4615 7.7317L29.488 7.76767C31.4388 10.418 32.5097 13.7409 32.4996 17.1796Z" stroke="white" stroke-width="3"/>
</svg>
