<svg width="38" height="31" viewBox="0 0 38 31" fill="none" xmlns="http://www.w3.org/2000/svg">
<path d="M2.48694 11.0009L2.48777 11.0009C4.01435 11.0467 5.54173 11.0266 7.03166 11.0069C7.16929 11.0051 7.30659 11.0033 7.44355 11.0015L7.44958 11.0014C8.03049 10.9916 8.59174 10.7916 9.04784 10.4326L9.06209 10.4214L9.07607 10.4098C12.5546 7.53309 16.0331 4.64706 19.5116 1.75174C19.7964 1.51981 20.0031 1.49535 20.0846 1.5007C20.1262 1.50343 20.1591 1.51385 20.1908 1.53206C20.2195 1.54853 20.2653 1.582 20.3194 1.65125C20.4142 1.81186 20.4678 1.99417 20.4747 2.18168L20.4753 2.19618L20.4761 2.21067C20.5125 2.85521 20.5009 3.44313 20.4881 4.08976C20.4811 4.44398 20.4737 4.81581 20.4737 5.22421V5.27014V5.31607V5.36199V5.40792V5.45385V5.49978V5.54571V5.59164V5.63757V5.6835V5.72942V5.77535V5.82128V5.86721V5.91314V5.95907V6.005V6.05093V6.09686V6.14279V6.18872V6.23465V6.28058V6.32651V6.37244V6.41837V6.4643V6.51023V6.55616V6.60209V6.64802V6.69396V6.73989V6.78582V6.83175V6.87768V6.92361V6.96954V7.01547V7.06141V7.10734V7.15327V7.1992V7.24513V7.29106V7.337V7.38293V7.42886V7.47479V7.52072V7.56666V7.61259V7.65852V7.70445V7.75039V7.79632V7.84225V7.88819V7.93412V7.98005V8.02598V8.07192V8.11785V8.16378V8.20972V8.25565V8.30158V8.34752V8.39345V8.43939V8.48532V8.53125V8.57719V8.62312V8.66906V8.71499V8.76093V8.80686V8.85279V8.89873V8.94466V8.9906V9.03653V9.08247V9.1284V9.17434V9.22027V9.26621V9.31214V9.35808V9.40402V9.44995V9.49589V9.54182V9.58776V9.63369V9.67963V9.72557V9.7715V9.81744V9.86337V9.90931V9.95525V10.0012V10.0471V10.0931V10.139V10.1849V10.2309V10.2768V10.3227V10.3687V10.4146V10.4606V10.5065V10.5524V10.5984V10.6443V10.6902V10.7362V10.7821V10.8281V10.874V10.9199V10.9659V11.0118V11.0577V11.1037V11.1496V11.1956V11.2415V11.2874V11.3334V11.3793V11.4253V11.4712V11.5171V11.5631V11.609V11.655V11.7009V11.7468V11.7928V11.8387V11.8847V11.9306V11.9765V12.0225V12.0684V12.1144V12.1603V12.2062V12.2522V12.2981V12.3441V12.39V12.4359V12.4819V12.5278V12.5738V12.6197V12.6656V12.7116V12.7575V12.8035V12.8494V12.8953V12.9413V12.9872V13.0332V13.0791V13.1251V13.171V13.2169V13.2629V13.3088V13.3548V13.4007V13.4467V13.4926V13.5385V13.5845V13.6304V13.6764V13.7223V13.7683V13.8142V13.8601V13.9061V13.952V13.998V14.0439V14.0899V14.1358V14.1817V14.2277V14.2736V14.3196V14.3655V14.4115V14.4574V14.5034V14.5493V14.5952V14.6412V14.6871V14.7331V14.779V14.825V14.8709V14.9169V14.9628V15.0087V15.0547V15.1006V15.1466V15.1925V15.2385V15.2844V15.3304V15.3763V15.4223V15.4682V15.5142V15.5601V15.606V15.652V15.6979V15.7439V15.7898V15.8358V15.8817V15.9277V15.9736V16.0196V16.0655V16.1115V16.1574V16.2034V16.2493V16.2952V16.3412V16.3871V16.4331V16.479V16.525V16.5709V16.6169V16.6628V16.7088V16.7547V16.8007V16.8466V16.8926V16.9385V16.9845V17.0304V17.0764V17.1223V17.1683V17.2142V17.2602V17.3061V17.3521V17.398V17.444V17.4899V17.5359V17.5818V17.6278V17.6737V17.7197V17.7656V17.8116V17.8575V17.9035V17.9494V17.9954V18.0413V18.0873V18.1332V18.1792V18.2251V18.2711V18.317V18.363V18.4089V18.4549V18.5008V18.5468V18.5927V18.6387V18.6846V18.7306V18.7765V18.8225V18.8684V18.9144V18.9603V19.0063V19.0522V19.0982V19.1441V19.1901V19.2361V19.282V19.328V19.3739V19.4199V19.4658V19.5118V19.5577V19.6037V19.6496V19.6956V19.7415V19.7875V19.8334V19.8794V19.9254V19.9713V20.0173V20.0632V20.1092V20.1551V20.2011V20.247V20.293V20.3389V20.3849V20.4309V20.4768V20.5228V20.5687V20.6147V20.6606V20.7066V20.7525V20.7985V20.8444V20.8904V20.9364V20.9823V21.0283V21.0742V21.1202V21.1661V21.2121V21.258V21.304V21.35V21.3959V21.4419V21.4878V21.5338V21.5797V21.6257V21.6717V21.7176V21.7636V21.8095V21.8555V21.9014V21.9474V21.9934V22.0393V22.0853V22.1312V22.1772V22.2231V22.2691V22.3151V22.361V22.407V22.4529V22.4989V22.5449V22.5908V22.6368V22.6827V22.7287V22.7746V22.8206V22.8666V22.9125V22.9585V23.0044V23.0504V23.0964V23.1423V23.1883V23.2342V23.2802V23.3262V23.3721V23.4181V23.464V23.51V23.556V23.6019V23.6479V23.6938V23.7398V23.7858V23.8317V23.8777V23.9236V23.9696V24.0156V24.0615V24.1075V24.1534V24.1994V24.2454V24.2913V24.3373V24.3833V24.4292V24.4752V24.5211V24.5671V24.6131V24.659V24.705V24.7509V24.7969V24.8429V24.8888V24.9348V24.9808V25.0267V25.0727V25.1186V25.1646V25.2106V25.2565V25.3025V25.3485V25.3944V25.4404V25.4864V25.5323V25.5783V25.6242V25.6702V25.7162V25.7621V25.8081V25.8541V25.9V25.946V25.992V26.0379V26.0839V26.1299V26.1758V26.2218V26.2677V26.3137V26.3597V26.4056V26.4516V26.4976V26.5435V26.5895V26.6355V26.6814V26.7274V26.7734V26.8193V26.8653V26.9113V26.9572V27.0032V27.0492V27.0951V27.1411V27.1871V27.233V27.279V27.325V27.3709V27.4169V27.4629V27.5088V27.5548V27.6008V27.6467V27.6927V27.7387V27.7846V27.8306V27.8766V27.9225V27.9685V28.0145V28.0604V28.1064V28.1524V28.1983V28.2443V28.2903V28.3362V28.3822V28.4282V28.4742V28.5201V28.5661V28.6121V28.658V28.704V28.75C20.4737 29.1271 20.377 29.2957 20.33 29.3546C20.2963 29.3969 20.2246 29.4676 20.02 29.4989C19.9488 29.5034 19.8773 29.4939 19.8095 29.4707C19.7354 29.4453 19.6673 29.4042 19.61 29.3498L19.5744 29.3161L19.5366 29.2848L11.6147 22.704C11.6142 22.7036 11.6136 22.7031 11.6131 22.7026C11.4637 22.5778 11.3134 22.4519 11.1623 22.3253C10.4593 21.7363 9.73852 21.1324 9.00492 20.5492L8.99753 20.5433L8.99006 20.5375C8.55524 20.2006 8.02526 20.009 7.47502 19.9904L7.44967 19.9895H7.4243C6.92812 19.9895 6.41361 19.9836 5.8891 19.9776C4.80017 19.9651 3.66813 19.9521 2.56744 19.9904L2.56144 19.9907C2.08852 20.0091 1.85316 19.934 1.73963 19.8706C1.68051 19.8376 1.59266 19.7758 1.50025 19.6057L1.50675 11.4146C1.59629 11.2142 1.68406 11.1507 1.73041 11.1223C1.81902 11.0679 2.02822 10.9869 2.48694 11.0009Z" stroke="white" stroke-width="3"/>
<path d="M30.6196 15.4666C29.3263 16.7729 28.0344 18.0795 26.744 19.3864L26.7387 19.3918L26.7386 19.3918C26.7027 19.4271 26.6712 19.4607 26.6453 19.492L30.6196 15.4666ZM30.6196 15.4666C30.6291 15.4593 30.6391 15.4526 30.6494 15.4465L31.1819 15.1309L30.7613 14.6767C30.7502 14.6646 30.7383 14.6516 30.7261 14.6383C30.6978 14.6073 30.668 14.5747 30.6425 14.5488C30.6425 14.5488 30.6425 14.5488 30.6425 14.5488L26.7472 10.6091L26.7472 10.6091L26.7439 10.6058C26.6304 10.4932 26.5623 10.3402 26.5548 10.1773C26.5472 10.0144 26.601 9.85538 26.7038 9.73219L26.7038 9.73219L26.706 9.72964C26.8082 9.60558 26.9517 9.52616 27.1074 9.50542C27.2619 9.48484 27.419 9.52327 27.5479 9.6142C27.5838 9.64076 27.6174 9.67035 27.6485 9.70267L27.6485 9.70273L27.6546 9.7089C28.9404 11 30.2258 12.292 31.5108 13.585L31.5113 13.5856C31.5293 13.6036 31.5428 13.6186 31.5648 13.6431C31.5785 13.6582 31.5954 13.677 31.6186 13.7024L31.9636 14.0791L32.3328 13.7261C32.3403 13.719 32.3496 13.7102 32.3598 13.7006C32.3867 13.6752 32.4206 13.6433 32.4478 13.6158L30.6196 15.4666ZM33.7739 14.8047C35.0365 13.5297 36.2985 12.2534 37.5599 10.9758C37.8759 10.6559 37.9662 10.2681 37.8412 9.84131C37.5952 8.99286 36.5609 8.74692 35.9301 9.38358L36.2853 9.73549C36.2854 9.73539 36.2855 9.7353 36.2856 9.73521M33.7739 14.8047L32.4479 13.6157C33.7273 12.3222 35.0066 11.0287 36.2856 9.73521M33.7739 14.8047L33.7131 14.8618L33.3614 14.5108C33.3612 14.511 33.361 14.5112 33.3608 14.5113M33.7739 14.8047L33.3608 14.5113M36.2856 9.73521C36.6617 9.35599 37.2266 9.51711 37.361 9.98054L37.3614 9.98189C37.437 10.24 37.3884 10.438 37.2042 10.6245L37.2041 10.6245C35.9236 11.9214 34.6425 13.217 33.3608 14.5113M36.2856 9.73521L33.3608 14.5113M33.3608 14.5113C33.35 14.5222 33.3424 14.5288 33.3264 14.5426C33.3138 14.5535 33.2962 14.5689 33.2677 14.5943L32.8851 14.9355L33.2358 15.3094C33.2434 15.3175 33.2523 15.3271 33.2621 15.3378C33.2881 15.3659 33.3201 15.4006 33.3482 15.4287C34.6226 16.7104 35.8981 17.9912 37.1746 19.2712L37.1755 19.2722C37.3533 19.4495 37.4555 19.6027 37.4999 19.7713L37.4998 19.9391C37.4877 19.9749 37.4761 20.0109 37.4663 20.0411C37.4585 20.065 37.452 20.0853 37.4474 20.0987C37.4246 20.1657 37.4088 20.2003 37.3961 20.2212C37.3159 20.3507 37.2287 20.4151 37.1386 20.451C37.0404 20.4902 36.9052 20.5082 36.7193 20.4881L36.7186 20.488C36.5641 20.4716 36.4264 20.4012 36.2768 20.2498C35.0069 18.9605 33.7353 17.6731 32.4621 16.3877C32.4443 16.3667 32.4276 16.3448 32.4119 16.3221L32.0768 15.8367L31.6529 16.2467C31.6393 16.2598 31.6248 16.2736 31.6103 16.2876C31.5825 16.3141 31.5543 16.3411 31.531 16.3644L31.5293 16.3662L27.6422 20.2972C27.4213 20.5205 27.007 20.5675 26.7396 20.3978L26.7396 20.3978C26.4893 20.2389 26.3975 19.7916 26.6453 19.492L33.3608 14.5113ZM33.9506 15.3254C35.1424 16.5237 36.335 17.7213 37.5286 18.9182L33.9506 15.3254Z" fill="white" stroke="white"/>
</svg>
