<svg width="37" height="32" viewBox="0 0 37 32" fill="none" xmlns="http://www.w3.org/2000/svg">
<path d="M11.5625 18.2857H10.4062C7.85166 18.2857 5.78125 20.3357 5.78125 22.8657V27.42C5.78125 29.9493 7.85166 32 10.4062 32H11.5625C12.8394 32 13.875 30.9743 13.875 29.71V20.5757C13.875 19.3107 12.8394 18.2857 11.5625 18.2857ZM26.5938 18.2857H25.4375C24.1606 18.2857 23.125 19.3107 23.125 20.5757V29.71C23.125 30.9743 24.1606 32 25.4375 32H26.5938C29.1483 32 31.2188 29.9493 31.2188 27.42V22.8657C31.2188 20.3364 29.1483 18.2857 26.5938 18.2857ZM18.5 0C8.15951 0 0.330254 8.50929 0 18.2857V26.2857C0 26.9171 0.517422 27.4286 1.15625 27.4286H2.3125C2.95133 27.4286 3.46875 26.9171 3.46875 26.2857V18.2857C3.46875 10.095 10.2133 3.44286 18.5 3.44143C26.7867 3.44286 33.5312 10.095 33.5312 18.2857V26.2857C33.5312 26.9171 34.0487 27.4286 34.6875 27.4286H35.8438C36.4826 27.4286 37 26.9171 37 26.2857V18.2857C36.6697 8.50929 28.8405 0 18.5 0Z" fill="white"/>
</svg>
