<svg width="43" height="36" viewBox="0 0 43 36" fill="none" xmlns="http://www.w3.org/2000/svg">
<path fill-rule="evenodd" clip-rule="evenodd" d="M31.8236 29.5134V15.7487C31.8236 14.5318 31.3402 13.3648 30.4798 12.5043C29.6193 11.6438 28.4523 11.1604 27.2354 11.1604H6.58825C5.37137 11.1604 4.20433 11.6438 3.34387 12.5043C2.4834 13.3648 2 14.5318 2 15.7487V29.5134C2 30.7303 2.4834 31.8974 3.34387 32.7578C4.20433 33.6183 5.37137 34.1017 6.58825 34.1017H27.2354C28.4523 34.1017 29.6193 33.6183 30.4798 32.7578C31.3402 31.8974 31.8236 30.7303 31.8236 29.5134Z" stroke="white" stroke-width="3" stroke-linecap="round" stroke-linejoin="round"/>
<path d="M36.4123 29.5134V13.466C36.4123 11.6407 35.6872 9.89016 34.3965 8.59947C33.1058 7.30877 31.3553 6.58366 29.5299 6.58366H29.5185L8.88281 6.62037" stroke="white" stroke-width="3" stroke-linecap="round" stroke-linejoin="round"/>
<path d="M41.0002 24.9252V11.1765C41.0002 8.74274 40.0334 6.40866 38.3125 4.68773C36.5915 2.96681 34.2575 2 31.8237 2H31.8076L13.4707 2.02982" stroke="white" stroke-width="3" stroke-linecap="round" stroke-linejoin="round"/>
</svg>
