<svg width="28" height="33" viewBox="0 0 28 33" fill="none" xmlns="http://www.w3.org/2000/svg">
<path d="M17.165 32.431H5.067C3.72346 32.4294 2.43542 31.8949 1.48549 30.9448C0.535559 29.9947 0.00132327 28.7065 0 27.363L0 10.2C0.00105856 8.85629 0.535178 7.56789 1.48514 6.61755C2.4351 5.66722 3.72329 5.13259 5.067 5.131H17.167C18.5105 5.13285 19.7985 5.6676 20.7482 6.6179C21.698 7.56821 22.2319 8.85646 22.233 10.2V27.363C22.2317 28.7067 21.6973 29.995 20.7472 30.9452C19.797 31.8953 18.5087 32.4297 17.165 32.431ZM5.067 7.664C4.39501 7.66506 3.7509 7.93268 3.27601 8.40813C2.80112 8.88358 2.53426 9.52801 2.534 10.2V27.363C2.534 28.0352 2.80074 28.6799 3.27566 29.1555C3.75057 29.6312 4.39484 29.8989 5.067 29.9H17.167C17.8392 29.8989 18.4834 29.6312 18.9583 29.1555C19.4333 28.6799 19.7 28.0352 19.7 27.363V10.2C19.6992 9.52818 19.432 8.88411 18.9569 8.40907C18.4819 7.93402 17.8378 7.66679 17.166 7.666L5.067 7.664ZM27.3 24.2V5.067C27.2984 3.72364 26.7641 2.43575 25.8142 1.48584C24.8643 0.535941 23.5764 0.0015879 22.233 0L8.171 0C7.83497 0 7.5127 0.133487 7.2751 0.371096C7.03749 0.608704 6.904 0.930971 6.904 1.267C6.904 1.60303 7.03749 1.9253 7.2751 2.1629C7.5127 2.40051 7.83497 2.534 8.171 2.534H22.233C22.9048 2.53479 23.5489 2.80202 24.0239 3.27707C24.499 3.75211 24.7662 4.39618 24.767 5.068V24.2C24.767 24.536 24.9005 24.8583 25.1381 25.0959C25.3757 25.3335 25.698 25.467 26.034 25.467C26.37 25.467 26.6923 25.3335 26.9299 25.0959C27.1675 24.8583 27.301 24.536 27.301 24.2H27.3Z" fill="white"/>
</svg>
