<svg width="33" height="33" viewBox="0 0 33 33" fill="none" xmlns="http://www.w3.org/2000/svg">
<path d="M11.2155 8.7004C11.2155 7.62428 11.206 6.54817 11.2155 5.47205C11.2222 5.12596 11.3349 4.79024 11.5383 4.51016C11.7418 4.23009 12.0262 4.01914 12.3533 3.90576C13.017 3.67347 13.7925 3.85267 14.2059 4.43292C14.4202 4.73442 14.5984 5.13926 14.6032 5.49955C14.6354 8.15429 14.624 10.809 14.6183 13.4638C14.6227 13.6158 14.5962 13.7671 14.5403 13.9085C14.4844 14.0499 14.4003 14.1785 14.2932 14.2864C14.1861 14.3943 14.0581 14.4794 13.9171 14.5363C13.7761 14.5932 13.625 14.6209 13.473 14.6176C10.8069 14.6252 8.14109 14.6252 5.47561 14.6176C5.03139 14.6106 4.60783 14.4289 4.29671 14.1117C3.9856 13.7946 3.812 13.3676 3.81355 12.9233C3.81153 12.4737 3.98783 12.0416 4.30381 11.7217C4.61979 11.4018 5.04969 11.2202 5.49931 11.2167C6.565 11.2034 7.63068 11.2167 8.78265 11.2167C8.65181 11.0792 8.57027 10.9901 8.48494 10.9048C5.8637 8.28228 3.24057 5.65915 0.615544 3.03538C0.206905 2.62769 -0.0481391 2.16406 0.00874812 1.58097C0.0751165 0.869879 0.446778 0.358841 1.12374 0.113278C1.80069 -0.132285 2.43025 0.0260541 2.94792 0.542779C5.58875 3.18045 8.22768 5.82001 10.8647 8.46148C10.9501 8.55931 11.0287 8.6629 11.0999 8.77151L11.2155 8.7004Z" fill="white"/>
<path d="M24.2152 11.226C25.317 11.226 26.3352 11.226 27.3535 11.226C28.4126 11.226 29.1843 11.9532 29.1815 12.9326C29.1786 13.912 28.4059 14.6326 27.3421 14.6326C24.7828 14.6326 22.2229 14.6326 19.6624 14.6326C18.8233 14.6326 18.3729 14.1794 18.372 13.3346C18.372 10.7747 18.372 8.21475 18.372 5.65482C18.372 4.59388 19.0963 3.82305 20.0786 3.82495C21.0608 3.82685 21.7786 4.59862 21.7852 5.66241C21.7852 6.65793 21.7852 7.65346 21.7852 8.64804C21.792 8.68348 21.8025 8.71812 21.8165 8.75138C21.9189 8.65657 22.0128 8.57693 22.1009 8.4897C24.7247 5.86847 27.3478 3.24533 29.9703 0.620306C30.4918 0.0959957 31.091 -0.126811 31.8078 0.0969449C32.0862 0.1839 32.3374 0.341324 32.537 0.553951C32.7366 0.766578 32.8779 1.02719 32.9472 1.31051C33.0165 1.59383 33.0113 1.89023 32.9323 2.17098C32.8532 2.45172 32.703 2.70728 32.4961 2.91286C31.6788 3.75479 30.8398 4.57491 30.0101 5.40452C28.167 7.24766 26.3239 9.09112 24.4807 10.9349C24.4087 11.0145 24.3404 11.0923 24.2152 11.226Z" fill="white"/>
<path d="M11.1678 24.238L6.39875 29.008C5.243 30.1638 4.09293 31.3262 2.92769 32.4724C2.16919 33.2167 1.03145 33.157 0.385777 32.3644C0.118672 32.0411 -0.0182682 31.6298 0.00172008 31.2109C0.0217083 30.7921 0.19719 30.3957 0.493864 30.0993C1.00111 29.5684 1.52921 29.0564 2.04878 28.5378C4.17636 26.4095 6.30426 24.282 8.43247 22.155C8.5159 22.0716 8.61546 22.0043 8.78138 21.8706C8.59175 21.8497 8.51211 21.8317 8.42963 21.8317C7.47013 21.8317 6.51063 21.8317 5.55113 21.8317C4.54139 21.827 3.781 21.1007 3.77341 20.1422C3.76583 19.1675 4.5319 18.4223 5.55493 18.4204C8.15025 18.4166 10.7446 18.4166 13.338 18.4204C14.1098 18.4204 14.5791 18.8944 14.5801 19.6596C14.5801 22.2511 14.5801 24.8455 14.5801 27.4427C14.5801 28.4676 13.8349 29.2327 12.8621 29.227C11.8893 29.2213 11.1744 28.4628 11.1687 27.4531C11.164 26.4102 11.1678 25.371 11.1678 24.238Z" fill="white"/>
<path d="M24.2743 21.8764L26.9187 24.5121C28.7618 26.3553 30.6046 28.1994 32.4471 30.0444C33.4066 31.0087 33.0473 32.5531 31.7768 32.9229C31.1065 33.1182 30.5196 32.9371 30.0237 32.4394C28.3753 30.7859 26.7246 29.1349 25.0717 27.4864L22.1781 24.5956C22.0965 24.515 22.0112 24.4391 21.8709 24.3111V24.7141C21.8709 25.6745 21.8803 26.634 21.8709 27.5945C21.8659 28.0444 21.6825 28.4739 21.3611 28.7887C21.0397 29.1035 20.6065 29.2779 20.1567 29.2736C19.7122 29.2741 19.2854 29.0993 18.9691 28.787C18.6527 28.4748 18.4724 28.0503 18.4671 27.6059C18.4551 24.9397 18.4551 22.2736 18.4671 19.6075C18.4635 19.4582 18.4901 19.3096 18.5452 19.1708C18.6004 19.0319 18.6829 18.9056 18.788 18.7994C18.893 18.6932 19.0184 18.6093 19.1567 18.5526C19.2949 18.496 19.4432 18.4678 19.5925 18.4698C22.271 18.4612 24.9485 18.4565 27.6269 18.4698C28.5504 18.4698 29.2757 19.2615 29.2709 20.1764C29.2688 20.6202 29.0931 21.0455 28.7814 21.3614C28.4698 21.6773 28.0469 21.8587 27.6032 21.8669C26.6437 21.8821 25.6833 21.8669 24.7238 21.8669L24.2743 21.8764Z" fill="white"/>
</svg>
