<svg width="33" height="33" viewBox="0 0 33 33" fill="none" xmlns="http://www.w3.org/2000/svg">
<path d="M3.41045 5.92291C3.41045 6.99902 3.41993 8.07514 3.41045 9.15125C3.40376 9.49735 3.29109 9.83307 3.08765 10.1131C2.88421 10.3932 2.59978 10.6042 2.27271 10.7175C1.60903 10.9498 0.833463 10.7706 0.420082 10.1904C0.205807 9.88889 0.0275605 9.48404 0.0228199 9.12376C-0.0094162 6.46902 0.00196089 3.81429 0.00764961 1.15955C0.00324388 1.00755 0.0297939 0.856241 0.0856826 0.71482C0.141571 0.573398 0.225633 0.444817 0.332759 0.336893C0.439884 0.228969 0.567835 0.143956 0.708838 0.0870188C0.849841 0.0300819 1.00095 0.00241135 1.15298 0.00568872C3.81909 -0.00189624 6.48489 -0.00189624 9.15037 0.00568872C9.59458 0.0126706 10.0182 0.194433 10.3293 0.511582C10.6404 0.828731 10.814 1.25571 10.8124 1.69998C10.8144 2.14961 10.6382 2.58171 10.3222 2.9016C10.0062 3.22149 9.57629 3.40309 9.12667 3.40659C8.06098 3.41987 6.99529 3.40659 5.84333 3.40659C5.97417 3.54407 6.05571 3.6332 6.14104 3.71853C8.76227 6.34103 11.3854 8.96416 14.0104 11.5879C14.4191 11.9956 14.6741 12.4592 14.6172 13.0423C14.5509 13.7534 14.1792 14.2645 13.5022 14.51C12.8253 14.7556 12.1957 14.5973 11.6781 14.0805C9.03723 11.4429 6.39829 8.80329 3.76126 6.16183C3.67586 6.064 3.5973 5.96041 3.52612 5.8518L3.41045 5.92291Z" fill="white"/>
<path d="M27.1524 3.41702C26.0507 3.41702 25.0324 3.41702 24.0142 3.41702C22.9551 3.41702 22.1833 2.68981 22.1862 1.7104C22.189 0.730992 22.9617 0.0104218 24.0255 0.0104218C26.5848 0.0104218 29.1448 0.0104218 31.7053 0.0104218C32.5444 0.0104218 32.9948 0.463622 32.9957 1.3084C32.9957 3.86832 32.9957 6.42824 32.9957 8.98817C32.9957 10.0491 32.2713 10.8199 31.2891 10.818C30.3068 10.8161 29.5891 10.0444 29.5825 8.98058C29.5825 7.98506 29.5825 6.98953 29.5825 5.99495C29.5757 5.95951 29.5652 5.92487 29.5512 5.89161C29.4488 5.98642 29.3549 6.06606 29.2667 6.15329C26.643 8.77452 24.0198 11.3977 21.3973 14.0227C20.8759 14.547 20.2767 14.7698 19.5599 14.546C19.2815 14.4591 19.0303 14.3017 18.8307 14.089C18.631 13.8764 18.4897 13.6158 18.4205 13.3325C18.3512 13.0492 18.3564 12.7528 18.4354 12.472C18.5144 12.1913 18.6647 11.9357 18.8716 11.7301C19.6888 10.8882 20.5279 10.0681 21.3575 9.23847C23.2007 7.39533 25.0438 5.55187 26.887 3.70809C26.959 3.62845 27.0273 3.5507 27.1524 3.41702Z" fill="white"/>
<path d="M3.41228 27.176L8.18132 22.406C9.33708 21.2502 10.4872 20.0878 11.6524 18.9415C12.4109 18.1973 13.5486 18.257 14.1943 19.0496C14.4614 19.3729 14.5983 19.7842 14.5784 20.2031C14.5584 20.6219 14.3829 21.0183 14.0862 21.3147C13.579 21.8456 13.0509 22.3576 12.5313 22.8762C10.4037 25.0044 8.27582 27.132 6.14761 29.259C6.06417 29.3424 5.96462 29.4097 5.7987 29.5434C5.98833 29.5643 6.06797 29.5823 6.15045 29.5823C7.10995 29.5823 8.06945 29.5823 9.02894 29.5823C10.0387 29.587 10.7991 30.3133 10.8067 31.2718C10.8143 32.2465 10.0482 32.9917 9.02515 32.9936C6.42983 32.9974 3.83546 32.9974 1.24203 32.9936C0.470265 32.9936 0.00094812 32.5196 0 31.7544C0 29.1629 0 26.5685 0 23.9713C0 22.9464 0.745222 22.1813 1.71799 22.187C2.69076 22.1926 3.40564 22.9511 3.41133 23.9609C3.41607 25.0038 3.41228 26.043 3.41228 27.176Z" fill="white"/>
<path d="M27.1758 29.5851L24.5315 26.9494C22.6884 25.1062 20.8456 23.2621 19.0031 21.4171C18.0436 20.4528 18.4029 18.9084 19.6734 18.5386C20.3437 18.3433 20.9306 18.5244 21.4264 19.0221C23.0749 20.6757 24.7256 22.3266 26.3785 23.9751L29.2721 26.8659C29.3537 26.9465 29.439 27.0224 29.5793 27.1504V26.7474C29.5793 25.787 29.5698 24.8275 29.5793 23.867C29.5843 23.4172 29.7677 22.9877 30.0891 22.6728C30.4105 22.358 30.8437 22.1836 31.2935 22.1879C31.738 22.1874 32.1648 22.3622 32.4811 22.6745C32.7975 22.9867 32.9778 23.4112 32.9831 23.8556C32.9951 26.5218 32.9951 29.1879 32.9831 31.854C32.9867 32.0033 32.9601 32.1519 32.905 32.2907C32.8498 32.4296 32.7673 32.5559 32.6622 32.6621C32.5571 32.7683 32.4318 32.8522 32.2935 32.9089C32.1553 32.9655 32.007 32.9937 31.8577 32.9917C29.1792 33.0003 26.5017 33.005 23.8233 32.9917C22.8998 32.9917 22.1745 32.2 22.1793 31.2851C22.1814 30.8413 22.3571 30.416 22.6688 30.1001C22.9804 29.7842 23.4033 29.6028 23.847 29.5946C24.8065 29.5794 25.7669 29.5946 26.7264 29.5946L27.1758 29.5851Z" fill="white"/>
</svg>
