<svg width="47" height="29" viewBox="0 0 47 29" fill="none" xmlns="http://www.w3.org/2000/svg">
<path fill-rule="evenodd" clip-rule="evenodd" d="M0.0379528 13.7741C0.167206 6.30514 7.23697 -0.236423 14.9275 0.0121601C18.6132 -0.154199 22.0756 1.40422 24.8977 3.59176C23.704 4.92313 22.4411 6.19385 21.1141 7.3989C17.7222 5.12532 12.8967 4.47136 9.50282 7.1006C4.64995 10.3609 4.43061 18.0593 9.09744 21.57C13.637 25.5703 22.2186 23.5836 23.472 17.4589C20.6304 17.4168 17.779 17.4589 14.9334 17.3671C14.9275 15.7207 14.9197 14.0724 14.9275 12.4241C19.6805 12.4107 24.4355 12.405 29.1963 12.4394C29.4803 16.3154 28.9535 20.4419 26.5016 23.6448C22.7885 28.7216 15.3349 30.2035 9.51849 28.0275C3.68251 25.8667 -0.453602 19.8816 0.0399112 13.7741H0.0379528ZM38.4693 8.2632H42.7092C42.717 9.64188 42.7229 11.0263 42.7386 12.4031C44.1564 12.4184 45.5821 12.4184 47 12.4318V16.5506C45.5821 16.564 44.1643 16.5716 42.7386 16.585C42.7229 17.9694 42.717 19.3481 42.7092 20.7249H38.4614C38.4477 19.3481 38.4477 17.9713 38.434 16.5926L34.1706 16.5506V12.4318C35.5905 12.4184 37.0083 12.4126 38.434 12.4031C38.4399 11.0187 38.4536 9.64188 38.4693 8.2632Z" fill="white"/>
</svg>
