<svg width="143" height="143" viewBox="0 0 143 143" fill="none" xmlns="http://www.w3.org/2000/svg">
<path d="M75.9674 0C78.6319 0.363097 81.3075 0.66754 83.9607 1.10046C111.89 5.67548 135.485 28.2238 141.299 55.9252C145.427 75.5958 142.04 93.8884 131.139 110.803C129.773 112.926 127.865 113.954 125.349 113.596C123.048 113.269 121.31 111.552 120.785 109.253C120.38 107.493 120.936 105.968 121.903 104.505C125.767 98.626 128.578 92.1186 130.209 85.2746C135.811 61.9387 126.614 36.994 107.184 22.8807C95.6919 14.5369 82.8566 10.6546 68.6779 11.2336C40.9973 12.3509 17.2882 33.0334 12.2246 60.4165C6.65832 90.5256 24.2984 119.989 53.5151 129.039C70.3816 134.265 86.5945 132.287 101.958 123.567C103.458 122.729 104.95 122.059 106.706 122.45C107.808 122.678 108.816 123.232 109.599 124.039C110.383 124.846 110.907 125.87 111.102 126.978C111.493 129.268 110.466 131.483 108.335 132.776C102.528 136.309 96.2334 138.967 89.6527 140.666C51.7332 150.467 13.353 128.545 2.70914 90.8859C1.46629 86.484 1.05014 81.8503 0.25137 77.3256C0.173168 76.8731 0.0837876 76.4234 0 75.971V67.0332C0.0809947 66.6282 0.178743 66.226 0.240187 65.8182C0.728948 62.5085 1.03337 59.1624 1.72043 55.8973C7.54087 28.1958 31.1047 5.69503 59.0395 1.10046C61.69 0.664747 64.3656 0.363097 67.0301 0H75.9674Z" fill="white"/>
<path d="M47.667 71.3682C47.667 66.1844 47.667 61.0034 47.667 55.8113C47.695 46.2522 57.2949 40.7129 65.657 45.4716C74.7098 50.6276 83.7421 55.8206 92.7539 61.0506C101.435 66.0899 101.435 76.9519 92.7539 81.9718C83.7795 87.1667 74.7873 92.3328 65.7774 97.4703C57.2613 102.329 47.6894 96.8091 47.6726 87.0528C47.667 81.819 47.667 76.5964 47.667 71.3682ZM58.8687 71.4848C58.8687 76.5741 58.8687 81.6671 58.8687 86.7639C58.8687 88.3168 59.1123 88.4612 60.4398 87.7028C69.2723 82.6394 78.103 77.5714 86.9318 72.4988C88.3573 71.6654 88.3629 71.3737 86.9682 70.5709C78.1413 65.4945 69.3115 60.4247 60.479 55.3613C59.0787 54.5585 58.8687 54.6946 58.8687 56.3697C58.8687 61.4053 58.8687 66.4437 58.8687 71.4848Z" fill="white"/>
</svg>
