<svg width="143" height="143" viewBox="0 0 143 143" fill="none" xmlns="http://www.w3.org/2000/svg">
<path d="M56.0039 70.5019C56.0039 65.8653 56.0039 61.228 56.0039 56.5902C56.0039 54.8064 56.8116 54.0124 58.6024 54.0038C59.7177 54.0038 60.8365 53.9952 61.9518 54.0038C63.2734 54.0176 64.167 54.8803 64.2478 56.2001C64.2478 56.3067 64.2478 56.4132 64.2478 56.5215C64.2478 65.8383 64.2478 75.1552 64.2478 84.472C64.2478 86.1424 63.3765 86.9931 61.6941 86.9966H61.0496C60.1697 86.9966 59.2898 86.9966 58.4082 86.9966C56.8855 86.9966 56.0022 86.1253 56.0022 84.6026C55.9988 79.903 55.9993 75.2027 56.0039 70.5019Z" fill="white"/>
<path d="M86.2195 70.5019C86.2195 75.1386 86.2195 79.7758 86.2195 84.4136C86.2195 86.194 85.4066 86.9914 83.6193 87H80.5895C78.7936 87 77.9705 86.1665 77.9705 84.3483C77.9705 81.0189 77.9705 77.6912 77.9705 74.3652C77.9705 68.4614 77.9705 62.5576 77.9705 56.6538C77.9705 54.8339 78.7919 54.0055 80.5912 54.0038C81.6653 54.0038 82.7377 54.0038 83.8118 54.0038C85.3362 54.0038 86.2178 54.8717 86.2178 56.396C86.2235 61.098 86.2241 65.7999 86.2195 70.5019Z" fill="white"/>
<path d="M75.9674 0C78.6318 0.363097 81.3075 0.66754 83.9607 1.10046C111.89 5.67548 135.485 28.2238 141.299 55.9252C145.427 75.5958 142.04 93.8884 131.139 110.803C129.773 112.926 127.865 113.954 125.349 113.596C123.048 113.269 121.31 111.552 120.785 109.253C120.38 107.493 120.936 105.968 121.903 104.505C125.767 98.626 128.578 92.1186 130.209 85.2746C135.811 61.9387 126.614 36.994 107.184 22.8807C95.6919 14.5369 82.8566 10.6546 68.6779 11.2336C40.9973 12.3509 17.2882 33.0334 12.2246 60.4165C6.65832 90.5256 24.2984 119.989 53.5151 129.039C70.3816 134.265 86.5945 132.287 101.958 123.567C103.458 122.729 104.95 122.059 106.706 122.45C107.808 122.678 108.816 123.232 109.599 124.039C110.383 124.846 110.907 125.87 111.102 126.978C111.493 129.268 110.466 131.483 108.335 132.776C102.528 136.309 96.2334 138.967 89.6527 140.666C51.7332 150.467 13.353 128.545 2.70914 90.8859C1.46629 86.484 1.05014 81.8503 0.25137 77.3256C0.173168 76.8731 0.0837876 76.4234 0 75.971V67.0332C0.0809947 66.6282 0.178743 66.226 0.240187 65.8182C0.728948 62.5085 1.03337 59.1624 1.72043 55.8973C7.54087 28.1958 31.1047 5.69503 59.0395 1.10046C61.69 0.664747 64.3656 0.363097 67.0301 0H75.9674Z" fill="white"/>
</svg>
