<svg width="143" height="143" viewBox="0 0 143 143" fill="none" xmlns="http://www.w3.org/2000/svg">
<path d="M75.9674 0C78.6319 0.363097 81.3075 0.66754 83.9607 1.10046C111.89 5.67548 135.485 28.2238 141.299 55.9252C145.427 75.5958 142.04 93.8884 131.139 110.803C129.773 112.926 127.865 113.954 125.349 113.596C123.048 113.269 121.31 111.552 120.785 109.253C120.38 107.493 120.936 105.968 121.903 104.505C125.767 98.626 128.578 92.1186 130.209 85.2746C135.811 61.9387 126.614 36.994 107.184 22.8807C95.6919 14.5369 82.8566 10.6546 68.6779 11.2336C40.9973 12.3509 17.2882 33.0334 12.2246 60.4165C6.65832 90.5256 24.2984 119.989 53.5151 129.039C70.3816 134.265 86.5945 132.287 101.958 123.567C103.458 122.729 104.95 122.059 106.706 122.45C107.808 122.678 108.816 123.232 109.599 124.039C110.383 124.846 110.907 125.87 111.102 126.978C111.493 129.268 110.466 131.483 108.335 132.776C102.528 136.309 96.2334 138.967 89.6527 140.666C51.7332 150.467 13.353 128.545 2.70914 90.8859C1.46629 86.484 1.05014 81.8503 0.25137 77.3256C0.173168 76.8731 0.0837876 76.4234 0 75.971V67.0332C0.0809947 66.6282 0.178743 66.226 0.240187 65.8182C0.728948 62.5085 1.03337 59.1624 1.72043 55.8973C7.54087 28.1958 31.1047 5.69503 59.0395 1.10046C61.69 0.664747 64.3656 0.363097 67.0301 0H75.9674Z" fill="#4FA83D"/>
<path d="M47.6665 71.3682C47.6665 66.1844 47.6665 61.0035 47.6665 55.8114C47.6945 46.2523 57.2944 40.7129 65.6565 45.4716C74.7093 50.6276 83.7417 55.8206 92.7534 61.0507C101.435 66.09 101.435 76.952 92.7534 81.9718C83.779 87.1667 74.7868 92.3329 65.7769 97.4703C57.2608 102.329 47.6889 96.8091 47.6721 87.0528C47.6665 81.819 47.6665 76.5964 47.6665 71.3682ZM58.8682 71.4849C58.8682 76.5742 58.8682 81.6672 58.8682 86.7639C58.8682 88.3168 59.1119 88.4612 60.4393 87.7029C69.2718 82.6395 78.1025 77.5715 86.9313 72.4988C88.3568 71.6654 88.3624 71.3737 86.9678 70.5709C78.1408 65.4946 69.311 60.4247 60.4785 55.3613C59.0783 54.5585 58.8682 54.6946 58.8682 56.3697C58.8682 61.4053 58.8682 66.4437 58.8682 71.4849Z" fill="#4FA83D"/>
</svg>
