<svg width="31" height="33" viewBox="0 0 31 33" fill="none" xmlns="http://www.w3.org/2000/svg">
<path d="M0.00392913 16.5019C0.00392913 11.8653 0.00392913 7.22803 0.00392913 2.59024C0.00392913 0.80638 0.811647 0.0124118 2.60238 0.003819C3.71772 0.003819 4.8365 -0.00477375 5.95184 0.003819C7.2734 0.0175674 8.16705 0.88028 8.24782 2.20013C8.24782 2.30668 8.24782 2.41323 8.24782 2.5215C8.24782 11.8383 8.24782 21.1552 8.24782 30.472C8.24782 32.1424 7.37652 32.9931 5.69405 32.9966H5.0496C4.1697 32.9966 3.2898 32.9966 2.40818 32.9966C0.885544 32.9966 0.00220891 32.1253 0.00220891 30.6026C-0.0012282 25.903 -0.000653668 21.2027 0.00392913 16.5019Z" fill="white"/>
<path d="M30.2197 16.5019C30.2197 21.1386 30.2197 25.7758 30.2197 30.4136C30.2197 32.194 29.4069 32.9914 27.6196 33H24.5898C22.7939 33 21.9707 32.1665 21.9707 30.3483C21.9707 27.0189 21.9707 23.6912 21.9707 20.3652C21.9707 14.4614 21.9707 8.55761 21.9707 2.65382C21.9707 0.833872 22.7922 0.00553325 24.5915 0.0038147C25.6656 0.0038147 26.738 0.0038147 27.8121 0.0038147C29.3364 0.0038147 30.218 0.87168 30.218 2.39603C30.2238 7.09799 30.2243 11.7999 30.2197 16.5019Z" fill="white"/>
</svg>
