<svg width="30" height="33" viewBox="0 0 30 33" fill="none" xmlns="http://www.w3.org/2000/svg">
<path d="M0 16.4217C0 13.3411 0 10.2621 0 7.17654C0.0162822 1.49573 5.59783 -1.7962 10.4597 1.03182C15.7232 4.09593 20.9748 7.18204 26.2144 10.2902C31.2619 13.2849 31.2619 19.74 26.2144 22.7232C20.9965 25.8104 15.7682 28.8806 10.5297 31.9337C5.57829 34.8212 0.013029 31.5408 0.00325963 25.7428C3.18019e-06 22.6324 0 19.5287 0 16.4217ZM6.51289 16.491C6.51289 19.5155 6.51289 22.5422 6.51289 25.5711C6.51289 26.4939 6.65454 26.5798 7.42632 26.1291C12.5617 23.12 17.6961 20.1082 22.8293 17.0936C23.6581 16.5983 23.6613 16.425 22.8505 15.9479C17.7183 12.9311 12.5845 9.91816 7.44912 6.90909C6.63501 6.43198 6.51289 6.51287 6.51289 7.50837C6.51289 10.5009 6.51289 13.4951 6.51289 16.491Z" fill="white"/>
</svg>
