<svg width="36" height="37" viewBox="0 0 36 37" fill="none" xmlns="http://www.w3.org/2000/svg">
<path d="M14.5161 36.9976C14.4443 36.9743 14.3719 36.9526 14.2995 36.931C14.1416 36.8839 13.9839 36.8369 13.8335 36.7722C12.8065 36.3261 12.236 35.5294 12.0581 34.4388C11.9614 33.8454 11.8647 33.2519 11.7613 32.6594C11.5205 31.2664 10.1919 30.4793 8.8507 30.9427C8.48427 31.0688 8.1221 31.2071 7.75989 31.3453L7.75979 31.3453C7.52465 31.4351 7.28948 31.5248 7.05311 31.6113C5.59397 32.1431 4.18994 31.6469 3.40864 30.3107C2.41073 28.6055 1.42057 26.8968 0.438133 25.1845C-0.335436 23.8357 -0.0714569 22.3993 1.12564 21.3916C1.32834 21.2224 1.53223 21.056 1.73581 20.8899L1.7359 20.8899L1.73609 20.8897C2.018 20.6597 2.29932 20.4301 2.57608 20.1941C3.68132 19.2539 3.67842 17.7394 2.57608 16.8011C2.33961 16.6008 2.0992 16.405 1.8588 16.2093C1.59393 15.9937 1.32909 15.7781 1.06956 15.5564C-0.0530863 14.5978 -0.320936 13.1479 0.40912 11.8714C1.40509 10.1251 2.41299 8.3852 3.43281 6.65173C4.19381 5.35597 5.61041 4.86368 7.02991 5.37717C7.30383 5.47649 7.57608 5.57976 7.84831 5.68302L7.84835 5.68303L7.84839 5.68305C8.16234 5.80213 8.47626 5.92121 8.79268 6.0342C10.1938 6.53516 11.5166 5.7606 11.7709 4.3001C11.8088 4.08338 11.8448 3.86636 11.8809 3.64936C11.9552 3.20172 12.0295 2.7542 12.12 2.30973C12.2442 1.66478 12.5895 1.08288 13.0968 0.663569C13.6041 0.24426 14.2418 0.0136111 14.901 0.011079C16.9677 -0.003693 19.0344 -0.003693 21.1011 0.011079C22.5583 0.0216763 23.6916 1.05636 23.9392 2.55636C24.0359 3.14981 24.1326 3.74326 24.236 4.33574C24.4778 5.73362 25.7948 6.52071 27.1369 6.06118C27.5147 5.93251 27.8875 5.79034 28.2602 5.64824L28.2602 5.64823L28.2603 5.64823C28.4847 5.56264 28.7091 5.47707 28.9345 5.39451C30.3956 4.85983 31.7996 5.34923 32.5828 6.68545C33.5878 8.39964 34.5841 10.1187 35.5717 11.8425C36.323 13.1556 36.0552 14.6016 34.9026 15.5833C34.6515 15.7984 34.3935 16.0078 34.1351 16.2174C33.8959 16.4115 33.6565 16.6057 33.4222 16.8049C32.314 17.7471 32.3111 19.2539 33.4173 20.196C33.6674 20.4096 33.9226 20.6173 34.1778 20.8251C34.428 21.0287 34.6783 21.2324 34.9239 21.4417C36.0484 22.3993 36.3211 23.8502 35.593 25.1257C34.5925 26.8842 33.5785 28.6344 32.5509 30.3762C31.8073 31.6363 30.3956 32.1296 29.008 31.6402C28.6899 31.5277 28.3745 31.4078 28.059 31.2878L28.0589 31.2878L28.0588 31.2877C27.777 31.1806 27.4951 31.0734 27.2114 30.9716C25.8093 30.4668 24.4787 31.2394 24.2283 32.698C24.1919 32.911 24.1575 33.1245 24.1232 33.338L24.1232 33.3381L24.1231 33.3383C24.0581 33.7426 23.9931 34.1468 23.914 34.5477C23.6578 35.83 22.9016 36.645 21.6078 36.9417C21.5627 36.9569 21.5193 36.9766 21.4782 37.0005L14.5161 36.9976ZM2.91258 13.3271C3.40864 13.7355 3.89212 14.1334 4.3756 14.5303C6.95352 16.645 6.95062 20.354 4.3698 22.4735L2.90969 23.6749L5.96045 28.934C6.17336 28.8546 6.38149 28.7761 6.58655 28.6987L6.5867 28.6986C7.0335 28.53 7.46573 28.3669 7.90114 28.2124C8.59359 27.9637 9.33215 27.8685 10.0653 27.9333C10.7985 27.9981 11.5087 28.2215 12.1464 28.5878C12.7841 28.9541 13.3339 29.4545 13.7575 30.0543C14.1812 30.654 14.4684 31.3385 14.5993 32.0602C14.6871 32.5349 14.7677 33.0096 14.8489 33.4877C14.883 33.6888 14.9173 33.8904 14.9522 34.093H21.0441C21.083 33.8669 21.1212 33.6411 21.1593 33.4158L21.1596 33.4139L21.1597 33.4135C21.2397 32.9406 21.3194 32.4691 21.4057 31.9986C21.8747 29.4494 24.3424 27.5987 26.9174 27.9716C27.6297 28.0754 28.322 28.3267 29.0117 28.577C29.2432 28.6611 29.4745 28.745 29.7061 28.8232C29.9633 28.9099 30.0765 28.8801 30.2128 28.6421C30.7872 27.6342 31.3688 26.6311 31.9502 25.6285L31.9525 25.6244C32.2756 25.0672 32.5986 24.5101 32.9203 23.9523C32.9501 23.8973 32.9775 23.8422 33.0048 23.7872C33.0252 23.7459 33.0457 23.7046 33.0673 23.6633L32.6497 23.3199L32.6488 23.3192C32.3251 23.0529 32.0058 22.7902 31.6855 22.5284C29.006 20.3425 29.008 16.6594 31.6855 14.4725C32.0113 14.2062 32.3361 13.9385 32.6627 13.6694L32.6627 13.6693L32.6627 13.6693L33.077 13.328L32.4546 12.2541L32.4541 12.2533C31.6777 10.9138 30.9106 9.59031 30.1471 8.26445C30.0552 8.10549 29.9691 8.08333 29.799 8.14981L29.5798 8.23452L29.5797 8.23453C29.0235 8.44972 28.4671 8.66496 27.8979 8.84634C27.2142 9.06346 26.492 9.13311 25.7792 9.05065C25.0664 8.96819 24.3793 8.73551 23.7638 8.36808C23.1482 8.00065 22.6182 7.50688 22.209 6.9196C21.7997 6.33232 21.5206 5.66499 21.3903 4.96195C21.3032 4.48965 21.2222 4.01596 21.1411 3.54185C21.1051 3.33126 21.0691 3.12059 21.0325 2.90992H14.9406C14.9049 3.12333 14.8682 3.33569 14.8315 3.54739L14.8315 3.54776L14.8314 3.54804C14.7688 3.90952 14.7066 4.26907 14.6505 4.62861C14.1893 7.67871 11.4286 9.63247 8.47455 8.94846C7.89238 8.81433 7.33321 8.59508 6.77479 8.37612C6.59119 8.30413 6.40768 8.23218 6.22346 8.16329C6.00976 8.08237 5.90727 8.11127 5.79703 8.31454C5.57939 8.71325 5.34952 9.10534 5.11962 9.49748L5.1196 9.49751L5.11958 9.49755C5.03285 9.64548 4.94612 9.79342 4.86005 9.94171L2.91258 13.3271ZM17.766 25.6276C13.7483 25.4263 10.6569 22.1084 10.8387 18.2423C11.0263 14.2683 14.3352 11.2172 18.2456 11.382C22.2508 11.5506 25.3286 14.8849 25.1555 18.7394C25.0831 20.6259 24.2663 22.4078 22.8826 23.6976C21.4989 24.9875 19.6601 25.6811 17.766 25.6276ZM22.2566 18.4928C22.2472 17.3726 21.7969 16.3008 21.0025 15.508C20.2081 14.7153 19.133 14.2649 18.0087 14.2538C15.6773 14.2442 13.7328 16.1806 13.7386 18.5043C13.7489 19.6241 14.1994 20.6951 14.9934 21.4876C15.7874 22.2802 16.8616 22.7309 17.9855 22.7433C19.1157 22.7377 20.1981 22.2882 20.9977 21.4925C21.7974 20.6967 22.2497 19.6188 22.2566 18.4928Z" fill="white"/>
<path d="M14.5161 36.9976C14.4443 36.9743 14.3719 36.9526 14.2995 36.931C14.1416 36.8839 13.9839 36.8369 13.8335 36.7722C12.8065 36.3261 12.236 35.5294 12.0581 34.4388C11.9614 33.8454 11.8647 33.2519 11.7613 32.6594C11.5205 31.2664 10.1919 30.4793 8.8507 30.9427C8.48427 31.0688 8.1221 31.2071 7.75989 31.3453L7.75979 31.3453C7.52465 31.4351 7.28948 31.5248 7.05311 31.6113C5.59397 32.1431 4.18994 31.6469 3.40864 30.3107C2.41073 28.6055 1.42057 26.8968 0.438133 25.1845C-0.335436 23.8357 -0.0714569 22.3993 1.12564 21.3916C1.32834 21.2224 1.53223 21.056 1.73581 20.8899L1.7359 20.8899L1.73609 20.8897C2.018 20.6597 2.29932 20.4301 2.57608 20.1941C3.68132 19.2539 3.67842 17.7394 2.57608 16.8011C2.33961 16.6008 2.0992 16.405 1.8588 16.2093C1.59393 15.9937 1.32909 15.7781 1.06956 15.5564C-0.0530863 14.5978 -0.320936 13.1479 0.40912 11.8714C1.40509 10.1251 2.41299 8.3852 3.43281 6.65173C4.19381 5.35597 5.61041 4.86368 7.02991 5.37717C7.30383 5.47649 7.57608 5.57976 7.84831 5.68302L7.84835 5.68303L7.84839 5.68305C8.16234 5.80213 8.47626 5.92121 8.79268 6.0342C10.1938 6.53516 11.5166 5.7606 11.7709 4.3001C11.8088 4.08338 11.8448 3.86636 11.8809 3.64936C11.9552 3.20172 12.0295 2.7542 12.12 2.30973C12.2442 1.66478 12.5895 1.08288 13.0968 0.663569C13.6041 0.24426 14.2418 0.0136111 14.901 0.011079C16.9677 -0.003693 19.0344 -0.003693 21.1011 0.011079C22.5583 0.0216763 23.6916 1.05636 23.9392 2.55636C24.0359 3.14981 24.1326 3.74326 24.236 4.33574C24.4778 5.73362 25.7948 6.52071 27.1369 6.06118C27.5147 5.93251 27.8875 5.79034 28.2602 5.64824L28.2602 5.64823L28.2603 5.64823C28.4847 5.56264 28.7091 5.47707 28.9345 5.39451C30.3956 4.85983 31.7996 5.34923 32.5828 6.68545C33.5878 8.39964 34.5841 10.1187 35.5717 11.8425C36.323 13.1556 36.0552 14.6016 34.9026 15.5833C34.6515 15.7984 34.3935 16.0078 34.1351 16.2174C33.8959 16.4115 33.6565 16.6057 33.4222 16.8049C32.314 17.7471 32.3111 19.2539 33.4173 20.196C33.6674 20.4096 33.9226 20.6173 34.1778 20.8251C34.428 21.0287 34.6783 21.2324 34.9239 21.4417C36.0484 22.3993 36.3211 23.8502 35.593 25.1257C34.5925 26.8842 33.5785 28.6344 32.5509 30.3762C31.8073 31.6363 30.3956 32.1296 29.008 31.6402C28.6899 31.5277 28.3745 31.4078 28.059 31.2878L28.0589 31.2878L28.0588 31.2877C27.777 31.1806 27.4951 31.0734 27.2114 30.9716C25.8093 30.4668 24.4787 31.2394 24.2283 32.698C24.1919 32.911 24.1575 33.1245 24.1232 33.338L24.1232 33.3381L24.1231 33.3383C24.0581 33.7426 23.9931 34.1468 23.914 34.5477C23.6578 35.83 22.9016 36.645 21.6078 36.9417C21.5627 36.9569 21.5193 36.9766 21.4782 37.0005L14.5161 36.9976ZM2.91258 13.3271C3.40864 13.7355 3.89212 14.1334 4.3756 14.5303C6.95352 16.645 6.95062 20.354 4.3698 22.4735L2.90969 23.6749L5.96045 28.934C6.17336 28.8546 6.38149 28.7761 6.58655 28.6987L6.5867 28.6986C7.0335 28.53 7.46573 28.3669 7.90114 28.2124C8.59359 27.9637 9.33215 27.8685 10.0653 27.9333C10.7985 27.9981 11.5087 28.2215 12.1464 28.5878C12.7841 28.9541 13.3339 29.4545 13.7575 30.0543C14.1812 30.654 14.4684 31.3385 14.5993 32.0602C14.6871 32.5349 14.7677 33.0096 14.8489 33.4877C14.883 33.6888 14.9173 33.8904 14.9522 34.093H21.0441C21.083 33.8669 21.1212 33.6411 21.1593 33.4158L21.1596 33.4139L21.1597 33.4135C21.2397 32.9406 21.3194 32.4691 21.4057 31.9986C21.8747 29.4494 24.3424 27.5987 26.9174 27.9716C27.6297 28.0754 28.322 28.3267 29.0117 28.577C29.2432 28.6611 29.4745 28.745 29.7061 28.8232C29.9633 28.9099 30.0765 28.8801 30.2128 28.6421C30.7872 27.6342 31.3688 26.6311 31.9502 25.6285L31.9525 25.6244C32.2756 25.0672 32.5986 24.5101 32.9203 23.9523C32.9501 23.8973 32.9775 23.8422 33.0048 23.7872C33.0252 23.7459 33.0457 23.7046 33.0673 23.6633L32.6497 23.3199L32.6488 23.3192C32.3251 23.0529 32.0058 22.7902 31.6855 22.5284C29.006 20.3425 29.008 16.6594 31.6855 14.4725C32.0113 14.2062 32.3361 13.9385 32.6627 13.6694L32.6627 13.6693L32.6627 13.6693L33.077 13.328L32.4546 12.2541L32.4541 12.2533C31.6777 10.9138 30.9106 9.59031 30.1471 8.26445C30.0552 8.10549 29.9691 8.08333 29.799 8.14981L29.5798 8.23452L29.5797 8.23453C29.0235 8.44972 28.4671 8.66496 27.8979 8.84634C27.2142 9.06346 26.492 9.13311 25.7792 9.05065C25.0664 8.96819 24.3793 8.73551 23.7638 8.36808C23.1482 8.00065 22.6182 7.50688 22.209 6.9196C21.7997 6.33232 21.5206 5.66499 21.3903 4.96195C21.3032 4.48965 21.2222 4.01596 21.1411 3.54185C21.1051 3.33126 21.0691 3.12059 21.0325 2.90992H14.9406C14.9049 3.12333 14.8682 3.33569 14.8315 3.54739L14.8315 3.54776L14.8314 3.54804C14.7688 3.90952 14.7066 4.26907 14.6505 4.62861C14.1893 7.67871 11.4286 9.63247 8.47455 8.94846C7.89238 8.81433 7.33321 8.59508 6.77479 8.37612C6.59119 8.30413 6.40768 8.23218 6.22346 8.16329C6.00976 8.08237 5.90727 8.11127 5.79703 8.31454C5.57939 8.71325 5.34952 9.10534 5.11962 9.49748L5.1196 9.49751L5.11958 9.49755C5.03285 9.64548 4.94612 9.79342 4.86005 9.94171L2.91258 13.3271ZM17.766 25.6276C13.7483 25.4263 10.6569 22.1084 10.8387 18.2423C11.0263 14.2683 14.3352 11.2172 18.2456 11.382C22.2508 11.5506 25.3286 14.8849 25.1555 18.7394C25.0831 20.6259 24.2663 22.4078 22.8826 23.6976C21.4989 24.9875 19.6601 25.6811 17.766 25.6276ZM22.2566 18.4928C22.2472 17.3726 21.7969 16.3008 21.0025 15.508C20.2081 14.7153 19.133 14.2649 18.0087 14.2538C15.6773 14.2442 13.7328 16.1806 13.7386 18.5043C13.7489 19.6241 14.1994 20.6951 14.9934 21.4876C15.7874 22.2802 16.8616 22.7309 17.9855 22.7433C19.1157 22.7377 20.1981 22.2882 20.9977 21.4925C21.7974 20.6967 22.2497 19.6188 22.2566 18.4928Z" stroke="white"/>
</svg>
