<svg width="26" height="36" viewBox="0 0 26 36" fill="none" xmlns="http://www.w3.org/2000/svg">
<path d="M21.0528 18.1884V18.1478V17.1028V17.0824V17.062V17.0416V17.0212V17.0008V16.9804V16.96V16.9396V16.9192V16.8987V16.8783V16.8579V16.8375V16.8171V16.7967V16.7763V16.7559V16.7355V16.7151V16.6946V16.6742V16.6538V16.6334V16.613V16.5926V16.5722V16.5518V16.5314V16.511V16.4905V16.4701V16.4497V16.4293V16.4089V16.3885V16.3681V16.3477V16.3273V16.3069V16.2864V16.266V16.2456V16.2252V16.2048V16.1844V16.164V16.1436V16.1232V16.1027V16.0823V16.0619V16.0415V16.0211V16.0007V15.9803V15.9599V15.9395V15.9191V15.8986V15.8782V15.8578V15.8374V15.817V15.7966V15.7762V15.7558V15.7354V15.715V15.6945V15.6741V15.6537V15.6333V15.6129V15.5925V15.5721V15.5517V15.5313V15.5109V15.4904V15.47V15.4496V15.4292V15.4088V15.3884V15.368V15.3476V15.3272V15.3068V15.2863V15.2659V15.2455V15.2251V15.2047V15.1843V15.1639V15.1435V15.1231V15.1027V15.0822V15.0618V15.0414V15.021V15.0006V14.9802V14.9598V14.9394V14.919V14.8986V14.8781V14.8577V14.8373V14.8169V14.7965V14.7761V14.7557V14.7353V14.7149V14.6945V14.674V14.6536V14.6332V14.6128V14.5924V14.572V14.5516V14.5312V14.5108V14.4904V14.4699V14.4495V14.4291V14.4087V14.3883V14.3679V14.3475V14.3271V14.3067V14.2863V14.2658V14.2454V14.225V14.2046V14.1842V14.1638V14.1434V14.123V14.1026V14.0822V14.0617V14.0413V14.0209V14.0005V13.9801V13.9597V13.9393V13.9189V13.8985V13.8781V13.8576V13.8372V13.8168V13.7964V13.776V13.7556V13.7352V13.7148V13.6944V13.6739V13.6535V13.6331V13.6127V13.5923V13.5719V13.5515V13.5311V13.5107V13.4903V13.4698V13.4494V13.429V13.4086V13.3882V13.3678V13.3474V13.327V13.3066V13.2862V13.2657V13.2453V13.2249V13.2045V13.1841V13.1637V13.1433V13.1229V13.1025V13.0821V13.0616V13.0412V13.0208V13.0004V12.98V12.9596V12.9392V12.9188V12.8984V12.878V12.8575V12.8371V12.8167V12.7963V12.7759V12.7555V12.7351V12.7147V12.6943V12.6739V12.6534V12.633V12.6126V12.5922V12.5718V12.5514V12.531V12.5106V12.4902V12.4698V12.4493V12.4289V12.4085V12.3881V12.3677V12.3473V12.3269V12.3065V12.2861V12.2657V12.2452V12.2248V12.2044V12.184V12.1636V12.1432V12.1228V12.1024V12.082V12.0616V12.0411V12.0207V12.0003V11.9799V11.9595V11.9391V11.9187V11.8983V11.8779V11.8575V11.837V11.8166V11.7962V11.7758V11.7554V11.735V11.7146V11.6942V11.6738V11.6534V11.6329V11.6125V11.5921V11.5717V11.5513V11.5309V11.5105V11.4901V11.4697V11.4493V11.4288V11.4084V11.388V11.3676V11.3472V11.3268V11.3064V11.286V11.2656V11.2451V11.2247V11.2043V11.1839V11.1635V11.1431V11.1227V11.1023V11.0819V11.0615V11.041V11.0206V11.0002V10.9798V10.9594V10.939V10.9186V10.8982V10.8778V10.8574V10.8369V10.8165V10.7961V10.7757V10.7553V10.7349V10.7145V10.6941V10.6737V10.6533V10.6328V10.6124V10.592V10.5716V10.5512V10.5308V10.5104V10.49V10.4696V10.4492V10.4287V10.4083V10.3879V10.3675V10.3471V10.3267V10.3063V10.2859V10.2655V10.2451V10.2246V10.2042V10.1838V10.1634V10.143V10.1226V10.1022V10.0818V10.0614V10.041V10.0205V10.0001V9.97972V9.95931V9.9389V9.91849V9.89808V9.87767V9.85726V9.83685V9.81644V9.79603V9.77562V9.75521V9.7348V9.71439V9.69398V9.67357V9.65316V9.63275V9.61234V9.59193V9.57152V9.55111V9.5307V9.51029V9.48988V9.46947V9.44906V9.42865V9.40824V9.38783V9.36742V9.34701V9.3266V9.30619V9.28578V9.26537V9.24496V9.22455V9.20414V9.18373V9.16332V9.14291V9.1225V9.10209V9.08168V9.06127V9.04086V9.02045V9.00004V8.97963V8.95922V8.93881V8.9184V8.89799V8.87758V8.85717V8.83676V8.81635V8.79594V8.77553V8.75512V8.73471V8.7143V8.69389V8.67348V8.65307V8.63266V8.61225V8.59184V8.57143V8.55102V8.53061V8.5102V8.48979V8.46938V8.44897V8.42856V8.40815V8.38774V8.36733V8.34692V8.32651V8.3061V8.28569V8.26528V8.24487V8.22446V8.20405V8.18364V8.16323V8.14282V8.12241V8.102V8.08159V8.06118V8.04077V8.02036V7.99995V7.97954V7.95913V7.93872V7.91831V7.8979V7.87749V7.85708V7.83667V7.81626V7.79585V7.77543V7.75502V7.73461V7.7142V7.69379V7.67338V7.65297V7.63256V7.61215V7.59174V7.57133V7.55092V7.53051V7.5101V7.48969V7.46928V7.44887V7.42846V7.40805V7.38764V7.36723V7.34682V7.32641V7.306V7.28559V7.26518V7.24477V7.22436V7.20395V7.18354V7.16313V7.14272V7.12231V7.1019V7.08149V7.06108V7.04067V7.02026V6.99985V6.97944V6.95903V6.93862V6.91821V6.8978V6.87739V6.85698V6.83657V6.81616V6.79575V6.77534V6.75493V6.73452V6.71411V6.6937V6.67329V6.65288C21.0528 5.9974 20.8407 5.48496 20.325 5.11431L21.0528 18.1884ZM21.0528 18.1884L21.0538 18.1915M21.0528 18.1884L21.0538 18.1915M21.0538 18.1915C21.0564 22.0094 21.0551 25.8254 21.0498 29.6394C21.0489 30.1661 20.8909 30.5965 20.6191 30.9124C20.3475 31.2281 19.9472 31.4467 19.4302 31.5233C18.7744 31.6197 18.2558 31.3695 17.7995 30.8612L17.7984 30.8599C16.1429 29.0399 14.4897 27.216 12.8388 25.388C11.9972 24.431 10.8972 23.7372 9.6709 23.39L9.66945 23.3896C9.00556 23.206 8.32335 23.0966 7.63534 23.0634L7.63467 23.0634C6.76112 23.0236 6.0433 22.7089 5.5449 22.2025C5.0472 21.6968 4.75223 20.9836 4.75223 20.1154L4.75223 20.1145C4.74825 18.9707 4.74825 17.8268 4.75223 16.683C4.75694 15.8249 5.0534 15.1075 5.54845 14.5998C6.04347 14.0921 6.75095 13.7798 7.60405 13.757C7.60406 13.757 7.60407 13.757 7.60409 13.757L7.59741 13.5071M21.0538 18.1915L12.7627 11.006C11.4121 12.6133 9.69536 13.4513 7.59741 13.5071M7.59741 13.5071C5.77314 13.5558 4.51218 14.8486 4.50223 16.6819L7.59741 13.5071ZM0.756462 15.7715L0.749989 15.7994L0.75 15.828L0.751986 20.9804L0.752002 21.0216L0.765283 21.0607C0.792224 21.14 0.814304 21.2208 0.831401 21.3028C1.29926 24.4208 4.04906 26.9618 7.17858 27.0334C8.47866 27.0636 9.45261 27.5364 10.2983 28.5163L10.2984 28.5164C11.7478 30.1936 13.2524 31.8233 14.7525 33.4481L14.882 33.5883L14.8822 33.5885C16.342 35.1661 18.166 35.8486 20.3014 35.4327C23.1745 34.8759 25.0517 32.5475 25.06 29.6206V29.6204C25.064 27.696 25.0626 25.7713 25.0613 23.847C25.0607 22.885 25.06 21.9231 25.06 20.9614V20.9612C25.056 16.2354 25.056 11.5097 25.06 6.78391C25.0773 5.9151 24.9139 5.05216 24.58 4.24987L24.58 4.24986L24.5785 4.24636C22.8445 0.252701 17.571 -0.475055 14.7278 2.87134C13.1013 4.7852 11.4798 6.70437 9.86322 8.62885L9.86318 8.62882L9.86012 8.63261C9.57425 8.9867 9.21221 9.27176 8.80094 9.46657C8.38966 9.66139 7.93974 9.76094 7.48467 9.75782V9.75778L7.48017 9.75783C5.97028 9.77466 4.50891 10.2934 3.3263 11.2322C2.14388 12.171 1.30734 13.4763 0.948419 14.9428C0.902332 15.1265 0.860059 15.3142 0.818614 15.4982C0.797814 15.5905 0.777222 15.6819 0.756462 15.7715Z" fill="white" stroke="white" stroke-width="0.5"/>
</svg>
