<svg width="48" height="41" viewBox="0 0 48 41" fill="none" xmlns="http://www.w3.org/2000/svg">
<path d="M21.0528 19.1884V19.1478V18.1028V18.0824V18.062V18.0416V18.0212V18.0008V17.9804V17.96V17.9396V17.9192V17.8987V17.8783V17.8579V17.8375V17.8171V17.7967V17.7763V17.7559V17.7355V17.7151V17.6946V17.6742V17.6538V17.6334V17.613V17.5926V17.5722V17.5518V17.5314V17.511V17.4905V17.4701V17.4497V17.4293V17.4089V17.3885V17.3681V17.3477V17.3273V17.3069V17.2864V17.266V17.2456V17.2252V17.2048V17.1844V17.164V17.1436V17.1232V17.1027V17.0823V17.0619V17.0415V17.0211V17.0007V16.9803V16.9599V16.9395V16.9191V16.8986V16.8782V16.8578V16.8374V16.817V16.7966V16.7762V16.7558V16.7354V16.715V16.6945V16.6741V16.6537V16.6333V16.6129V16.5925V16.5721V16.5517V16.5313V16.5109V16.4904V16.47V16.4496V16.4292V16.4088V16.3884V16.368V16.3476V16.3272V16.3068V16.2863V16.2659V16.2455V16.2251V16.2047V16.1843V16.1639V16.1435V16.1231V16.1027V16.0822V16.0618V16.0414V16.021V16.0006V15.9802V15.9598V15.9394V15.919V15.8986V15.8781V15.8577V15.8373V15.8169V15.7965V15.7761V15.7557V15.7353V15.7149V15.6945V15.674V15.6536V15.6332V15.6128V15.5924V15.572V15.5516V15.5312V15.5108V15.4904V15.4699V15.4495V15.4291V15.4087V15.3883V15.3679V15.3475V15.3271V15.3067V15.2863V15.2658V15.2454V15.225V15.2046V15.1842V15.1638V15.1434V15.123V15.1026V15.0822V15.0617V15.0413V15.0209V15.0005V14.9801V14.9597V14.9393V14.9189V14.8985V14.8781V14.8576V14.8372V14.8168V14.7964V14.776V14.7556V14.7352V14.7148V14.6944V14.6739V14.6535V14.6331V14.6127V14.5923V14.5719V14.5515V14.5311V14.5107V14.4903V14.4698V14.4494V14.429V14.4086V14.3882V14.3678V14.3474V14.327V14.3066V14.2862V14.2657V14.2453V14.2249V14.2045V14.1841V14.1637V14.1433V14.1229V14.1025V14.0821V14.0616V14.0412V14.0208V14.0004V13.98V13.9596V13.9392V13.9188V13.8984V13.878V13.8575V13.8371V13.8167V13.7963V13.7759V13.7555V13.7351V13.7147V13.6943V13.6739V13.6534V13.633V13.6126V13.5922V13.5718V13.5514V13.531V13.5106V13.4902V13.4698V13.4493V13.4289V13.4085V13.3881V13.3677V13.3473V13.3269V13.3065V13.2861V13.2657V13.2452V13.2248V13.2044V13.184V13.1636V13.1432V13.1228V13.1024V13.082V13.0616V13.0411V13.0207V13.0003V12.9799V12.9595V12.9391V12.9187V12.8983V12.8779V12.8575V12.837V12.8166V12.7962V12.7758V12.7554V12.735V12.7146V12.6942V12.6738V12.6534V12.6329V12.6125V12.5921V12.5717V12.5513V12.5309V12.5105V12.4901V12.4697V12.4493V12.4288V12.4084V12.388V12.3676V12.3472V12.3268V12.3064V12.286V12.2656V12.2451V12.2247V12.2043V12.1839V12.1635V12.1431V12.1227V12.1023V12.0819V12.0615V12.041V12.0206V12.0002V11.9798V11.9594V11.939V11.9186V11.8982V11.8778V11.8574V11.8369V11.8165V11.7961V11.7757V11.7553V11.7349V11.7145V11.6941V11.6737V11.6533V11.6328V11.6124V11.592V11.5716V11.5512V11.5308V11.5104V11.49V11.4696V11.4492V11.4287V11.4083V11.3879V11.3675V11.3471V11.3267V11.3063V11.2859V11.2655V11.2451V11.2246V11.2042V11.1838V11.1634V11.143V11.1226V11.1022V11.0818V11.0614V11.041V11.0205V11.0001V10.9797V10.9593V10.9389V10.9185V10.8981V10.8777V10.8573V10.8369V10.8164V10.796V10.7756V10.7552V10.7348V10.7144V10.694V10.6736V10.6532V10.6328V10.6123V10.5919V10.5715V10.5511V10.5307V10.5103V10.4899V10.4695V10.4491V10.4287V10.4082V10.3878V10.3674V10.347V10.3266V10.3062V10.2858V10.2654V10.245V10.2246V10.2041V10.1837V10.1633V10.1429V10.1225V10.1021V10.0817V10.0613V10.0409V10.0204V10V9.97963V9.95922V9.93881V9.9184V9.89799V9.87758V9.85717V9.83676V9.81635V9.79594V9.77553V9.75512V9.73471V9.7143V9.69389V9.67348V9.65307V9.63266V9.61225V9.59184V9.57143V9.55102V9.53061V9.5102V9.48979V9.46938V9.44897V9.42856V9.40815V9.38774V9.36733V9.34692V9.32651V9.3061V9.28569V9.26528V9.24487V9.22446V9.20405V9.18364V9.16323V9.14282V9.12241V9.102V9.08159V9.06118V9.04077V9.02036V8.99995V8.97954V8.95913V8.93872V8.91831V8.8979V8.87749V8.85708V8.83667V8.81626V8.79585V8.77543V8.75502V8.73461V8.7142V8.69379V8.67338V8.65297V8.63256V8.61215V8.59174V8.57133V8.55092V8.53051V8.5101V8.48969V8.46928V8.44887V8.42846V8.40805V8.38764V8.36723V8.34682V8.32641V8.306V8.28559V8.26518V8.24477V8.22436V8.20395V8.18354V8.16313V8.14272V8.12231V8.1019V8.08149V8.06108V8.04067V8.02026V7.99985V7.97944V7.95903V7.93862V7.91821V7.8978V7.87739V7.85698V7.83657V7.81616V7.79575V7.77534V7.75493V7.73452V7.71411V7.6937V7.67329V7.65288C21.0528 6.9974 20.8407 6.48496 20.325 6.11431L21.0528 19.1884ZM21.0528 19.1884L21.0538 19.1915M21.0528 19.1884L21.0538 19.1915M21.0538 19.1915C21.0564 23.0094 21.0551 26.8254 21.0498 30.6394C21.0489 31.1661 20.8909 31.5965 20.6191 31.9124C20.3475 32.2281 19.9472 32.4467 19.4302 32.5233C18.7744 32.6197 18.2558 32.3695 17.7995 31.8612L17.7984 31.8599C16.1429 30.0399 14.4897 28.216 12.8388 26.388C11.9972 25.431 10.8972 24.7372 9.6709 24.39L9.66945 24.3896C9.00556 24.206 8.32335 24.0966 7.63534 24.0634L7.63467 24.0634C6.76112 24.0236 6.0433 23.7089 5.5449 23.2025C5.0472 22.6968 4.75223 21.9836 4.75223 21.1154L4.75223 21.1145C4.74825 19.9707 4.74825 18.8268 4.75223 17.683C4.75694 16.8249 5.0534 16.1075 5.54845 15.5998C6.04347 15.0921 6.75095 14.7798 7.60405 14.757C7.60406 14.757 7.60407 14.757 7.60409 14.757L7.59741 14.5071M21.0538 19.1915L12.7627 12.006C11.4121 13.6133 9.69536 14.4513 7.59741 14.5071M7.59741 14.5071C5.77314 14.5558 4.51218 15.8486 4.50223 17.6819L7.59741 14.5071ZM0.756462 16.7715L0.749989 16.7994L0.75 16.828L0.751986 21.9804L0.752002 22.0216L0.765283 22.0607C0.792224 22.14 0.814304 22.2208 0.831401 22.3028C1.29926 25.4208 4.04906 27.9618 7.17858 28.0334C8.47866 28.0636 9.45261 28.5364 10.2983 29.5163L10.2984 29.5164C11.7478 31.1936 13.2524 32.8233 14.7525 34.4481L14.882 34.5883L14.8822 34.5885C16.342 36.1661 18.166 36.8486 20.3014 36.4327C23.1745 35.8759 25.0517 33.5475 25.06 30.6206V30.6204C25.064 28.696 25.0626 26.7713 25.0613 24.847C25.0607 23.885 25.06 22.9231 25.06 21.9614V21.9612C25.056 17.2354 25.056 12.5097 25.06 7.78391C25.0773 6.9151 24.9139 6.05216 24.58 5.24987L24.58 5.24986L24.5785 5.24636C22.8445 1.2527 17.571 0.524945 14.7278 3.87134C13.1013 5.7852 11.4798 7.70437 9.86322 9.62885L9.86318 9.62882L9.86012 9.63261C9.57425 9.9867 9.21221 10.2718 8.80094 10.4666C8.38966 10.6614 7.93974 10.7609 7.48467 10.7578V10.7578L7.48017 10.7578C5.97028 10.7747 4.50891 11.2934 3.3263 12.2322C2.14388 13.171 1.30734 14.4763 0.948419 15.9428C0.902332 16.1265 0.860059 16.3142 0.818614 16.4982C0.797814 16.5905 0.777222 16.6819 0.756462 16.7715Z" fill="white" stroke="white" stroke-width="0.5"/>
<line x1="3.09875" y1="2.30864" x2="30.3086" y2="38.9013" stroke="white" stroke-width="3" stroke-linecap="round"/>
</svg>
