<svg width="30" height="28" viewBox="0 0 30 28" fill="none" xmlns="http://www.w3.org/2000/svg">
<path d="M15 2.94737C11.8174 2.94737 8.76515 4.18947 6.51472 6.40043C4.26428 8.61138 3 11.6101 3 14.7368H7.5C8.29565 14.7368 9.05871 15.0474 9.62132 15.6001C10.1839 16.1528 10.5 16.9025 10.5 17.6842V25.0526C10.5 25.8343 10.1839 26.584 9.62132 27.1367C9.05871 27.6895 8.29565 28 7.5 28H3C2.20435 28 1.44129 27.6895 0.87868 27.1367C0.31607 26.584 0 25.8343 0 25.0526V14.7368C0 6.59768 6.7155 0 15 0C23.2845 0 30 6.59768 30 14.7368V25.0526C30 25.8343 29.6839 26.584 29.1213 27.1367C28.5587 27.6895 27.7956 28 27 28H22.5C21.7044 28 20.9413 27.6895 20.3787 27.1367C19.8161 26.584 19.5 25.8343 19.5 25.0526V17.6842C19.5 16.9025 19.8161 16.1528 20.3787 15.6001C20.9413 15.0474 21.7044 14.7368 22.5 14.7368H27C27 11.6101 25.7357 8.61138 23.4853 6.40043C21.2348 4.18947 18.1826 2.94737 15 2.94737ZM3 17.6842V25.0526H7.5V17.6842H3ZM22.5 17.6842V25.0526H27V17.6842H22.5Z" fill="white"/>
</svg>
