<svg width="19" height="17" viewBox="0 0 19 17" fill="none" xmlns="http://www.w3.org/2000/svg">
<path d="M12 8.00292C11.9967 8.79735 11.6793 9.55826 11.117 10.1197C10.5547 10.6812 9.79311 10.9976 8.99834 11C7.34825 10.9975 5.99667 9.64523 6.00001 7.99708C6.00352 7.20264 6.32106 6.44179 6.88341 5.88039C7.44575 5.31898 8.20731 5.00252 9.00209 5C9.79722 5.00341 10.5587 5.32108 11.1204 5.88368C11.682 6.44627 11.9982 7.20811 12 8.00292V8.00292ZM10.6659 8.00292C10.6659 7.09696 9.90717 6.33602 9.00084 6.33602C8.0945 6.33602 7.33325 7.09487 7.33325 8.00042C7.33325 8.90596 8.09242 9.66731 8.99834 9.66731C9.90425 9.66731 10.6651 8.90763 10.6659 8.00208V8.00292Z" fill="white"/>
<path d="M1 6C3.90991 2.22688 11.3838 -3.05548 18 6" stroke="white" stroke-width="2" stroke-linecap="round"/>
<path d="M18 11C15.0901 14.7731 7.61622 20.0555 1 11" stroke="white" stroke-width="2" stroke-linecap="round"/>
</svg>
