<svg width="31" height="31" viewBox="0 0 31 31" fill="none" xmlns="http://www.w3.org/2000/svg">
<path d="M12.4088 24.7802C12.4088 25.9518 12.414 27.1242 12.4088 28.2966C12.4028 29.4527 11.8846 30.3135 10.8207 30.7671C9.7567 31.2207 8.76419 31.003 7.94385 30.1895C5.55483 27.8177 3.17327 25.4379 0.799169 23.05C0.00378513 22.2512 -0.217441 21.1485 0.226734 20.168C0.698455 19.1264 1.53257 18.5953 2.67486 18.5902C5.01969 18.5807 7.36366 18.5841 9.70849 18.5902C11.2907 18.5902 12.402 19.7092 12.4063 21.2974C12.4114 22.4612 12.4088 23.6224 12.4088 24.7802Z" fill="#818181"/>
<path d="M12.4117 6.22304C12.4117 7.38426 12.4117 8.54721 12.4117 9.70757C12.4074 11.2923 11.2926 12.4096 9.71133 12.4122C7.36736 12.4122 5.02253 12.42 2.67856 12.4122C1.53541 12.4071 0.684937 11.882 0.235598 10.8309C-0.213742 9.77988 -0.0166159 8.78823 0.786514 7.9765C3.16922 5.56624 5.56455 3.17091 7.97251 0.790501C8.78338 -0.0126295 9.77331 -0.213195 10.8261 0.235284C11.8788 0.683763 12.3988 1.53251 12.41 2.67566C12.4203 3.85669 12.4117 5.04029 12.4117 6.22304Z" fill="#818181"/>
<path d="M18.5903 24.7896C18.5903 23.6275 18.5903 22.4654 18.5903 21.305C18.5946 19.7022 19.7094 18.5926 21.3148 18.5909C23.6384 18.5875 25.9625 18.5875 28.2873 18.5909C29.4365 18.5909 30.3773 19.1935 30.7879 20.1929C31.2054 21.2034 30.9764 22.2769 30.1604 23.0946C27.7966 25.4607 25.4314 27.8253 23.0648 30.1885C22.3142 30.9357 21.4103 31.1793 20.3963 30.8513C19.3823 30.5234 18.8021 29.7986 18.6196 28.7553C18.5958 28.5842 18.5862 28.4114 18.5912 28.2388C18.5895 27.0893 18.5892 25.9396 18.5903 24.7896Z" fill="#818181"/>
<path d="M24.7945 12.4029C23.6332 12.4029 22.4703 12.4029 21.3108 12.4029C19.7037 12.4029 18.5915 11.2916 18.5889 9.68703C18.5855 7.3531 18.5855 5.01946 18.5889 2.68611C18.5889 1.55932 19.1915 0.607265 20.1849 0.21646C21.2626 -0.208777 22.2413 -0.00562859 23.0617 0.809553C25.4484 3.1825 27.8282 5.56406 30.2012 7.95423C31.0052 8.76597 31.1963 9.74126 30.7779 10.8061C30.3931 11.7883 29.4385 12.402 28.3436 12.4063C27.1608 12.4063 25.9781 12.4029 24.7945 12.4029Z" fill="#818181"/>
</svg>
