<svg width="31" height="31" viewBox="0 0 31 31" fill="none" xmlns="http://www.w3.org/2000/svg">
<path d="M0.00327204 24.8041C0.00327204 23.6325 -0.00189279 22.4601 0.00327204 21.2877C0.00929767 20.1316 0.527503 19.2708 1.59146 18.8172C2.65541 18.3635 3.64792 18.5813 4.46826 19.3948C6.85728 21.7666 9.23884 24.1464 11.6129 26.5343C12.4083 27.3331 12.6295 28.4358 12.1854 29.4163C11.7137 30.4578 10.8795 30.9889 9.73725 30.9941C7.39242 31.0036 5.04845 31.0001 2.70361 30.9941C1.12146 30.9941 0.0101584 29.8751 0.00585435 28.2869C0.000689523 27.1231 0.00327204 25.9618 0.00327204 24.8041Z" fill="#818181"/>
<path d="M0.00336316 6.19354C0.00336316 5.03232 0.00336316 3.86937 0.00336316 2.70901C0.00766719 1.12427 1.12241 0.00694116 2.70371 0.00435875C5.04768 0.00435875 7.39251 -0.00338849 9.73648 0.00435875C10.8796 0.00952357 11.7301 0.534614 12.1794 1.58566C12.6288 2.6367 12.4317 3.62835 11.6285 4.44008C9.24582 6.85034 6.85049 9.24567 4.44253 11.6261C3.63165 12.4292 2.64173 12.6298 1.58897 12.1813C0.536202 11.7328 0.0162743 10.8841 0.00508383 9.74092C-0.00524583 8.55989 0.00336316 7.37629 0.00336316 6.19354Z" fill="#818181"/>
<path d="M30.9917 24.7929C30.9917 25.955 30.9917 27.1171 30.9917 28.2774C30.9874 29.8802 29.8727 30.9898 28.2673 30.9915C25.9437 30.995 23.6195 30.995 21.2947 30.9915C20.1456 30.9915 19.2047 30.389 18.7941 29.3896C18.3766 28.379 18.6056 27.3056 19.4216 26.4878C21.7854 24.1217 24.1506 21.7571 26.5172 19.3939C27.2679 18.6467 28.1717 18.4031 29.1857 18.7311C30.1998 19.0591 30.7799 19.7839 30.9624 20.8272C30.9863 20.9982 30.9958 21.171 30.9908 21.3436C30.9926 22.4931 30.9928 23.6429 30.9917 24.7929Z" fill="#818181"/>
<path d="M24.7856 0.00344264C25.9468 0.00344264 27.1098 0.00344264 28.2693 0.00344264C29.8764 0.00344264 30.9886 1.11474 30.9911 2.71928C30.9946 5.05321 30.9946 7.38685 30.9911 9.7202C30.9911 10.847 30.3886 11.799 29.3952 12.1899C28.3175 12.6151 27.3388 12.4119 26.5184 11.5968C24.1317 9.22381 21.7518 6.84225 19.3789 4.45208C18.5749 3.64034 18.3838 2.66505 18.8022 1.60024C19.1869 0.618057 20.1416 0.00430402 21.2365 0C22.4193 0 23.602 0.00344264 24.7856 0.00344264Z" fill="#818181"/>
</svg>
