<svg width="118" height="136" viewBox="0 0 118 136" fill="none" xmlns="http://www.w3.org/2000/svg">
<path d="M0.0453101 86.4331C0.0453101 74.3164 0.0453101 62.1997 0.0453101 50.0831C0.0453101 46.6125 3.1122 44.3605 6.16777 45.5563C7.02268 45.8538 7.76311 46.4113 8.28534 47.1507C8.80756 47.89 9.08542 48.7742 9.08 49.6794C9.12904 50.8111 9.08 51.9428 9.08 53.0745V120.705C9.08 121.127 9.08 121.553 9.08 121.976C9.1479 126.088 12.543 128.012 16.1342 125.982C18.1788 124.816 20.1819 123.579 22.2039 122.368L105.44 72.4227C105.844 72.1813 106.251 71.9436 106.64 71.6682C109.525 69.6727 109.537 66.1116 106.64 64.1236C105.904 63.6181 105.131 63.1881 104.346 62.7279L17.0169 10.3304C16.5718 10.0664 16.1305 9.78722 15.6665 9.57597C12.5656 8.06705 9.20071 10.0777 9.11772 13.5256C9.04605 16.4001 9.11772 19.2784 9.09509 22.1529C9.09509 25.1368 7.20893 27.1964 4.54191 27.1776C1.92769 27.1776 0.0151316 25.1141 0.0528548 22.2283C0.079261 18.6484 -0.203662 15.0156 0.320689 11.5036C1.75794 1.90308 12.1393 -2.97075 20.5063 1.93326C28.6432 6.6826 36.682 11.5904 44.7585 16.4378C66.638 29.5655 88.5299 42.6944 110.435 55.8245C115.716 58.9857 118.107 63.5917 117.455 69.6802C116.983 74.0863 114.693 77.4248 110.899 79.707C101.375 85.4284 91.8445 91.1472 82.3081 96.8635C61.866 109.112 41.3974 121.304 21.0156 133.655C12.7165 138.68 2.55767 133.764 0.516849 125.575C0.203152 124.245 0.0511593 122.882 0.0641717 121.516C0.0302209 109.821 0.0453101 98.1273 0.0453101 86.4331Z" fill="white"/>
<path fill-rule="evenodd" clip-rule="evenodd" d="M37.8 83.3571C37.8 84.0581 37.5261 84.7303 37.0385 85.2259C36.5509 85.7216 35.8896 86 35.2 86H32.6C31.9104 86 31.2491 85.7216 30.7615 85.2259C30.2739 84.7303 30 84.0581 30 83.3571V51.6429C30 50.9419 30.2739 50.2697 30.7615 49.7741C31.2491 49.2784 31.9104 49 32.6 49H35.2C35.8896 49 36.5509 49.2784 37.0385 49.7741C37.5261 50.2697 37.8 50.9419 37.8 51.6429V83.3571ZM56 83.3571C56 84.0581 55.7261 84.7303 55.2385 85.2259C54.7509 85.7216 54.0896 86 53.4 86H50.8C50.1104 86 49.4491 85.7216 48.9615 85.2259C48.4739 84.7303 48.2 84.0581 48.2 83.3571V51.6429C48.2 50.9419 48.4739 50.2697 48.9615 49.7741C49.4491 49.2784 50.1104 49 50.8 49H53.4C54.0896 49 54.7509 49.2784 55.2385 49.7741C55.7261 50.2697 56 50.9419 56 51.6429V83.3571Z" fill="white"/>
</svg>
