<svg width="118" height="136" viewBox="0 0 118 136" fill="none" xmlns="http://www.w3.org/2000/svg">
<path d="M32.0658 94.6851H30.7779C30.7159 94.6522 30.6499 94.6275 30.5813 94.6115C29.8699 94.5078 29.195 94.2363 28.6151 93.8205C28.0351 93.4047 27.5675 92.8571 27.2528 92.2251C26.6343 90.9626 26.3469 89.5695 26.4164 88.1715C26.4164 74.6593 26.4164 61.1458 26.4164 47.6309C26.4276 46.6381 26.5681 45.6508 26.8346 44.6928C27.4869 42.2982 29.4105 40.9579 31.8149 41.1336C33.1519 41.2721 34.439 41.7068 35.5783 42.4044C47.6854 49.1878 59.7884 55.9779 71.8871 62.7748C72.7532 63.2565 73.5527 63.8442 74.2665 64.5238C76.2402 66.4199 76.328 68.8635 74.5843 70.9557C73.8083 71.8247 72.8739 72.5452 71.8286 73.0806L37.3973 92.3722C35.7038 93.3202 34.052 94.3745 32.0658 94.6851Z" fill="#4FA83D"/>
<path d="M0.0453101 86.4331C0.0453101 74.3164 0.0453101 62.1997 0.0453101 50.0831C0.0453101 46.6125 3.1122 44.3605 6.16777 45.5563C7.02268 45.8538 7.76311 46.4113 8.28534 47.1507C8.80756 47.89 9.08542 48.7742 9.08 49.6794C9.12904 50.8111 9.08 51.9428 9.08 53.0745V120.705C9.08 121.127 9.08 121.553 9.08 121.976C9.1479 126.088 12.543 128.012 16.1342 125.982C18.1788 124.816 20.1819 123.579 22.2039 122.368L105.44 72.4227C105.844 72.1813 106.251 71.9436 106.64 71.6682C109.525 69.6727 109.537 66.1116 106.64 64.1236C105.904 63.6181 105.131 63.1881 104.346 62.7279L17.0169 10.3304C16.5718 10.0664 16.1305 9.78722 15.6665 9.57597C12.5656 8.06705 9.20071 10.0777 9.11772 13.5256C9.04605 16.4001 9.11772 19.2784 9.09509 22.1529C9.09509 25.1368 7.20893 27.1964 4.54191 27.1776C1.92769 27.1776 0.0151316 25.1141 0.0528548 22.2283C0.079261 18.6484 -0.203663 15.0156 0.320689 11.5036C1.75794 1.90308 12.1393 -2.97075 20.5063 1.93326C28.6432 6.6826 36.682 11.5904 44.7585 16.4378C66.638 29.5655 88.5299 42.6944 110.435 55.8245C115.716 58.9857 118.107 63.5917 117.455 69.6802C116.983 74.0863 114.693 77.4248 110.899 79.707C101.375 85.4284 91.8445 91.1472 82.3081 96.8635C61.866 109.112 41.3974 121.304 21.0156 133.655C12.7165 138.68 2.55767 133.764 0.516849 125.575C0.203152 124.245 0.0511593 122.882 0.0641717 121.516C0.0302209 109.821 0.0453101 98.1272 0.0453101 86.4331Z" fill="white"/>
</svg>
