<svg width="118" height="136" viewBox="0 0 118 136" fill="none" xmlns="http://www.w3.org/2000/svg">
<path d="M26.3296 103H24.6616C24.5815 102.958 24.4959 102.926 24.4071 102.905C23.4857 102.772 22.6117 102.422 21.8606 101.886C21.1095 101.351 20.504 100.645 20.0963 99.8313C19.2953 98.205 18.9231 96.4106 19.0132 94.6097C19.0132 77.2046 19.0132 59.7977 19.0132 42.389C19.0277 41.1102 19.2096 39.8385 19.5548 38.6044C20.3996 35.5199 22.8907 33.7935 26.0047 34.0198C27.7363 34.1983 29.4032 34.7581 30.8787 35.6568C46.5585 44.3945 62.233 53.1409 77.902 61.8961C79.0236 62.5166 80.0591 63.2736 80.9834 64.149C83.5396 66.5913 83.6533 69.739 81.395 72.434C80.3901 73.5533 79.1799 74.4814 77.8261 75.1711L33.2345 100.021C31.0412 101.242 28.902 102.6 26.3296 103Z" fill="#4FA83D"/>
<path d="M0.0453101 86.4331C0.0453101 74.3164 0.0453101 62.1997 0.0453101 50.0831C0.0453101 46.6125 3.1122 44.3605 6.16777 45.5563C7.02268 45.8538 7.76311 46.4113 8.28534 47.1507C8.80756 47.89 9.08542 48.7743 9.08 49.6794C9.12904 50.8111 9.08 51.9428 9.08 53.0745V120.705C9.08 121.127 9.08 121.553 9.08 121.976C9.1479 126.088 12.543 128.012 16.1342 125.982C18.1788 124.816 20.1819 123.579 22.2039 122.368L105.44 72.4227C105.844 72.1813 106.251 71.9436 106.64 71.6682C109.525 69.6727 109.537 66.1116 106.64 64.1236C105.904 63.6181 105.131 63.1881 104.346 62.7279L17.0169 10.3304C16.5718 10.0664 16.1305 9.78722 15.6665 9.57597C12.5656 8.06705 9.20071 10.0777 9.11772 13.5256C9.04605 16.4001 9.11772 19.2784 9.09509 22.1529C9.09509 25.1368 7.20893 27.1964 4.54191 27.1776C1.92769 27.1776 0.0151316 25.1141 0.0528548 22.2283C0.079261 18.6484 -0.203662 15.0156 0.320689 11.5036C1.75794 1.90308 12.1393 -2.97075 20.5063 1.93326C28.6432 6.6826 36.682 11.5904 44.7585 16.4378C66.638 29.5655 88.5299 42.6944 110.435 55.8245C115.716 58.9857 118.107 63.5917 117.455 69.6802C116.983 74.0863 114.693 77.4248 110.899 79.707C101.375 85.4284 91.8445 91.1472 82.3081 96.8635C61.866 109.112 41.3974 121.304 21.0156 133.655C12.7165 138.68 2.55767 133.764 0.516849 125.575C0.203152 124.245 0.0511593 122.882 0.0641717 121.516C0.0302209 109.821 0.0453101 98.1272 0.0453101 86.4331Z" fill="#4FA83D"/>
</svg>
