<svg width="28" height="36" viewBox="0 0 28 36" fill="none" xmlns="http://www.w3.org/2000/svg">
<path d="M11.4531 17.8159C11.4531 22.4544 11.4531 27.0929 11.4531 31.7314C11.4531 33.5597 10.3406 35.0348 8.61738 35.494C8.25808 35.5836 7.88906 35.6285 7.51874 35.6276C6.32677 35.6445 5.13374 35.6371 3.94071 35.6276C1.65752 35.6244 0 33.9764 0 31.6943C0 22.4442 0 13.194 0 3.9439C0 1.65859 1.65539 0.0137988 3.93753 0.00319413C5.14328 0.00319413 6.34904 -0.00316869 7.55479 0.00319413C9.79026 0.0137988 11.4531 1.66495 11.4531 3.90148C11.4602 8.53998 11.4602 13.1781 11.4531 17.8159Z" fill="white"/>
<path d="M27.9965 17.818C27.9965 22.4565 27.9965 27.095 27.9965 31.7335C27.9965 33.5607 26.883 35.0358 25.1597 35.495C24.8003 35.5842 24.4313 35.6287 24.0611 35.6276C22.868 35.6445 21.6761 35.6371 20.483 35.6276C18.1998 35.6244 16.5434 33.9764 16.5434 31.6932C16.5434 22.4424 16.5434 13.1919 16.5434 3.94177C16.5434 1.65858 18.1977 0.0116652 20.4799 0.00318141C21.6732 -0.00106047 22.8663 -0.00106047 24.0589 0.00318141C26.3421 0.0116652 27.9912 1.65539 27.9933 3.94283C28.0011 8.56789 28.0021 13.193 27.9965 17.818Z" fill="white"/>
</svg>
