<svg width="56" height="31" viewBox="0 0 56 31" fill="none" xmlns="http://www.w3.org/2000/svg">
<path d="M56 27.3232C56 29.3447 54.3446 31 52.3231 31H2.25584C-0.451827 31 -0.765671 29.8585 1.55123 28.4709L51.7754 0.610636C54.0985 -0.783146 56 0.290651 56 3.00129V27.3232Z" fill="#818181"/>
<circle cx="44.5" cy="20.5" r="7.5" fill="white"/>
<path d="M46.8231 16.9949L44.5 19.3237L42.1769 16.9949L42.1769 16.9949L42.1767 16.9946C42.0201 16.838 41.8077 16.75 41.5861 16.75C41.3646 16.75 41.1522 16.838 40.9956 16.9946C40.839 17.1513 40.751 17.3637 40.751 17.5852C40.751 17.8067 40.839 18.0192 40.9956 18.1758L40.9958 18.176L43.3244 20.4995L40.9963 22.8225C40.9962 22.8226 40.9961 22.8227 40.996 22.8228C40.9181 22.9001 40.8563 22.9921 40.814 23.0935C40.7718 23.195 40.75 23.3038 40.75 23.4138C40.75 23.5237 40.7718 23.6326 40.814 23.7341C40.8562 23.8352 40.9179 23.9271 40.9956 24.0044C41.0729 24.0821 41.1647 24.1438 41.2659 24.1859L41.362 23.9552L41.2659 24.1859C41.3674 24.2282 41.4762 24.25 41.5861 24.25C41.6961 24.25 41.8049 24.2282 41.9064 24.1859L41.8103 23.9552L41.9064 24.1859C42.0078 24.1437 42.0998 24.0818 42.1772 24.0039C42.1772 24.0038 42.1773 24.0037 42.1774 24.0036L44.5 21.6753L46.8226 24.0036C46.8227 24.0037 46.8228 24.0038 46.8229 24.0039C46.9002 24.0818 46.9922 24.1437 47.0936 24.1859L47.1897 23.9552L47.0936 24.1859C47.1951 24.2282 47.3039 24.25 47.4139 24.25C47.5238 24.25 47.6326 24.2282 47.7341 24.1859L47.638 23.9552L47.7341 24.1859C47.8353 24.1438 47.9271 24.0821 48.0044 24.0044C48.0821 23.9271 48.1438 23.8352 48.186 23.7341C48.2282 23.6326 48.25 23.5237 48.25 23.4138C48.25 23.3038 48.2282 23.195 48.186 23.0935C48.1437 22.9921 48.0819 22.9001 48.004 22.8228C48.0039 22.8227 48.0038 22.8226 48.0037 22.8225L45.6756 20.4995L48.0042 18.176L48.0044 18.1758C48.161 18.0192 48.249 17.8067 48.249 17.5852C48.249 17.3637 48.161 17.1513 48.0044 16.9946C47.8478 16.838 47.6354 16.75 47.4139 16.75C47.1923 16.75 46.9799 16.838 46.8233 16.9946L46.8231 16.9949Z" fill="#818181" stroke="#818181" stroke-width="0.5"/>
</svg>
