<svg width="27" height="34" viewBox="0 0 27 34" fill="none" xmlns="http://www.w3.org/2000/svg">
<path d="M13.5 0C17.0804 0 20.5142 1.4017 23.0459 3.89675C25.5777 6.3918 27 9.77582 27 13.3043V23.6522C27 24.8284 26.5259 25.9564 25.682 26.788C24.8381 27.6197 23.6935 28.087 22.5 28.087H18V16.2609H24V13.3043C24 10.5599 22.8938 7.92792 20.9246 5.98733C18.9555 4.04674 16.2848 2.95652 13.5 2.95652C10.7152 2.95652 8.04451 4.04674 6.07538 5.98733C4.10625 7.92792 3 10.5599 3 13.3043V16.2609H9V28.087H4.5C3.30653 28.087 2.16193 27.6197 1.31802 26.788C0.474106 25.9564 0 24.8284 0 23.6522V13.3043C0 9.77582 1.42232 6.3918 3.95406 3.89675C6.4858 1.4017 9.91958 0 13.5 0ZM18 34V31.0435H21V34H18ZM12 34V31.0435H15V34H12ZM6 34V31.0435H9V34H6Z" fill="white"/>
</svg>
