<svg width="41" height="30" viewBox="0 0 41 30" fill="none" xmlns="http://www.w3.org/2000/svg">
<path d="M20.4989 29.2844C15.1762 29.2844 9.85399 29.2844 4.53215 29.2844C2.18565 29.2844 0.416307 27.7774 0.0465764 25.4797C0.0101267 25.2079 -0.00496842 24.9338 0.0014284 24.6597C0.0014284 17.9801 0.0014284 11.3006 0.0014284 4.62102C0.0014284 1.8755 1.87814 0.00122023 4.62733 0C15.2108 0 25.7943 0 36.3778 0C39.1257 0 40.9988 1.87306 40.9988 4.62468C40.9988 11.3026 40.9988 17.9818 40.9988 24.6621C40.9988 27.4125 39.1245 29.2831 36.3729 29.2844H20.4989ZM22.8503 14.6245C22.8503 15.7678 22.8381 16.9112 22.8503 18.0546C22.8783 20.351 24.5013 21.9593 26.7892 21.9678C28.6354 21.9739 30.4804 21.9678 32.3254 21.9678C33.3016 21.9678 33.9581 21.3785 33.9605 20.5109C33.9629 19.6433 33.3077 19.0466 32.3376 19.0466C30.5227 19.0466 28.7078 19.0466 26.8929 19.0466C26.0888 19.0466 25.7801 18.7452 25.7776 17.9484C25.7776 15.752 25.7776 13.5556 25.7776 11.3591C25.7776 10.5611 26.0888 10.2609 26.8929 10.2609C28.7078 10.2609 30.5223 10.2609 32.3364 10.2609C33.3126 10.2609 33.9629 9.66424 33.9605 8.79666C33.9581 7.92907 33.3016 7.33238 32.3266 7.33238C30.5109 7.33238 28.696 7.33238 26.8819 7.33238C24.472 7.33238 22.8637 8.9321 22.8491 11.336C22.8442 12.4281 22.8491 13.5263 22.8503 14.6245ZM7.03607 14.6245C7.03607 15.7678 7.03607 16.9124 7.03607 18.0558C7.05193 20.3352 8.68826 21.9605 10.9762 21.9691C12.8212 21.9752 14.6674 21.9691 16.5124 21.9691C17.4886 21.9691 18.1426 21.3797 18.1451 20.5048C18.1475 19.6299 17.4922 19.0405 16.5185 19.0405C14.7044 19.0405 12.8895 19.0405 11.0738 19.0405C10.2624 19.0405 9.96463 18.7464 9.96341 17.9423C9.96341 15.7459 9.96341 13.5495 9.96341 11.353C9.96341 10.5477 10.2599 10.2548 11.0714 10.2548C12.8863 10.2548 14.7012 10.2548 16.5161 10.2548C17.4922 10.2548 18.1451 9.6618 18.1451 8.79056C18.1451 7.91931 17.491 7.32628 16.5148 7.32628C14.6698 7.32628 12.8236 7.32628 10.9786 7.32628C8.66874 7.3336 7.04705 8.96261 7.03607 11.2811C7.03118 12.3902 7.03607 13.5031 7.03607 14.6172V14.6245Z" fill="white"/>
</svg>
