<svg width="19" height="19" viewBox="0 0 19 19" fill="none" xmlns="http://www.w3.org/2000/svg">
<path d="M0 9.35123C0.0247402 9.31016 0.0494825 9.26959 0.0732331 9.22852C0.132117 9.12264 0.224155 9.03905 0.335192 8.99059C0.446229 8.94214 0.570111 8.93151 0.68778 8.96034C0.808354 8.99029 0.915546 9.05949 0.99249 9.15704C1.06943 9.25458 1.11176 9.37494 1.11282 9.49918C1.11185 9.62344 1.06955 9.74384 0.992593 9.8414C0.915635 9.93896 0.808396 10.0081 0.68778 10.038C0.570165 10.067 0.446293 10.0565 0.335243 10.0081C0.224194 9.95972 0.132129 9.87618 0.0732331 9.77033C0.0494825 9.72926 0.0237506 9.68869 0 9.64811V9.35123Z" fill="white"/>
<path d="M9.35217 19C9.31159 18.9753 9.27102 18.9505 9.22995 18.9263C9.12408 18.8675 9.04045 18.7756 8.99191 18.6646C8.94336 18.5537 8.9326 18.4299 8.96127 18.3122C8.9914 18.1917 9.06071 18.0845 9.15833 18.0076C9.25594 17.9307 9.37633 17.8883 9.50061 17.8872C9.62493 17.8879 9.74546 17.9301 9.84308 18.0071C9.94069 18.0841 10.0098 18.1915 10.0394 18.3122C10.0683 18.4298 10.0577 18.5537 10.0093 18.6646C9.96079 18.7756 9.87716 18.8676 9.77126 18.9263C9.7302 18.9505 9.69012 18.9758 9.64905 19H9.35217Z" fill="white"/>
<path d="M15.9947 9.50267C15.9923 13.0796 13.0784 15.993 9.50191 15.993C5.92547 15.993 2.99771 13.0677 3.00661 9.48634C3.01552 5.90494 5.93388 2.99995 9.50884 3.0044C13.0838 3.00885 15.9972 5.92573 15.9947 9.50267ZM13.0259 9.49673C13.0239 8.56139 12.6508 7.66507 11.9885 7.00461C11.3262 6.34415 10.4288 5.97356 9.4935 5.97422C8.56141 5.97761 7.66847 6.34942 7.00943 7.00855C6.35038 7.66769 5.9787 8.56068 5.97544 9.49277C5.97544 10.4279 6.34634 11.3249 7.00679 11.9869C7.66724 12.6489 8.56332 13.022 9.49845 13.0242C10.4337 13.0231 11.3303 12.6512 11.9916 11.9899C12.6529 11.3286 13.0249 10.4319 13.0259 9.49673Z" fill="white"/>
<path d="M9.49802 0C9.64424 0.000734699 9.78442 0.0584773 9.88874 0.16095C9.99306 0.263424 10.0533 0.402545 10.0567 0.548738C10.0568 0.62272 10.0423 0.696001 10.0141 0.764377C9.9858 0.832753 9.94433 0.894879 9.89202 0.947193C9.8397 0.999506 9.77758 1.04098 9.7092 1.06923C9.64083 1.09748 9.56754 1.11196 9.49356 1.11183C9.34771 1.10849 9.20888 1.04853 9.10646 0.944629C9.00404 0.840732 8.94607 0.701057 8.94482 0.555171C8.94648 0.408787 9.00524 0.268838 9.10857 0.165138C9.2119 0.0614374 9.35164 0.00218326 9.49802 0Z" fill="white"/>
<path d="M18.4508 8.94348C18.597 8.9467 18.7362 9.00681 18.8387 9.11104C18.9413 9.21527 18.9992 9.35539 19 9.50162C18.9989 9.57555 18.9832 9.64852 18.9538 9.71637C18.9244 9.78421 18.8819 9.8456 18.8288 9.89703C18.7757 9.94845 18.7129 9.9889 18.6442 10.0161C18.5754 10.0432 18.502 10.0566 18.428 10.0553C18.282 10.0494 18.1439 9.98685 18.0431 9.88091C17.9424 9.77497 17.8868 9.63397 17.8882 9.48777C17.8927 9.34167 17.954 9.20309 18.0591 9.10146C18.1641 8.99983 18.3046 8.94316 18.4508 8.94348Z" fill="white"/>
<path d="M7.187 1.41371C7.11424 1.4143 7.0421 1.40043 6.97476 1.37291C6.90741 1.34538 6.8462 1.30475 6.79469 1.25338C6.74317 1.202 6.70238 1.14091 6.67468 1.07363C6.64698 1.00636 6.63291 0.934256 6.63331 0.861504C6.63278 0.714373 6.69041 0.572993 6.79366 0.46817C6.89691 0.363347 7.0374 0.303576 7.18452 0.30188C7.33143 0.304904 7.4715 0.364545 7.57549 0.468355C7.67949 0.572166 7.73937 0.712126 7.74266 0.85903C7.74175 1.00603 7.68288 1.14673 7.57884 1.25059C7.4748 1.35444 7.334 1.41306 7.187 1.41371Z" fill="white"/>
<path d="M12.3672 0.867936C12.3666 0.940547 12.3516 1.01232 12.3231 1.0791C12.2946 1.14588 12.2531 1.20633 12.201 1.25696C12.149 1.30759 12.0874 1.34738 12.0198 1.37403C11.9523 1.40068 11.8801 1.41366 11.8075 1.41222C11.6608 1.40963 11.5209 1.34945 11.418 1.24468C11.3152 1.1399 11.2577 0.998911 11.2578 0.852102C11.2625 0.705197 11.324 0.565831 11.4292 0.463246C11.5345 0.36066 11.6754 0.302827 11.8224 0.30188C11.9696 0.30487 12.1097 0.366145 12.2118 0.472263C12.3139 0.578382 12.3698 0.720679 12.3672 0.867936Z" fill="white"/>
<path d="M0.859382 6.63286C0.932313 6.63193 1.0047 6.64558 1.07228 6.673C1.13987 6.70043 1.20129 6.74107 1.25296 6.79255C1.30462 6.84404 1.34549 6.90532 1.37315 6.9728C1.40082 7.04029 1.41472 7.11262 1.41406 7.18555C1.41407 7.33244 1.35624 7.47341 1.25307 7.57797C1.14991 7.68252 1.00972 7.74224 0.862846 7.74419C0.715388 7.74165 0.574663 7.68201 0.470286 7.57782C0.365909 7.47363 0.30602 7.33301 0.303223 7.18555C0.304653 7.03881 0.363816 6.89854 0.467906 6.7951C0.571996 6.69166 0.712636 6.63337 0.859382 6.63286Z" fill="white"/>
<path d="M0.852955 12.3662C0.706043 12.3637 0.566007 12.3035 0.463133 12.1986C0.36026 12.0937 0.302814 11.9525 0.303225 11.8056C0.308584 11.6588 0.370473 11.5197 0.475959 11.4174C0.581446 11.3152 0.722368 11.2576 0.869281 11.2568C1.0161 11.2607 1.1555 11.3222 1.25735 11.4281C1.35919 11.5339 1.41531 11.6755 1.41357 11.8224C1.41306 11.8951 1.39809 11.967 1.36953 12.0338C1.34097 12.1007 1.29938 12.1611 1.2472 12.2118C1.19502 12.2624 1.13329 12.3021 1.0656 12.3286C0.997915 12.3551 0.92563 12.3679 0.852955 12.3662Z" fill="white"/>
<path d="M6.63333 18.14C6.63254 18.0672 6.64624 17.995 6.67362 17.9276C6.701 17.8602 6.74151 17.7989 6.79281 17.7473C6.84411 17.6956 6.90516 17.6547 6.97241 17.6269C7.03966 17.5991 7.11177 17.585 7.18454 17.5853C7.33163 17.5851 7.47285 17.643 7.57741 17.7464C7.68197 17.8499 7.74138 17.9905 7.74268 18.1375C7.7398 18.2843 7.68044 18.4244 7.57695 18.5285C7.47345 18.6326 7.33379 18.6929 7.18702 18.6967C7.03998 18.6956 6.89931 18.6365 6.79561 18.5323C6.69191 18.428 6.63359 18.2871 6.63333 18.14Z" fill="white"/>
<path d="M18.1418 12.3662C18.0691 12.3671 17.9969 12.3535 17.9294 12.3263C17.8619 12.299 17.8005 12.2586 17.7488 12.2074C17.6971 12.1562 17.6561 12.0952 17.6282 12.028C17.6003 11.9608 17.586 11.8887 17.5862 11.816C17.586 11.669 17.6438 11.5279 17.747 11.4232C17.8502 11.3186 17.9904 11.2588 18.1374 11.2568C18.2842 11.2593 18.4244 11.3184 18.5288 11.4217C18.6331 11.5251 18.6936 11.6647 18.6975 11.8115C18.697 11.9586 18.6383 12.0996 18.5341 12.2035C18.43 12.3074 18.289 12.3659 18.1418 12.3662Z" fill="white"/>
<path d="M11.8174 17.5853C11.8902 17.5852 11.9622 17.5995 12.0293 17.6275C12.0965 17.6554 12.1574 17.6964 12.2086 17.7481C12.2597 17.7998 12.3001 17.8612 12.3273 17.9286C12.3545 17.9961 12.3681 18.0683 12.3672 18.141C12.3666 18.2881 12.308 18.4291 12.204 18.5332C12.1 18.6372 11.9591 18.696 11.812 18.6967C11.6652 18.6925 11.5257 18.6319 11.4225 18.5275C11.3193 18.423 11.2603 18.2828 11.2578 18.136C11.2602 17.9892 11.3201 17.8491 11.4248 17.7461C11.5295 17.643 11.6705 17.5853 11.8174 17.5853Z" fill="white"/>
<path d="M3.73218 3.18265C3.72844 3.32959 3.6675 3.46925 3.56233 3.57193C3.45716 3.6746 3.31607 3.73217 3.16909 3.73238C3.02232 3.72913 2.88277 3.66803 2.78083 3.56239C2.67889 3.45674 2.62281 3.3151 2.62481 3.1683C2.62538 3.09565 2.64038 3.02384 2.66892 2.95702C2.69747 2.89021 2.73901 2.82973 2.79111 2.7791C2.84322 2.72847 2.90486 2.68868 2.97247 2.66206C3.04007 2.63544 3.11228 2.62251 3.18492 2.62402C3.33147 2.62585 3.47133 2.68565 3.57389 2.79035C3.67646 2.89504 3.73337 3.0361 3.73218 3.18265Z" fill="white"/>
<path d="M15.819 2.62289C15.8918 2.62158 15.964 2.63476 16.0316 2.66166C16.0992 2.68856 16.1608 2.72864 16.2128 2.77958C16.2647 2.83052 16.306 2.89128 16.3342 2.95834C16.3625 3.02539 16.3771 3.09739 16.3772 3.17015C16.3785 3.31715 16.3217 3.45872 16.2191 3.56401C16.1165 3.6693 15.9764 3.72977 15.8294 3.73224C15.6827 3.73101 15.5422 3.67285 15.4375 3.57002C15.3328 3.46718 15.2722 3.32772 15.2683 3.18103C15.2678 3.03412 15.3254 2.89297 15.4286 2.7884C15.5318 2.68383 15.6721 2.62433 15.819 2.62289Z" fill="white"/>
<path d="M17.5862 7.18061C17.5863 7.10804 17.6008 7.03622 17.6289 6.9693C17.657 6.90239 17.698 6.8417 17.7497 6.79076C17.8014 6.73982 17.8627 6.69963 17.93 6.67253C17.9973 6.64542 18.0693 6.63194 18.1419 6.63286C18.2889 6.63364 18.4296 6.69257 18.5334 6.79677C18.6371 6.90097 18.6954 7.04198 18.6955 7.18902C18.6911 7.3359 18.6301 7.47538 18.5253 7.57837C18.4204 7.68135 18.2799 7.73987 18.1329 7.74171C17.9864 7.7386 17.847 7.67803 17.7447 7.57307C17.6424 7.46811 17.5855 7.32716 17.5862 7.18061Z" fill="white"/>
<path d="M3.73291 15.8174C3.7337 15.9645 3.67619 16.1058 3.57296 16.2105C3.46974 16.3152 3.32922 16.3748 3.18219 16.3761C3.10951 16.3772 3.03732 16.3639 2.96981 16.3369C2.90231 16.3099 2.84082 16.2698 2.78891 16.2189C2.737 16.168 2.6957 16.1074 2.66741 16.0404C2.63911 15.9734 2.62438 15.9015 2.62406 15.8288C2.62246 15.6823 2.67871 15.541 2.78061 15.4357C2.8825 15.3304 3.02183 15.2695 3.16834 15.2662C3.31579 15.2662 3.4574 15.3238 3.5629 15.4268C3.66841 15.5298 3.72942 15.67 3.73291 15.8174Z" fill="white"/>
<path d="M16.3767 15.8154C16.3783 15.8881 16.3655 15.9604 16.3389 16.0281C16.3123 16.0957 16.2726 16.1575 16.2219 16.2096C16.1713 16.2618 16.1107 16.3034 16.0439 16.3319C15.977 16.3605 15.9051 16.3755 15.8324 16.376C15.6857 16.3777 15.5442 16.3215 15.4386 16.2197C15.333 16.1178 15.2718 15.9784 15.2683 15.8317C15.2684 15.6847 15.3256 15.5436 15.428 15.4381C15.5303 15.3326 15.6697 15.2711 15.8166 15.2666C15.9635 15.2653 16.1051 15.3223 16.2101 15.4252C16.3151 15.5281 16.375 15.6684 16.3767 15.8154Z" fill="white"/>
<path d="M5.02954 2.30639C4.9568 2.30692 4.88467 2.29305 4.81731 2.26559C4.74995 2.23812 4.68869 2.19761 4.63704 2.14638C4.5854 2.09515 4.54439 2.03421 4.51639 1.96708C4.48839 1.89994 4.47394 1.82792 4.47388 1.75518C4.47464 1.60768 4.53331 1.46638 4.63724 1.36171C4.74117 1.25704 4.88205 1.19737 5.02954 1.19556C5.17647 1.19724 5.31688 1.25649 5.4206 1.36057C5.52431 1.46466 5.58306 1.60528 5.58422 1.75221C5.58468 1.82516 5.57064 1.89747 5.54292 1.96495C5.51521 2.03242 5.47436 2.09372 5.42275 2.14528C5.37115 2.19684 5.30981 2.23763 5.24231 2.26529C5.17481 2.29295 5.10249 2.30692 5.02954 2.30639Z" fill="white"/>
<path d="M13.9786 2.30637C13.906 2.30748 13.834 2.29428 13.7665 2.26752C13.699 2.24076 13.6375 2.20097 13.5855 2.15042C13.5334 2.09987 13.4918 2.03956 13.4631 1.97292C13.4343 1.90629 13.419 1.83464 13.418 1.76208C13.4175 1.61519 13.4745 1.47394 13.5767 1.36846C13.679 1.26299 13.8184 1.20164 13.9652 1.19751C14.1122 1.19775 14.2532 1.25562 14.3579 1.35869C14.4626 1.46176 14.5228 1.6018 14.5253 1.74872C14.5262 1.82127 14.5127 1.89328 14.4857 1.96061C14.4586 2.02794 14.4186 2.08927 14.3678 2.14108C14.317 2.19289 14.2564 2.23416 14.1897 2.26252C14.1229 2.29088 14.0511 2.30579 13.9786 2.30637Z" fill="white"/>
<path d="M5.03551 16.6928C5.10808 16.6935 5.17979 16.7085 5.24651 16.7371C5.31323 16.7657 5.37363 16.8072 5.42423 16.8592C5.47483 16.9112 5.51463 16.9727 5.54133 17.0402C5.56803 17.1077 5.5811 17.1798 5.57979 17.2524C5.5772 17.3993 5.51699 17.5394 5.41213 17.6424C5.30728 17.7454 5.16616 17.8031 5.01918 17.8031C4.8723 17.799 4.73287 17.7375 4.6307 17.6319C4.52852 17.5263 4.47171 17.385 4.47242 17.238C4.47319 17.1651 4.48841 17.0931 4.5172 17.0261C4.54599 16.9592 4.58778 16.8986 4.64015 16.8479C4.69252 16.7971 4.75443 16.7573 4.82229 16.7307C4.89015 16.7041 4.96262 16.6912 5.03551 16.6928Z" fill="white"/>
<path d="M13.9655 16.6927C14.0381 16.6913 14.1103 16.7044 14.1779 16.731C14.2455 16.7577 14.3071 16.7975 14.3592 16.8481C14.4113 16.8987 14.4529 16.9591 14.4816 17.0259C14.5102 17.0926 14.5254 17.1644 14.5261 17.237C14.5271 17.384 14.4704 17.5255 14.3681 17.6312C14.2659 17.7368 14.1263 17.7982 13.9794 17.8021C13.8325 17.8017 13.6916 17.7439 13.5868 17.641C13.4821 17.538 13.4217 17.3982 13.4188 17.2514C13.4178 17.1787 13.4312 17.1066 13.4581 17.0392C13.4851 16.9717 13.5252 16.9103 13.576 16.8584C13.6268 16.8064 13.6874 16.7651 13.7542 16.7367C13.8211 16.7082 13.8929 16.6933 13.9655 16.6927Z" fill="white"/>
<path d="M2.30835 5.02867C2.30861 5.10143 2.29444 5.17352 2.26666 5.24076C2.23888 5.30801 2.19804 5.36907 2.1465 5.42043C2.09496 5.47178 2.03375 5.51241 1.9664 5.53995C1.89906 5.56749 1.82692 5.5814 1.75416 5.58087C1.60727 5.57959 1.46672 5.5208 1.36266 5.41711C1.2586 5.31342 1.19932 5.17309 1.19751 5.0262C1.19972 4.87928 1.25956 4.73911 1.36416 4.63591C1.46875 4.53271 1.6097 4.47473 1.75664 4.47449C1.82937 4.47423 1.90144 4.4884 1.96865 4.51619C2.03587 4.54397 2.0969 4.58482 2.14822 4.63637C2.19954 4.68792 2.24011 4.74913 2.2676 4.81647C2.29509 4.88381 2.30894 4.95594 2.30835 5.02867Z" fill="white"/>
<path d="M16.6929 5.03016C16.6922 4.95742 16.706 4.88527 16.7334 4.81789C16.7608 4.7505 16.8012 4.6892 16.8524 4.63754C16.9036 4.58587 16.9646 4.54486 17.0317 4.51688C17.0989 4.48889 17.1709 4.47449 17.2436 4.47449C17.3907 4.47408 17.5319 4.53168 17.6368 4.63478C17.7417 4.73788 17.8016 4.87817 17.8037 5.02521C17.8026 5.17171 17.7441 5.31193 17.6408 5.4158C17.5374 5.51968 17.3975 5.57894 17.251 5.58087C17.1781 5.58172 17.1058 5.56811 17.0382 5.54083C16.9705 5.51355 16.909 5.47313 16.8571 5.42192C16.8052 5.37071 16.764 5.30972 16.7358 5.24248C16.7076 5.17523 16.693 5.10307 16.6929 5.03016Z" fill="white"/>
<path d="M2.30835 13.9693C2.30907 14.042 2.29535 14.1142 2.26798 14.1816C2.24061 14.249 2.20015 14.3103 2.14892 14.3619C2.0977 14.4135 2.03674 14.4545 1.96957 14.4824C1.9024 14.5103 1.83036 14.5246 1.75763 14.5245C1.61064 14.5241 1.46965 14.4661 1.36493 14.363C1.26021 14.2598 1.2001 14.1197 1.19751 13.9728C1.1997 13.8264 1.25897 13.6868 1.36268 13.5835C1.46639 13.4803 1.60634 13.4216 1.75268 13.4201C1.82533 13.4193 1.89741 13.4329 1.96476 13.4602C2.03211 13.4874 2.09339 13.5277 2.14506 13.5788C2.19674 13.6299 2.23777 13.6907 2.2658 13.7577C2.29382 13.8247 2.30829 13.8967 2.30835 13.9693Z" fill="white"/>
<path d="M16.6929 13.9737C16.6925 13.9012 16.7064 13.8292 16.7339 13.7621C16.7614 13.6949 16.8019 13.6338 16.8531 13.5824C16.9043 13.5309 16.9651 13.4901 17.0322 13.4622C17.0992 13.4344 17.171 13.42 17.2436 13.42C17.3907 13.4196 17.5319 13.4772 17.6368 13.5803C17.7417 13.6834 17.8016 13.8237 17.8037 13.9708C17.8021 14.1169 17.7433 14.2566 17.6401 14.3601C17.5368 14.4635 17.3972 14.5225 17.251 14.5245C17.1781 14.5253 17.1058 14.5117 17.0381 14.4844C16.9705 14.4571 16.909 14.4167 16.8571 14.3655C16.8052 14.3143 16.764 14.2533 16.7358 14.1861C16.7076 14.1188 16.693 14.0466 16.6929 13.9737Z" fill="white"/>
<path d="M11.9123 9.5007C11.9113 9.81818 11.8479 10.1324 11.7256 10.4254C11.6032 10.7183 11.4244 10.9843 11.1993 11.2082C10.9741 11.432 10.7071 11.6094 10.4134 11.73C10.1198 11.8507 9.8052 11.9123 9.48771 11.9114C8.85025 11.9067 8.2404 11.6506 7.79074 11.1987C7.34109 10.7468 7.08797 10.1357 7.08643 9.49822C7.08733 9.18074 7.15077 8.86654 7.2731 8.57357C7.39544 8.2806 7.57428 8.01459 7.79942 7.79074C8.02456 7.56688 8.29159 7.38957 8.58526 7.26891C8.87892 7.14826 9.19348 7.08662 9.51097 7.08753C10.1486 7.09171 10.7587 7.34767 11.2085 7.79966C11.6583 8.25165 11.9112 8.86306 11.9123 9.5007Z" fill="white"/>
</svg>
