<svg width="67" height="21" viewBox="0 0 67 21" fill="none" xmlns="http://www.w3.org/2000/svg">
<path d="M12.0862 12.4218C11.7869 12.7212 11.4055 12.9252 10.9902 13.0079C10.575 13.0906 10.1445 13.0483 9.7533 12.8863C9.3621 12.7243 9.02773 12.45 8.79247 12.0979C8.55721 11.7459 8.43164 11.332 8.43164 10.9086C8.43164 10.4852 8.55721 10.0713 8.79247 9.71926C9.02773 9.36722 9.3621 9.09287 9.7533 8.93089C10.1445 8.76891 10.575 8.72659 10.9902 8.80928C11.4055 8.89197 11.7869 9.09596 12.0862 9.39544C12.4857 9.79768 12.71 10.3416 12.71 10.9086C12.71 11.4756 12.4857 12.0195 12.0862 12.4218Z" fill="white"/>
<path d="M15.0152 15.6641C14.8135 15.664 14.6165 15.6041 14.4489 15.4921C14.2813 15.38 14.1507 15.2207 14.0736 15.0344C13.9966 14.8481 13.9765 14.6431 14.0159 14.4454C14.0553 14.2477 14.1525 14.0661 14.2952 13.9236C14.6919 13.528 15.0066 13.0581 15.2214 12.5407C15.4361 12.0233 15.5466 11.4686 15.5466 10.9084C15.5466 10.3482 15.4361 9.79347 15.2214 9.27606C15.0066 8.75865 14.6919 8.2887 14.2952 7.89314C14.2004 7.79859 14.1253 7.68631 14.0739 7.5627C14.0226 7.43909 13.9961 7.30659 13.996 7.17274C13.9958 7.0389 14.0221 6.90635 14.0732 6.78264C14.1243 6.65894 14.1993 6.54651 14.2938 6.45178C14.3884 6.35705 14.5006 6.28188 14.6242 6.23054C14.7479 6.1792 14.8804 6.15271 15.0142 6.15259C15.148 6.15246 15.2806 6.1787 15.4043 6.2298C15.528 6.2809 15.6404 6.35587 15.7352 6.45042C16.3216 7.03527 16.7868 7.73006 17.1042 8.49499C17.4217 9.25993 17.5851 10.08 17.5851 10.9082C17.5851 11.7364 17.4217 12.5564 17.1042 13.3214C16.7868 14.0863 16.3216 14.7811 15.7352 15.3659C15.6407 15.4606 15.5285 15.5357 15.4049 15.5868C15.2814 15.638 15.1489 15.6642 15.0152 15.6641V15.6641Z" fill="white"/>
<path d="M17.3197 18.6641C17.118 18.6642 16.9208 18.6044 16.7531 18.4924C16.5853 18.3803 16.4547 18.221 16.3775 18.0346C16.3004 17.8483 16.2804 17.6432 16.3199 17.4454C16.3595 17.2476 16.4568 17.066 16.5997 16.9236C17.3912 16.1345 18.0192 15.197 18.4476 14.1647C18.8761 13.1324 19.0967 12.0258 19.0967 10.9081C19.0967 9.79048 18.8761 8.68381 18.4476 7.65156C18.0192 6.61931 17.3912 5.68176 16.5997 4.89265C16.4084 4.7017 16.3007 4.44256 16.3005 4.17226C16.3002 3.90195 16.4074 3.64261 16.5983 3.4513C16.7893 3.25998 17.0484 3.15236 17.3187 3.1521C17.589 3.15184 17.8484 3.25898 18.0397 3.44993C19.0208 4.42841 19.7992 5.59085 20.3303 6.87066C20.8614 8.15047 21.1348 9.52249 21.1348 10.9081C21.1348 12.2938 20.8614 13.6658 20.3303 14.9456C19.7992 16.2254 19.0208 17.3878 18.0397 18.3663C17.9452 18.4608 17.833 18.5357 17.7095 18.5867C17.586 18.6377 17.4537 18.6639 17.3201 18.6637L17.3197 18.6641Z" fill="white"/>
<path d="M6.12009 15.6637C5.98639 15.6638 5.85397 15.6376 5.73042 15.5865C5.60687 15.5355 5.49461 15.4605 5.40009 15.3659C4.81369 14.7811 4.34845 14.0863 4.03101 13.3214C3.71357 12.5564 3.55017 11.7364 3.55017 10.9082C3.55017 10.08 3.71357 9.25993 4.03101 8.49499C4.34845 7.73006 4.81369 7.03527 5.40009 6.45042C5.49482 6.35587 5.60725 6.2809 5.73095 6.2298C5.85465 6.1787 5.98721 6.15246 6.12105 6.15259C6.25489 6.15271 6.3874 6.1792 6.511 6.23054C6.63461 6.28188 6.7469 6.35705 6.84145 6.45178C6.936 6.54651 7.01096 6.65894 7.06206 6.78264C7.11317 6.90635 7.1394 7.0389 7.13928 7.17274C7.13915 7.30659 7.11266 7.43909 7.06133 7.5627C7.00999 7.6863 6.93481 7.79859 6.84008 7.89314C6.44339 8.2887 6.12865 8.75865 5.9139 9.27606C5.69915 9.79347 5.58861 10.3482 5.58861 10.9084C5.58861 11.4686 5.69915 12.0233 5.9139 12.5407C6.12865 13.0581 6.44339 13.528 6.84008 13.9236C6.98271 14.0661 7.07989 14.2476 7.11934 14.4453C7.15879 14.643 7.13873 14.8479 7.06171 15.0342C6.98468 15.2205 6.85415 15.3798 6.68662 15.4919C6.51908 15.604 6.32206 15.6639 6.12047 15.664L6.12009 15.6637Z" fill="white"/>
<path d="M3.81515 18.6641C3.68144 18.6643 3.54901 18.6381 3.42545 18.587C3.3019 18.5359 3.18965 18.4609 3.09515 18.3663C2.11404 17.3878 1.33563 16.2254 0.804511 14.9456C0.273391 13.6658 0 12.2938 0 10.9081C0 9.52249 0.273391 8.15047 0.804511 6.87066C1.33563 5.59085 2.11404 4.42841 3.09515 3.44993C3.28646 3.25898 3.5458 3.15184 3.81611 3.1521C4.08642 3.15236 4.34555 3.25998 4.53651 3.4513C4.72746 3.64261 4.83459 3.90195 4.83434 4.17226C4.83408 4.44256 4.72646 4.7017 4.53514 4.89265C3.7437 5.68179 3.11577 6.61934 2.68731 7.65159C2.25886 8.68384 2.03831 9.79049 2.03831 10.9081C2.03831 12.0258 2.25886 13.1324 2.68731 14.1647C3.11577 15.1969 3.7437 16.1345 4.53514 16.9236C4.67796 17.066 4.77531 17.2476 4.81487 17.4453C4.85442 17.6431 4.83441 17.8481 4.75735 18.0345C4.6803 18.2208 4.54967 18.3801 4.38201 18.4922C4.21435 18.6043 4.0172 18.6641 3.81554 18.6641H3.81515Z" fill="white"/>
<path d="M38.2947 15.251V17H31.8699V15.251H38.2947ZM32.4851 4.20312V17H30.2791V4.20312H32.4851ZM42.3552 4.20312V17H40.1492V4.20312H42.3552ZM49.4832 14.6621L52.8494 4.20312H55.2839L50.696 17H49.0525L49.4832 14.6621ZM46.3718 4.20312L49.7117 14.6621L50.1687 17H48.5164L43.946 4.20312H46.3718ZM65.0925 15.251V17H58.2986V15.251H65.0925ZM58.9226 4.20312V17H56.7166V4.20312H58.9226ZM64.2048 9.54688V11.2695H58.2986V9.54688H64.2048ZM65.0486 4.20312V5.96094H58.2986V4.20312H65.0486Z" fill="#C0070B"/>
</svg>
