<svg width="124" height="114" viewBox="0 0 124 114" fill="none" xmlns="http://www.w3.org/2000/svg">
<rect width="124" height="114" rx="17" fill="url(#paint0_radial_0_1)" fill-opacity="0.19"/>
<path d="M47.0039 56.5019C47.0039 51.8653 47.0039 47.228 47.0039 42.5902C47.0039 40.8064 47.8116 40.0124 49.6024 40.0038C50.7177 40.0038 51.8365 39.9952 52.9518 40.0038C54.2734 40.0176 55.167 40.8803 55.2478 42.2001C55.2478 42.3067 55.2478 42.4132 55.2478 42.5215C55.2478 51.8383 55.2478 61.1552 55.2478 70.472C55.2478 72.1424 54.3765 72.9931 52.6941 72.9966H52.0496C51.1697 72.9966 50.2898 72.9966 49.4082 72.9966C47.8855 72.9966 47.0022 72.1253 47.0022 70.6026C46.9988 65.903 46.9993 61.2027 47.0039 56.5019Z" fill="white"/>
<path d="M77.2195 56.5019C77.2195 61.1386 77.2195 65.7758 77.2195 70.4136C77.2195 72.194 76.4066 72.9914 74.6193 73H71.5895C69.7936 73 68.9705 72.1665 68.9705 70.3483C68.9705 67.0189 68.9705 63.6912 68.9705 60.3652C68.9705 54.4614 68.9705 48.5576 68.9705 42.6538C68.9705 40.8339 69.7919 40.0055 71.5912 40.0038C72.6653 40.0038 73.7377 40.0038 74.8118 40.0038C76.3362 40.0038 77.2178 40.8717 77.2178 42.396C77.2235 47.098 77.2241 51.8 77.2195 56.5019Z" fill="white"/>
<defs>
<radialGradient id="paint0_radial_0_1" cx="0" cy="0" r="1" gradientUnits="userSpaceOnUse" gradientTransform="translate(62 57) rotate(90) scale(57 62)">
<stop stop-color="white" stop-opacity="0"/>
<stop offset="0.885417" stop-color="white"/>
<stop offset="1" stop-color="white"/>
</radialGradient>
</defs>
</svg>
