<svg width="40" height="38" viewBox="0 0 40 38" fill="none" xmlns="http://www.w3.org/2000/svg">
<path d="M22.247 0C22.5436 0.139982 22.8103 0.309959 22.9178 0.646582C23.1052 1.22984 22.6953 1.85726 22.0729 1.86642C20.793 1.88642 19.5132 1.88059 18.2334 1.86642C18.0292 1.85974 17.8333 1.7845 17.6771 1.65284C17.521 1.52117 17.4137 1.34076 17.3727 1.14068C17.3256 0.936003 17.3495 0.721427 17.4403 0.532071C17.5311 0.342714 17.6835 0.18979 17.8726 0.0983212L18.0617 0H22.247Z" fill="white"/>
<path d="M22.9664 21.6222C22.9664 24.7051 22.9664 27.7881 22.9664 30.871C22.9664 31.4884 22.733 31.8442 22.2439 31.9658C22.1322 31.989 22.0181 31.9988 21.904 31.995C20.7375 31.995 19.571 31.995 18.4044 31.995C17.717 31.995 17.3438 31.6275 17.3438 30.9326C17.3438 24.7257 17.3438 18.5184 17.3438 12.3109C17.3438 11.6152 17.7162 11.2502 18.4044 11.2494C19.561 11.2494 20.7172 11.2494 21.8732 11.2494C22.6022 11.2494 22.9655 11.6085 22.9664 12.3434C22.9675 15.4386 22.9675 18.5315 22.9664 21.6222Z" fill="white"/>
<path d="M31.8706 23.5294V30.8676C31.8706 31.6434 31.5206 31.995 30.7507 31.9958H27.347C26.6121 31.9958 26.2463 31.6359 26.2463 30.9126V16.0812C26.2463 15.3696 26.6121 14.998 27.3195 14.998H30.7874C31.5132 14.998 31.8706 15.363 31.8706 16.0979C31.8706 18.5753 31.8706 21.0525 31.8706 23.5294Z" fill="white"/>
<path d="M5.62416 25.4067C5.62416 27.2398 5.62416 29.0729 5.62416 30.906C5.62416 31.6359 5.26088 31.9992 4.53347 32C3.37807 32 2.22266 32 1.06726 32C0.376516 32 0.000732422 31.6292 0.000732422 30.946C0.000732422 27.2309 0.000732422 23.5155 0.000732422 19.7999C0.000732422 19.1333 0.378185 18.7542 1.04393 18.7534C2.21933 18.7534 3.39529 18.7534 4.5718 18.7534C5.25255 18.7534 5.62333 19.1308 5.62333 19.8224C5.62389 21.6822 5.62416 23.5436 5.62416 25.4067Z" fill="white"/>
<path d="M14.5301 29.1212C14.5301 29.7253 14.5342 30.3294 14.5301 30.9335C14.5242 31.6275 14.1559 31.9942 13.4685 31.995C12.302 31.995 11.1355 31.995 9.96899 31.995C9.28158 31.995 8.91079 31.6275 8.90829 30.9326C8.90329 29.7245 8.90329 28.5166 8.90829 27.3089C8.90829 26.6132 9.28075 26.2482 9.96982 26.2474C11.1363 26.2474 12.3028 26.2474 13.4694 26.2474C14.1576 26.2474 14.5251 26.614 14.5309 27.3089C14.5342 27.913 14.5301 28.5171 14.5301 29.1212Z" fill="white"/>
<path d="M2.8088 9.37379C2.20555 9.37379 1.60312 9.37379 0.999869 9.37379C0.421612 9.36879 0 8.97468 0 8.44141C0 7.90815 0.416613 7.5032 0.990705 7.50154C2.20666 7.49654 3.42261 7.49654 4.63856 7.50154C5.21182 7.50154 5.62926 7.91315 5.62176 8.44808C5.61426 8.98301 5.20516 9.36463 4.64773 9.37296C4.03531 9.37879 3.42205 9.37379 2.8088 9.37379Z" fill="white"/>
<path d="M29.0597 9.37378C28.4573 9.37378 27.854 9.37378 27.2516 9.37378C26.6684 9.36961 26.2518 8.97883 26.2476 8.44556C26.2434 7.9123 26.6642 7.50235 27.265 7.50069C28.4598 7.50069 29.6541 7.50069 30.8478 7.50069C31.4486 7.50069 31.8719 7.8973 31.8669 8.4439C31.8619 8.99049 31.4419 9.37128 30.8345 9.37378C30.2446 9.37628 29.6521 9.37378 29.0597 9.37378Z" fill="white"/>
<path d="M2.77909 13.1233C2.18666 13.1233 1.59425 13.1233 1.00182 13.1233C0.422732 13.1183 0.00195312 12.7258 0.00195312 12.1925C0.00195312 11.6593 0.418565 11.2527 0.99099 11.251C2.20694 11.246 3.42289 11.246 4.63884 11.251C5.21294 11.251 5.62955 11.6609 5.62372 12.1959C5.61788 12.7308 5.20711 13.1166 4.65134 13.1224C4.02643 13.1283 3.40317 13.1233 2.77909 13.1233Z" fill="white"/>
<path d="M29.0578 13.1233C28.4546 13.1233 27.8521 13.1233 27.2489 13.1233C26.6698 13.1191 26.249 12.7266 26.249 12.1934C26.249 11.6601 26.6656 11.2527 27.2372 11.251C28.4526 11.246 29.6686 11.246 30.8851 11.251C31.4592 11.251 31.8766 11.6601 31.8708 12.195C31.865 12.73 31.4492 13.1191 30.8709 13.1233C30.2635 13.1266 29.6602 13.1233 29.0578 13.1233Z" fill="white"/>
<path d="M2.78376 16.8728C2.19134 16.8728 1.59892 16.8728 1.00649 16.8728C0.414072 16.8728 0.00662465 16.4803 0.000792076 15.9471C-0.0050405 15.4138 0.417404 15.0014 1.01566 14.9997C2.2105 14.9964 3.40479 14.9964 4.59852 14.9997C5.20095 14.9997 5.62339 15.3946 5.62006 15.9404C5.61673 16.4862 5.19595 16.8703 4.59019 16.8728C3.98444 16.8753 3.38701 16.8728 2.78376 16.8728Z" fill="white"/>
<path d="M20.1223 5.62426C19.529 5.62426 18.9349 5.62426 18.3417 5.62426C17.7584 5.61926 17.3459 5.22431 17.3459 4.68771C17.3459 4.15111 17.7626 3.75367 18.3417 3.752C19.5493 3.74811 20.7572 3.74811 21.9653 3.752C22.5486 3.752 22.9602 4.15028 22.9602 4.68771C22.9602 5.22514 22.5436 5.61926 21.9653 5.62426C21.3513 5.62759 20.7363 5.62426 20.1223 5.62426Z" fill="white"/>
<path d="M20.1407 9.37377C19.5474 9.37377 18.9533 9.37377 18.3601 9.37377C17.7668 9.37377 17.3385 8.97132 17.346 8.4239C17.3535 7.87647 17.7693 7.50235 18.3542 7.50068C19.5519 7.49735 20.7495 7.49735 21.9471 7.50068C22.547 7.50068 22.9678 7.90146 22.9603 8.44973C22.9528 8.99799 22.5387 9.36627 21.9529 9.37377C21.3489 9.37711 20.7448 9.37377 20.1407 9.37377Z" fill="white"/>
<path d="M11.7065 13.1233C11.1132 13.1233 10.5192 13.1233 9.9259 13.1233C9.33264 13.1233 8.9052 12.72 8.91269 12.1726C8.92019 11.6251 9.33598 11.2519 9.92173 11.2502C11.1194 11.2469 12.317 11.2469 13.5146 11.2502C14.1137 11.2502 14.5353 11.6518 14.527 12.2001C14.5186 12.7483 14.1054 13.1166 13.5188 13.1233C12.9113 13.1266 12.3073 13.1233 11.7065 13.1233Z" fill="white"/>
<path d="M11.7068 16.8728C11.1127 16.8728 10.5195 16.8728 9.92621 16.8728C9.33295 16.8728 8.903 16.4745 8.908 15.9271C8.913 15.3796 9.32878 15.0022 9.91204 14.9997C11.1097 14.9964 12.3073 14.9964 13.5049 14.9997C14.1065 14.9997 14.5281 15.3971 14.5223 15.9446C14.5164 16.492 14.1057 16.8686 13.5182 16.8728C12.9166 16.8761 12.3126 16.8728 11.7068 16.8728Z" fill="white"/>
<path d="M11.7353 18.7475C12.3285 18.7475 12.9226 18.7475 13.5159 18.7475C14.1091 18.7475 14.5157 19.1333 14.5241 19.6707C14.5324 20.2082 14.1075 20.619 13.5109 20.6206C12.3138 20.6239 11.1165 20.6239 9.91885 20.6206C9.33559 20.6206 8.91898 20.2332 8.90981 19.6974C8.90065 19.1616 9.32643 18.7509 9.92302 18.7475C10.5196 18.7442 11.1312 18.7475 11.7353 18.7475Z" fill="white"/>
<path d="M11.7126 24.3718C11.1186 24.3718 10.5253 24.3718 9.93205 24.3718C9.33879 24.3718 8.90718 23.9777 8.90968 23.4303C8.91218 22.8829 9.33379 22.4996 9.94121 22.4987C11.1277 22.4987 12.3148 22.4987 13.5024 22.4987C14.1057 22.4987 14.5273 22.892 14.5239 23.4395C14.5206 23.9869 14.1015 24.3693 13.4932 24.3718C12.9 24.3743 12.3059 24.3718 11.7126 24.3718Z" fill="white"/>
<circle cx="30.5" cy="28.5" r="9" fill="white" stroke="#4FA83D"/>
<path d="M33.2745 31.4942L33.2753 31.4943C33.3613 31.5036 33.4037 31.4929 33.4204 31.4862C33.428 31.4832 33.4337 31.4797 33.4395 31.4747C33.4452 31.4699 33.4554 31.4598 33.4681 31.4399C33.4694 31.4372 33.4734 31.4276 33.4805 31.407C33.4848 31.3943 33.4885 31.3826 33.4935 31.3672C33.4954 31.3613 33.4975 31.3548 33.4999 31.3475L33.4999 31.3145C33.4833 31.2696 33.4485 31.216 33.3719 31.1396L33.371 31.1387C32.6263 30.3919 31.8822 29.6447 31.1387 28.897C31.1191 28.8772 31.0945 28.8507 31.0795 28.8344C31.075 28.8295 31.0714 28.8256 31.0689 28.823L30.7182 28.4491L31.1008 28.1078L31.1234 28.0879L31.139 28.0743C31.1441 28.0698 31.1464 28.0677 31.1471 28.067C31.8943 27.3125 32.641 26.5573 33.3875 25.8013L33.3876 25.8012C33.4238 25.7645 33.4329 25.7395 33.4361 25.7265C33.4394 25.7128 33.443 25.684 33.4275 25.6313L33.4271 25.63C33.4074 25.5619 33.3646 25.5298 33.318 25.5187C33.27 25.5073 33.2067 25.5162 33.1478 25.5757L30.9094 27.839C30.8905 27.8581 30.8645 27.8826 30.8489 27.8973C30.8442 27.9017 30.8405 27.9052 30.8381 27.9075L30.4689 28.2605L30.1239 27.8838C30.1053 27.8635 30.0946 27.8515 30.0873 27.8434C30.0784 27.8334 30.0745 27.8291 30.0674 27.822L30.0668 27.8214C29.3173 27.0673 28.5676 26.3136 27.8176 25.5605L27.8114 25.5544L27.8115 25.5543C27.802 25.5444 27.7918 25.5354 27.781 25.5272C27.7489 25.5052 27.7107 25.4964 27.6735 25.5013C27.6352 25.5064 27.599 25.5261 27.5726 25.5581L27.5705 25.5606L27.5705 25.5606C27.5441 25.5923 27.5297 25.6339 27.5317 25.6771C27.5337 25.7204 27.5518 25.7602 27.5807 25.7889L27.584 25.7922L27.584 25.7922L29.8562 28.0903C29.8563 28.0903 29.8563 28.0903 29.8563 28.0903C29.8743 28.1086 29.8976 28.1341 29.9149 28.1531C29.9209 28.1596 29.9262 28.1654 29.9303 28.1699L30.3509 28.6241L29.8274 28.9343C29.0782 29.6911 28.3298 30.448 27.5822 31.2051L27.5769 31.2105L27.5769 31.2105C27.5593 31.2278 27.5462 31.242 27.537 31.2531L33.2745 31.4942ZM33.2745 31.4942C33.2438 31.4909 33.2056 31.4794 33.143 31.416C32.4044 30.6661 31.6648 29.9173 30.9243 29.1697M33.2745 31.4942L30.9243 29.1697M30.9243 29.1697C30.9199 29.1642 30.9157 29.1586 30.9117 29.1528L30.5766 28.6675L30.1527 29.0775C30.1469 29.0831 30.1397 29.0899 30.1319 29.0974C30.1146 29.114 30.0942 29.1335 30.079 29.1487L30.079 29.1487L30.0773 29.1504L27.8099 31.4435C27.8099 31.4435 27.8098 31.4435 27.8098 31.4436C27.8098 31.4436 27.8098 31.4436 27.8097 31.4436C27.75 31.5039 27.6166 31.5195 27.5431 31.4728L27.5431 31.4728C27.5325 31.4661 27.5085 31.4427 27.5016 31.3887C27.4947 31.3351 27.5101 31.2855 27.537 31.2531L30.9243 29.1697ZM33.725 30.7856C33.8583 30.9186 33.9621 31.0633 34 31.2505L33.725 30.7856Z" fill="white" stroke="#4FA83D"/>
</svg>
