<svg width="40" height="38" viewBox="0 0 40 38" fill="none" xmlns="http://www.w3.org/2000/svg">
<path d="M22.9664 21.6222C22.9664 24.7051 22.9664 27.7881 22.9664 30.871C22.9664 31.4884 22.733 31.8442 22.2439 31.9658C22.1322 31.989 22.0181 31.9988 21.904 31.995C20.7375 31.995 19.571 31.995 18.4044 31.995C17.717 31.995 17.3438 31.6275 17.3438 30.9326C17.3438 24.7257 17.3438 18.5184 17.3438 12.3109C17.3438 11.6152 17.7162 11.2502 18.4044 11.2494C19.561 11.2494 20.7172 11.2494 21.8732 11.2494C22.6022 11.2494 22.9655 11.6085 22.9664 12.3434C22.9675 15.4386 22.9675 18.5315 22.9664 21.6222Z" fill="white"/>
<path d="M31.8706 23.5294V30.8676C31.8706 31.6434 31.5206 31.995 30.7507 31.9958H27.347C26.6121 31.9958 26.2463 31.6359 26.2463 30.9126V16.0812C26.2463 15.3697 26.6121 14.998 27.3195 14.998H30.7874C31.5132 14.998 31.8706 15.363 31.8706 16.0979C31.8706 18.5754 31.8706 21.0525 31.8706 23.5294Z" fill="white"/>
<path d="M5.62416 25.4067C5.62416 27.2398 5.62416 29.0729 5.62416 30.906C5.62416 31.6359 5.26088 31.9992 4.53347 32C3.37807 32 2.22266 32 1.06726 32C0.376516 32 0.000732422 31.6292 0.000732422 30.946C0.000732422 27.2309 0.000732422 23.5156 0.000732422 19.7999C0.000732422 19.1334 0.378185 18.7542 1.04393 18.7534C2.21933 18.7534 3.39529 18.7534 4.5718 18.7534C5.25255 18.7534 5.62333 19.1309 5.62333 19.8224C5.62389 21.6822 5.62416 23.5436 5.62416 25.4067Z" fill="white"/>
<path d="M14.5301 29.1212C14.5301 29.7253 14.5342 30.3294 14.5301 30.9335C14.5242 31.6276 14.1559 31.9942 13.4685 31.995C12.302 31.995 11.1355 31.995 9.96899 31.995C9.28158 31.995 8.91079 31.6276 8.90829 30.9326C8.90329 29.7245 8.90329 28.5166 8.90829 27.3089C8.90829 26.6132 9.28075 26.2483 9.96982 26.2474C11.1363 26.2474 12.3028 26.2474 13.4694 26.2474C14.1576 26.2474 14.5251 26.614 14.5309 27.3089C14.5342 27.913 14.5301 28.5171 14.5301 29.1212Z" fill="white"/>
<path d="M29.0595 9.37378C28.4571 9.37378 27.8538 9.37378 27.2514 9.37378C26.6681 9.36961 26.2515 8.97883 26.2473 8.44556C26.2432 7.9123 26.664 7.50235 27.2647 7.50069C28.4596 7.50069 29.6538 7.50069 30.8476 7.50069C31.4483 7.50069 31.8716 7.8973 31.8666 8.4439C31.8616 8.99049 31.4417 9.37128 30.8342 9.37378C30.2443 9.37628 29.6519 9.37378 29.0595 9.37378Z" fill="white"/>
<path d="M2.77909 13.1233C2.18666 13.1233 1.59425 13.1233 1.00182 13.1233C0.422732 13.1183 0.00195312 12.7258 0.00195312 12.1926C0.00195312 11.6593 0.418565 11.2527 0.99099 11.251C2.20694 11.246 3.42289 11.246 4.63884 11.251C5.21294 11.251 5.62955 11.661 5.62372 12.1959C5.61788 12.7308 5.20711 13.1166 4.65134 13.1224C4.02643 13.1283 3.40317 13.1233 2.77909 13.1233Z" fill="white"/>
<path d="M29.0578 13.1233C28.4546 13.1233 27.8521 13.1233 27.2489 13.1233C26.6698 13.1191 26.249 12.7267 26.249 12.1934C26.249 11.6601 26.6656 11.2527 27.2372 11.251C28.4526 11.246 29.6686 11.246 30.8851 11.251C31.4592 11.251 31.8766 11.6601 31.8708 12.1951C31.865 12.73 31.4492 13.1191 30.8709 13.1233C30.2635 13.1266 29.6602 13.1233 29.0578 13.1233Z" fill="white"/>
<path d="M2.78376 16.8728C2.19134 16.8728 1.59892 16.8728 1.00649 16.8728C0.414072 16.8728 0.00662465 16.4803 0.000792076 15.9471C-0.0050405 15.4138 0.417404 15.0014 1.01566 14.9997C2.2105 14.9964 3.40479 14.9964 4.59852 14.9997C5.20095 14.9997 5.62339 15.3946 5.62006 15.9404C5.61673 16.4862 5.19595 16.8703 4.59019 16.8728C3.98444 16.8753 3.38701 16.8728 2.78376 16.8728Z" fill="white"/>
<path d="M20.1223 5.62426C19.529 5.62426 18.9349 5.62426 18.3417 5.62426C17.7584 5.61926 17.3459 5.22431 17.3459 4.68771C17.3459 4.15111 17.7626 3.75367 18.3417 3.752C19.5493 3.74811 20.7572 3.74811 21.9653 3.752C22.5486 3.752 22.9602 4.15028 22.9602 4.68771C22.9602 5.22514 22.5436 5.61926 21.9653 5.62426C21.3513 5.62759 20.7363 5.62426 20.1223 5.62426Z" fill="white"/>
<path d="M20.1407 9.37377C19.5474 9.37377 18.9533 9.37377 18.3601 9.37377C17.7668 9.37377 17.3385 8.97132 17.346 8.4239C17.3535 7.87647 17.7693 7.50235 18.3542 7.50068C19.5519 7.49735 20.7495 7.49735 21.9471 7.50068C22.547 7.50068 22.9678 7.90146 22.9603 8.44973C22.9528 8.99799 22.5387 9.36627 21.9529 9.37377C21.3489 9.37711 20.7448 9.37377 20.1407 9.37377Z" fill="white"/>
<path d="M11.735 18.7475C12.3283 18.7475 12.9224 18.7475 13.5156 18.7475C14.1089 18.7475 14.5155 19.1333 14.5238 19.6707C14.5322 20.2082 14.1072 20.619 13.5106 20.6206C12.3136 20.6239 11.1162 20.6239 9.9186 20.6206C9.33535 20.6206 8.91873 20.2332 8.90957 19.6974C8.9004 19.1616 9.32618 18.7509 9.92277 18.7475C10.5194 18.7442 11.1309 18.7475 11.735 18.7475Z" fill="white"/>
<path d="M11.7124 24.3718C11.1183 24.3718 10.5251 24.3718 9.9318 24.3718C9.33855 24.3718 8.90693 23.9777 8.90943 23.4303C8.91193 22.8829 9.33355 22.4996 9.94097 22.4987C11.1275 22.4987 12.3145 22.4987 13.5022 22.4987C14.1054 22.4987 14.527 22.892 14.5237 23.4395C14.5204 23.9869 14.1013 24.3693 13.493 24.3718C12.8997 24.3743 12.3057 24.3718 11.7124 24.3718Z" fill="white"/>
</svg>
