<svg width="40" height="38" viewBox="0 0 40 38" fill="none" xmlns="http://www.w3.org/2000/svg">
<path d="M22.9664 21.6222C22.9664 24.7051 22.9664 27.7881 22.9664 30.871C22.9664 31.4884 22.733 31.8442 22.2439 31.9658C22.1322 31.989 22.0181 31.9988 21.904 31.995C20.7375 31.995 19.571 31.995 18.4044 31.995C17.717 31.995 17.3438 31.6275 17.3438 30.9326C17.3438 24.7257 17.3438 18.5184 17.3438 12.3109C17.3438 11.6152 17.7162 11.2502 18.4044 11.2494C19.561 11.2494 20.7172 11.2494 21.8732 11.2494C22.6022 11.2494 22.9655 11.6085 22.9664 12.3434C22.9675 15.4386 22.9675 18.5315 22.9664 21.6222Z" fill="white"/>
<path d="M31.8706 23.5294V30.8676C31.8706 31.6434 31.5206 31.995 30.7507 31.9958H27.347C26.6121 31.9958 26.2463 31.6359 26.2463 30.9126V16.0812C26.2463 15.3696 26.6121 14.998 27.3195 14.998H30.7874C31.5132 14.998 31.8706 15.363 31.8706 16.0979C31.8706 18.5753 31.8706 21.0525 31.8706 23.5294Z" fill="white"/>
<path d="M5.62416 25.4067C5.62416 27.2398 5.62416 29.0729 5.62416 30.906C5.62416 31.6359 5.26088 31.9992 4.53347 32C3.37807 32 2.22266 32 1.06726 32C0.376516 32 0.000732422 31.6292 0.000732422 30.946C0.000732422 27.2309 0.000732422 23.5155 0.000732422 19.7999C0.000732422 19.1333 0.378185 18.7542 1.04393 18.7534C2.21933 18.7534 3.39529 18.7534 4.5718 18.7534C5.25255 18.7534 5.62333 19.1308 5.62333 19.8224C5.62389 21.6822 5.62416 23.5436 5.62416 25.4067Z" fill="white"/>
<path d="M14.5301 29.1212C14.5301 29.7253 14.5342 30.3294 14.5301 30.9335C14.5242 31.6275 14.1559 31.9942 13.4685 31.995C12.302 31.995 11.1355 31.995 9.96899 31.995C9.28158 31.995 8.91079 31.6275 8.90829 30.9326C8.90329 29.7245 8.90329 28.5166 8.90829 27.3089C8.90829 26.6132 9.28075 26.2482 9.96982 26.2474C11.1363 26.2474 12.3028 26.2474 13.4694 26.2474C14.1576 26.2474 14.5251 26.614 14.5309 27.3089C14.5342 27.913 14.5301 28.5171 14.5301 29.1212Z" fill="white"/>
</svg>
