<svg width="67" height="22" viewBox="0 0 67 22" fill="none" xmlns="http://www.w3.org/2000/svg">
<path d="M12.108 13.074C11.8087 13.3735 11.4273 13.5774 11.012 13.6601C10.5967 13.7428 10.1663 13.7005 9.77509 13.5385C9.38389 13.3766 9.04952 13.1022 8.81426 12.7502C8.579 12.3981 8.45343 11.9842 8.45343 11.5608C8.45343 11.1374 8.579 10.7235 8.81426 10.3715C9.04952 10.0194 9.38389 9.74509 9.77509 9.58311C10.1663 9.42114 10.5967 9.37882 11.012 9.46151C11.4273 9.5442 11.8087 9.74818 12.108 10.0477C12.5075 10.4499 12.7318 10.9939 12.7318 11.5608C12.7318 12.1278 12.5075 12.6717 12.108 13.074Z" fill="white"/>
<path d="M15.037 16.3163C14.8353 16.3162 14.6383 16.2564 14.4707 16.1443C14.3031 16.0322 14.1725 15.8729 14.0954 15.6866C14.0183 15.5003 13.9982 15.2953 14.0377 15.0976C14.0771 14.8999 14.1743 14.7183 14.317 14.5758C14.7136 14.1803 15.0284 13.7103 15.2431 13.1929C15.4579 12.6755 15.5684 12.1208 15.5684 11.5606C15.5684 11.0004 15.4579 10.4457 15.2431 9.92828C15.0284 9.41087 14.7136 8.94092 14.317 8.54536C14.2222 8.45081 14.147 8.33853 14.0957 8.21492C14.0444 8.09132 14.0179 7.95881 14.0178 7.82497C14.0176 7.69112 14.0439 7.55857 14.095 7.43486C14.1461 7.31116 14.2211 7.19874 14.3156 7.10401C14.4102 7.00927 14.5224 6.9341 14.646 6.88276C14.7696 6.83142 14.9022 6.80494 15.036 6.80481C15.1698 6.80468 15.3024 6.83092 15.4261 6.88202C15.5498 6.93313 15.6622 7.00809 15.757 7.10264C16.3433 7.68749 16.8086 8.38228 17.126 9.14722C17.4435 9.91215 17.6069 10.7322 17.6069 11.5604C17.6069 12.3886 17.4435 13.2086 17.126 13.9736C16.8086 14.7385 16.3433 15.4333 15.757 16.0182C15.6625 16.1128 15.5503 16.1879 15.4267 16.2391C15.3031 16.2902 15.1707 16.3165 15.037 16.3163V16.3163Z" fill="white"/>
<path d="M17.3414 19.3163C17.1397 19.3164 16.9425 19.2567 16.7748 19.1446C16.6071 19.0326 16.4764 18.8733 16.3993 18.6869C16.3222 18.5005 16.3022 18.2954 16.3417 18.0976C16.3812 17.8998 16.4786 17.7182 16.6214 17.5758C17.4129 16.7867 18.0409 15.8492 18.4694 14.8169C18.8979 13.7847 19.1184 12.678 19.1184 11.5604C19.1184 10.4427 18.8979 9.33604 18.4694 8.30378C18.0409 7.27153 17.4129 6.33398 16.6214 5.54487C16.4301 5.35392 16.3225 5.09478 16.3223 4.82448C16.322 4.55417 16.4291 4.29483 16.6201 4.10352C16.811 3.9122 17.0702 3.80458 17.3405 3.80432C17.6108 3.80407 17.8701 3.9112 18.0614 4.10216C19.0426 5.08063 19.821 6.24307 20.3521 7.52288C20.8832 8.80269 21.1566 10.1747 21.1566 11.5604C21.1566 12.946 20.8832 14.318 20.3521 15.5978C19.821 16.8776 19.0426 18.0401 18.0614 19.0185C17.9669 19.113 17.8547 19.1879 17.7313 19.2389C17.6078 19.2899 17.4754 19.3161 17.3418 19.3159L17.3414 19.3163Z" fill="white"/>
<path d="M6.14181 16.3159C6.00812 16.3161 5.87569 16.2899 5.75214 16.2388C5.62859 16.1877 5.51634 16.1127 5.42181 16.0182C4.83542 15.4333 4.37018 14.7385 4.05274 13.9736C3.7353 13.2086 3.5719 12.3886 3.5719 11.5604C3.5719 10.7322 3.7353 9.91215 4.05274 9.14722C4.37018 8.38228 4.83542 7.68749 5.42181 7.10264C5.51654 7.00809 5.62897 6.93313 5.75267 6.88202C5.87638 6.83092 6.00893 6.80468 6.14277 6.80481C6.27662 6.80494 6.40912 6.83142 6.53273 6.88276C6.65633 6.9341 6.76862 7.00927 6.86317 7.10401C6.95772 7.19874 7.03269 7.31116 7.08379 7.43486C7.13489 7.55857 7.16113 7.69112 7.161 7.82497C7.16087 7.95881 7.13439 8.09131 7.08305 8.21492C7.03172 8.33853 6.95654 8.45081 6.86181 8.54536C6.46512 8.94092 6.15038 9.41087 5.93563 9.92828C5.72088 10.4457 5.61033 11.0004 5.61033 11.5606C5.61033 12.1208 5.72088 12.6755 5.93563 13.1929C6.15038 13.7103 6.46512 14.1803 6.86181 14.5758C7.00443 14.7183 7.10162 14.8998 7.14107 15.0975C7.18051 15.2952 7.16046 15.5002 7.08343 15.6864C7.00641 15.8727 6.87588 16.032 6.70834 16.1441C6.54081 16.2562 6.34378 16.3161 6.1422 16.3163L6.14181 16.3159Z" fill="white"/>
<path d="M3.8369 19.3163C3.70319 19.3165 3.57076 19.2903 3.44721 19.2392C3.32365 19.1881 3.2114 19.1131 3.1169 19.0185C2.13579 18.0401 1.35738 16.8776 0.826262 15.5978C0.295143 14.318 0.0217514 12.946 0.0217514 11.5604C0.0217514 10.1747 0.295143 8.80269 0.826262 7.52288C1.35738 6.24307 2.13579 5.08063 3.1169 4.10216C3.30822 3.9112 3.56755 3.80407 3.83786 3.80432C4.10817 3.80458 4.3673 3.9122 4.55826 4.10352C4.74921 4.29483 4.85635 4.55417 4.85609 4.82448C4.85583 5.09478 4.74821 5.35392 4.55689 5.54487C3.76546 6.33401 3.13752 7.27156 2.70906 8.30381C2.28061 9.33606 2.06006 10.4427 2.06006 11.5604C2.06006 12.678 2.28061 13.7846 2.70906 14.8169C3.13752 15.8491 3.76546 16.7867 4.55689 17.5758C4.69971 17.7182 4.79706 17.8998 4.83662 18.0975C4.87617 18.2953 4.85616 18.5003 4.7791 18.6867C4.70205 18.8731 4.57142 19.0324 4.40376 19.1444C4.2361 19.2565 4.03896 19.3163 3.83729 19.3163H3.8369Z" fill="white"/>
<path d="M38.3164 15.9032V17.6522H31.8916V15.9032H38.3164ZM32.5068 4.85535V17.6522H30.3008V4.85535H32.5068ZM42.377 4.85535V17.6522H40.1709V4.85535H42.377ZM49.5049 15.3143L52.8711 4.85535H55.3057L50.7178 17.6522H49.0742L49.5049 15.3143ZM46.3936 4.85535L49.7334 15.3143L50.1904 17.6522H48.5381L43.9678 4.85535H46.3936ZM65.1143 15.9032V17.6522H58.3203V15.9032H65.1143ZM58.9443 4.85535V17.6522H56.7383V4.85535H58.9443ZM64.2266 10.1991V11.9218H58.3203V10.1991H64.2266ZM65.0703 4.85535V6.61316H58.3203V4.85535H65.0703Z" fill="white"/>
</svg>
