<svg width="42" height="42" viewBox="0 0 42 42" fill="none" xmlns="http://www.w3.org/2000/svg">
<path d="M41.2499 26.4321C41.2457 25.9346 41.0489 25.5076 40.7001 25.2081C40.3546 24.9114 39.8782 24.7549 39.3341 24.7548C36.3491 24.7484 33.3642 24.7484 30.3792 24.7548C27.1311 24.7599 24.7684 27.1193 24.7584 30.3621V30.3629V30.3713V30.3798V30.3882V30.3967V30.4051V30.4135V30.422V30.4304V30.4389V30.4473V30.4557V30.4642V30.4726V30.4811V30.4895V30.4979V30.5064V30.5148V30.5233V30.5317V30.5401V30.5486V30.557V30.5655V30.5739V30.5823V30.5908V30.5992V30.6077V30.6161V30.6245V30.633V30.6414V30.6499V30.6583V30.6667V30.6752V30.6836V30.692V30.7005V30.7089V30.7174V30.7258V30.7342V30.7427V30.7511V30.7596V30.768V30.7764V30.7849V30.7933V30.8018V30.8102V30.8186V30.8271V30.8355V30.844V30.8524V30.8608V30.8693V30.8777V30.8862V30.8946V30.903V30.9115V30.9199V30.9284V30.9368V30.9452V30.9537V30.9621V30.9706V30.979V30.9874V30.9959V31.0043V31.0128V31.0212V31.0296V31.0381V31.0465V31.055V31.0634V31.0718V31.0803V31.0887V31.0971V31.1056V31.114V31.1225V31.1309V31.1393V31.1478V31.1562V31.1647V31.1731V31.1815V31.19V31.1984V31.2069V31.2153V31.2237V31.2322V31.2406V31.2491V31.2575V31.2659V31.2744V31.2828V31.2913V31.2997V31.3081V31.3166V31.325V31.3335V31.3419V31.3503V31.3588V31.3672V31.3757V31.3841V31.3925V31.401V31.4094V31.4179V31.4263V31.4347V31.4432V31.4516V31.46V31.4685V31.4769V31.4854V31.4938V31.5022V31.5107V31.5191V31.5276V31.536V31.5444V31.5529V31.5613V31.5698V31.5782V31.5866V31.5951V31.6035V31.612V31.6204V31.6288V31.6373V31.6457V31.6542V31.6626V31.671V31.6795V31.6879V31.6964V31.7048V31.7132V31.7217V31.7301V31.7386V31.747V31.7554V31.7639V31.7723V31.7808V31.7892V31.7976V31.8061V31.8145V31.823V31.8314V31.8398V31.8483V31.8567V31.8651V31.8736V31.882V31.8905V31.8989V31.9073V31.9158V31.9242V31.9327V31.9411V31.9495V31.958V31.9664V31.9749V31.9833V31.9917V32.0002V32.0086V32.0171V32.0255V32.0339V32.0424V32.0508V32.0593V32.0677V32.0761V32.0846V32.093V32.1015V32.1099V32.1183V32.1268V32.1352V32.1437V32.1521V32.1605V32.169V32.1774V32.1859V32.1943V32.2027V32.2112V32.2196V32.228V32.2365V32.2449V32.2534V32.2618V32.2702V32.2787V32.2871V32.2956V32.304V32.3124V32.3209V32.3293V32.3378V32.3462V32.3546V32.3631V32.3715V32.38V32.3884V32.3968V32.4053V32.4137V32.4222V32.4306V32.439V32.4475V32.4559V32.4644V32.4728V32.4812V32.4897V32.4981V32.5066V32.515V32.5234V32.5319V32.5403V32.5488V32.5572V32.5656V32.5741V32.5825V32.591V32.5994V32.6078V32.6163V32.6247V32.6331V32.6416V32.65V32.6585V32.6669V32.6753V32.6838V32.6922V32.7007V32.7091V32.7175V32.726V32.7344V32.7429V32.7513V32.7597V32.7682V32.7766V32.7851V32.7935V32.8019V32.8104V32.8188V32.8273V32.8357V32.8441V32.8526V32.861V32.8695V32.8779V32.8863V32.8948V32.9032V32.9117V32.9201V32.9285V32.937V32.9454V32.9539V32.9623V32.9707V32.9792V32.9876V32.996V33.0045V33.0129V33.0214V33.0298V33.0382V33.0467V33.0551V33.0636V33.072V33.0804V33.0889V33.0973V33.1058V33.1142V33.1226V33.1311V33.1395V33.148V33.1564V33.1648V33.1733V33.1817V33.1902V33.1986V33.207V33.2155V33.2239V33.2324V33.2408V33.2492V33.2577V33.2661V33.2746V33.283V33.2914V33.2999V33.3083V33.3168V33.3252V33.3336V33.3421V33.3505V33.359V33.3674V33.3758V33.3843V33.3927V33.4011V33.4096V33.418V33.4265V33.4349V33.4433V33.4518V33.4602V33.4687V33.4771V33.4855V33.494V33.5024V33.5109V33.5193V33.5277V33.5362V33.5446V33.5531V33.5615V33.5699V33.5784V33.5868V33.5953V33.6037V33.6121V33.6206V33.629V33.6375V33.6459V33.6543V33.6628V33.6712V33.6797V33.6881V33.6965V33.705V33.7134V33.7219V33.7303V33.7387V33.7472V33.7556V33.7641V33.7725V33.7809V33.7894V33.7978V33.8062V33.8147V33.8231V33.8316V33.84V33.8484V33.8569V33.8653V33.8738V33.8822V33.8906V33.8991V33.9075V33.916V33.9244V33.9328V33.9413V33.9497V33.9582V33.9666V33.975V33.9835V33.9919V34.0004V34.0088V34.0172V34.0257V34.0341V34.0426V34.051V34.0594V34.0679V34.0763V34.0848V34.0932V34.1016V34.1101V34.1185V34.127V34.1354V34.1438V34.1523V34.1607V34.1691V34.1776V34.186V34.1945V34.2029V34.2113V34.2198V34.2282V34.2367V34.2451V34.2535V34.262V34.2704V34.2789V34.2873V34.2957V34.3042V34.3126V34.3211V34.3295V34.3379V34.3464V34.3548V34.3633V34.3717V34.3801V34.3886V34.397V34.4055V34.4139V34.4223V34.4308V34.4392V34.4477V34.4561V34.4645V34.473V34.4814V34.4899V34.4983V34.5067V34.5152V34.5236V34.532V34.5405V34.5489V34.5574V34.5658V34.5742V34.5827V34.5911V34.5996V34.608V34.6164V34.6249V34.6333V34.6418V34.6502V34.6586V34.6671V34.6755V34.684C24.7584 35.1297 24.7563 35.5765 24.7542 36.024C24.7489 37.1664 24.7435 38.3129 24.7729 39.4544L24.7726 39.4544L24.7735 39.4662C24.806 39.9106 24.9662 40.3362 25.2349 40.6918C25.6696 41.2705 26.4717 41.3814 27.0957 41.1053C27.4332 40.959 27.6982 40.7458 27.8772 40.4661C28.056 40.1866 28.1386 39.8571 28.1386 39.4947V39.4771V39.4594V39.4418V39.4241V39.4065V39.3888V39.3712V39.3535V39.3359V39.3182V39.3006V39.2829V39.2652V39.2476V39.2299V39.2123V39.1946V39.177V39.1593V39.1417V39.124V39.1064V39.0887V39.0711V39.0534V39.0358V39.0181V39.0005V38.9828V38.9651V38.9475V38.9298V38.9122V38.8945V38.8769V38.8592V38.8416V38.8239V38.8063V38.7886V38.771V38.7533V38.7357V38.718V38.7003V38.6827V38.665V38.6474V38.6297V38.6121V38.5944V38.5768V38.5591V38.5415V38.5238V38.5062V38.4885V38.4708V38.4532V38.4355V38.4179V38.4002V38.3826V38.3649V38.3473V38.3296V38.312V38.2943V38.2767V38.259V38.2413V38.2237V38.206V38.1884V38.1707V38.1531V38.1354V38.1178V38.1001V38.0825V38.0648V38.0471V38.0295V38.0118V37.9942V37.9765V37.9589V37.9412V37.9236V37.9059V37.8883V37.8706V37.853V37.8353V37.8176V37.8V37.7823V37.7647V37.747V37.7294V37.7117V37.6941V37.6764V37.6588V37.6411V37.6234V37.6058V37.5881V37.5705V37.5528V37.5352V37.5175V37.4999V37.4822V37.4645V37.4469V37.4292V37.4116V37.3939V37.3763V37.3586V37.341V37.3233V37.3057V37.288V37.2703V37.2527V37.235V37.2174V37.1997V37.1821V37.1644V37.1468V37.1291V37.1114V37.0938V37.0761V37.0585V37.0408V37.0232V37.0055V36.9879V36.9702V36.9525V36.9349V36.9172V36.8996V36.8819V36.8643V36.8466V36.829V36.8113V36.7937V36.776V36.7583V36.7407V36.723V36.7054V36.6877V36.6701V36.6524V36.6348V36.6171V36.5994V36.5818V36.5641V36.5465V36.5288V36.5112V36.4935V36.4758V36.4582V36.4405V36.4229V36.4052V36.3876V36.3699V36.3523V36.3346V36.3169V36.2993V36.2816V36.264V36.2463V36.2287V36.211V36.1934V36.1757V36.158V36.1404V36.1227V36.1051V36.0874V36.0698V36.0521V36.0344V36.0168V35.9991V35.9815V35.9638V35.9462V35.9285V35.9109V35.8932V35.8755V35.8579V35.8402V35.8226V35.8049V35.7873V35.7696V35.7519V35.7343V35.7166V35.699V35.6813V35.6637V35.646V35.6283V35.6107V35.593V35.5754V35.5577V35.5401V35.5224V35.5047V35.4871V35.4694V35.4518V35.4341V35.4165V35.3988V35.3811V35.3635V35.3458V35.3282V35.3105V35.2929V35.2752V35.2575V35.2399V35.2222V35.2046V35.1869V35.1693V35.1516V35.1339V35.1163V35.0986V35.081V35.0633V35.0457V35.028V35.0103V34.9927V34.975V34.9574V34.9397V34.9221V34.9044V34.8867V34.8691V34.8514V34.8338V34.8161V34.7985V34.7808V34.7631V34.7455V34.7278V34.7102V34.6925V34.6749V34.6572V34.6395V34.6219V34.6042V34.5866V34.5689V34.5512V34.5336V34.5159V34.4983V34.4806V34.463V34.4453V34.4276V34.41V34.3923V34.3747V34.357V34.3394V34.3217V34.304V34.2864V34.2687V34.2511V34.2334V34.2157V34.1981V34.1804V34.1628V34.1451V34.1275V34.1098V34.0921V34.0745V34.0568V34.0392V34.0215V34.0038V33.9862V33.9685V33.9509V33.9332V33.9156V33.8979V33.8802V33.8626V33.8449V33.8273V33.8096V33.7919V33.7743V33.7566V33.739V33.7213V33.7036V33.686V33.6683V33.6507V33.633V33.6154V33.5977V33.58V33.5624V33.5447V33.5271V33.5094V33.4917V33.4741V33.4564V33.4388V33.4211V33.4034V33.3858V33.3681V33.3505V33.3328V33.3152V33.2975V33.2798V33.2622V33.2445V33.2269V33.2092V33.1915V33.1739V33.1562V33.1386V33.1209V33.1032V33.0856V33.0679V33.0503V33.0326V33.0149V32.9973V32.9796V32.962V32.9443V32.9266V32.909V32.8913V32.8737V32.856V32.8383V32.8207V32.803V32.7854V32.7677V32.7501V32.7324V32.7147V32.6971V32.6794V32.6618V32.6441V32.6264V32.6088V32.5911V32.5735V32.5558V32.5381V32.5205V32.5028V32.4852V32.4675V32.4498V32.4322V32.4145V32.3969V32.3792V32.3615V32.3439V32.3262V32.3086V32.2909V32.2732V32.2556V32.2379V32.2203V32.2026V32.1849V32.1673V32.1496V32.1319V32.1143V32.0966V32.079V32.0613V32.0436V32.026V32.0083V31.9907V31.973V31.9553V31.9377V31.92V31.9024V31.8847V31.867V31.8494V31.8317V31.8141V31.7964V31.7787V31.7611V31.7434V31.7258V31.7081V31.6904V31.6728V31.6551V31.6375V31.6198V31.6021V31.5845V31.5668V31.5491V31.5315V31.5138V31.4962V31.4785V31.4608V31.4432V31.4255V31.4079V31.3902V31.3725V31.3549V31.3372V31.3196V31.3019V31.2842V31.2666V31.2489V31.2312V31.2136V31.1959V31.1783V31.1606V31.1429V31.1253V31.1076V31.09V31.0723V31.0546V31.037V31.0193V31.0016V30.984V30.9663V30.9487V30.931V30.9133V30.8957V30.878V30.8604V30.8427V30.825V30.8074V30.7897V30.772V30.7544V30.7367V30.7191V30.7014V30.6837V30.6661V30.6484V30.6308V30.6131V30.5954V30.5778V30.5601V30.5424V30.5248V30.5071V30.4895V30.4718V30.4541C28.1386 29.682 28.3566 29.1103 28.7336 28.7316C29.1103 28.3531 29.6789 28.1343 30.447 28.1343H39.3119C39.8721 28.1343 40.3589 27.9786 40.7088 27.678C41.0626 27.3738 41.2547 26.9392 41.2499 26.4321ZM41.2499 26.4321C41.2499 26.432 41.2499 26.432 41.2499 26.432L40.9999 26.4344L41.2499 26.4323C41.2499 26.4322 41.2499 26.4321 41.2499 26.4321Z" fill="white" stroke="white" stroke-width="0.5"/>
<path d="M17.243 11.6432V11.6424V11.6339V11.6255V11.617V11.6086V11.6002V11.5917V11.5833V11.5748V11.5664V11.558V11.5495V11.5411V11.5326V11.5242V11.5158V11.5073V11.4989V11.4904V11.482V11.4736V11.4651V11.4567V11.4482V11.4398V11.4313V11.4229V11.4145V11.406V11.3976V11.3891V11.3807V11.3723V11.3638V11.3554V11.3469V11.3385V11.3301V11.3216V11.3132V11.3047V11.2963V11.2879V11.2794V11.271V11.2625V11.2541V11.2457V11.2372V11.2288V11.2203V11.2119V11.2035V11.195V11.1866V11.1781V11.1697V11.1612V11.1528V11.1444V11.1359V11.1275V11.119V11.1106V11.1022V11.0937V11.0853V11.0768V11.0684V11.06V11.0515V11.0431V11.0346V11.0262V11.0178V11.0093V11.0009V10.9924V10.984V10.9756V10.9671V10.9587V10.9502V10.9418V10.9333V10.9249V10.9165V10.908V10.8996V10.8911V10.8827V10.8743V10.8658V10.8574V10.8489V10.8405V10.8321V10.8236V10.8152V10.8067V10.7983V10.7899V10.7814V10.773V10.7645V10.7561V10.7477V10.7392V10.7308V10.7223V10.7139V10.7054V10.697V10.6886V10.6801V10.6717V10.6632V10.6548V10.6464V10.6379V10.6295V10.621V10.6126V10.6042V10.5957V10.5873V10.5788V10.5704V10.562V10.5535V10.5451V10.5366V10.5282V10.5198V10.5113V10.5029V10.4944V10.486V10.4775V10.4691V10.4607V10.4522V10.4438V10.4353V10.4269V10.4185V10.41V10.4016V10.3931V10.3847V10.3763V10.3678V10.3594V10.3509V10.3425V10.3341V10.3256V10.3172V10.3087V10.3003V10.2919V10.2834V10.275V10.2665V10.2581V10.2497V10.2412V10.2328V10.2243V10.2159V10.2074V10.199V10.1906V10.1821V10.1737V10.1652V10.1568V10.1484V10.1399V10.1315V10.123V10.1146V10.1062V10.0977V10.0893V10.0808V10.0724V10.064V10.0555V10.0471V10.0386V10.0302V10.0218V10.0133V10.0049V9.99643V9.98799V9.97955V9.97111V9.96267V9.95423V9.94579V9.93734V9.9289V9.92046V9.91202V9.90358V9.89514V9.8867V9.87826V9.86982V9.86138V9.85294V9.8445V9.83606V9.82762V9.81917V9.81073V9.80229V9.79385V9.78541V9.77697V9.76853V9.76009V9.75165V9.74321V9.73477V9.72633V9.71789V9.70945V9.701V9.69256V9.68412V9.67568V9.66724V9.6588V9.65036V9.64192V9.63348V9.62504V9.6166V9.60816V9.59972V9.59128V9.58284V9.57439V9.56595V9.55751V9.54907V9.54063V9.53219V9.52375V9.51531V9.50687V9.49843V9.48999V9.48155V9.47311V9.46467V9.45622V9.44778V9.43934V9.4309V9.42246V9.41402V9.40558V9.39714V9.3887V9.38026V9.37182V9.36338V9.35494V9.3465V9.33805V9.32961V9.32117V9.31273V9.30429V9.29585V9.28741V9.27897V9.27053V9.26209V9.25365V9.24521V9.23677V9.22833V9.21988V9.21144V9.203V9.19456V9.18612V9.17768V9.16924V9.1608V9.15236V9.14392V9.13548V9.12704V9.1186V9.11016V9.10172V9.09327V9.08483V9.07639V9.06795V9.05951V9.05107V9.04263V9.03419V9.02575V9.01731V9.00887V9.00043V8.99199V8.98355V8.9751V8.96666V8.95822V8.94978V8.94134V8.9329V8.92446V8.91602V8.90758V8.89914V8.8907V8.88226V8.87382V8.86538V8.85693V8.84849V8.84005V8.83161V8.82317V8.81473V8.80629V8.79785V8.78941V8.78097V8.77253V8.76409V8.75565V8.74721V8.73876V8.73032V8.72188V8.71344V8.705V8.69656V8.68812V8.67968V8.67124V8.6628V8.65436V8.64592V8.63748V8.62904V8.62059V8.61215V8.60371V8.59527V8.58683V8.57839V8.56995V8.56151V8.55307V8.54463V8.53619V8.52775V8.51931V8.51087V8.50243V8.49398V8.48554V8.4771V8.46866V8.46022V8.45178V8.44334V8.4349V8.42646V8.41802V8.40958V8.40114V8.3927V8.38426V8.37581V8.36737V8.35893V8.35049V8.34205V8.33361V8.32517V8.31673V8.30829V8.29985V8.29141V8.28297V8.27453V8.26609V8.25764V8.2492V8.24076V8.23232V8.22388V8.21544V8.207V8.19856V8.19012V8.18168V8.17324V8.1648V8.15636V8.14792V8.13947V8.13103V8.12259V8.11415V8.10571V8.09727V8.08883V8.08039V8.07195V8.06351V8.05507V8.04663V8.03819V8.02975V8.02131V8.01287V8.00442V7.99598V7.98754V7.9791V7.97066V7.96222V7.95378V7.94534V7.9369V7.92846V7.92002V7.91158V7.90314V7.8947V7.88625V7.87781V7.86937V7.86093V7.85249V7.84405V7.83561V7.82717V7.81873V7.81029V7.80185V7.79341V7.78497V7.77652V7.76808V7.75964V7.7512V7.74276V7.73432V7.72588V7.71744V7.709V7.70056V7.69212V7.68368V7.67524V7.6668V7.65835V7.64991V7.64147V7.63303V7.62459V7.61615V7.60771V7.59927V7.59083V7.58239V7.57395V7.56551V7.55707V7.54863V7.54018V7.53174V7.5233V7.51486V7.50642V7.49798V7.48954V7.4811V7.47266V7.46422V7.45578V7.44734V7.4389V7.43046V7.42202V7.41358V7.40513V7.39669V7.38825V7.37981V7.37137V7.36293V7.35449V7.34605V7.33761V7.32917V7.32073C17.243 6.89344 17.2447 6.46517 17.2465 6.0363C17.2512 4.87493 17.256 3.70909 17.2261 2.54609L17.2263 2.54609L17.2256 2.53515C17.1946 2.09025 17.0344 1.66408 16.7647 1.3089L16.7639 1.30791C16.3206 0.730177 15.5237 0.617571 14.903 0.895634C14.5689 1.04357 14.3045 1.25626 14.1251 1.53524C13.9457 1.81413 13.8616 2.1431 13.8616 2.5069V2.52456V2.54222V2.55988V2.57754V2.5952V2.61286V2.63052V2.64818V2.66584V2.6835V2.70116V2.71882V2.73648V2.75414V2.7718V2.78946V2.80712V2.82478V2.84244V2.8601V2.87776V2.89542V2.91308V2.93074V2.94839V2.96605V2.98372V3.00137V3.01903V3.03669V3.05435V3.07201V3.08967V3.10733V3.12499V3.14265V3.16031V3.17797V3.19563V3.21329V3.23095V3.24861V3.26627V3.28393V3.30159V3.31925V3.33691V3.35457V3.37223V3.38989V3.40755V3.42521V3.44287V3.46053V3.47819V3.49585V3.51351V3.53117V3.54883V3.56649V3.58415V3.60181V3.61947V3.63713V3.65479V3.67245V3.69011V3.70777V3.72543V3.74309V3.76075V3.77841V3.79607V3.81373V3.83139V3.84905V3.86671V3.88437V3.90203V3.91969V3.93735V3.95501V3.97266V3.99032V4.00799V4.02564V4.0433V4.06096V4.07862V4.09628V4.11394V4.1316V4.14926V4.16692V4.18458V4.20224V4.2199V4.23756V4.25522V4.27288V4.29054V4.3082V4.32586V4.34352V4.36118V4.37884V4.3965V4.41416V4.43182V4.44948V4.46714V4.4848V4.50246V4.52012V4.53778V4.55544V4.5731V4.59076V4.60842V4.62608V4.64374V4.6614V4.67906V4.69672V4.71438V4.73204V4.7497V4.76736V4.78502V4.80268V4.82034V4.838V4.85566V4.87332V4.89098V4.90864V4.9263V4.94396V4.96162V4.97928V4.99693V5.0146V5.03226V5.04991V5.06757V5.08523V5.10289V5.12055V5.13821V5.15587V5.17353V5.19119V5.20885V5.22651V5.24417V5.26183V5.27949V5.29715V5.31481V5.33247V5.35013V5.36779V5.38545V5.40311V5.42077V5.43843V5.45609V5.47375V5.49141V5.50907V5.52673V5.54439V5.56205V5.57971V5.59737V5.61503V5.63269V5.65035V5.66801V5.68567V5.70333V5.72099V5.73865V5.75631V5.77397V5.79163V5.80929V5.82695V5.84461V5.86227V5.87993V5.89759V5.91525V5.93291V5.95057V5.96823V5.98589V6.00355V6.0212V6.03887V6.05653V6.07418V6.09184V6.1095V6.12716V6.14482V6.16248V6.18014V6.1978V6.21546V6.23312V6.25078V6.26844V6.2861V6.30376V6.32142V6.33908V6.35674V6.3744V6.39206V6.40972V6.42738V6.44504V6.4627V6.48036V6.49802V6.51568V6.53334V6.551V6.56866V6.58632V6.60398V6.62164V6.6393V6.65696V6.67462V6.69228V6.70994V6.7276V6.74526V6.76292V6.78058V6.79824V6.8159V6.83356V6.85122V6.86888V6.88654V6.9042V6.92186V6.93952V6.95718V6.97484V6.9925V7.01016V7.02781V7.04548V7.06314V7.0808V7.09845V7.11611V7.13377V7.15143V7.16909V7.18675V7.20441V7.22207V7.23973V7.25739V7.27505V7.29271V7.31037V7.32803V7.34569V7.36335V7.38101V7.39867V7.41633V7.43399V7.45165V7.46931V7.48697V7.50463V7.52229V7.53995V7.55761V7.57527V7.59293V7.61059V7.62825V7.64591V7.66357V7.68123V7.69889V7.71655V7.73421V7.75187V7.76953V7.78719V7.80485V7.82251V7.84017V7.85783V7.87549V7.89315V7.91081V7.92847L13.8616 7.94613V7.96379V7.98145V7.99911V8.01677V8.03443V8.05208V8.06975V8.08741V8.10506V8.12272V8.14038V8.15804V8.1757V8.19336V8.21102V8.22868V8.24634V8.264V8.28166V8.29932V8.31698V8.33464V8.3523V8.36996V8.38762V8.40528V8.42294V8.4406V8.45826V8.47592V8.49358V8.51124V8.5289V8.54656V8.56422V8.58188V8.59954V8.6172V8.63486V8.65252V8.67018V8.68784V8.7055V8.72316V8.74082V8.75848V8.77614V8.7938V8.81146V8.82912V8.84678V8.86444V8.8821V8.89976V8.91742V8.93508V8.95274V8.9704V8.98806V9.00572V9.02338V9.04104V9.0587V9.07636V9.09402V9.11168V9.12933V9.14699V9.16465V9.18231V9.19997V9.21763V9.23529V9.25295V9.27061V9.28827V9.30593V9.32359V9.34125V9.35891V9.37657V9.39423V9.41189V9.42955V9.44721V9.46487V9.48253V9.50019V9.51785V9.53551V9.55317V9.57083V9.58849V9.60615V9.62381V9.64147V9.65913V9.67679V9.69445V9.71211V9.72977V9.74743V9.76509V9.78275V9.80041V9.81807V9.83573V9.85339V9.87105V9.88871V9.90637V9.92403V9.94169V9.95935V9.97701V9.99467V10.0123V10.03V10.0476V10.0653V10.083V10.1006V10.1183V10.1359V10.1536V10.1713V10.1889V10.2066V10.2242V10.2419V10.2596V10.2772V10.2949V10.3125V10.3302V10.3479V10.3655V10.3832V10.4008V10.4185V10.4362V10.4538V10.4715V10.4891V10.5068V10.5245V10.5421V10.5598V10.5774V10.5951V10.6128V10.6304V10.6481V10.6657V10.6834V10.7011V10.7187V10.7364V10.754V10.7717V10.7894V10.807V10.8247V10.8423V10.86V10.8777V10.8953V10.913V10.9306V10.9483V10.966V10.9836V11.0013V11.0189V11.0366V11.0543V11.0719V11.0896V11.1072V11.1249V11.1426V11.1602V11.1779V11.1955V11.2132V11.2309V11.2485V11.2662V11.2838V11.3015V11.3192V11.3368V11.3545V11.3721V11.3898V11.4075V11.4251V11.4428V11.4604V11.4781V11.4958V11.5134V11.5311V11.5487C13.8616 12.3217 13.6438 12.8934 13.2669 13.2719C12.8902 13.6503 12.3214 13.8689 11.552 13.8689L2.64365 13.8689C2.10069 13.8689 1.62563 14.0377 1.28392 14.3428C0.940186 14.6497 0.745863 15.0825 0.750065 15.5748C0.754248 16.0648 0.948559 16.49 1.28876 16.7903C1.62675 17.0885 2.09286 17.25 2.62324 17.25H2.64081H2.65839H2.67596H2.69353H2.71111H2.72868H2.74625H2.76382H2.78139H2.79897H2.81654H2.83411H2.85169H2.86926H2.88683H2.9044H2.92198H2.93955H2.95712H2.97469H2.99227H3.00984H3.02741H3.04498H3.06256H3.08013H3.0977H3.11527H3.13285H3.15042H3.16799H3.18556H3.20314H3.22071H3.23828H3.25585H3.27343H3.291H3.30857H3.32614H3.34372H3.36129H3.37886H3.39643H3.41401H3.43158H3.44915H3.46672H3.4843H3.50187H3.51944H3.53701H3.55459H3.57216H3.58973H3.60731H3.62488H3.64245H3.66002H3.6776H3.69517H3.71274H3.73031H3.74789H3.76546H3.78303H3.8006H3.81818H3.83575H3.85332H3.87089H3.88847H3.90604H3.92361H3.94118H3.95876H3.97633H3.9939H4.01147H4.02905H4.04662H4.06419H4.08176H4.09934H4.11691H4.13448H4.15205H4.16963H4.1872H4.20477H4.22234H4.23992H4.25749H4.27506H4.29263H4.31021H4.32778H4.34535H4.36292H4.3805H4.39807H4.41564H4.43322H4.45079H4.46836H4.48593H4.50351H4.52108H4.53865H4.55622H4.5738H4.59137H4.60894H4.62651H4.64409H4.66166H4.67923H4.6968H4.71438H4.73195H4.74952H4.76709H4.78467H4.80224H4.81981H4.83738H4.85496H4.87253H4.8901H4.90767H4.92525H4.94282H4.96039H4.97796H4.99554H5.01311H5.03068H5.04825H5.06583H5.0834H5.10097H5.11854H5.13612H5.15369H5.17126H5.18884H5.20641H5.22398H5.24155H5.25912H5.2767H5.29427H5.31184H5.32942H5.34699H5.36456H5.38213H5.3997H5.41728H5.43485H5.45242H5.47H5.48757H5.50514H5.52271H5.54029H5.55786H5.57543H5.593H5.61058H5.62815H5.64572H5.66329H5.68087H5.69844H5.71601H5.73358H5.75116H5.76873H5.7863H5.80387H5.82145H5.83902H5.85659H5.87416H5.89174H5.90931H5.92688H5.94445H5.96203H5.9796H5.99717H6.01474H6.03232H6.04989H6.06746H6.08504H6.10261H6.12018H6.13775H6.15532H6.1729H6.19047H6.20804H6.22562H6.24319H6.26076H6.27833H6.29591H6.31348H6.33105H6.34862H6.3662H6.38377H6.40134H6.41891H6.43649H6.45406H6.47163H6.4892H6.50678H6.52435H6.54192H6.55949H6.57707H6.59464H6.61221H6.62978H6.64736H6.66493H6.6825H6.70007H6.71765H6.73522H6.75279H6.77036H6.78794H6.80551H6.82308H6.84065H6.85823H6.8758H6.89337H6.91094H6.92852H6.94609H6.96366H6.98124H6.99881H7.01638H7.03395H7.05153H7.0691H7.08667H7.10424H7.12182H7.13939H7.15696H7.17453H7.19211H7.20968H7.22725H7.24482H7.2624H7.27997H7.29754H7.31511H7.33269H7.35026H7.36783H7.3854H7.40298H7.42055H7.43812H7.45569H7.47327H7.49084H7.50841H7.52598H7.54356H7.56113H7.5787H7.59627H7.61385H7.63142H7.64899H7.66656H7.68414H7.70171H7.71928H7.73685H7.75443H7.772H7.78957H7.80715H7.82472H7.84229H7.85986H7.87743H7.89501H7.91258H7.93015H7.94773H7.9653H7.98287H8.00044H8.01802H8.03559H8.05316H8.07073H8.08831H8.10588H8.12345H8.14102H8.1586H8.17617H8.19374H8.21131H8.22889H8.24646H8.26403H8.2816H8.29918H8.31675H8.33432H8.35189H8.36947H8.38704H8.40461H8.42218H8.43976H8.45733H8.4749H8.49247H8.51005H8.52762H8.54519H8.56277H8.58034H8.59791H8.61548H8.63305H8.65063H8.6682H8.68577H8.70335H8.72092H8.73849H8.75606H8.77363H8.79121H8.80878H8.82635H8.84393H8.8615H8.87907H8.89664H8.91422H8.93179H8.94936H8.96693H8.98451H9.00208H9.01965H9.03722H9.0548H9.07237H9.08994H9.10751H9.12509H9.14266H9.16023H9.1778H9.19538H9.21295H9.23052H9.24809H9.26567H9.28324H9.30081H9.31838H9.33596H9.35353H9.3711H9.38867H9.40625H9.42382H9.44139H9.45896H9.47654H9.49411H9.51168H9.52925H9.54683H9.5644H9.58197H9.59955H9.61712H9.63469H9.65226H9.66984H9.68741H9.70498H9.72255H9.74013H9.7577H9.77527H9.79284H9.81042H9.82799H9.84556H9.86313H9.88071H9.89828H9.91585H9.93342H9.951H9.96857H9.98614H10.0037H10.0213H10.0389H10.0564H10.074H10.0916H10.1091H10.1267H10.1443H10.1619H10.1794H10.197H10.2146H10.2322H10.2497H10.2673H10.2849H10.3024H10.32H10.3376H10.3552H10.3727H10.3903H10.4079H10.4255H10.443H10.4606H10.4782H10.4957H10.5133H10.5309H10.5485H10.566H10.5836H10.6012H10.6188H10.6363H10.6539H10.6715H10.689H10.7066H10.7242H10.7418H10.7593H10.7769H10.7945H10.8121H10.8296H10.8472H10.8648H10.8823H10.8999H10.9175H10.9351H10.9526H10.9702H10.9878H11.0053H11.0229H11.0405H11.0581H11.0756H11.0932H11.1108H11.1284H11.1459H11.1635H11.1811H11.1986H11.2162H11.2338H11.2514H11.2689H11.2865H11.3041H11.3217H11.3392H11.3568H11.3744H11.3919H11.4095H11.4271H11.4447H11.4622H11.4798H11.4974H11.515H11.5325H11.5501H11.5677H11.5852H11.6028L11.6204 17.25L11.6211 17.25C14.8701 17.2412 17.2317 14.883 17.243 11.6432Z" fill="white" stroke="white" stroke-width="0.5"/>
<path d="M24.7548 11.6338C24.7548 14.8805 27.1265 17.2387 30.3712 17.25H30.3721H30.3805H30.389H30.3974H30.4059H30.4143H30.4228H30.4312H30.4397H30.4481H30.4565H30.465H30.4734H30.4819H30.4903H30.4988H30.5072H30.5157H30.5241H30.5325H30.541H30.5494H30.5579H30.5663H30.5748H30.5832H30.5917H30.6001H30.6086H30.617H30.6254H30.6339H30.6423H30.6508H30.6592H30.6677H30.6761H30.6846H30.693H30.7014H30.7099H30.7183H30.7268H30.7352H30.7437H30.7521H30.7606H30.769H30.7774H30.7859H30.7943H30.8028H30.8112H30.8197H30.8281H30.8366H30.845H30.8534H30.8619H30.8703H30.8788H30.8872H30.8957H30.9041H30.9126H30.921H30.9294H30.9379H30.9463H30.9548H30.9632H30.9717H30.9801H30.9886H30.997H31.0054H31.0139H31.0223H31.0308H31.0392H31.0477H31.0561H31.0646H31.073H31.0814H31.0899H31.0983H31.1068H31.1152H31.1237H31.1321H31.1406H31.149H31.1574H31.1659H31.1743H31.1828H31.1912H31.1997H31.2081H31.2166H31.225H31.2334H31.2419H31.2503H31.2588H31.2672H31.2757H31.2841H31.2926H31.301H31.3095H31.3179H31.3263H31.3348H31.3432H31.3517H31.3601H31.3686H31.377H31.3855H31.3939H31.4023H31.4108H31.4192H31.4277H31.4361H31.4446H31.453H31.4615H31.4699H31.4783H31.4868H31.4952H31.5037H31.5121H31.5206H31.529H31.5375H31.5459H31.5543H31.5628H31.5712H31.5797H31.5881H31.5966H31.605H31.6135H31.6219H31.6303H31.6388H31.6472H31.6557H31.6641H31.6726H31.681H31.6895H31.6979H31.7063H31.7148H31.7232H31.7317H31.7401H31.7486H31.757H31.7655H31.7739H31.7823H31.7908H31.7992H31.8077H31.8161H31.8246H31.833H31.8415H31.8499H31.8583H31.8668H31.8752H31.8837H31.8921H31.9006H31.909H31.9175H31.9259H31.9344H31.9428H31.9512H31.9597H31.9681H31.9766H31.985H31.9935H32.0019H32.0104H32.0188H32.0272H32.0357H32.0441H32.0526H32.061H32.0695H32.0779H32.0864H32.0948H32.1032H32.1117H32.1201H32.1286H32.137H32.1455H32.1539H32.1624H32.1708H32.1792H32.1877H32.1961H32.2046H32.213H32.2215H32.2299H32.2384H32.2468H32.2552H32.2637H32.2721H32.2806H32.289H32.2975H32.3059H32.3144H32.3228H32.3312H32.3397H32.3481H32.3566H32.365H32.3735H32.3819H32.3904H32.3988H32.4072H32.4157H32.4241H32.4326H32.441H32.4495H32.4579H32.4664H32.4748H32.4832H32.4917H32.5001H32.5086H32.517H32.5255H32.5339H32.5424H32.5508H32.5592H32.5677H32.5761H32.5846H32.593H32.6015H32.6099H32.6184H32.6268H32.6352H32.6437H32.6521H32.6606H32.669H32.6775H32.6859H32.6944H32.7028H32.7113H32.7197H32.7281H32.7366H32.745H32.7535H32.7619H32.7704H32.7788H32.7873H32.7957H32.8041H32.8126H32.821H32.8295H32.8379H32.8464H32.8548H32.8633H32.8717H32.8801H32.8886H32.897H32.9055H32.9139H32.9224H32.9308H32.9393H32.9477H32.9561H32.9646H32.973H32.9815H32.9899H32.9984H33.0068H33.0153H33.0237H33.0321H33.0406H33.049H33.0575H33.0659H33.0744H33.0828H33.0913H33.0997H33.1081H33.1166H33.125H33.1335H33.1419H33.1504H33.1588H33.1673H33.1757H33.1841H33.1926H33.201H33.2095H33.2179H33.2264H33.2348H33.2433H33.2517H33.2601H33.2686H33.277H33.2855H33.2939H33.3024H33.3108H33.3193H33.3277H33.3361H33.3446H33.353H33.3615H33.3699H33.3784H33.3868H33.3953H33.4037H33.4122H33.4206H33.429H33.4375H33.4459H33.4544H33.4628H33.4713H33.4797H33.4882H33.4966H33.505H33.5135H33.5219H33.5304H33.5388H33.5473H33.5557H33.5642H33.5726H33.581H33.5895H33.5979H33.6064H33.6148H33.6233H33.6317H33.6402H33.6486H33.657H33.6655H33.6739H33.6824H33.6908H33.6993H33.7077H33.7162H33.7246H33.733H33.7415H33.7499H33.7584H33.7668H33.7753H33.7837H33.7922H33.8006H33.809H33.8175H33.8259H33.8344H33.8428H33.8513H33.8597H33.8682H33.8766H33.885H33.8935H33.9019H33.9104H33.9188H33.9273H33.9357H33.9442H33.9526H33.961H33.9695H33.9779H33.9864H33.9948H34.0033H34.0117H34.0202H34.0286H34.037H34.0455H34.0539H34.0624H34.0708H34.0793H34.0877H34.0962H34.1046H34.113H34.1215H34.1299H34.1384H34.1468H34.1553H34.1637H34.1722H34.1806H34.1891H34.1975H34.2059H34.2144H34.2228H34.2313H34.2397H34.2482H34.2566H34.2651H34.2735H34.2819H34.2904H34.2988H34.3073H34.3157H34.3242H34.3326H34.3411H34.3495H34.3579H34.3664H34.3748H34.3833H34.3917H34.4002H34.4086H34.4171H34.4255H34.4339H34.4424H34.4508H34.4593H34.4677H34.4762H34.4846H34.4931H34.5015H34.5099H34.5184H34.5268H34.5353H34.5437H34.5522H34.5606H34.5691H34.5775H34.5859H34.5944H34.6028H34.6113H34.6197H34.6282H34.6366H34.6451H34.6535H34.6619H34.6704H34.6788H34.6873H34.6957H34.696C36.3016 17.25 37.9065 17.25 39.5103 17.244L39.5106 17.244C40.336 17.2399 41.0005 16.7445 41.1929 15.9863L41.1929 15.9861C41.3343 15.4268 41.2065 14.8917 40.8803 14.4969C40.5549 14.1031 40.0457 13.8645 39.4517 13.8645H39.434H39.4164H39.3987H39.381H39.3634H39.3457H39.328H39.3103H39.2927H39.275H39.2573H39.2397H39.222H39.2043H39.1867H39.169H39.1513H39.1336H39.116H39.0983H39.0806H39.063H39.0453H39.0276H39.01H38.9923H38.9746H38.957H38.9393H38.9216H38.9039H38.8863H38.8686H38.8509H38.8333H38.8156H38.7979H38.7803H38.7626H38.7449H38.7273H38.7096H38.6919H38.6742H38.6566H38.6389H38.6212H38.6036H38.5859H38.5682H38.5506H38.5329H38.5152H38.4976H38.4799H38.4622H38.4445H38.4269H38.4092H38.3915H38.3739H38.3562H38.3385H38.3209H38.3032H38.2855H38.2679H38.2502H38.2325H38.2149H38.1972H38.1795H38.1618H38.1442H38.1265H38.1088H38.0912H38.0735H38.0558H38.0382H38.0205H38.0028H37.9852H37.9675H37.9498H37.9322H37.9145H37.8968H37.8792H37.8615H37.8438H37.8261H37.8085H37.7908H37.7731H37.7555H37.7378H37.7201H37.7025H37.6848H37.6671H37.6495H37.6318H37.6141H37.5965H37.5788H37.5611H37.5435H37.5258H37.5081H37.4905H37.4728H37.4551H37.4375H37.4198H37.4021H37.3844H37.3668H37.3491H37.3314H37.3138H37.2961H37.2784H37.2608H37.2431H37.2254H37.2078H37.1901H37.1724H37.1548H37.1371H37.1194H37.1018H37.0841H37.0664H37.0488H37.0311H37.0134H36.9958H36.9781H36.9604H36.9428H36.9251H36.9074H36.8898H36.8721H36.8544H36.8368H36.8191H36.8014H36.7838H36.7661H36.7484H36.7307H36.7131H36.6954H36.6777H36.6601H36.6424H36.6247H36.6071H36.5894H36.5717H36.5541H36.5364H36.5187H36.5011H36.4834H36.4657H36.4481H36.4304H36.4127H36.3951H36.3774H36.3597H36.3421H36.3244H36.3067H36.2891H36.2714H36.2537H36.2361H36.2184H36.2007H36.1831H36.1654H36.1477H36.1301H36.1124H36.0947H36.0771H36.0594H36.0417H36.0241H36.0064H35.9887H35.9711H35.9534H35.9357H35.9181H35.9004H35.8827H35.8651H35.8474H35.8297H35.8121H35.7944H35.7767H35.7591H35.7414H35.7237H35.7061H35.6884H35.6707H35.6531H35.6354H35.6177H35.6001H35.5824H35.5647H35.5471H35.5294H35.5117H35.4941H35.4764H35.4587H35.4411H35.4234H35.4057H35.3881H35.3704H35.3527H35.3351H35.3174H35.2997H35.2821H35.2644H35.2467H35.2291H35.2114H35.1937H35.1761H35.1584H35.1407H35.1231H35.1054H35.0877H35.0701H35.0524H35.0347H35.0171H34.9994H34.9817H34.9641H34.9464H34.9287H34.9111H34.8934H34.8757H34.8581H34.8404H34.8227H34.8051H34.7874H34.7697H34.7521H34.7344H34.7167H34.6991H34.6814H34.6637H34.6461H34.6284H34.6107H34.5931H34.5754H34.5577H34.5401H34.5224H34.5047H34.4871H34.4694H34.4517H34.4341H34.4164H34.3987H34.3811H34.3634H34.3457H34.3281H34.3104H34.2927H34.275H34.2574H34.2397H34.222H34.2044H34.1867H34.169H34.1514H34.1337H34.116H34.0984H34.0807H34.063H34.0454H34.0277H34.01H33.9924H33.9747H33.957H33.9394H33.9217H33.904H33.8864H33.8687H33.851H33.8334H33.8157H33.798H33.7804H33.7627H33.745H33.7274H33.7097H33.692H33.6744H33.6567H33.639H33.6214H33.6037H33.586H33.5684H33.5507H33.533H33.5154H33.4977H33.48H33.4624H33.4447H33.427H33.4094H33.3917H33.374H33.3564H33.3387H33.321H33.3034H33.2857H33.268H33.2504H33.2327H33.215H33.1974H33.1797H33.162H33.1444H33.1267H33.109H33.0914H33.0737H33.056H33.0384H33.0207H33.003H32.9854H32.9677H32.95H32.9324H32.9147H32.897H32.8793H32.8617H32.844H32.8263H32.8087H32.791H32.7733H32.7557H32.738H32.7203H32.7027H32.685H32.6673H32.6497H32.632H32.6143H32.5967H32.579H32.5613H32.5437H32.526H32.5083H32.4907H32.473H32.4553H32.4377H32.42H32.4023H32.3847H32.367H32.3493H32.3317H32.314H32.2963H32.2786H32.261H32.2433H32.2256H32.208H32.1903H32.1726H32.155H32.1373H32.1196H32.102H32.0843H32.0666H32.049H32.0313H32.0136H31.996H31.9783H31.9606H31.943L31.9253 13.8645H31.9076H31.8899H31.8723H31.8546H31.8369H31.8193H31.8016H31.7839H31.7663H31.7486H31.7309H31.7133H31.6956H31.6779H31.6603H31.6426H31.6249H31.6073H31.5896H31.5719H31.5542H31.5366H31.5189H31.5012H31.4836H31.4659H31.4482H31.4306H31.4129H31.3952H31.3776H31.3599H31.3422H31.3246H31.3069H31.2892H31.2715H31.2539H31.2362H31.2185H31.2009H31.1832H31.1655H31.1479H31.1302H31.1125H31.0949H31.0772H31.0595H31.0418H31.0242H31.0065H30.9888H30.9712H30.9535H30.9358H30.9182H30.9005H30.8828H30.8651H30.8475H30.8298H30.8121H30.7945H30.7768H30.7591H30.7415H30.7238H30.7061H30.6885H30.6708H30.6531H30.6354H30.6178H30.6001H30.5824H30.5648H30.5471H30.5294H30.5118H30.4941H30.4764H30.4587H30.4411H30.4234H30.4057C29.6682 13.8645 29.107 13.6436 28.7306 13.267C28.3541 12.8903 28.1336 12.329 28.1336 11.5918V11.5743V11.5569V11.5395V11.5221V11.5047V11.4873V11.4699V11.4524V11.435V11.4176V11.4002V11.3828V11.3654V11.348V11.3305V11.3131V11.2957V11.2783V11.2609V11.2435V11.2261V11.2086V11.1912V11.1738V11.1564V11.139V11.1216V11.1042V11.0868V11.0693V11.0519V11.0345V11.0171V10.9997V10.9823V10.9649V10.9474V10.93V10.9126V10.8952V10.8778V10.8604V10.843V10.8255V10.8081V10.7907V10.7733V10.7559V10.7385V10.7211V10.7037V10.6862V10.6688V10.6514V10.634V10.6166V10.5992V10.5818V10.5644V10.5469V10.5295V10.5121V10.4947V10.4773V10.4599V10.4425V10.425V10.4076V10.3902V10.3728V10.3554V10.338V10.3206V10.3032V10.2857V10.2683V10.2509V10.2335V10.2161V10.1987V10.1813V10.1639V10.1464V10.129V10.1116V10.0942V10.0768V10.0594V10.042V10.0246V10.0071V9.98973V9.97232V9.9549V9.93749V9.92008V9.90267V9.88525V9.86784V9.85043V9.83302V9.81561V9.79819V9.78078V9.76337V9.74596V9.72854V9.71113V9.69372V9.67631V9.6589V9.64148V9.62407V9.60666V9.58925V9.57184V9.55442V9.53701V9.5196V9.50219V9.48478V9.46736V9.44995V9.43254V9.41513V9.39772V9.3803V9.36289V9.34548V9.32807V9.31066V9.29325V9.27583V9.25842V9.24101V9.2236V9.20619V9.18878V9.17136V9.15395V9.13654V9.11913V9.10172V9.08431V9.0669V9.04948V9.03207V9.01466V8.99725V8.97984V8.96243V8.94501V8.9276V8.91019V8.89278V8.87537V8.85796V8.84055V8.82314V8.80573V8.78831V8.7709V8.75349V8.73608V8.71867V8.70126V8.68385V8.66644V8.64902V8.63161V8.59679V8.57938V8.56197V8.54456V8.52715V8.50974V8.49233V8.47492V8.4575V8.44009V8.42268V8.40527V8.38786V8.37045V8.35304V8.33563V8.31822V8.30081V8.2834V8.26599V8.24858V8.23116V8.21375V8.19634V8.17893V8.16152V8.14411V8.1267V8.10929V8.09188V8.07447V8.05706V8.03965V8.02224V8.00483V7.98742V7.97001V7.9526V7.93519V7.91778V7.90037V7.88296V7.86555V7.84814V7.83073V7.81332V7.79591V7.7785V7.76109V7.74368V7.72626V7.70885V7.69145V7.67404V7.65662V7.63921V7.62181V7.60439V7.58699V7.56958V7.55217V7.53476V7.51735V7.49994V7.48253V7.46512V7.44771V7.4303V7.41289V7.39548V7.37807V7.36066V7.34325V7.32584V7.30843V7.29102V7.27361V7.2562V7.23879V7.22138V7.20397V7.18656V7.16915V7.15174V7.13433V7.11692V7.09951V7.0821V7.0647V7.04729V7.02988V7.01247V6.99506V6.97765V6.96024V6.94283V6.92542V6.90801V6.8906V6.87319V6.85578V6.83838V6.82097V6.80356V6.78615V6.76874V6.75133V6.73392V6.71651V6.6991V6.68169V6.66428V6.64688V6.62947V6.61206V6.59465V6.57724V6.55983V6.54242V6.52501V6.5076V6.4902V6.47279V6.45538V6.43797V6.42056V6.40315V6.38574V6.36834V6.35093V6.33352V6.31611V6.2987V6.28129V6.26388V6.24648V6.22907V6.21166V6.19425V6.17684V6.15943V6.14202V6.12462V6.10721V6.0898V6.07239V6.05498V6.03757V6.02017V6.00276V5.98535V5.96794V5.95053V5.93312V5.91572V5.89831V5.8809V5.86349V5.84608V5.82868V5.81127V5.79386V5.77645V5.75904V5.74164V5.72423V5.70682V5.68941V5.672V5.6546V5.63719V5.61978V5.60237V5.58496V5.56756V5.55015V5.53274V5.51533V5.49793V5.48052V5.46311V5.4457V5.4283V5.41089V5.39348V5.37607V5.35866V5.34126V5.32385V5.30644V5.28903V5.27163V5.25422V5.23681V5.21941V5.202V5.18459V5.16718V5.14978V5.13237V5.11496V5.09755V5.08015V5.06274V5.04533V5.02792V5.01052V4.99311V4.9757V4.9583V4.94089V4.92348V4.90607V4.88867V4.87126V4.85385V4.83645V4.81904V4.80163V4.78422V4.76682V4.74941V4.732V4.7146V4.69719V4.67978V4.66238V4.64497V4.62756V4.61016V4.59275V4.57534V4.55794V4.54053V4.52312V4.50572V4.48831V4.4709V4.4535V4.43609V4.41868V4.40128V4.38387V4.36646V4.34906V4.33165V4.31424V4.29684V4.27943V4.26202V4.24462V4.22721V4.2098V4.1924V4.17499V4.15759V4.14018V4.12277V4.10537V4.08796V4.07055V4.05315V4.03574V4.01834V4.00093V3.98352V3.96612V3.94871V3.9313V3.9139V3.89649V3.87909V3.86168V3.84427V3.82687V3.80946V3.79206V3.77465V3.75725V3.73984V3.72243V3.70503V3.68762V3.67022V3.65281V3.6354V3.618V3.60059V3.58319V3.56578V3.54838V3.53097V3.51356V3.49616V3.47875V3.46135V3.44394V3.40913V3.39173V3.37432V3.35691V3.33951V3.3221V3.3047V3.28729V3.26989V3.25248V3.23508V3.21767V3.20027V3.18286V3.16546V3.14805V3.13064V3.11324V3.09583V3.07843V3.06102V3.04362V3.02621V3.00881V2.9914V2.974V2.95659V2.93919V2.92178V2.90438V2.88697V2.86957V2.85216V2.83476V2.81735V2.79995V2.78254V2.76514V2.74773V2.73033V2.71292V2.69552V2.68284C28.1408 2.48794 28.1284 2.29281 28.0966 2.10038L28.097 2.10033L28.0942 2.08774C28.007 1.68882 27.7792 1.33459 27.4525 1.08974C27.1258 0.844879 26.7219 0.725748 26.3146 0.754108L26.3145 0.754042L26.3088 0.754576C25.401 0.838909 24.755 1.55163 24.7548 2.49499L25.0046 2.49552H24.7548C24.7484 5.54441 24.7484 8.59051 24.7548 11.6338ZM24.7548 11.6338H25.0048L24.7548 11.6343C24.7548 11.6341 24.7548 11.634 24.7548 11.6338Z" fill="white" stroke="white" stroke-width="0.5"/>
<path d="M11.6365 24.7587H11.6359H11.6273H11.6188H11.6103H11.6018H11.5932H11.5847H11.5762H11.5677H11.5591H11.5506H11.5421H11.5336H11.525H11.5165H11.508H11.4995H11.4909H11.4824H11.4739H11.4653H11.4568H11.4483H11.4398H11.4312H11.4227H11.4142H11.4057H11.3971H11.3886H11.3801H11.3716H11.363H11.3545H11.346H11.3375H11.3289H11.3204H11.3119H11.3034H11.2948H11.2863H11.2778H11.2693H11.2607H11.2522H11.2437H11.2352H11.2266H11.2181H11.2096H11.201H11.1925H11.184H11.1755H11.1669H11.1584H11.1499H11.1414H11.1328H11.1243H11.1158H11.1073H11.0987H11.0902H11.0817H11.0732H11.0646H11.0561H11.0476H11.0391H11.0305H11.022H11.0135H11.005H10.9964H10.9879H10.9794H10.9709H10.9623H10.9538H10.9453H10.9367H10.9282H10.9197H10.9112H10.9026H10.8941H10.8856H10.8771H10.8685H10.86H10.8515H10.843H10.8344H10.8259H10.8174H10.8089H10.8003H10.7918H10.7833H10.7748H10.7662H10.7577H10.7492H10.7407H10.7321H10.7236H10.7151H10.7066H10.698H10.6895H10.681H10.6725H10.6639H10.6554H10.6469H10.6384H10.6298H10.6213H10.6128H10.6042H10.5957H10.5872H10.5787H10.5701H10.5616H10.5531H10.5446H10.536H10.5275H10.519H10.5105H10.5019H10.4934H10.4849H10.4764H10.4678H10.4593H10.4508H10.4423H10.4337H10.4252H10.4167H10.4082H10.3996H10.3911H10.3826H10.3741H10.3655H10.357H10.3485H10.34H10.3314H10.3229H10.3144H10.3059H10.2973H10.2888H10.2803H10.2718H10.2632H10.2547H10.2462H10.2377H10.2291H10.2206H10.2121H10.2036H10.195H10.1865H10.178H10.1695H10.1609H10.1524H10.1439H10.1354H10.1268H10.1183H10.1098H10.1013H10.0927H10.0842H10.0757H10.0672H10.0586H10.0501H10.0416H10.0331H10.0245H10.016H10.0075H9.99896H9.99043H9.98191H9.97338H9.96486H9.95633H9.94781H9.93928H9.93076H9.92223H9.91371H9.90518H9.89666H9.88813H9.87961H9.87109H9.86256H9.85404H9.84551H9.83699H9.82846H9.81994H9.81141H9.80289H9.79436H9.78584H9.77731H9.76879H9.76026H9.75174H9.74322H9.73469H9.72617H9.71764H9.70912H9.70059H9.69207H9.68354H9.67502H9.66649H9.65797H9.64945H9.64092H9.6324H9.62387H9.61535H9.60682H9.5983H9.58978H9.58125H9.57273H9.5642H9.55568H9.54715H9.53863H9.53011H9.52158H9.51306H9.50453H9.49601H9.48748H9.47896H9.47044H9.46191H9.45339H9.44486H9.43634H9.42781H9.41929H9.41077H9.40224H9.39372H9.38519H9.37667H9.36815H9.35962H9.3511H9.34257H9.33405H9.32553H9.317H9.30848H9.29995H9.29143H9.28291H9.27438H9.26586H9.25734H9.24881H9.24029H9.23176H9.22324H9.21472H9.20619H9.19767H9.18915H9.18062H9.1721H9.16357H9.15505H9.14653H9.138H9.12948H9.12096H9.11243H9.10391H9.09539H9.08686H9.07834H9.06982H9.06129H9.05277H9.04425H9.03572H9.0272H9.01867H9.01015H9.00163H8.9931H8.98458H8.97606H8.96754H8.95901H8.95049H8.94197H8.93344H8.92492H8.9164H8.90787H8.89935H8.89083H8.8823H8.87378H8.86526H8.85673H8.84821H8.83969H8.83117H8.82264H8.81412H8.8056H8.79707H8.78855H8.78003H8.7715H8.76298H8.75446H8.74594H8.73741H8.72889H8.72037H8.71184H8.70332H8.6948H8.68628H8.67775H8.66923H8.66071H8.65219H8.64366H8.63514H8.62662H8.6181H8.60957H8.60105H8.59253H8.58401H8.57548H8.56696H8.55844H8.54992H8.54139H8.53287H8.52435H8.51583H8.5073H8.49878H8.49026H8.48174H8.47322H8.46469H8.45617H8.44765H8.43913H8.4306H8.42208H8.41356H8.40504H8.39652H8.38799H8.37947H8.37095H8.36243H8.35391H8.34538H8.33686H8.32834H8.31982H8.3113H8.30278H8.29425H8.28573H8.27721H8.26869H8.26017H8.25165H8.24312H8.2346H8.22608H8.21756H8.20904H8.20051H8.19199H8.18347H8.17495H8.16643H8.15791H8.14939H8.14087H8.13234H8.12382H8.1153H8.10678H8.09826H8.08974H8.08122H8.07269H8.06417H8.05565H8.04713H8.03861H8.03009H8.02157H8.01305H8.00453H7.99601H7.98748H7.97896H7.97044H7.96192H7.9534H7.94488H7.93636H7.92784H7.91932H7.9108H7.90228H7.89375H7.88523H7.87671H7.86819H7.85967H7.85115H7.84263H7.83411H7.82559H7.81707H7.80855H7.80003H7.79151H7.78299H7.77447H7.76595H7.75743H7.74891H7.74039H7.73186H7.72334H7.71482H7.7063H7.69778H7.68926H7.68074H7.67222H7.6637H7.65518H7.64666H7.63814H7.62962H7.6211H7.61258H7.60406H7.59554H7.58702H7.5785H7.56998H7.56146H7.55294H7.54443H7.5359H7.52739H7.51887H7.51035H7.50183H7.49331H7.48479H7.47627H7.46775H7.45923H7.45071H7.44219H7.43367H7.42515H7.41663H7.40811H7.39959H7.39107H7.38256H7.37404H7.36552H7.357H7.34848H7.33996H7.33144H7.32292H7.3144H7.30588H7.29736H7.28885H7.28033H7.27181C6.83145 24.7587 6.39027 24.7565 5.94863 24.7544C4.81283 24.7488 3.67399 24.7432 2.53831 24.7744L2.53831 24.7742L2.52993 24.7748C2.0827 24.8021 1.65426 24.9643 1.30117 25.2401L1.30116 25.2401L1.29874 25.2421C0.72193 25.7042 0.641119 26.3868 0.867231 27.0353C1.10823 27.7265 1.74896 28.1343 2.50556 28.1343H2.52331H2.54107H2.55882H2.57658H2.59433H2.61209H2.62984H2.6476H2.66535H2.68311H2.70086H2.71862H2.73637H2.75413H2.77188H2.78964H2.80739H2.82515H2.8429H2.86066H2.87841H2.89617H2.91392H2.93168H2.94943H2.96719H2.98494H3.0027H3.02045H3.03821H3.05596H3.07372H3.09147H3.10923H3.12698H3.14473H3.16249H3.18024H3.198H3.21575H3.23351H3.25126H3.26902H3.28677H3.30453H3.32228H3.34003H3.35779H3.37554H3.3933H3.41105H3.42881H3.44656H3.46431H3.48207H3.49982H3.51758H3.53533H3.55309H3.57084H3.58859H3.60635H3.6241H3.64186H3.65961H3.67736H3.69512H3.71287H3.73063H3.74838H3.76613H3.78389H3.80164H3.8194H3.83715H3.8549H3.87266H3.89041H3.90817H3.92592H3.94367H3.96143H3.97918H3.99693H4.01469H4.03244H4.0502H4.06795H4.0857H4.10346H4.12121H4.13896H4.15672H4.17447H4.19222H4.20998H4.22773H4.24548H4.26324H4.28099H4.29875H4.3165H4.33425H4.35201H4.36976H4.38751H4.40526H4.42302H4.44077H4.45852H4.47628H4.49403H4.51178H4.52954H4.54729H4.56504H4.5828H4.60055H4.6183H4.63606H4.65381H4.67156H4.68932H4.70707H4.72482H4.74257H4.76033H4.77808H4.79583H4.81359H4.83134H4.84909H4.86684H4.8846H4.90235H4.9201H4.93786H4.95561H4.97336H4.99111H5.00887H5.02662H5.04437H5.06212H5.07988H5.09763H5.11538H5.13313H5.15089H5.16864H5.18639H5.20414H5.2219H5.23965H5.2574H5.27515H5.29291H5.31066H5.32841H5.34616H5.36392H5.38167H5.39942H5.41717H5.43493H5.45268H5.47043H5.48818H5.50593H5.52369H5.54144H5.55919H5.57694H5.5947H5.61245H5.6302H5.64795H5.6657H5.68345H5.70121H5.71896H5.73671H5.75446H5.77221H5.78997H5.80772H5.82547H5.84322H5.86097H5.87873H5.89648H5.91423H5.93198H5.94973H5.96748H5.98524H6.00299H6.02074H6.03849H6.05624H6.07399H6.09175H6.1095H6.12725H6.145H6.16275H6.1805H6.19825H6.21601H6.23376H6.25151H6.26926H6.28701H6.30476H6.32251H6.34027H6.35802H6.37577H6.39352H6.41127H6.42902H6.44677H6.46452H6.48228H6.50003H6.51778H6.53553H6.55328H6.57103H6.58878H6.60653H6.62428H6.64203H6.65979H6.67754H6.69529H6.71304H6.73079H6.74854H6.76629H6.78404H6.80179H6.81954H6.83729H6.85505H6.8728H6.89055H6.9083H6.92605H6.9438H6.96155H6.9793H6.99705H7.0148H7.03255H7.0503H7.06805H7.0858H7.10355H7.1213H7.13906H7.15681H7.17456H7.19231H7.21006H7.22781H7.24556H7.26331H7.28106H7.29881H7.31656H7.33431H7.35206H7.36981H7.38756H7.40531H7.42306H7.44081H7.45856H7.47631H7.49406H7.51181H7.52956H7.54731H7.56506H7.58281H7.60056H7.61831H7.63606H7.65381H7.67156H7.68931H7.70706H7.72481H7.74256H7.76031H7.77806H7.79581H7.81356H7.83131H7.84906H7.86681H7.88456H7.90231H7.92006H7.93781H7.95556H7.97331H7.99106H8.00881H8.02656H8.04431H8.06206H8.0798H8.09755H8.1153H8.13305H8.1508H8.16855H8.1863H8.20405H8.2218H8.23955H8.2573H8.27505H8.2928H8.31055H8.3283H8.34605H8.36379H8.38154H8.39929H8.41704H8.43479H8.45254H8.47029H8.48804H8.50579H8.52354H8.54129H8.55904H8.57678H8.59453H8.61228H8.63003H8.64778H8.66553H8.68328H8.70103H8.71877H8.73652H8.75427H8.77202H8.78977H8.80752H8.82527H8.84302H8.86077H8.87851H8.89626H8.91401H8.93176H8.94951H8.96726H8.98501H9.00275H9.0205H9.03825H9.056H9.07375H9.0915H9.10925H9.12699H9.14474H9.16249H9.18024H9.19799H9.21574H9.23348H9.25123H9.26898H9.28673H9.30448H9.32223H9.33997H9.35772H9.37547H9.39322H9.41097H9.42871H9.44646H9.46421H9.48196H9.49971H9.51745H9.5352H9.55295H9.5707H9.58845H9.60619H9.62394H9.64169H9.65944H9.67719H9.69493H9.71268H9.73043H9.74818H9.76592H9.78367H9.80142H9.81917H9.83692H9.85466H9.87241H9.89016H9.90791H9.92565H9.9434H9.96115H9.9789H9.99664H10.0144H10.0321H10.0499H10.0676H10.0854H10.1031H10.1209H10.1386H10.1564H10.1741H10.1919H10.2096H10.2274H10.2451H10.2629H10.2806H10.2983H10.3161H10.3338H10.3516H10.3693H10.3871H10.4048H10.4226H10.4403H10.4581H10.4758H10.4936H10.5113H10.5291H10.5468H10.5646H10.5823H10.6H10.6178H10.6355H10.6533H10.671H10.6888H10.7065H10.7243H10.742H10.7598H10.7775H10.7953H10.813H10.8308H10.8485H10.8663H10.884H10.9017H10.9195H10.9372H10.955H10.9727H10.9905H11.0082H11.026H11.0437H11.0615H11.0792H11.097H11.1147H11.1324H11.1502H11.1679H11.1857H11.2034H11.2212H11.2389H11.2567H11.2744H11.2922H11.3099H11.3277H11.3454H11.3631H11.3809H11.3986H11.4164H11.4341H11.4519H11.4696H11.4874H11.5051H11.5229H11.5406H11.5584H11.5761H11.5938C12.331 28.1343 12.8919 28.3554 13.2683 28.7321C13.6447 29.1087 13.865 29.6695 13.865 30.4047V30.4222V30.4396V30.4571V30.4746V30.4921V30.5095V30.527V30.5445V30.562V30.5795V30.5969V30.6144V30.6319V30.6494V30.6668V30.6843V30.7018V30.7193V30.7368V30.7542V30.7717V30.7892V30.8067V30.8241V30.8416V30.8591V30.8766V30.8941V30.9115V30.929V30.9465V30.964V30.9814V30.9989V31.0164V31.0339V31.0514V31.0688V31.0863V31.1038V31.1213V31.1387V31.1562V31.1737V31.1912V31.2087V31.2261V31.2436V31.2611V31.2786V31.296V31.3135V31.331V31.3485V31.366V31.3834V31.4009V31.4184V31.4359V31.4534V31.4708V31.4883V31.5058V31.5233V31.5407V31.5582V31.5757V31.5932V31.6107V31.6281V31.6456V31.6631V31.6806V31.698V31.7155V31.733V31.7505V31.768V31.7854V31.8029V31.8204V31.8379V31.8553V31.8728V31.8903V31.9078V31.9253L13.865 31.9427V31.9602V31.9777V31.9952V32.0127V32.0301V32.0476V32.0651V32.0826V32.1V32.1175V32.135V32.1525V32.17V32.1874V32.2049V32.2224V32.2399V32.2574V32.2748V32.2923V32.3098V32.3273V32.3447V32.3622V32.3797V32.3972V32.4147V32.4321V32.4496V32.4671V32.4846V32.5021V32.5195V32.537V32.5545V32.572V32.5894V32.6069V32.6244V32.6419V32.6594V32.6768V32.6943V32.7118V32.7293V32.7468V32.7642V32.7817V32.7992V32.8167V32.8342V32.8516V32.8691V32.8866V32.9041V32.9215V32.939V32.9565V32.974V32.9915V33.0089V33.0264V33.0439V33.0614V33.0789V33.0963V33.1138V33.1313V33.1488V33.1663V33.1837V33.2012V33.2187V33.2362V33.2536V33.2711V33.2886V33.3061V33.3236V33.341V33.3585V33.376V33.3935V33.411V33.4284V33.4459V33.4634V33.4809V33.4984V33.5158V33.5333V33.5508V33.5683V33.5858V33.6032V33.6207V33.6382V33.6557V33.6731V33.6906V33.7081V33.7256V33.7431V33.7605V33.778V33.7955V33.813V33.8305V33.8479V33.8654V33.8829V33.9004V33.9179V33.9353V33.9528V33.9703V33.9878V34.0053V34.0227V34.0402V34.0577V34.0752V34.0927V34.1101V34.1276V34.1451V34.1626V34.18V34.1975V34.215V34.2325V34.25V34.2674V34.2849V34.3024V34.3199V34.3374V34.3548V34.3723V34.3898V34.4073V34.4248V34.4422V34.4597V34.4772V34.4947V34.5122V34.5296V34.5471V34.5646V34.5821V34.5996V34.617V34.6345V34.652V34.6695V34.687V34.7044V34.7219V34.7394V34.7569V34.7744V34.7918V34.8093V34.8268V34.8443V34.8618V34.8792V34.8967V34.9142V34.9317V34.9492V34.9666V34.9841V35.0016V35.0191V35.0366V35.054V35.0715V35.089V35.1065V35.124V35.1414V35.1589V35.1764V35.1939V35.2114V35.2288V35.2463V35.2638V35.2813V35.2988V35.3162V35.3337V35.3512V35.3687V35.3862V35.4036V35.4211V35.4386V35.4561V35.4736V35.491V35.5085V35.526V35.5435V35.561V35.5784V35.5959V35.6134V35.6309V35.6484V35.6658V35.6833V35.7008V35.7183V35.7358V35.7532V35.7707V35.7882V35.8057V35.8232V35.8406V35.8581V35.8756V35.8931V35.9106V35.9281V35.9455V35.963V35.9805V35.998V36.0155V36.0329V36.0504V36.0679V36.0854V36.1029V36.1203V36.1378V36.1553V36.1728V36.1903V36.2077V36.2252V36.2427V36.2602V36.2777V36.2951V36.3126V36.3301V36.3476V36.3651V36.3825V36.4V36.4175V36.435V36.4525V36.47V36.4874V36.5049V36.5224V36.5399V36.5574V36.5748V36.5923V36.6098V36.6273V36.6448V36.6622V36.6797V36.6972V36.7147V36.7322V36.7496V36.7671V36.7846V36.8021V36.8196V36.837V36.8545V36.872V36.8895V36.907V36.9245V36.9419V36.9594V36.9769V36.9944V37.0119V37.0293V37.0468V37.0643V37.0818V37.0993V37.1167V37.1342V37.1517V37.1692V37.1867V37.2042V37.2216V37.2391V37.2566V37.2741V37.2916V37.309V37.3265V37.344V37.3615V37.379V37.3964V37.4139V37.4314V37.4489V37.4664V37.4838V37.5013V37.5188V37.5363V37.5538V37.5713V37.5887V37.6062V37.6237V37.6412V37.6587V37.6761V37.6936V37.7111V37.7286V37.7461V37.7636V37.781V37.7985V37.816V37.8335V37.851V37.8684V37.8859V37.9034V37.9209V37.9384V37.9558V37.9733V37.9908V38.0083V38.0258V38.0433V38.0607V38.0782V38.0957V38.1132V38.1307V38.1481V38.1656V38.1831V38.2006V38.2181V38.2356V38.253V38.2705V38.288V38.3055V38.323V38.3404V38.3579V38.3754V38.3929V38.4104V38.4279V38.4453V38.4628V38.4803V38.4978V38.5153V38.5327V38.5502V38.5677V38.5852V38.6027V38.6202V38.6376V38.6551V38.6726V38.6901V38.7076V38.725V38.7425V38.76V38.7775V38.795V38.8125V38.8299V38.8474V38.8649V38.8824V38.8999V38.9173V38.9348V38.9523V38.9698V38.9873V39.0048V39.0222V39.0397V39.0572V39.0747V39.0922V39.1096V39.1271V39.1446V39.1621V39.1796V39.1971V39.2145V39.232V39.2495V39.267V39.2845V39.302V39.3194V39.3369V39.3544C13.865 39.8956 14.0327 40.3722 14.3377 40.7154C14.6448 41.0609 15.079 41.2568 15.5761 41.2498C16.0685 41.2429 16.4928 41.0489 16.7916 40.7084C17.0881 40.3704 17.2463 39.9054 17.2464 39.3764C17.2512 36.3733 17.2512 33.3726 17.2464 30.3743L17.2464 30.3741C17.2389 27.1293 14.8777 24.7675 11.6365 24.7587Z" fill="white" stroke="white" stroke-width="0.5"/>
</svg>
