<svg width="42" height="42" viewBox="0 0 42 42" fill="none" xmlns="http://www.w3.org/2000/svg">
<path d="M24.8446 39.5801C24.8489 40.0876 25.0501 40.5256 25.4078 40.8329C25.7617 41.1368 26.2469 41.2948 26.796 41.295C29.7553 41.3013 32.7146 41.3013 35.6739 41.295C38.9228 41.2899 41.2883 38.927 41.2983 35.6828V35.6818V35.6735V35.6651V35.6567V35.6484V35.64V35.6316V35.6232V35.6149V35.6065V35.5981V35.5898V35.5814V35.573V35.5647V35.5563V35.5479V35.5396V35.5312V35.5228V35.5145V35.5061V35.4977V35.4893V35.481V35.4726V35.4642V35.4559V35.4475V35.4391V35.4308V35.4224V35.414V35.4057V35.3973V35.3889V35.3806V35.3722V35.3638V35.3554V35.3471V35.3387V35.3303V35.322V35.3136V35.3052V35.2969V35.2885V35.2801V35.2718V35.2634V35.255V35.2467V35.2383V35.2299V35.2215V35.2132V35.2048V35.1964V35.1881V35.1797V35.1713V35.163V35.1546V35.1462V35.1379V35.1295V35.1211V35.1128V35.1044V35.096V35.0877V35.0793V35.0709V35.0625V35.0542V35.0458V35.0374V35.0291V35.0207V35.0123V35.004V34.9956V34.9872V34.9789V34.9705V34.9621V34.9537V34.9454V34.937V34.9286V34.9203V34.9119V34.9035V34.8952V34.8868V34.8784V34.8701V34.8617V34.8533V34.845V34.8366V34.8282V34.8198V34.8115V34.8031V34.7947V34.7864V34.778V34.7696V34.7613V34.7529V34.7445V34.7362V34.7278V34.7194V34.7111V34.7027V34.6943V34.686V34.6776V34.6692V34.6608V34.6525V34.6441V34.6357V34.6274V34.619V34.6106V34.6023V34.5939V34.5855V34.5772V34.5688V34.5604V34.5521V34.5437V34.5353V34.5269V34.5186V34.5102V34.5018V34.4935V34.4851V34.4767V34.4684V34.46V34.4516V34.4433V34.4349V34.4265V34.4182V34.4098V34.4014V34.393V34.3847V34.3763V34.3679V34.3596V34.3512V34.3428V34.3345V34.3261V34.3177V34.3094V34.301V34.2926V34.2843V34.2759V34.2675V34.2591V34.2508V34.2424V34.234V34.2257V34.2173V34.2089V34.2006V34.1922V34.1838V34.1755V34.1671V34.1587V34.1504V34.142V34.1336V34.1252V34.1169V34.1085V34.1001V34.0918V34.0834V34.075V34.0667V34.0583V34.0499V34.0416V34.0332V34.0248V34.0165V34.0081V33.9997V33.9913V33.983V33.9746V33.9662V33.9579V33.9495V33.9411V33.9328V33.9244V33.916V33.9077V33.8993V33.8909V33.8826V33.8742V33.8658V33.8574V33.8491V33.8407V33.8323V33.824V33.8156V33.8072V33.7989V33.7905V33.7821V33.7738V33.7654V33.757V33.7487V33.7403V33.7319V33.7235V33.7152V33.7068V33.6984V33.6901V33.6817V33.6733V33.665V33.6566V33.6482V33.6399V33.6315V33.6231V33.6148V33.6064V33.598V33.5896V33.5813V33.5729V33.5645V33.5562V33.5478V33.5394V33.5311V33.5227V33.5143V33.506V33.4976V33.4892V33.4809V33.4725V33.4641V33.4557V33.4474V33.439V33.4306V33.4223V33.4139V33.4055V33.3972V33.3888V33.3804V33.3721V33.3637V33.3553V33.347V33.3386V33.3302V33.3218V33.3135V33.3051V33.2967V33.2884V33.28V33.2716V33.2633V33.2549V33.2465V33.2382V33.2298V33.2214V33.2131V33.2047V33.1963V33.1879V33.1796V33.1712V33.1628V33.1545V33.1461V33.1377V33.1294V33.121V33.1126V33.1043V33.0959V33.0875V33.0792V33.0708V33.0624V33.054V33.0457V33.0373V33.0289V33.0206V33.0122V33.0038V32.9955V32.9871V32.9787V32.9704V32.962V32.9536V32.9453V32.9369V32.9285V32.9201V32.9118V32.9034V32.895V32.8867V32.8783V32.8699V32.8616V32.8532V32.8448V32.8365V32.8281V32.8197V32.8114V32.803V32.7946V32.7862V32.7779V32.7695V32.7611V32.7528V32.7444V32.736V32.7277V32.7193V32.7109V32.7026V32.6942V32.6858V32.6775V32.6691V32.6607V32.6523V32.644V32.6356V32.6272V32.6189V32.6105V32.6021V32.5938V32.5854V32.577V32.5687V32.5603V32.5519V32.5436V32.5352V32.5268V32.5184V32.5101V32.5017V32.4933V32.485V32.4766V32.4682V32.4599V32.4515V32.4431V32.4348V32.4264V32.418V32.4097V32.4013V32.3929V32.3845V32.3762V32.3678V32.3594V32.3511V32.3427V32.3343V32.326V32.3176V32.3092V32.3009V32.2925V32.2841V32.2758V32.2674V32.259V32.2506V32.2423V32.2339V32.2255V32.2172V32.2088V32.2004V32.1921V32.1837V32.1753V32.167V32.1586V32.1502V32.1419V32.1335V32.1251V32.1167V32.1084V32.1V32.0916V32.0833V32.0749V32.0665V32.0582V32.0498V32.0414V32.0331V32.0247V32.0163V32.008V31.9996V31.9912V31.9828V31.9745V31.9661V31.9577V31.9494V31.941V31.9326V31.9243V31.9159V31.9075V31.8992V31.8908V31.8824V31.8741V31.8657V31.8573V31.8489V31.8406V31.8322V31.8238V31.8155V31.8071V31.7987V31.7904V31.782V31.7736V31.7653V31.7569V31.7485V31.7402V31.7318V31.7234V31.715V31.7067V31.6983V31.6899V31.6816V31.6732V31.6648V31.6565V31.6481V31.6397V31.6314V31.623V31.6146V31.6063V31.5979V31.5895V31.5811V31.5728V31.5644V31.556V31.5477V31.5393V31.5309V31.5226V31.5142V31.5058V31.4975V31.4891V31.4807V31.4724V31.464V31.4556V31.4472V31.4389V31.4305V31.4221V31.4138V31.4054V31.397C41.2983 30.9556 41.3004 30.5128 41.3025 30.0692C41.3078 28.9361 41.3131 27.7981 41.284 26.6653L41.2838 26.6582L41.2833 26.6512C41.2503 26.2005 41.0878 25.7689 40.8154 25.4083C40.3669 24.8112 39.544 24.7006 38.9082 24.9819C38.5656 25.1304 38.2942 25.348 38.1103 25.6354C37.9267 25.9224 37.843 26.2593 37.843 26.6266V26.6441V26.6616V26.6791V26.6967V26.7142V26.7317V26.7492V26.7667V26.7842V26.8017V26.8192V26.8367V26.8542V26.8717V26.8892V26.9067V26.9242V26.9417V26.9592V26.9767V26.9942V27.0117V27.0292V27.0468V27.0643V27.0818V27.0993V27.1168V27.1343V27.1518V27.1693V27.1868V27.2043V27.2218V27.2393V27.2568V27.2743V27.2918V27.3093V27.3268V27.3443V27.3618V27.3794V27.3969V27.4144V27.4319V27.4494V27.4669V27.4844V27.5019V27.5194V27.5369V27.5544V27.5719V27.5894V27.6069V27.6244V27.6419V27.6594V27.6769V27.6945V27.712V27.7295V27.747V27.7645V27.782V27.7995V27.817V27.8345V27.852V27.8695V27.887V27.9045V27.922V27.9395V27.957V27.9745V27.992V28.0096V28.0271V28.0446V28.0621V28.0796V28.0971V28.1146V28.1321V28.1496V28.1671V28.1846V28.2021V28.2196V28.2371V28.2546V28.2721V28.2897V28.3072V28.3247V28.3422V28.3597V28.3772V28.3947V28.4122V28.4297V28.4472V28.4647V28.4822V28.4997V28.5172V28.5347V28.5523V28.5698V28.5873V28.6048V28.6223V28.6398V28.6573V28.6748V28.6923V28.7098V28.7273V28.7448V28.7623V28.7798V28.7973V28.8149V28.8324V28.8499V28.8674V28.8849V28.9024V28.9199V28.9374V28.9549V28.9724V28.9899V29.0074V29.0249V29.0424V29.06V29.0775V29.095V29.1125V29.13V29.1475V29.165V29.1825V29.2V29.2175V29.235V29.2525V29.27V29.2875V29.3051V29.3226V29.3401V29.3576V29.3751V29.3926V29.4101V29.4276V29.4451V29.4626V29.4801V29.4976V29.5151V29.5326V29.5502V29.5677V29.5852V29.6027V29.6202V29.6377V29.6552V29.6727V29.6902V29.7077V29.7252V29.7427V29.7603V29.7778V29.7953V29.8128V29.8303V29.8478V29.8653V29.8828V29.9003V29.9178V29.9353V29.9528V29.9703V29.9879V30.0054V30.0229V30.0404V30.0579V30.0754V30.0929V30.1104V30.1279V30.1454V30.1629V30.1804V30.198V30.2155V30.233V30.2505V30.268V30.2855V30.303V30.3205V30.338V30.3555V30.373V30.3905V30.4081V30.4256V30.4431V30.4606V30.4781V30.4956V30.5131V30.5306V30.5481V30.5656V30.5831V30.6006V30.6182V30.6357V30.6532V30.6707V30.6882V30.7057V30.7232V30.7407V30.7582V30.7757V30.7932V30.8108V30.8283V30.8458V30.8633V30.8808V30.8983V30.9158V30.9333V30.9508V30.9683V30.9858V31.0034V31.0209V31.0384V31.0559V31.0734V31.0909V31.1084V31.1259V31.1434V31.1609V31.1784V31.196V31.2135V31.231V31.2485V31.266V31.2835V31.301V31.3185V31.336V31.3535V31.371V31.3886V31.4061V31.4236V31.4411V31.4586V31.4761V31.4936V31.5111V31.5286V31.5461V31.5637V31.5812V31.5987V31.6162V31.6337V31.6512V31.6687V31.6862V31.7037V31.7212V31.7388V31.7563V31.7738V31.7913V31.8088V31.8263V31.8438V31.8613V31.8788V31.8963V31.9139V31.9314V31.9489V31.9664V31.9839V32.0014V32.0189V32.0364V32.0539V32.0714V32.089V32.1065V32.124V32.1415V32.159V32.1765V32.194V32.2115V32.229V32.2465V32.2641V32.2816V32.2991V32.3166V32.3341V32.3516V32.3691V32.3866V32.4041V32.4217V32.4392V32.4567V32.4742V32.4917V32.5092V32.5267V32.5442V32.5617V32.5792V32.5968V32.6143V32.6318V32.6493V32.6668V32.6843V32.7018V32.7193V32.7368V32.7544V32.7719V32.7894V32.8069V32.8244V32.8419V32.8594V32.8769V32.8944V32.912V32.9295V32.947V32.9645V32.982V32.9995V33.017V33.0345V33.052V33.0696V33.0871V33.1046V33.1221V33.1396V33.1571V33.1746V33.1921V33.2097V33.2272V33.2447V33.2622V33.2797V33.2972V33.3147V33.3322V33.3497V33.3673V33.3848V33.4023V33.4198V33.4373V33.4548V33.4723V33.4898V33.5073V33.5249V33.5424V33.5599V33.5774V33.5949V33.6124V33.6299V33.6474V33.665V33.6825V33.7V33.7175V33.735V33.7525V33.77V33.7875V33.805V33.8226V33.8401V33.8576V33.8751V33.8926V33.9101V33.9276V33.9451V33.9627V33.9802V33.9977V34.0152V34.0327V34.0502V34.0677V34.0852V34.1028V34.1203V34.1378V34.1553V34.1728V34.1903V34.2078V34.2253V34.2429V34.2604V34.2779V34.2954V34.3129V34.3304V34.3479V34.3654V34.383V34.4005V34.418V34.4355V34.453V34.4705V34.488V34.5055V34.5231V34.5406V34.5581V34.5756V34.5931V34.6106V34.6281V34.6456V34.6632V34.6807V34.6982V34.7157V34.7332V34.7507V34.7682V34.7858V34.8033V34.8208V34.8383V34.8558V34.8733V34.8908V34.9083V34.9259V34.9434V34.9609V34.9784V34.9959V35.0134V35.0309V35.0485V35.066V35.0835V35.101V35.1185V35.136V35.1535V35.171V35.1886V35.2061V35.2236V35.2411V35.2586V35.2761V35.2936V35.3112V35.3287V35.3462V35.3637V35.3812V35.3987V35.4162V35.4337V35.4513V35.4688V35.4863V35.5038V35.5213V35.5388V35.5563V35.5739V35.5914C37.843 36.3473 37.6297 36.8995 37.2683 37.2627C36.9071 37.6256 36.3582 37.8396 35.6066 37.8396H26.8181C26.2534 37.8396 25.7577 37.9966 25.3992 38.3048C25.036 38.6171 24.8397 39.063 24.8446 39.5801ZM24.8446 39.5801C24.8446 39.5802 24.8446 39.5802 24.8446 39.5803L25.1446 39.5774L24.8446 39.5799C24.8446 39.58 24.8446 39.5801 24.8446 39.5801Z" fill="white" stroke="white" stroke-width="0.6"/>
<path d="M0.706955 6.31091V6.31195V6.32032V6.32869V6.33706V6.34543V6.3538V6.36216V6.37053V6.3789V6.38727V6.39564V6.40401V6.41238V6.42074V6.42911V6.43748V6.44585V6.45422V6.46259V6.47096V6.47933V6.48769V6.49606V6.50443V6.5128V6.52117V6.52954V6.53791V6.54628V6.55464V6.56301V6.57138V6.57975V6.58812V6.59649V6.60486V6.61323V6.62159V6.62996V6.63833V6.6467V6.65507V6.66344V6.67181V6.68018V6.68854V6.69691V6.70528V6.71365V6.72202V6.73039V6.73876V6.74713V6.75549V6.76386V6.77223V6.7806V6.78897V6.79734V6.80571V6.81407V6.82244V6.83081V6.83918V6.84755V6.85592V6.86429V6.87266V6.88102V6.88939V6.89776V6.90613V6.9145V6.92287V6.93124V6.93961V6.94797V6.95634V6.96471V6.97308V6.98145V6.98982V6.99819V7.00656V7.01492V7.02329V7.03166V7.04003V7.0484V7.05677V7.06514V7.07351V7.08187V7.09024V7.09861V7.10698V7.11535V7.12372V7.13209V7.14046V7.14882V7.15719V7.16556V7.17393V7.1823V7.19067V7.19904V7.20741V7.21577V7.22414V7.23251V7.24088V7.24925V7.25762V7.26599V7.27436V7.28272V7.29109V7.29946V7.30783V7.3162V7.32457V7.33294V7.34131V7.34967V7.35804V7.36641V7.37478V7.38315V7.39152V7.39989V7.40826V7.41662V7.42499V7.43336V7.44173V7.4501V7.45847V7.46684V7.4752V7.48357V7.49194V7.50031V7.50868V7.51705V7.52542V7.53379V7.54215V7.55052V7.55889V7.56726V7.57563V7.584V7.59237V7.60074V7.6091V7.61747V7.62584V7.63421V7.64258V7.65095V7.65932V7.66769V7.67605V7.68442V7.69279V7.70116V7.70953V7.7179V7.72627V7.73464V7.743V7.75137V7.75974V7.76811V7.77648V7.78485V7.79322V7.80159V7.80995V7.81832V7.82669V7.83506V7.84343V7.8518V7.86017V7.86854V7.8769V7.88527V7.89364V7.90201V7.91038V7.91875V7.92712V7.93549V7.94385V7.95222V7.96059V7.96896V7.97733V7.9857V7.99407V8.00244V8.0108V8.01917V8.02754V8.03591V8.04428V8.05265V8.06102V8.06939V8.07775V8.08612V8.09449V8.10286V8.11123V8.1196V8.12797V8.13633V8.1447V8.15307V8.16144V8.16981V8.17818V8.18655V8.19492V8.20328V8.21165V8.22002V8.22839V8.23676V8.24513V8.2535V8.26187V8.27023V8.2786V8.28697V8.29534V8.30371V8.31208V8.32045V8.32882V8.33718V8.34555V8.35392V8.36229V8.37066V8.37903V8.3874V8.39577V8.40413V8.4125V8.42087V8.42924V8.43761V8.44598V8.45435V8.46272V8.47108V8.47945V8.48782V8.49619V8.50456V8.51293V8.5213V8.52966V8.53803V8.5464V8.55477V8.56314V8.57151V8.57988V8.58825V8.59661V8.60498V8.61335V8.62172V8.63009V8.63846V8.64683V8.6552V8.66357V8.67193V8.6803V8.68867V8.69704V8.70541V8.71378V8.72215V8.73052V8.73888V8.74725V8.75562V8.76399V8.77236V8.78073V8.7891V8.79746V8.80583V8.8142V8.82257V8.83094V8.83931V8.84768V8.85605V8.86441V8.87278V8.88115V8.88952V8.89789V8.90626V8.91463V8.923V8.93136V8.93973V8.9481V8.95647V8.96484V8.97321V8.98158V8.98995V8.99831V9.00668V9.01505V9.02342V9.03179V9.04016V9.04853V9.0569V9.06526V9.07363V9.082V9.09037V9.09874V9.10711V9.11548V9.12385V9.13221V9.14058V9.14895V9.15732V9.16569V9.17406V9.18243V9.19079V9.19916V9.20753V9.2159V9.22427V9.23264V9.24101V9.24938V9.25774V9.26611V9.27448V9.28285V9.29122V9.29959V9.30796V9.31633V9.32469V9.33306V9.34143V9.3498V9.35817V9.36654V9.37491V9.38328V9.39164V9.40001V9.40838V9.41675V9.42512V9.43349V9.44186V9.45023V9.45859V9.46696V9.47533V9.4837V9.49207V9.50044V9.50881V9.51718V9.52554V9.53391V9.54228V9.55065V9.55902V9.56739V9.57576V9.58413V9.59249V9.60086V9.60923V9.6176V9.62597V9.63434V9.64271V9.65108V9.65944V9.66781V9.67618V9.68455V9.69292V9.70129V9.70966V9.71803V9.72639V9.73476V9.74313V9.7515V9.75987V9.76824V9.77661V9.78498V9.79334V9.80171V9.81008V9.81845V9.82682V9.83519V9.84356V9.85192V9.86029V9.86866V9.87703V9.8854V9.89377V9.90214V9.91051V9.91887V9.92724V9.93561V9.94398V9.95235V9.96072V9.96909V9.97746V9.98582V9.99419V10.0026V10.0109V10.0193V10.0277V10.036V10.0444V10.0528V10.0611V10.0695V10.0779V10.0862V10.0946V10.103V10.1114V10.1197V10.1281V10.1365V10.1448V10.1532V10.1616V10.1699V10.1783V10.1867V10.195V10.2034V10.2118V10.2201V10.2285V10.2369V10.2453V10.2536V10.262V10.2704V10.2787V10.2871V10.2955V10.3038V10.3122V10.3206V10.3289V10.3373V10.3457V10.354V10.3624V10.3708V10.3792V10.3875V10.3959V10.4043V10.4126V10.421V10.4294V10.4377V10.4461V10.4545V10.4628V10.4712V10.4796V10.4879V10.4963V10.5047V10.5131V10.5214V10.5298V10.5382V10.5465V10.5549V10.5633V10.5716V10.58V10.5884V10.5967C0.706955 11.0199 0.705223 11.4442 0.703488 11.8693C0.698786 13.021 0.694063 14.1781 0.723717 15.332L0.723429 15.332L0.724343 15.3451C0.755763 15.7964 0.918209 16.2286 1.19175 16.5888L1.19266 16.59C1.64954 17.1855 2.46711 17.2983 3.10028 17.0146C3.43917 16.8645 3.70977 16.6475 3.89398 16.3611C4.07814 16.0747 4.16348 15.7384 4.16348 15.3695V15.352V15.3345V15.317V15.2995V15.282V15.2645V15.247V15.2295V15.2119V15.1944V15.1769V15.1594V15.1419V15.1244V15.1069V15.0894V15.0719V15.0544V15.0368V15.0193V15.0018V14.9843V14.9668V14.9493V14.9318V14.9143V14.8968V14.8793V14.8618V14.8442V14.8267V14.8092V14.7917V14.7742V14.7567V14.7392V14.7217V14.7042V14.6867V14.6692V14.6516V14.6341V14.6166V14.5991V14.5816V14.5641V14.5466V14.5291V14.5116V14.4941V14.4766V14.459V14.4415V14.424V14.4065V14.389V14.3715V14.354V14.3365V14.319V14.3015V14.284V14.2664V14.2489V14.2314V14.2139V14.1964V14.1789V14.1614V14.1439V14.1264V14.1089V14.0913V14.0738V14.0563V14.0388V14.0213V14.0038V13.9863V13.9688V13.9513V13.9338V13.9163V13.8987V13.8812V13.8637V13.8462V13.8287V13.8112V13.7937V13.7762V13.7587V13.7412V13.7237V13.7061V13.6886V13.6711V13.6536V13.6361V13.6186V13.6011V13.5836V13.5661V13.5486V13.5311V13.5135V13.496V13.4785V13.461V13.4435V13.426V13.4085V13.391V13.3735V13.356V13.3385V13.3209V13.3034V13.2859V13.2684V13.2509V13.2334V13.2159V13.1984V13.1809V13.1634V13.1458V13.1283V13.1108V13.0933V13.0758V13.0583V13.0408V13.0233V13.0058V12.9883V12.9708V12.9532V12.9357V12.9182V12.9007V12.8832V12.8657V12.8482V12.8307V12.8132V12.7957V12.7782V12.7606V12.7431V12.7256V12.7081V12.6906V12.6731V12.6556V12.6381V12.6206V12.6031V12.5856V12.568V12.5505V12.533V12.5155V12.498V12.4805V12.463V12.4455V12.428V12.4105V12.393V12.3754V12.3579V12.3404V12.3229V12.3054V12.2879V12.2704V12.2529V12.2354V12.2179V12.2003V12.1828V12.1653V12.1478V12.1303V12.1128V12.0953V12.0778V12.0603V12.0428V12.0253V12.0077V11.9902V11.9727V11.9552V11.9377V11.9202V11.9027V11.8852V11.8677V11.8502V11.8327V11.8151V11.7976V11.7801V11.7626V11.7451V11.7276V11.7101V11.6926V11.6751V11.6576V11.6401V11.6225V11.605V11.5875V11.57V11.5525V11.535V11.5175V11.5V11.4825V11.465V11.4475V11.4299V11.4124V11.3949V11.3774V11.3599V11.3424V11.3249V11.3074V11.2899V11.2724V11.2549V11.2373V11.2198V11.2023V11.1848V11.1673V11.1498V11.1323V11.1148V11.0973V11.0798V11.0622V11.0447V11.0272V11.0097V10.9922V10.9747V10.9572V10.9397V10.9222V10.9047V10.8872V10.8696V10.8521V10.8346V10.8171V10.7996V10.7821V10.7646V10.7471V10.7296V10.7121V10.6946V10.677V10.6595V10.642V10.6245V10.607V10.5895V10.572V10.5545V10.537V10.5195V10.502V10.4844V10.4669V10.4494V10.4319V10.4144V10.3969V10.3794V10.3619V10.3444V10.3269V10.3094V10.2918V10.2743V10.2568V10.2393V10.2218V10.2043V10.1868V10.1693V10.1518V10.1343V10.1167V10.0992V10.0817V10.0642V10.0467V10.0292V10.0117V9.99418V9.97668V9.95917V9.94166V9.92415V9.90664V9.88913V9.87162V9.85411V9.8366V9.81909V9.80158V9.78407V9.76656V9.74905V9.73155V9.71404V9.69653V9.67902V9.66151V9.644V9.62649V9.60898V9.59147V9.57396V9.55645V9.53894V9.52143V9.50393V9.48642V9.46891V9.4514V9.43389V9.41638V9.39887V9.38136V9.36385V9.34634V9.32883V9.31132V9.29381V9.27631V9.2588V9.24129V9.22378V9.20627V9.18876V9.17125V9.15374V9.13623V9.11872V9.10121V9.0837V9.06619V9.04869V9.03118V9.01367V8.99616V8.97865V8.96114V8.94363V8.92612V8.90861V8.8911V8.87359V8.85608V8.83857V8.82106V8.80356V8.78605V8.76854V8.75103V8.73352V8.71601V8.6985V8.68099V8.66348V8.64597V8.62846V8.61095V8.59344V8.57594V8.55843V8.54092V8.52341V8.5059V8.48839V8.47088V8.45337V8.43586V8.41835V8.40084V8.38333V8.36582V8.34831V8.33081V8.3133V8.29579V8.27828V8.26077V8.24326V8.22575V8.20824V8.19073V8.17322V8.15571V8.1382V8.12069V8.10319V8.08568V8.06817V8.05066V8.03315V8.01564V7.99813V7.98062V7.96311V7.9456V7.92809V7.91058V7.89307V7.87557V7.85806V7.84055V7.82304V7.80553V7.78802V7.77051V7.753V7.73549V7.71798V7.70047V7.68296V7.66545V7.64794V7.63044V7.61293V7.59542V7.57791V7.5604V7.54289V7.52538V7.50787V7.49036V7.47285V7.45534V7.43783V7.42032V7.40282V7.38531V7.3678V7.35029V7.33278V7.31527V7.29776V7.28025V7.26274V7.24523V7.22772V7.21021V7.1927V7.1752V7.15769V7.14018V7.12267V7.10516V7.08765V7.07014V7.05263V7.03512V7.01761V7.0001V6.98259V6.96508V6.94758V6.93007V6.91256V6.89505V6.87754V6.86003V6.84252V6.82501V6.8075V6.78999V6.77248V6.75497V6.73746V6.71995V6.70245V6.68494V6.66743V6.64992V6.63241V6.6149V6.59739V6.57988V6.56237V6.54486V6.52735V6.50984V6.49233V6.47483V6.45732V6.43981V6.4223V6.40479C4.16348 5.64807 4.37654 5.096 4.73785 4.73307C5.09897 4.37034 5.64802 4.15653 6.40103 4.15653H15.2325C15.7815 4.15653 16.2654 3.98574 16.6152 3.67339C16.9674 3.35887 17.1662 2.91542 17.1619 2.41261C17.1576 1.91258 16.959 1.47672 16.6102 1.16888C16.264 0.863392 15.789 0.7 15.2527 0.7H15.2353H15.2179H15.2004H15.183H15.1656H15.1482H15.1308H15.1133H15.0959H15.0785H15.0611H15.0436H15.0262H15.0088H14.9914H14.974H14.9565H14.9391H14.9217H14.9043H14.8869H14.8694H14.852H14.8346H14.8172H14.7998H14.7823H14.7649H14.7475H14.7301H14.7126H14.6952H14.6778H14.6604H14.643H14.6255H14.6081H14.5907H14.5733H14.5559H14.5384H14.521H14.5036H14.4862H14.4688H14.4513H14.4339H14.4165H14.3991H14.3817H14.3642H14.3468H14.3294H14.312H14.2945H14.2771H14.2597H14.2423H14.2249H14.2074H14.19H14.1726H14.1552H14.1378H14.1203H14.1029H14.0855H14.0681H14.0507H14.0332H14.0158H13.9984H13.981H13.9635H13.9461H13.9287H13.9113H13.8939H13.8764H13.859H13.8416H13.8242H13.8068H13.7893H13.7719H13.7545H13.7371H13.7197H13.7022H13.6848H13.6674H13.65H13.6326H13.6151H13.5977H13.5803H13.5629H13.5454H13.528H13.5106H13.4932H13.4758H13.4583H13.4409H13.4235H13.4061H13.3887H13.3712H13.3538H13.3364H13.319H13.3016H13.2841H13.2667H13.2493H13.2319H13.2144H13.197H13.1796H13.1622H13.1448H13.1273H13.1099H13.0925H13.0751H13.0577H13.0402H13.0228H13.0054H12.988H12.9706H12.9531H12.9357H12.9183H12.9009H12.8835H12.866H12.8486H12.8312H12.8138H12.7963H12.7789H12.7615H12.7441H12.7267H12.7092H12.6918H12.6744H12.657H12.6396H12.6221H12.6047H12.5873H12.5699H12.5525H12.535H12.5176H12.5002H12.4828H12.4654H12.4479H12.4305H12.4131H12.3957H12.3782H12.3608H12.3434H12.326H12.3086H12.2911H12.2737H12.2563H12.2389H12.2215H12.204H12.1866H12.1692H12.1518H12.1344H12.1169H12.0995H12.0821H12.0647H12.0472H12.0298H12.0124H11.995H11.9776H11.9601H11.9427H11.9253H11.9079H11.8905H11.873H11.8556H11.8382H11.8208H11.8034H11.7859H11.7685H11.7511H11.7337H11.7163H11.6988H11.6814H11.664H11.6466H11.6291H11.6117H11.5943H11.5769H11.5595H11.542H11.5246H11.5072H11.4898H11.4724H11.4549H11.4375H11.4201H11.4027H11.3853H11.3678H11.3504H11.333H11.3156H11.2982H11.2807H11.2633H11.2459H11.2285H11.211H11.1936H11.1762H11.1588H11.1414H11.1239H11.1065H11.0891H11.0717H11.0543H11.0368H11.0194H11.002H10.9846H10.9672H10.9497H10.9323H10.9149H10.8975H10.88H10.8626H10.8452H10.8278H10.8104H10.7929H10.7755H10.7581H10.7407H10.7233H10.7058H10.6884H10.671H10.6536H10.6362H10.6187H10.6013H10.5839H10.5665H10.5491H10.5316H10.5142H10.4968H10.4794H10.4619H10.4445H10.4271H10.4097H10.3923H10.3748H10.3574H10.34H10.3226H10.3052H10.2877H10.2703H10.2529H10.2355H10.2181H10.2006H10.1832H10.1658H10.1484H10.1309H10.1135H10.0961H10.0787H10.0613H10.0438H10.0264H10.009H9.99158H9.97416H9.95674H9.93932H9.9219H9.90448H9.88706H9.86963H9.85221H9.83479H9.81737H9.79995H9.78253H9.76511H9.74769H9.73027H9.71285H9.69543H9.67801H9.66058H9.64316H9.62574H9.60832H9.5909H9.57348H9.55606H9.53864H9.52122H9.5038H9.48637H9.46895H9.45153H9.43411H9.41669H9.39927H9.38185H9.36443H9.34701H9.32959H9.31217H9.29474H9.27732H9.2599H9.24248H9.22506H9.20764H9.19022H9.1728H9.15538H9.13796H9.12054H9.10312H9.08569H9.06827H9.05085H9.03343H9.01601H8.99859H8.98117H8.96375H8.94633H8.92891H8.91148H8.89406H8.87664H8.85922H8.8418H8.82438H8.80696H8.78954H8.77212H8.7547H8.73728H8.71985H8.70243H8.68501H8.66759H8.65017H8.63275H8.61533H8.59791H8.58049H8.56307H8.54565H8.52822H8.5108H8.49338H8.47596H8.45854H8.44112H8.4237H8.40628H8.38886H8.37144H8.35402H8.33659H8.31917H8.30175H8.28433H8.26691H8.24949H8.23207H8.21465H8.19723H8.17981H8.16239H8.14496H8.12754H8.11012H8.0927H8.07528H8.05786H8.04044H8.02302H8.0056H7.98818H7.97076H7.95333H7.93591H7.91849H7.90107H7.88365H7.86623H7.84881H7.83139H7.81397H7.79655H7.77913H7.7617H7.74428H7.72686H7.70944H7.69202H7.6746H7.65718H7.63976H7.62234H7.60492H7.5875H7.57007H7.55265H7.53523H7.51781H7.50039H7.48297H7.46555H7.44813H7.43071H7.41329H7.39586H7.37844H7.36102H7.3436H7.32618H7.30876H7.29134H7.27392H7.2565H7.23908H7.22166H7.20424H7.18681H7.16939H7.15197H7.13455H7.11713H7.09971H7.08229H7.06487H7.04745H7.03003H7.01261H6.99518H6.97776H6.96034H6.94292H6.9255H6.90808H6.89066H6.87324H6.85582H6.8384H6.82097H6.80355H6.78613H6.76871H6.75129H6.73387H6.71645H6.69903H6.68161H6.66419H6.64677H6.62934H6.61192H6.5945H6.57708H6.55966H6.54224H6.52482H6.5074H6.48998H6.47256H6.45514H6.43772H6.42029H6.40287H6.38545H6.36803H6.35061L6.33319 0.699999L6.33238 0.700001C3.08277 0.708777 0.718245 3.07002 0.706955 6.31091Z" fill="white" stroke="white" stroke-width="0.6"/>
<path d="M41.2983 6.31671C41.2983 3.07082 38.9243 0.711283 35.6802 0.7H35.6792H35.6708H35.6624H35.6541H35.6457H35.6373H35.629H35.6206H35.6122H35.6039H35.5955H35.5871H35.5787H35.5704H35.562H35.5536H35.5453H35.5369H35.5285H35.5202H35.5118H35.5034H35.4951H35.4867H35.4783H35.47H35.4616H35.4532H35.4448H35.4365H35.4281H35.4197H35.4114H35.403H35.3946H35.3863H35.3779H35.3695H35.3612H35.3528H35.3444H35.3361H35.3277H35.3193H35.3109H35.3026H35.2942H35.2858H35.2775H35.2691H35.2607H35.2524H35.244H35.2356H35.2273H35.2189H35.2105H35.2022H35.1938H35.1854H35.177H35.1687H35.1603H35.1519H35.1436H35.1352H35.1268H35.1185H35.1101H35.1017H35.0934H35.085H35.0766H35.0683H35.0599H35.0515H35.0431H35.0348H35.0264H35.018H35.0097H35.0013H34.9929H34.9846H34.9762H34.9678H34.9595H34.9511H34.9427H34.9344H34.926H34.9176H34.9093H34.9009H34.8925H34.8841H34.8758H34.8674H34.859H34.8507H34.8423H34.8339H34.8256H34.8172H34.8088H34.8005H34.7921H34.7837H34.7754H34.767H34.7586H34.7502H34.7419H34.7335H34.7251H34.7168H34.7084H34.7H34.6917H34.6833H34.6749H34.6666H34.6582H34.6498H34.6415H34.6331H34.6247H34.6163H34.608H34.5996H34.5912H34.5829H34.5745H34.5661H34.5578H34.5494H34.541H34.5327H34.5243H34.5159H34.5076H34.4992H34.4908H34.4824H34.4741H34.4657H34.4573H34.449H34.4406H34.4322H34.4239H34.4155H34.4071H34.3988H34.3904H34.382H34.3737H34.3653H34.3569H34.3485H34.3402H34.3318H34.3234H34.3151H34.3067H34.2983H34.29H34.2816H34.2732H34.2649H34.2565H34.2481H34.2398H34.2314H34.223H34.2146H34.2063H34.1979H34.1895H34.1812H34.1728H34.1644H34.1561H34.1477H34.1393H34.131H34.1226H34.1142H34.1059H34.0975H34.0891H34.0807H34.0724H34.064H34.0556H34.0473H34.0389H34.0305H34.0222H34.0138H34.0054H33.9971H33.9887H33.9803H33.972H33.9636H33.9552H33.9468H33.9385H33.9301H33.9217H33.9134H33.905H33.8966H33.8883H33.8799H33.8715H33.8632H33.8548H33.8464H33.8381H33.8297H33.8213H33.8129H33.8046H33.7962H33.7878H33.7795H33.7711H33.7627H33.7544H33.746H33.7376H33.7293H33.7209H33.7125H33.7042H33.6958H33.6874H33.679H33.6707H33.6623H33.6539H33.6456H33.6372H33.6288H33.6205H33.6121H33.6037H33.5954H33.587H33.5786H33.5703H33.5619H33.5535H33.5451H33.5368H33.5284H33.52H33.5117H33.5033H33.4949H33.4866H33.4782H33.4698H33.4615H33.4531H33.4447H33.4364H33.428H33.4196H33.4112H33.4029H33.3945H33.3861H33.3778H33.3694H33.361H33.3527H33.3443H33.3359H33.3276H33.3192H33.3108H33.3025H33.2941H33.2857H33.2773H33.269H33.2606H33.2522H33.2439H33.2355H33.2271H33.2188H33.2104H33.202H33.1937H33.1853H33.1769H33.1686H33.1602H33.1518H33.1434H33.1351H33.1267H33.1183H33.11H33.1016H33.0932H33.0849H33.0765H33.0681H33.0598H33.0514H33.043H33.0347H33.0263H33.0179H33.0095H33.0012H32.9928H32.9844H32.9761H32.9677H32.9593H32.951H32.9426H32.9342H32.9259H32.9175H32.9091H32.9008H32.8924H32.884H32.8756H32.8673H32.8589H32.8505H32.8422H32.8338H32.8254H32.8171H32.8087H32.8003H32.792H32.7836H32.7752H32.7669H32.7585H32.7501H32.7417H32.7334H32.725H32.7166H32.7083H32.6999H32.6915H32.6832H32.6748H32.6664H32.6581H32.6497H32.6413H32.633H32.6246H32.6162H32.6078H32.5995H32.5911H32.5827H32.5744H32.566H32.5576H32.5493H32.5409H32.5325H32.5242H32.5158H32.5074H32.4991H32.4907H32.4823H32.4739H32.4656H32.4572H32.4488H32.4405H32.4321H32.4237H32.4154H32.407H32.3986H32.3903H32.3819H32.3735H32.3652H32.3568H32.3484H32.34H32.3317H32.3233H32.3149H32.3066H32.2982H32.2898H32.2815H32.2731H32.2647H32.2564H32.248H32.2396H32.2313H32.2229H32.2145H32.2062H32.1978H32.1894H32.181H32.1727H32.1643H32.1559H32.1476H32.1392H32.1308H32.1225H32.1141H32.1057H32.0974H32.089H32.0806H32.0722H32.0639H32.0555H32.0471H32.0388H32.0304H32.022H32.0137H32.0053H31.9969H31.9886H31.9802H31.9718H31.9635H31.9551H31.9467H31.9384H31.93H31.9216H31.9132H31.9049H31.8965H31.8881H31.8798H31.8714H31.863H31.8547H31.8463H31.8379H31.8296H31.8212H31.8128H31.8045H31.7961H31.7877H31.7793H31.771H31.7626H31.7542H31.7459H31.7375H31.7291H31.7208H31.7124H31.704H31.6957H31.6873H31.6789H31.6706H31.6622H31.6538H31.6454H31.6371H31.6287H31.6203H31.612H31.6036H31.5952H31.5869H31.5785H31.5701H31.5618H31.5534H31.545H31.5367H31.5283H31.5199H31.5115H31.5032H31.4948H31.4864H31.4781H31.4697H31.4613H31.453H31.4446H31.4362H31.4279H31.4195H31.4111H31.4028H31.3944H31.3941C29.803 0.7 28.2124 0.7 26.6229 0.705953L26.6225 0.705955C25.7827 0.710154 25.1019 1.21532 24.9049 1.99146L24.9049 1.99172C24.7608 2.56152 24.8908 3.1089 25.2251 3.51338C25.5583 3.91655 26.0782 4.15891 26.6811 4.15891H26.6986H26.7161H26.7336H26.7512H26.7687H26.7862H26.8037H26.8212H26.8387H26.8562H26.8737H26.8912H26.9088H26.9263H26.9438H26.9613H26.9788H26.9963H27.0138H27.0313H27.0489H27.0664H27.0839H27.1014H27.1189H27.1364H27.1539H27.1714H27.1889H27.2064H27.224H27.2415H27.259H27.2765H27.294H27.3115H27.329H27.3465H27.364H27.3816H27.3991H27.4166H27.4341H27.4516H27.4691H27.4866H27.5041H27.5216H27.5391H27.5567H27.5742H27.5917H27.6092H27.6267H27.6442H27.6617H27.6792H27.6967H27.7143H27.7318H27.7493H27.7668H27.7843H27.8018H27.8193H27.8368H27.8543H27.8718H27.8894H27.9069H27.9244H27.9419H27.9594H27.9769H27.9944H28.0119H28.0294H28.0469H28.0645H28.082H28.0995H28.117H28.1345H28.152H28.1695H28.187H28.2045H28.222H28.2395H28.2571H28.2746H28.2921H28.3096H28.3271H28.3446H28.3621H28.3796H28.3971H28.4146H28.4322H28.4497H28.4672H28.4847H28.5022H28.5197H28.5372H28.5547H28.5722H28.5897H28.6072H28.6248H28.6423H28.6598H28.6773H28.6948H28.7123H28.7298H28.7473H28.7648H28.7823H28.7998H28.8174H28.8349H28.8524H28.8699H28.8874H28.9049H28.9224H28.9399H28.9574H28.9749H28.9924H29.01H29.0275H29.045H29.0625H29.08H29.0975H29.115H29.1325H29.15H29.1675H29.185H29.2025H29.2201H29.2376H29.2551H29.2726H29.2901H29.3076H29.3251H29.3426H29.3601H29.3776H29.3951H29.4127H29.4302H29.4477H29.4652H29.4827H29.5002H29.5177H29.5352H29.5527H29.5702H29.5877H29.6052H29.6228H29.6403H29.6578H29.6753H29.6928H29.7103H29.7278H29.7453H29.7628H29.7803H29.7978H29.8153H29.8329H29.8504H29.8679H29.8854H29.9029H29.9204H29.9379H29.9554H29.9729H29.9904H30.0079H30.0254H30.043H30.0605H30.078H30.0955H30.113H30.1305H30.148H30.1655H30.183H30.2005H30.218H30.2355H30.2531H30.2706H30.2881H30.3056H30.3231H30.3406H30.3581H30.3756H30.3931H30.4106H30.4281H30.4456H30.4632H30.4807H30.4982H30.5157H30.5332H30.5507H30.5682H30.5857H30.6032H30.6207H30.6382H30.6557H30.6733H30.6908H30.7083H30.7258H30.7433H30.7608H30.7783H30.7958H30.8133H30.8308H30.8483H30.8658H30.8834H30.9009H30.9184H30.9359H30.9534H30.9709H30.9884H31.0059H31.0234H31.0409H31.0584H31.0759H31.0934H31.111H31.1285H31.146H31.1635H31.181H31.1985H31.216H31.2335H31.251H31.2685H31.286H31.3035H31.3211H31.3386H31.3561H31.3736H31.3911H31.4086H31.4261H31.4436H31.4611H31.4786H31.4961H31.5136H31.5312H31.5487H31.5662H31.5837H31.6012H31.6187H31.6362H31.6537H31.6712H31.6887H31.7062H31.7237H31.7412H31.7588H31.7763H31.7938H31.8113H31.8288H31.8463H31.8638H31.8813H31.8988H31.9163H31.9338H31.9513H31.9689H31.9864H32.0039H32.0214H32.0389H32.0564H32.0739H32.0914H32.1089H32.1264H32.1439H32.1614H32.179H32.1965H32.214H32.2315H32.249H32.2665H32.284H32.3015H32.319H32.3365H32.354H32.3715H32.3891H32.4066H32.4241H32.4416H32.4591H32.4766H32.4941H32.5116H32.5291H32.5466H32.5641H32.5816H32.5992H32.6167H32.6342H32.6517H32.6692H32.6867H32.7042H32.7217H32.7392H32.7567H32.7742H32.7917H32.8093H32.8268H32.8443H32.8618H32.8793H32.8968H32.9143H32.9318H32.9493H32.9668H32.9843H33.0018H33.0194H33.0369H33.0544H33.0719H33.0894H33.1069H33.1244H33.1419H33.1594H33.1769H33.1944H33.212H33.2295H33.247H33.2645H33.282H33.2995H33.317H33.3345H33.352H33.3695H33.387H33.4046H33.4221H33.4396H33.4571H33.4746H33.4921H33.5096H33.5271H33.5446H33.5621H33.5796H33.5972H33.6147H33.6322H33.6497H33.6672H33.6847H33.7022H33.7197H33.7372H33.7547H33.7722H33.7898H33.8073H33.8248H33.8423H33.8598H33.8773H33.8948H33.9123H33.9298H33.9473H33.9648H33.9824H33.9999H34.0174H34.0349H34.0524H34.0699H34.0874H34.1049H34.1224H34.1399H34.1575H34.175H34.1925H34.21H34.2275H34.245H34.2625H34.28H34.2975H34.315H34.3325H34.3501H34.3676H34.3851H34.4026H34.4201H34.4376H34.4551H34.4726H34.4901H34.5076H34.5252H34.5427H34.5602H34.5777H34.5952H34.6127H34.6302H34.6477H34.6652H34.6827H34.7003H34.7178H34.7353H34.7528H34.7703H34.7878H34.8053H34.8228H34.8403H34.8579H34.8754H34.8929H34.9104H34.9279H34.9454H34.9629H34.9804H34.9979H35.0154H35.033H35.0505H35.068H35.0855H35.103H35.1205H35.138H35.1555H35.173H35.1906H35.2081H35.2256H35.2431H35.2606H35.2781H35.2956H35.3131H35.3306H35.3482H35.3657H35.3832H35.4007H35.4182H35.4357H35.4532H35.4707H35.4882H35.5058H35.5233H35.5408H35.5583H35.5758H35.5933H35.6108H35.6283H35.6458C36.3663 4.15891 36.9079 4.37435 37.269 4.73559C37.6301 5.09685 37.8453 5.63846 37.8453 6.35837V6.37562V6.39288V6.41013V6.42738V6.44464V6.46189V6.47914V6.4964V6.51365V6.5309V6.54816V6.56541V6.58266V6.59992V6.61717V6.63442V6.65168V6.66893V6.68618V6.70344V6.72069V6.73794V6.7552V6.77245V6.7897V6.80696V6.82421V6.84146V6.85872V6.87597V6.89322V6.91047V6.92773V6.94498V6.96223V6.97949V6.99674V7.01399V7.03124V7.0485V7.06575V7.083V7.10026V7.11751V7.13476V7.15201V7.16927V7.18652V7.20377V7.22102V7.23828V7.25553V7.27278V7.29003V7.30729V7.32454V7.34179V7.35904V7.3763V7.39355V7.4108V7.42805V7.44531V7.46256V7.47981V7.49706V7.51432V7.53157V7.54882V7.56607V7.58333V7.60058V7.61783V7.63508V7.65233V7.66959V7.68684V7.70409V7.72134V7.7386V7.75585V7.7731V7.79035V7.8076V7.82486V7.84211V7.85936V7.87661V7.89386V7.91112V7.92837V7.94562V7.96287V7.98012V7.99737V8.01463V8.03188V8.04913V8.06638V8.08363V8.10088V8.11814V8.13539V8.15264V8.16989V8.18714V8.20439V8.22165V8.2389V8.25615V8.2734V8.29065V8.3079V8.32516V8.34241V8.35966V8.37691V8.39416V8.41141V8.42866V8.44592V8.46317V8.48042V8.49767V8.51492V8.53217V8.54942V8.56667V8.58393V8.60118V8.61843V8.63568V8.65293V8.67018V8.68743V8.70468V8.72193V8.73919V8.75644V8.77369V8.79094V8.80819V8.82544V8.84269V8.85994V8.87719V8.89444V8.9117V8.92895V8.9462V8.96345V8.9807V8.99795V9.0152V9.03245V9.0497V9.06695V9.0842V9.10145V9.1187V9.13595V9.1532V9.17046V9.18771V9.20496V9.22221V9.23946V9.25671V9.27396V9.29121V9.32571V9.34296V9.36021V9.37746V9.39471V9.41196V9.42921V9.44646V9.46371V9.48096V9.49821V9.51546V9.53271V9.54996V9.56721V9.58446V9.60171V9.61896V9.63621V9.65346V9.67071V9.68796V9.70521V9.72246V9.73971V9.75696V9.77421V9.79146V9.80871V9.82596V9.84321V9.86046V9.87771V9.89496V9.91221V9.92946V9.94671V9.96396V9.98121V9.99846V10.0157V10.033V10.0502V10.0675V10.0847V10.102V10.1192V10.1365V10.1537V10.171V10.1882V10.2055V10.2227V10.24V10.2572V10.2745V10.2917V10.309V10.3262V10.3435V10.3607V10.378V10.3952V10.4124V10.4297V10.4469V10.4642V10.4814V10.4987V10.5159V10.5332V10.5504V10.5677V10.5849V10.6022V10.6194V10.6367V10.6539V10.6712V10.6884V10.7057V10.7229V10.7402V10.7574V10.7747V10.7919V10.8092V10.8264V10.8437V10.8609V10.8782V10.8954V10.9127V10.9299V10.9472V10.9644V10.9817V10.9989V11.0162V11.0334V11.0507V11.0679V11.0852V11.1024V11.1197V11.1369V11.1542V11.1714V11.1886V11.2059V11.2231V11.2404V11.2576V11.2749V11.2921V11.3094V11.3266V11.3439V11.3611V11.3784V11.3956V11.4129V11.4301V11.4474V11.4646V11.4819V11.4991V11.5164V11.5336V11.5509V11.5681V11.5854V11.6026V11.6199V11.6371V11.6544V11.6716V11.6888V11.7061V11.7233V11.7406V11.7578V11.7751V11.7923V11.8096V11.8268V11.8441V11.8613V11.8786V11.8958V11.9131V11.9303V11.9476V11.9648V11.9821V11.9993V12.0166V12.0338V12.051V12.0683V12.0855V12.1028V12.12V12.1373V12.1545V12.1718V12.189V12.2063V12.2235V12.2408V12.258V12.2753V12.2925V12.3098V12.327V12.3443V12.3615V12.3787V12.396V12.4132V12.4305V12.4477V12.465V12.4822V12.4995V12.5167V12.534V12.5512V12.5685V12.5857V12.603V12.6202V12.6375V12.6547V12.6719V12.6892V12.7064V12.7237V12.7409V12.7582V12.7754V12.7927V12.8099V12.8272V12.8444V12.8617V12.8789V12.8962V12.9134V12.9307V12.9479V12.9651V12.9824V12.9996V13.0169V13.0341V13.0514V13.0686V13.0859V13.1031V13.1204V13.1376V13.1549V13.1721V13.1893V13.2066V13.2238V13.2411V13.2583V13.2756V13.2928V13.3101V13.3273V13.3446V13.3618V13.3791V13.3963V13.4135V13.4308V13.448V13.4653V13.4825V13.4998V13.517V13.5343V13.5515V13.5688V13.586V13.6033V13.6205V13.6377V13.655V13.6722V13.6895V13.7067V13.724V13.7412V13.7585V13.7757V13.793V13.8102V13.8274V13.8447V13.8619V13.8792V13.8964V13.9137V13.9309V13.9482V13.9654V13.9827V13.9999V14.0172V14.0344V14.0516V14.0689V14.0861V14.1034V14.1206V14.1379V14.1551V14.1724V14.1896V14.2069V14.2241V14.2413V14.2586V14.2758V14.2931V14.3103V14.3276V14.3448V14.3621V14.3793V14.3965V14.4138V14.431V14.4655V14.4828V14.5V14.5173V14.5345V14.5518V14.569V14.5862V14.6035V14.6207V14.638V14.6552V14.6725V14.6897V14.707V14.7242V14.7414V14.7587V14.7759V14.7932V14.8104V14.8277V14.8449V14.8622V14.8794V14.8966V14.9139V14.9311V14.9484V14.9656V14.9829V15.0001V15.0174V15.0346V15.0518V15.0691V15.0863V15.1036V15.1208V15.1381V15.1553V15.1726V15.1842M41.2983 6.31671H40.9984L41.2983 6.31608C41.2983 6.31629 41.2983 6.3165 41.2983 6.31671ZM41.2983 6.31671C41.3046 9.33194 41.3046 12.3499 41.2983 15.3707M41.2983 15.3707H40.9983M41.2983 15.3707C41.2983 16.332 40.6381 17.0616 39.7108 17.1477L39.7039 17.1483L39.7039 17.1482C39.2878 17.1772 38.8751 17.0555 38.5413 16.8054C38.2074 16.5553 37.9747 16.1934 37.8856 15.7859L37.8839 15.7784L37.8827 15.7707C37.8506 15.577 37.8381 15.3805 37.8453 15.1842M41.2983 15.3707C41.2983 15.3709 41.2983 15.3711 41.2983 15.3713L40.9983 15.3707M40.9983 15.3707C41.0046 12.3499 41.0046 9.33194 40.9983 6.31671C40.9983 3.23761 38.7595 1.01071 35.6792 1H31.3944C29.8031 1 28.2129 1 26.624 1.00595C25.9098 1.00952 25.3564 1.43205 25.1957 2.06525C24.9529 3.02575 25.6385 3.85891 26.6811 3.85891H35.6458C37.2074 3.85891 38.1453 4.79799 38.1453 6.35837V15.1898M40.9983 15.3707L39.6831 16.849C39.3388 16.8729 38.9973 16.7723 38.7211 16.5653C38.4449 16.3584 38.2524 16.059 38.1786 15.7218C38.1496 15.5461 38.1384 15.3678 38.1453 15.1898M38.1453 15.1898L37.8455 15.1782C37.8455 15.1802 37.8454 15.1822 37.8453 15.1842M38.1453 15.1898H37.8453V15.1842" fill="white" stroke="white" stroke-width="0.6"/>
<path d="M6.32051 41.2914H6.32132H6.32977H6.33822H6.34668H6.35513H6.36358H6.37203H6.38049H6.38894H6.39739H6.40584H6.4143H6.42275H6.4312H6.43965H6.44811H6.45656H6.46501H6.47346H6.48192H6.49037H6.49882H6.50727H6.51573H6.52418H6.53263H6.54108H6.54954H6.55799H6.56644H6.57489H6.58334H6.5918H6.60025H6.6087H6.61715H6.62561H6.63406H6.64251H6.65096H6.65942H6.66787H6.67632H6.68477H6.69323H6.70168H6.71013H6.71858H6.72704H6.73549H6.74394H6.75239H6.76084H6.7693H6.77775H6.7862H6.79465H6.80311H6.81156H6.82001H6.82846H6.83692H6.84537H6.85382H6.86227H6.87073H6.87918H6.88763H6.89608H6.90453H6.91299H6.92144H6.92989H6.93834H6.9468H6.95525H6.9637H6.97215H6.9806H6.98906H6.99751H7.00596H7.01441H7.02287H7.03132H7.03977H7.04822H7.05667H7.06513H7.07358H7.08203H7.09048H7.09894H7.10739H7.11584H7.12429H7.13274H7.1412H7.14965H7.1581H7.16655H7.17501H7.18346H7.19191H7.20036H7.20881H7.21727H7.22572H7.23417H7.24262H7.25107H7.25953H7.26798H7.27643H7.28488H7.29333H7.30179H7.31024H7.31869H7.32714H7.3356H7.34405H7.3525H7.36095H7.3694H7.37786H7.38631H7.39476H7.40321H7.41166H7.42012H7.42857H7.43702H7.44547H7.45392H7.46238H7.47083H7.47928H7.48773H7.49618H7.50463H7.51309H7.52154H7.52999H7.53844H7.54689H7.55535H7.5638H7.57225H7.5807H7.58915H7.59761H7.60606H7.61451H7.62296H7.63141H7.63986H7.64832H7.65677H7.66522H7.67367H7.68212H7.69057H7.69903H7.70748H7.71593H7.72438H7.73283H7.74128H7.74974H7.75819H7.76664H7.77509H7.78354H7.79199H7.80045H7.8089H7.81735H7.8258H7.83425H7.8427H7.85116H7.85961H7.86806H7.87651H7.88496H7.89341H7.90186H7.91032H7.91877H7.92722H7.93567H7.94412H7.95257H7.96102H7.96948H7.97793H7.98638H7.99483H8.00328H8.01173H8.02018H8.02864H8.03709H8.04554H8.05399H8.06244H8.07089H8.07934H8.08779H8.09625H8.1047H8.11315H8.1216H8.13005H8.1385H8.14695H8.1554H8.16386H8.17231H8.18076H8.18921H8.19766H8.20611H8.21456H8.22301H8.23146H8.23992H8.24837H8.25682H8.26527H8.27372H8.28217H8.29062H8.29907H8.30752H8.31597H8.32443H8.33288H8.34133H8.34978H8.35823H8.36668H8.37513H8.38358H8.39203H8.40048H8.40893H8.41739H8.42584H8.43429H8.44274H8.45119H8.45964H8.46809H8.47654H8.48499H8.49344H8.50189H8.51034H8.51879H8.52724H8.53569H8.54415H8.5526H8.56105H8.5695H8.57795H8.5864H8.59485H8.6033H8.61175H8.6202H8.62865H8.6371H8.64555H8.654H8.66245H8.6709H8.67935H8.6878H8.69625H8.7047H8.71315H8.7216H8.73005H8.7385H8.74695H8.75541H8.76386H8.77231H8.78076H8.78921H8.79766H8.80611H8.81456H8.82301H8.83146H8.83991H8.84836H8.85681H8.86526H8.87371H8.88216H8.89061H8.89906H8.90751H8.91596H8.92441H8.93286H8.94131H8.94976H8.95821H8.96666H8.97511H8.98356H8.992H9.00045H9.0089H9.01735H9.0258H9.03425H9.0427H9.05115H9.0596H9.06805H9.0765H9.08495H9.0934H9.10185H9.1103H9.11875H9.1272H9.13565H9.1441H9.15255H9.161H9.16945H9.1779H9.18635H9.19479H9.20324H9.21169H9.22014H9.22859H9.23704H9.24549H9.25394H9.26239H9.27084H9.27929H9.28774H9.29619H9.30463H9.31308H9.32153H9.32998H9.33843H9.34688H9.35533H9.36378H9.37223H9.38068H9.38912H9.39757H9.40602H9.41447H9.42292H9.43137H9.43982H9.44827H9.45672H9.46516H9.47361H9.48206H9.49051H9.49896H9.50741H9.51586H9.5243H9.53275H9.5412H9.54965H9.5581H9.56655H9.575H9.58344H9.59189H9.60034H9.60879H9.61724H9.62569H9.63413H9.64258H9.65103H9.65948H9.66793H9.67638H9.68482H9.69327H9.70172H9.71017H9.71862H9.72707H9.73551H9.74396H9.75241H9.76086H9.76931H9.77775H9.7862H9.79465H9.8031H9.81155H9.81999H9.82844H9.83689H9.84534H9.85378H9.86223H9.87068H9.87913H9.88758H9.89602H9.90447H9.91292H9.92137H9.92981H9.93826H9.94671H9.95516H9.9636H9.97205H9.9805H9.98895H9.99739H10.0058H10.0143H10.0227H10.0312H10.0396H10.0481H10.0565H10.065H10.0734H10.0819H10.0903H10.0988H10.1072H10.1157H10.1241H10.1325H10.141H10.1494H10.1579H10.1663H10.1748H10.1832H10.1917H10.2001H10.2086H10.217H10.2255H10.2339H10.2424H10.2508H10.2593H10.2677H10.2761H10.2846H10.293H10.3015H10.3099H10.3184H10.3268H10.3353H10.3437H10.3522H10.3606H10.3691H10.3775H10.3859H10.3944H10.4028H10.4113H10.4197H10.4282H10.4366H10.4451H10.4535H10.462H10.4704H10.4789H10.4873H10.4957H10.5042H10.5126H10.5211H10.5295H10.538H10.5464H10.5549H10.5633H10.5718H10.5802H10.5887H10.5971H10.6055H10.614H10.6224H10.6309H10.6393H10.6478C11.0838 41.2914 11.5208 41.2935 11.9585 41.2957C13.0848 41.3012 14.2151 41.3068 15.3419 41.2758L15.3419 41.276L15.352 41.2754C15.8059 41.2476 16.2407 41.0829 16.5991 40.8029L16.5991 40.8029L16.602 40.8006C17.1957 40.3247 17.2756 39.6222 17.0464 38.9645C16.7993 38.2556 16.1424 37.8396 15.3729 37.8396H15.3553H15.3377H15.3201H15.3025H15.2849H15.2673H15.2497H15.2321H15.2145H15.1969H15.1793H15.1617H15.1441H15.1265H15.1089H15.0913H15.0737H15.0561H15.0385H15.0209H15.0033H14.9857H14.9681H14.9505H14.9329H14.9153H14.8977H14.8801H14.8625H14.8449H14.8273H14.8097H14.7921H14.7745H14.7569H14.7393H14.7217H14.7041H14.6865H14.6689H14.6513H14.6337H14.6161H14.5985H14.5809H14.5633H14.5457H14.5281H14.5105H14.4929H14.4753H14.4576H14.44H14.4224H14.4048H14.3872H14.3696H14.352H14.3344H14.3168H14.2992H14.2816H14.264H14.2464H14.2288H14.2112H14.1936H14.176H14.1584H14.1408H14.1232H14.1056H14.088H14.0704H14.0528H14.0352H14.0176H14H13.9824H13.9648H13.9472H13.9296H13.912H13.8944H13.8768H13.8592H13.8416H13.824H13.8064H13.7888H13.7712H13.7536H13.736H13.7184H13.7008H13.6832H13.6656H13.648H13.6304H13.6128H13.5952H13.5776H13.56H13.5424H13.5248H13.5072H13.4896H13.472H13.4544H13.4368H13.4192H13.4016H13.384H13.3664H13.3488H13.3312H13.3136H13.296H13.2784H13.2608H13.2432H13.2256H13.208H13.1904H13.1728H13.1552H13.1376H13.12H13.1024H13.0848H13.0672H13.0496H13.032H13.0144H12.9968H12.9792H12.9616H12.944H12.9264H12.9088H12.8912H12.8736H12.856H12.8384H12.8208H12.8032H12.7856H12.768H12.7504H12.7328H12.7152H12.6976H12.68H12.6624H12.6448H12.6272H12.6096H12.592H12.5744H12.5568H12.5392H12.5216H12.504H12.4864H12.4688H12.4512H12.4336H12.416H12.3984H12.3808H12.3632H12.3456H12.328H12.3104H12.2928H12.2752H12.2576H12.24H12.2224H12.2048H12.1872H12.1696H12.152H12.1344H12.1168H12.0992H12.0816H12.064H12.0464H12.0288H12.0112H11.9936H11.976H11.9584H11.9409H11.9233H11.9057H11.8881H11.8705H11.8529H11.8353H11.8177H11.8001H11.7825H11.7649H11.7473H11.7297H11.7121H11.6945H11.6769H11.6593H11.6417H11.6241H11.6065H11.5889H11.5713H11.5537H11.5361H11.5185H11.5009H11.4833H11.4657H11.4481H11.4305H11.4129H11.3953H11.3777H11.3601H11.3425H11.3249H11.3073H11.2897H11.2721H11.2545H11.2369H11.2193H11.2017H11.1841H11.1665H11.1489H11.1313H11.1137H11.0961H11.0785H11.0609H11.0433H11.0257H11.0081H10.9905H10.9729H10.9554H10.9378H10.9202H10.9026H10.885H10.8674H10.8498H10.8322H10.8146H10.797H10.7794H10.7618H10.7442H10.7266H10.709H10.6914H10.6738H10.6562H10.6386H10.621H10.6034H10.5858H10.5682H10.5506H10.533H10.5154H10.4978H10.4802H10.4626H10.445H10.4274H10.4098H10.3922H10.3746H10.357H10.3394H10.3218H10.3043H10.2867H10.2691H10.2515H10.2339H10.2163H10.1987H10.1811H10.1635H10.1459H10.1283H10.1107H10.0931H10.0755H10.0579H10.0403H10.0227H10.0051H9.98751H9.96991H9.95231H9.93472H9.91712H9.89952H9.88193H9.86433H9.84674H9.82914H9.81154H9.79395H9.77635H9.75875H9.74116H9.72356H9.70596H9.68837H9.67077H9.65317H9.63558H9.61798H9.60039H9.58279H9.56519H9.5476H9.53H9.5124H9.49481H9.47721H9.45962H9.44202H9.42442H9.40683H9.38923H9.37164H9.35404H9.33644H9.31885H9.30125H9.28366H9.26606H9.24846H9.23087H9.21327H9.19568H9.17808H9.16048H9.14289H9.12529H9.1077H9.0901H9.0725H9.05491H9.03731H9.01972H9.00212H8.98453H8.96693H8.94934H8.93174H8.91414H8.89655H8.87895H8.86136H8.84376H8.82617H8.80857H8.79098H8.77338H8.75578H8.73819H8.72059H8.703H8.6854H8.66781H8.65021H8.63262H8.61502H8.59743H8.57983H8.56224H8.54464H8.52705H8.50945H8.49186H8.47426H8.45667H8.43907H8.42148H8.40388H8.38629H8.36869H8.3511H8.3335H8.31591H8.29831H8.28072H8.26312H8.24553H8.22793H8.21034H8.19274H8.17515H8.15755H8.13996H8.12236H8.10477H8.08717H8.06958H8.05198H8.03439H8.01679H7.9992H7.9816H7.96401H7.94642H7.92882H7.91123H7.89363H7.87604H7.85844H7.84085H7.82325H7.80566H7.78806H7.77047H7.75288H7.73528H7.71769H7.70009H7.6825H7.6649H7.64731H7.62972H7.61212H7.59453H7.57693H7.55934H7.54175H7.52415H7.50656H7.48896H7.47137H7.45377H7.43618H7.41859H7.40099H7.3834H7.3658H7.34821H7.33062H7.31302H7.29543H7.27783H7.26024H7.24265H7.22505H7.20746H7.18987H7.17227H7.15468H7.13708H7.11949H7.1019H7.0843H7.06671H7.04912H7.03152H7.01393H6.99634H6.97874H6.96115H6.94355H6.92596H6.90837H6.89077H6.87318H6.85559H6.83799H6.8204H6.80281H6.78521H6.76762H6.75003H6.73243H6.71484H6.69725H6.67965H6.66206H6.64447H6.62687H6.60928H6.59169H6.57409H6.5565H6.53891H6.52131H6.50372H6.48613H6.46854H6.45094H6.43335H6.41576H6.39816H6.38057H6.36298C5.64273 37.8396 5.10112 37.6237 4.7399 37.2621C4.37864 36.9005 4.16352 36.3588 4.16352 35.6402V35.6228V35.6055V35.5882V35.5708V35.5535V35.5362V35.5188V35.5015V35.4842V35.4668V35.4495V35.4322V35.4148V35.3975V35.3802V35.3628V35.3455V35.3282V35.3108V35.2935V35.2762V35.2589V35.2415V35.2242V35.2069V35.1895V35.1722V35.1549V35.1375V35.1202V35.1029V35.0855V35.0682V35.0509V35.0335V35.0162V34.9989V34.9815V34.9642V34.9469V34.9295V34.9122V34.8949V34.8775V34.8602V34.8429V34.8255V34.8082V34.7909V34.7735V34.7562V34.7389V34.7215V34.7042V34.6869V34.6695V34.6522V34.6349V34.6175V34.6002V34.5829V34.5655V34.5482V34.5309V34.5135V34.4962V34.4789V34.4615V34.4442V34.4269V34.4095V34.3922V34.3749V34.3575V34.3402V34.3229V34.3055V34.2882V34.2709V34.2535V34.2362V34.2189V34.2015V34.1842V34.1669V34.1495V34.1322V34.1149V34.0975V34.0802V34.0629V34.0455V34.0282V34.0109V33.9935V33.9762V33.9589V33.9415V33.9242V33.9069V33.8895V33.8722V33.8549V33.8375V33.8202V33.8029V33.7855V33.7682V33.7509V33.7335V33.7162V33.6989V33.6815V33.6642V33.6469V33.6295V33.6122V33.5949V33.5775V33.5602V33.5429V33.5255V33.5082V33.4909V33.4735V33.4562V33.4389V33.4215V33.4042V33.3869V33.3695V33.3522V33.3349V33.3175V33.3002V33.2829V33.2655V33.2482V33.2309V33.2135V33.1962V33.1789V33.1615V33.1442V33.1269V33.1095V33.0922V33.0748V33.0575V33.0402V33.0228V33.0055V32.9882V32.9708V32.9535V32.9362V32.9188V32.9015V32.8842V32.8668V32.8495V32.8322V32.8148V32.7975V32.7802V32.7628V32.7455V32.7282V32.7108V32.6935V32.6762V32.6588V32.6415V32.6242V32.6068V32.5895V32.5722V32.5548V32.5375V32.5202V32.5028V32.4855V32.4682V32.4508V32.4335V32.4162V32.3988V32.3815V32.3642V32.3468V32.3295V32.3121V32.2948V32.2775V32.2601V32.2428V32.2255V32.2081V32.1908V32.1735V32.1561V32.1388V32.1215V32.1041V32.0868V32.0695V32.0521V32.0348V32.0175V32.0001V31.9828V31.9655V31.9481V31.9308V31.9135V31.8961V31.8788V31.8615V31.8441V31.8268V31.8094V31.7921V31.7748V31.7574V31.7401V31.7228V31.7054V31.6881V31.6708V31.6534V31.6361V31.6188V31.6014V31.5841V31.5668V31.5494V31.5321V31.5148V31.4974V31.4801V31.4628V31.4454V31.4281V31.4108V31.3934V31.3761V31.3587V31.3414V31.3241V31.3067V31.2894V31.2721V31.2547V31.2374V31.2201V31.2027V31.1854V31.1681V31.1507V31.1334V31.1161V31.0987V31.0814V31.0641V31.0467V31.0294V31.012V30.9947V30.9774V30.96V30.9427V30.9254V30.908V30.8907V30.8734V30.856V30.8387V30.8214V30.804V30.7867V30.7694V30.752V30.7347V30.7174V30.7V30.6827V30.6653V30.648V30.6307V30.6133V30.596V30.5787V30.5613V30.544V30.5267V30.5093V30.492V30.4747V30.4573V30.44V30.4227V30.4053V30.388V30.3706V30.3533V30.336V30.3186V30.3013V30.284V30.2666V30.2493V30.232V30.2146V30.1973V30.18V30.1626V30.1453V30.128V30.1106V30.0933V30.0759V30.0586V30.0413V30.0239V30.0066V29.9893V29.9719V29.9546V29.9373V29.9199V29.9026V29.8853V29.8679V29.8506V29.8332V29.8159V29.7986V29.7812V29.7639V29.7466V29.7292V29.7119V29.6946V29.6772V29.6599V29.6426V29.6252V29.6079V29.5905V29.5732V29.5559V29.5385V29.5212V29.5039V29.4865V29.4692V29.4519V29.4345V29.4172V29.3999V29.3825V29.3652V29.3478V29.3305V29.3132V29.2958V29.2785V29.2612V29.2438V29.2265V29.2092V29.1918V29.1745V29.1572V29.1398V29.1225V29.1051V29.0878V29.0705V29.0531V29.0358V29.0185V29.0011V28.9838V28.9665V28.9491V28.9318V28.9144V28.8971V28.8798V28.8624V28.8451V28.8278V28.8104V28.7931V28.7758V28.7584V28.7411V28.7237V28.7064V28.6891V28.6717V28.6544V28.6371V28.6197V28.6024V28.5851V28.5677V28.5504V28.533V28.5157V28.4984V28.481V28.4637V28.4464V28.429V28.4117V28.3944V28.377V28.3597V28.3423V28.325V28.3077V28.2903V28.273V28.2557V28.2383V28.221V28.2037V28.1863V28.169V28.1516V28.1343V28.117V28.0996V28.0823V28.065V28.0476V28.0303V28.013V27.9956V27.9783V27.9609V27.9436V27.9263V27.9089V27.8916V27.8743V27.8569V27.8396V27.8223V27.8049V27.7876V27.7702V27.7529V27.7356V27.7182V27.7009V27.6836V27.6662V27.6489V27.6315V27.6142V27.5969V27.5795V27.5622V27.5449V27.5275V27.5102V27.4929V27.4755V27.4582V27.4408V27.4235V27.4062V27.3888V27.3715V27.3542V27.3368V27.3195V27.3021V27.2848V27.2675V27.2501V27.2328V27.2155V27.1981V27.1808V27.1635V27.1461V27.1288V27.1114V27.0941V27.0768V27.0594V27.0421V27.0248V27.0074V26.9901V26.9727V26.9554V26.9381V26.9207V26.9034V26.8861V26.8687V26.8514V26.834V26.8167V26.7994V26.782V26.7647C4.16352 26.2174 3.99392 25.7318 3.68178 25.3804C3.36716 25.0263 2.92201 24.8258 2.41436 24.8329C1.91222 24.84 1.47723 25.0383 1.1708 25.3877C0.867036 25.734 0.707085 26.208 0.706989 26.7428C0.702228 29.721 0.702228 32.6969 0.706989 35.6704L0.706989 35.6706C0.714513 38.917 3.07849 41.2826 6.32051 41.2914Z" fill="white" stroke="white" stroke-width="0.6"/>
</svg>
