<svg width="178" height="178" viewBox="0 0 178 178" fill="none" xmlns="http://www.w3.org/2000/svg">
<path d="M89 177C137.601 177 177 137.601 177 89C177 40.3989 137.601 1 89 1C40.3989 1 1 40.3989 1 89C1 137.601 40.3989 177 89 177Z" fill="white" fill-opacity="0.1" stroke="white" stroke-width="2"/>
<path d="M84.8609 92.9954C84.8609 100.284 84.8609 107.573 84.8609 114.862C84.8609 117.735 82.8347 120.053 79.6959 120.774C79.0415 120.915 78.3693 120.986 77.6948 120.984C75.5237 121.011 73.3507 120.999 71.1777 120.984C67.019 120.979 64 118.39 64 114.803C64 100.268 64 85.7327 64 71.1973C64 67.6063 67.0152 65.0217 71.1719 65.005C73.3681 65.005 75.5643 64.995 77.7605 65.005C81.8322 65.0217 84.8609 67.6163 84.8609 71.1307C84.8738 78.4195 84.8738 85.7077 84.8609 92.9954Z" fill="white"/>
<path d="M114.993 92.9987C114.993 100.287 114.993 107.576 114.993 114.865C114.993 117.736 112.965 120.054 109.827 120.776C109.172 120.916 108.5 120.986 107.825 120.984C105.652 121.011 103.481 120.999 101.308 120.984C97.1497 120.979 94.1326 118.389 94.1326 114.802C94.1326 100.265 94.1326 85.7293 94.1326 71.194C94.1326 67.6062 97.1458 65.0183 101.303 65.005C103.476 64.9983 105.649 64.9983 107.822 65.005C111.98 65.0183 114.984 67.6012 114.988 71.1956C115.002 78.4633 115.004 85.731 114.993 92.9987Z" fill="white"/>
</svg>
