<svg width="178" height="178" viewBox="0 0 178 178" fill="none" xmlns="http://www.w3.org/2000/svg">
<circle cx="89" cy="89" r="88" fill="white" fill-opacity="0.1" stroke="white" stroke-width="2"/>
<path d="M70.8408 117H69.5116C69.4477 116.966 69.3795 116.94 69.3088 116.923C68.5746 116.815 67.8781 116.531 67.2796 116.096C66.681 115.662 66.1985 115.089 65.8736 114.428C65.2353 113.108 64.9387 111.652 65.0105 110.191C65.0105 96.0646 65.0105 81.9372 65.0105 67.8085C65.022 66.7706 65.1671 65.7385 65.4421 64.7369C66.1153 62.2336 68.1004 60.8324 70.5819 61.0161C71.9617 61.1609 73.29 61.6153 74.4658 62.3446C86.9607 69.4361 99.4513 76.5346 111.938 83.6403C112.831 84.1439 113.656 84.7583 114.393 85.4687C116.43 87.4509 116.521 90.0055 114.721 92.1928C113.92 93.1013 112.956 93.8545 111.877 94.4142L76.3431 114.582C74.5953 115.573 72.8907 116.675 70.8408 117Z" fill="white"/>
</svg>
