<svg width="178" height="178" viewBox="0 0 178 178" fill="none" xmlns="http://www.w3.org/2000/svg">
<circle cx="89" cy="89" r="88" fill="#458A1C" stroke="white" stroke-width="2"/>
<path d="M69.5381 115.95L69.4968 115.94L69.4548 115.934C68.8796 115.849 68.3348 115.627 67.8672 115.287C67.4006 114.948 67.0252 114.503 66.7725 113.99C66.2079 112.821 65.9458 111.533 66.0093 110.24L66.0105 110.215V110.191V110.108V110.025V109.942V109.859V109.777V109.694V109.611V109.528V109.446V109.363V109.28V109.197V109.115V109.032V108.949V108.866V108.783V108.701V108.618V108.535V108.452V108.37V108.287V108.204V108.121V108.039V107.956V107.873V107.79V107.707V107.625V107.542V107.459V107.376V107.294V107.211V107.128V107.045V106.962V106.88V106.797V106.714V106.631V106.549V106.466V106.383V106.3V106.218V106.135V106.052V105.969V105.886V105.804V105.721V105.638V105.555V105.473V105.39V105.307V105.224V105.142V105.059V104.976V104.893V104.81V104.728V104.645V104.562V104.479V104.397V104.314V104.231V104.148V104.066V103.983V103.9V103.817V103.734V103.652V103.569V103.486V103.403V103.321V103.238V103.155V103.072V102.989V102.907V102.824V102.741V102.658V102.576V102.493V102.41V102.327V102.245V102.162V102.079V101.996V101.913V101.831V101.748V101.665V101.582V101.5V101.417V101.334V101.251V101.168V101.086V101.003V100.92V100.837V100.755V100.672V100.589V100.506V100.424V100.341V100.258V100.175V100.092V100.01V99.9269V99.8441V99.7613V99.6786V99.5958V99.513V99.4303V99.3475V99.2647V99.1819V99.0992V99.0164V98.9336V98.8508V98.7681V98.6853V98.6025V98.5197V98.437V98.3542V98.2714V98.1887V98.1059V98.0231V97.9403V97.8576V97.7748V97.692V97.6092V97.5265V97.4437V97.3609V97.2781V97.1954V97.1126V97.0298V96.947V96.8643V96.7815V96.6987V96.6159V96.5332V96.4504V96.3676V96.2848V96.2021V96.1193V96.0365V95.9537V95.871V95.7882V95.7054V95.6226V95.5399V95.4571V95.3743V95.2915V95.2088V95.126V95.0432V94.9604V94.8777V94.7949V94.7121V94.6293V94.5466V94.4638V94.381V94.2982V94.2155V94.1327V94.0499V93.9671V93.8844V93.8016V93.7188V93.636V93.5533V93.4705V93.3877V93.3049V93.2222V93.1394V93.0566V92.9738V92.8911V92.8083V92.7255V92.6427V92.56V92.4772V92.3944V92.3116V92.2289V92.1461V92.0633V91.9805V91.8977V91.815V91.7322V91.6494V91.5666V91.4839V91.4011V91.3183V91.2355V91.1528V91.07V90.9872V90.9044V90.8217V90.7389V90.6561V90.5733V90.4905V90.4078V90.325V90.2422V90.1594V90.0767V89.9939V89.9111V89.8283V89.7456V89.6628V89.58V89.4972V89.4144V89.3317V89.2489V89.1661V89.0833V89.0006V88.9178V88.835V88.7522V88.6694V88.5867V88.5039V88.4211V88.3383V88.2556V88.1728V88.09V88.0072V87.9244V87.8417V87.7589V87.6761V87.5933V87.5106V87.4278V87.345V87.2622V87.1794V87.0967V87.0139V86.9311V86.8483V86.7656V86.6828V86.6V86.5172V86.4344V86.3517V86.2689V86.1861V86.1033V86.0205V85.9378V85.855V85.7722V85.6894V85.6067V85.5239V85.4411V85.3583V85.2755V85.1928V85.11V85.0272V84.9444V84.8616V84.7789V84.6961V84.6133V84.5305V84.4477V84.365V84.2822V84.1994V84.1166V84.0339V83.9511V83.8683V83.7855V83.7027V83.62V83.5372V83.4544V83.3716V83.2888V83.2061V83.1233V83.0405V82.9577V82.8749V82.7922V82.7094V82.6266V82.5438V82.461V82.3783V82.2955V82.2127V82.1299V82.0471V81.9644V81.8816V81.7988V81.716V81.6332V81.5505V81.4677V81.3849V81.3021V81.2193V81.1366V81.0538V80.971V80.8882V80.8054V80.7227V80.6399V80.5571V80.4743V80.3915V80.3087V80.226V80.1432V80.0604V79.9776V79.8948V79.8121V79.7293V79.6465V79.5637V79.4809V79.3982V79.3154V79.2326V79.1498V79.067V78.9842V78.9015V78.8187V78.7359V78.6531V78.5703V78.4876V78.4048V78.322V78.2392V78.1564V78.0737V77.9909V77.9081V77.8253V77.7425V77.6597V77.577V77.4942V77.4114V77.3286V77.2458V77.163V77.0803V76.9975V76.9147V76.8319V76.7491V76.6664V76.5836V76.5008V76.418V76.3352V76.2524V76.1697V76.0869V76.0041V75.9213V75.8385V75.7558V75.673V75.5902V75.5074V75.4246V75.3418V75.2591V75.1763V75.0935V75.0107V74.9279V74.8451V74.7624V74.6796V74.5968V74.514V74.4312V74.3484V74.2657V74.1829V74.1001V74.0173V73.9345V73.8517V73.769V73.6862V73.6034V73.5206V73.4378V73.355V73.2723V73.1895V73.1067V73.0239V72.9411V72.8583V72.7756V72.6928V72.61V72.5272V72.4444V72.3616V72.2789V72.1961V72.1133V72.0305V71.9477V71.8649V71.7821V71.6994V71.6166V71.5338V71.451V71.3682V71.2854V71.2027V71.1199V71.0371V70.9543V70.8715V70.7887V70.7059V70.6232V70.5404V70.4576V70.3748V70.292V70.2092V70.1265V70.0437V69.9609V69.8781V69.7953V69.7125V69.6297V69.547V69.4642V69.3814V69.2986V69.2158V69.133V69.0502V68.9675V68.8847V68.8019V68.7191V68.6363V68.5535V68.4708V68.388V68.3052V68.2224V68.1396V68.0568V67.974V67.8913V67.8141C66.0215 66.8639 66.1545 65.9189 66.4064 65.0017L66.4064 65.0017L66.4078 64.9966C66.9578 62.9515 68.508 61.8713 70.493 62.0122C71.7177 62.1432 72.8959 62.5475 73.9387 63.1944L73.9553 63.2047L73.9722 63.2143C86.4668 70.3056 98.957 77.404 111.443 84.5095L111.447 84.5116C112.266 84.9732 113.022 85.5363 113.697 86.187C114.562 87.0291 114.958 87.9323 114.997 88.7989C115.036 89.6653 114.724 90.6105 113.959 91.5444C113.243 92.3541 112.381 93.0262 111.417 93.5265L111.4 93.5352L111.383 93.5445L75.8498 113.712C75.6282 113.838 75.4112 113.963 75.1978 114.085C73.6752 114.961 72.3309 115.734 70.7595 116H69.7123C69.6551 115.98 69.597 115.964 69.5381 115.95Z" fill="white" stroke="white" stroke-width="2"/>
</svg>
