<svg width="31" height="35" viewBox="0 0 31 35" fill="none" xmlns="http://www.w3.org/2000/svg">
<path d="M3.55029 35H2.74235C2.70352 34.9785 2.66206 34.9624 2.61906 34.9519C2.17278 34.8842 1.74942 34.7068 1.38561 34.4351C1.0218 34.1634 0.728483 33.8057 0.531029 33.3927C0.143035 32.5678 -0.037256 31.6576 0.00639704 30.7441C0.00639704 21.9154 0.00639704 13.0858 0.00639704 4.25529C0.0133996 3.60665 0.101548 2.96155 0.268713 2.33558C0.677926 0.770979 1.88458 -0.104769 3.3929 0.0100395C4.23163 0.100572 5.03903 0.384552 5.75374 0.840397C13.3487 5.27255 20.941 9.70915 28.5306 14.1502C29.0739 14.4649 29.5755 14.8489 30.0232 15.2929C31.2614 16.5318 31.3164 18.1285 30.2226 19.4955C29.7358 20.0633 29.1497 20.5341 28.4939 20.8839L6.89482 33.4888C5.83244 34.1082 4.79629 34.7971 3.55029 35Z" fill="white"/>
</svg>
