<svg width="22" height="31" viewBox="0 0 22 31" fill="none" xmlns="http://www.w3.org/2000/svg">
<path d="M0.00695811 11.1484C0.400091 9.90285 1.27681 9.46325 2.53275 9.50162C4.16095 9.55047 5.79263 9.52256 7.4243 9.50162C7.67697 9.49736 7.92133 9.41037 8.12012 9.2539C11.5992 6.37671 15.0782 3.49022 18.5573 0.594421C19.601 -0.260363 20.8465 -0.197564 21.5632 0.810732C21.8146 1.20458 21.9564 1.65873 21.9737 2.12605C22.0329 3.17272 21.9737 4.19149 21.9737 5.22421C21.9737 13.0626 21.9737 20.9046 21.9737 28.75C21.9737 30.0164 21.3127 30.8433 20.189 30.9899C19.8968 31.0191 19.6017 30.985 19.3238 30.8899C19.0459 30.7948 18.7916 30.6409 18.5782 30.4386L10.6529 23.855C9.79702 23.1398 8.94465 22.4176 8.07141 21.7233C7.88549 21.5793 7.65911 21.4975 7.4243 21.4895C5.82394 21.4895 4.22009 21.4337 2.61973 21.4895C1.36379 21.5384 0.452277 21.1406 0 19.916L0.00695811 11.1484Z" fill="white"/>
</svg>
