<svg width="43" height="35" viewBox="0 0 43 35" fill="none" xmlns="http://www.w3.org/2000/svg">
<path d="M0.00695811 13.1484C0.400091 11.9028 1.27681 11.4632 2.53275 11.5016C4.16095 11.5505 5.79263 11.5226 7.4243 11.5016C7.67697 11.4974 7.92133 11.4104 8.12012 11.2539C11.5992 8.37671 15.0782 5.49022 18.5573 2.59442C19.601 1.73964 20.8465 1.80244 21.5632 2.81073C21.8146 3.20458 21.9564 3.65873 21.9737 4.12605C22.0329 5.17272 21.9737 6.19149 21.9737 7.22421C21.9737 15.0626 21.9737 22.9046 21.9737 30.75C21.9737 32.0164 21.3127 32.8433 20.189 32.9899C19.8968 33.0191 19.6017 32.985 19.3238 32.8899C19.0459 32.7948 18.7916 32.6409 18.5782 32.4386L10.6529 25.855C9.79702 25.1398 8.94465 24.4176 8.07141 23.7233C7.88549 23.5793 7.65911 23.4975 7.4243 23.4895C5.82394 23.4895 4.22009 23.4337 2.61973 23.4895C1.36379 23.5384 0.452277 23.1406 0 21.916L0.00695811 13.1484Z" fill="white"/>
<path d="M43 17.0552C42.9012 23.8849 41.0027 29.3641 37.2058 34.1313C36.4253 35.105 35.2698 35.276 34.3871 34.564C33.2623 33.6567 33.0476 32.498 33.8656 31.4231C34.9102 30.0932 35.8171 28.6558 36.5718 27.134C38.2298 23.6749 38.9432 19.8211 38.6366 15.9806C38.33 12.1402 37.0147 8.45618 34.8302 5.31867C34.445 4.75679 34.0087 4.22981 33.5827 3.69935C32.6965 2.59654 32.8226 1.43789 33.9508 0.478165C34.8438 -0.286124 35.9958 -0.118599 36.8411 0.869043C39.841 4.38807 41.829 8.68999 42.5842 13.2966C42.8296 14.7484 42.9148 16.2421 43 17.0552Z" fill="white"/>
<path d="M33.9996 17.184C34.022 20.7438 32.989 24.2155 31.0557 27.0776C30.9169 27.3054 30.7382 27.5007 30.53 27.6524C30.3219 27.8041 30.0883 27.9093 29.8429 27.9617C29.5974 28.0141 29.3449 28.0127 29.0999 27.9578C28.8549 27.9028 28.6223 27.7952 28.4155 27.6413C27.3462 26.85 27.0029 25.5781 27.6432 24.5266C28.4992 23.2363 29.1343 21.7867 29.5178 20.2482C29.9297 18.5335 29.9879 16.7398 29.6883 14.9973C29.3886 13.2549 28.7385 11.6072 27.7851 10.174C27.4904 9.77115 27.2513 9.32312 27.0755 8.84421C26.7884 7.83967 27.3462 6.73396 28.3033 6.21362C28.7092 5.99526 29.1729 5.94225 29.6114 6.06407C30.0498 6.18589 30.4343 6.4746 30.696 6.87849C32.8442 9.79711 34.0106 13.4357 33.9996 17.184Z" fill="white"/>
</svg>
