<svg width="40" height="31" viewBox="0 0 40 31" fill="none" xmlns="http://www.w3.org/2000/svg">
<path d="M34.7698 15.0041L38.8924 10.8911L38.8926 10.8909C39.1278 10.6557 39.2599 10.3367 39.2599 10.0041C39.2599 9.67149 39.1278 9.3525 38.8926 9.11731C38.6574 8.88213 38.3384 8.75 38.0058 8.75C37.6732 8.75 37.3542 8.88213 37.119 9.11731L37.1188 9.11752L33.0058 13.2401L28.8928 9.11752L28.8926 9.11732C28.6574 8.88213 28.3384 8.75 28.0058 8.75C27.6732 8.75 27.3542 8.88213 27.119 9.11732C26.8838 9.3525 26.7517 9.67149 26.7517 10.0041C26.7517 10.3367 26.8838 10.6557 27.119 10.8909L27.1192 10.8911L31.2418 15.0041L27.1197 19.1166C27.1197 19.1167 27.1196 19.1167 27.1196 19.1168C27.0025 19.2329 26.9096 19.3711 26.8461 19.5234C26.7827 19.6757 26.75 19.8391 26.75 20.0041C26.75 20.1691 26.7827 20.3325 26.8461 20.4848C26.9095 20.6368 27.0022 20.7748 27.119 20.8909C27.2351 21.0077 27.3731 21.1004 27.5251 21.1638C27.6774 21.2272 27.8408 21.2599 28.0058 21.2599C28.1708 21.2599 28.3342 21.2272 28.4865 21.1638C28.6387 21.1003 28.7769 21.0074 28.8931 20.8904C28.8931 20.8903 28.8932 20.8902 28.8933 20.8901L33.0058 16.7681L37.1183 20.8901C37.1183 20.8902 37.1184 20.8902 37.1184 20.8903C37.2346 21.0074 37.3728 21.1003 37.5251 21.1638C37.6774 21.2272 37.8408 21.2599 38.0058 21.2599C38.1708 21.2599 38.3342 21.2272 38.4865 21.1638C38.6385 21.1004 38.7765 21.0077 38.8926 20.8909C39.0094 20.7748 39.1021 20.6368 39.1655 20.4848C39.2289 20.3325 39.2616 20.1691 39.2616 20.0041C39.2616 19.8391 39.2289 19.6757 39.1655 19.5234C39.102 19.3711 39.0091 19.2329 38.892 19.1167C38.8919 19.1167 38.8919 19.1166 38.8918 19.1166L34.7698 15.0041Z" fill="white" stroke="white" stroke-width="0.5"/>
<path d="M0.00695811 11.1484C0.400091 9.90285 1.27681 9.46325 2.53275 9.50162C4.16095 9.55047 5.79263 9.52256 7.4243 9.50162C7.67697 9.49736 7.92133 9.41037 8.12012 9.2539C11.5992 6.37671 15.0782 3.49022 18.5573 0.594421C19.601 -0.260363 20.8465 -0.197564 21.5632 0.810732C21.8146 1.20458 21.9564 1.65873 21.9737 2.12605C22.0329 3.17272 21.9737 4.19149 21.9737 5.22421C21.9737 13.0626 21.9737 20.9046 21.9737 28.75C21.9737 30.0164 21.3127 30.8433 20.189 30.9899C19.8968 31.0191 19.6017 30.985 19.3238 30.8899C19.0459 30.7948 18.7916 30.6409 18.5782 30.4386L10.6529 23.855C9.79702 23.1398 8.94465 22.4176 8.07141 21.7233C7.88549 21.5793 7.65911 21.4975 7.4243 21.4895C5.82394 21.4895 4.22009 21.4337 2.61973 21.4895C1.36379 21.5384 0.452277 21.1406 0 19.916L0.00695811 11.1484Z" fill="white"/>
</svg>
